<svg width="120" height="46" viewBox="0 0 120 46" fill="none" xmlns="http://www.w3.org/2000/svg">
<path d="M116 0H4C1.79086 0 0 1.79086 0 4V42C0 44.2091 1.79086 46 4 46H116C118.209 46 120 44.2091 120 42V4C120 1.79086 118.209 0 116 0Z" fill="black"/>
<path d="M39.993 12.223V17.809H41.893C42.2622 17.8382 42.6333 17.785 42.9794 17.6533C43.3255 17.5216 43.6381 17.3146 43.8944 17.0473C44.1508 16.7801 44.3445 16.4592 44.4617 16.1079C44.5789 15.7566 44.6166 15.3836 44.572 15.016C44.6162 14.6489 44.5783 14.2767 44.4613 13.926C44.3442 13.5754 44.1509 13.255 43.8951 12.9881C43.6394 12.7211 43.3276 12.5142 42.9823 12.3823C42.6369 12.2503 42.2666 12.1966 41.898 12.225H39.998L39.993 12.223ZM40.7 12.85H41.85C43.139 12.85 43.85 13.625 43.85 15.022C43.8922 15.3016 43.8709 15.587 43.7877 15.8573C43.7046 16.1275 43.5616 16.3755 43.3695 16.583C43.1774 16.7904 42.9411 16.952 42.6781 17.0557C42.415 17.1594 42.132 17.2025 41.85 17.182H40.7V12.85ZM45.783 17.809H46.467V13.783H45.783V17.809ZM46.125 13.067C46.1807 13.0676 46.2359 13.0573 46.2875 13.0366C46.3392 13.0159 46.3862 12.9852 46.426 12.9463C46.4657 12.9074 46.4974 12.861 46.5192 12.8098C46.541 12.7586 46.5525 12.7036 46.553 12.648C46.5532 12.5927 46.5424 12.5379 46.5214 12.4868C46.5003 12.4357 46.4694 12.3892 46.4304 12.35C46.3914 12.3108 46.3451 12.2797 46.2941 12.2584C46.2431 12.2371 46.1883 12.2261 46.133 12.226H46.125C46.0131 12.226 45.9058 12.2704 45.8266 12.3496C45.7475 12.4287 45.703 12.5361 45.703 12.648C45.703 12.7599 45.7475 12.8672 45.8266 12.9464C45.9058 13.0255 46.0131 13.07 46.125 13.07V13.067ZM47.725 14.894C47.725 15.475 48.098 15.827 48.867 16.01L49.516 16.165C49.983 16.277 50.143 16.443 50.143 16.734C50.143 17.098 49.802 17.334 49.249 17.334C48.696 17.334 48.38 17.113 48.298 16.652H47.609C47.688 17.407 48.285 17.883 49.243 17.883C50.153 17.883 50.825 17.383 50.825 16.683C50.825 16.107 50.525 15.789 49.702 15.591L49.054 15.436C48.599 15.327 48.39 15.136 48.39 14.859C48.39 14.507 48.72 14.259 49.218 14.259C49.32 14.2463 49.4234 14.2539 49.5223 14.2813C49.6213 14.3088 49.7138 14.3556 49.7946 14.419C49.8754 14.4824 49.9428 14.5611 49.993 14.6507C50.0432 14.7403 50.0752 14.839 50.087 14.941H50.738C50.7222 14.7591 50.6699 14.5823 50.5843 14.4211C50.4986 14.2599 50.3813 14.1176 50.2395 14.0027C50.0976 13.8878 49.934 13.8027 49.7585 13.7524C49.5831 13.7021 49.3992 13.6877 49.218 13.71C48.335 13.71 47.718 14.202 47.718 14.891L47.725 14.894ZM53.925 13.713C53.6576 13.7062 53.3935 13.7726 53.161 13.9049C52.9286 14.0373 52.7367 14.2306 52.606 14.464H52.589V13.782H51.941V19.152H52.625V17.152H52.641C52.7709 17.38 52.9607 17.5681 53.1899 17.6959C53.419 17.8237 53.6788 17.8863 53.941 17.877C54.971 17.877 55.674 17.056 55.674 15.794C55.674 14.532 54.964 13.716 53.924 13.716L53.925 13.713ZM53.791 17.286C53.091 17.286 52.621 16.694 52.621 15.795C52.621 14.896 53.092 14.304 53.791 14.304C54.517 14.304 54.973 14.885 54.973 15.795C54.973 16.705 54.517 17.286 53.79 17.286H53.791ZM58.458 17.878C58.7243 17.8826 58.9884 17.8303 59.2327 17.7245C59.4771 17.6188 59.696 17.462 59.8748 17.2648C60.0537 17.0676 60.1884 16.8344 60.2698 16.5809C60.3512 16.3274 60.3776 16.0595 60.347 15.795C60.3728 15.5311 60.3431 15.2648 60.2598 15.0132C60.1765 14.7615 60.0414 14.5301 59.8633 14.3337C59.6852 14.1374 59.468 13.9805 59.2257 13.8731C58.9833 13.7657 58.7211 13.7103 58.456 13.7103C58.191 13.7103 57.9288 13.7657 57.6864 13.8731C57.4441 13.9805 57.2269 14.1374 57.0488 14.3337C56.8707 14.5301 56.7356 14.7615 56.6523 15.0132C56.569 15.2648 56.5393 15.5311 56.565 15.795C56.5345 16.0599 56.5609 16.3282 56.6426 16.582C56.7242 16.8359 56.8592 17.0693 57.0385 17.2666C57.2178 17.464 57.4372 17.6208 57.682 17.7264C57.9269 17.832 58.1915 17.884 58.458 17.879V17.878ZM58.458 17.286C57.735 17.286 57.258 16.744 57.258 15.795C57.258 14.846 57.733 14.304 58.458 14.304C59.183 14.304 59.652 14.846 59.652 15.795C59.652 16.744 59.18 17.286 58.458 17.286ZM61.44 17.808H62.124V15.44C62.11 15.2937 62.1274 15.146 62.1749 15.007C62.2225 14.8679 62.2992 14.7406 62.3999 14.6335C62.5007 14.5265 62.623 14.4422 62.759 14.3862C62.8949 14.3302 63.0411 14.3039 63.188 14.309C63.815 14.309 64.126 14.666 64.126 15.316V17.809H64.809V15.196C64.8308 15.0021 64.8098 14.8058 64.7475 14.6209C64.6851 14.436 64.583 14.267 64.4482 14.1259C64.3135 13.9848 64.1495 13.875 63.9677 13.8041C63.7859 13.7333 63.5907 13.7032 63.396 13.716C63.1339 13.6976 62.872 13.7549 62.6415 13.8812C62.4111 14.0074 62.2217 14.1972 62.096 14.428H62.08V13.786H61.437L61.44 17.808ZM66.119 17.808H66.803V13.783H66.119V17.808ZM66.732 13.202L67.651 12.04H66.901L66.201 13.201H66.732V13.202ZM71.478 13.782H70.767L69.636 17.092H69.62L68.494 13.782H67.775L69.275 17.808H69.975L71.478 13.782ZM73.938 14.297C74.0867 14.2961 74.2339 14.3259 74.3706 14.3844C74.5072 14.4429 74.6304 14.5289 74.7323 14.637C74.8343 14.7452 74.9129 14.8732 74.9633 15.0131C75.0136 15.1529 75.0347 15.3016 75.025 15.45H72.809C72.8071 15.2998 72.8348 15.1507 72.8906 15.0113C72.9465 14.8719 73.0294 14.745 73.1345 14.6377C73.2396 14.5305 73.3649 14.445 73.5031 14.3864C73.6414 14.3277 73.7899 14.297 73.94 14.296L73.938 14.297ZM75.009 16.655C74.9336 16.8578 74.7936 17.0302 74.6105 17.1457C74.4275 17.2612 74.2116 17.3133 73.996 17.294C73.8304 17.2999 73.6654 17.2702 73.5123 17.2069C73.3591 17.1435 73.2213 17.0481 73.1082 16.9269C72.9951 16.8058 72.9094 16.6617 72.8567 16.5046C72.8041 16.3474 72.7858 16.1808 72.803 16.016V15.977H75.732V15.722C75.7652 15.4696 75.7437 15.213 75.6689 14.9697C75.5942 14.7263 75.468 14.5019 75.2988 14.3116C75.1297 14.1214 74.9217 13.9697 74.6888 13.8669C74.4559 13.7641 74.2036 13.7127 73.949 13.716C73.6846 13.717 73.4234 13.774 73.1826 13.8833C72.9418 13.9926 72.7269 14.1517 72.5521 14.3502C72.3772 14.5486 72.2465 14.7818 72.1684 15.0345C72.0903 15.2872 72.0667 15.5535 72.099 15.816C72.0655 16.0797 72.0895 16.3476 72.1696 16.6011C72.2497 16.8546 72.3838 17.0877 72.5627 17.2844C72.7417 17.481 72.9612 17.6364 73.206 17.74C73.4509 17.8435 73.7153 17.8926 73.981 17.884C74.3635 17.9155 74.7448 17.8098 75.0563 17.5856C75.3679 17.3615 75.5894 17.0337 75.681 16.661L75.009 16.655ZM76.861 17.809H77.545V12.223H76.861V17.809ZM80.92 17.809H81.609V15.44C81.595 15.2937 81.6124 15.146 81.6599 15.007C81.7075 14.8679 81.7842 14.7406 81.8849 14.6335C81.9857 14.5265 82.1081 14.4422 82.244 14.3862C82.3799 14.3302 82.5261 14.3039 82.673 14.309C83.301 14.309 83.612 14.666 83.612 15.316V17.809H84.296V15.196C84.3179 15.0015 84.2968 14.8047 84.2341 14.6193C84.1714 14.434 84.0687 14.2647 83.9333 14.1235C83.7979 13.9822 83.6331 13.8725 83.4506 13.8021C83.268 13.7317 83.0722 13.7023 82.877 13.716C82.6149 13.6976 82.353 13.7549 82.1225 13.8812C81.8921 14.0074 81.7027 14.1972 81.577 14.428H81.561V13.786H80.917L80.92 17.809ZM86.911 17.309C86.42 17.309 86.094 17.058 86.094 16.675C86.094 16.292 86.408 16.055 86.958 16.02L88.05 15.954V16.283C88.0441 16.4256 88.0096 16.5656 87.9487 16.6948C87.8877 16.8239 87.8016 16.9395 87.6952 17.0347C87.5889 17.13 87.4645 17.203 87.3295 17.2494C87.1944 17.2958 87.0515 17.3147 86.909 17.305L86.911 17.309ZM86.757 17.882C87.024 17.8837 87.2865 17.8138 87.5172 17.6796C87.748 17.5454 87.9385 17.3518 88.069 17.119H88.085V17.812H88.732V15.026C88.732 14.226 88.132 13.713 87.169 13.713C86.7913 13.6618 86.4086 13.7627 86.1052 13.9935C85.8018 14.2244 85.6025 14.5662 85.551 14.944H86.211C86.2626 14.7404 86.3872 14.5629 86.561 14.4451C86.7348 14.3273 86.9459 14.2775 87.154 14.305C87.719 14.305 88.054 14.599 88.054 15.091V15.428L86.884 15.494C85.941 15.548 85.403 15.982 85.403 16.671C85.4038 16.8425 85.4406 17.0119 85.5112 17.1682C85.5819 17.3245 85.6846 17.4642 85.8129 17.5781C85.9411 17.692 86.0919 17.7776 86.2555 17.8292C86.419 17.8809 86.5916 17.8975 86.762 17.878L86.757 17.882Z" fill="#F7F7F7"/>
<path fill-rule="evenodd" clip-rule="evenodd" d="M28.199 12.125C28.2434 12.698 28.1731 13.274 27.9923 13.8195C27.8115 14.365 27.5238 14.869 27.146 15.302C26.7706 15.7459 26.3014 16.101 25.7723 16.3419C25.2432 16.5827 24.6673 16.7033 24.086 16.695C24.0496 16.1384 24.1265 15.5802 24.3121 15.0542C24.4978 14.5282 24.7883 14.0454 25.166 13.635C25.9574 12.7764 27.0369 12.2389 28.199 12.125ZM31.952 18.888C31.2893 19.2752 30.7369 19.8258 30.3474 20.4872C29.9579 21.1485 29.7443 21.8987 29.727 22.666C29.7408 23.5306 30.0101 24.3718 30.5011 25.0836C30.9921 25.7954 31.6827 26.346 32.486 26.666C32.1633 27.6759 31.6787 28.6266 31.051 29.481C30.206 30.699 29.32 31.889 27.912 31.91C27.361 31.9114 26.8169 31.7873 26.321 31.547C25.7578 31.2813 25.1437 31.1411 24.521 31.136C23.8643 31.1392 23.2162 31.2845 22.621 31.562C22.1542 31.7806 21.6504 31.9091 21.136 31.941C19.796 31.989 18.772 30.641 17.896 29.436C16.144 26.972 14.781 22.492 16.609 19.445C17.0454 18.7059 17.663 18.0902 18.4035 17.6561C19.144 17.222 19.9829 16.9838 20.841 16.964C21.5774 16.9958 22.3005 17.1707 22.97 17.479C23.3745 17.6684 23.8078 17.7891 24.252 17.836C24.6785 17.7847 25.0943 17.6666 25.484 17.486C26.3283 17.092 27.2526 16.8993 28.184 16.923C28.9206 16.9425 29.6431 17.1294 30.2966 17.4697C30.9502 17.81 31.5177 18.2947 31.956 18.887L31.952 18.888ZM75.218 31.169C75.526 30.9062 75.7709 30.5775 75.9346 30.2072C76.0984 29.837 76.1768 29.4346 76.164 29.03C76.1846 28.3741 75.9531 27.7353 75.517 27.245C74.9475 26.679 74.2562 26.2504 73.496 25.992C72.9413 25.8101 72.4186 25.5421 71.947 25.198C71.7922 25.08 71.6673 24.9274 71.5824 24.7523C71.4975 24.5772 71.4548 24.3846 71.458 24.19C71.4558 24.0126 71.4929 23.8369 71.5668 23.6756C71.6406 23.5142 71.7493 23.3713 71.885 23.257C72.2852 22.951 72.7821 22.7991 73.285 22.829C73.9926 22.8172 74.6923 22.98 75.322 23.303L75.749 21.958C74.9931 21.6079 74.1655 21.4404 73.333 21.469C72.3955 21.4206 71.4715 21.7081 70.727 22.28C70.4138 22.5274 70.1622 22.8441 69.9921 23.2052C69.8221 23.5663 69.7382 23.962 69.747 24.361C69.747 25.657 70.6787 26.6417 72.542 27.315C73.081 27.479 73.5808 27.7512 74.011 28.115C74.1544 28.2502 74.2679 28.4139 74.3442 28.5956C74.4205 28.7773 74.4579 28.973 74.454 29.17C74.461 29.3868 74.416 29.6022 74.3228 29.7981C74.2295 29.994 74.0907 30.1647 73.918 30.296C73.479 30.5997 72.9509 30.7476 72.418 30.716C71.5517 30.7232 70.6996 30.4959 69.952 30.058L69.552 31.434C70.3947 31.8987 71.3497 32.1209 72.311 32.076C73.3551 32.1399 74.3866 31.8198 75.211 31.176L75.218 31.169ZM46.834 31.919H48.65L45.206 21.619H43.09L39.663 31.919H41.432L42.38 28.894H45.841L46.834 31.919ZM44.634 24.934L45.534 27.623H42.68L43.564 24.934C43.796 24.0787 43.9647 23.4317 44.07 22.993H44.102C44.3653 24.0117 44.545 24.6587 44.641 24.934H44.634ZM56.405 31.108C56.7705 30.7025 57.0522 30.2286 57.2338 29.7137C57.4154 29.1988 57.4933 28.6531 57.463 28.108C57.5104 27.1151 57.1863 26.14 56.554 25.373C56.2424 25.0237 55.8558 24.7495 55.4232 24.5709C54.9905 24.3924 54.523 24.3141 54.0558 24.342C53.5885 24.3699 53.1337 24.5033 52.7254 24.732C52.317 24.9608 51.9658 25.2791 51.698 25.663H51.666L51.566 24.486H50.066C50.1073 25.3227 50.1283 26.1377 50.129 26.931V34.94H51.841V31.033H51.873C52.1087 31.3878 52.4353 31.6728 52.8188 31.8583C53.2023 32.0437 53.6285 32.1227 54.053 32.087C54.4916 32.0969 54.9275 32.0149 55.3326 31.8463C55.7376 31.6777 56.1029 31.4262 56.405 31.108ZM55.22 26.385C55.5749 26.9122 55.7522 27.539 55.726 28.174C55.7588 28.8474 55.5702 29.5129 55.189 30.069C55.0174 30.303 54.7907 30.491 54.5291 30.6164C54.2674 30.7418 53.9789 30.8008 53.689 30.788C53.4394 30.7969 53.1908 30.7516 52.9604 30.6553C52.7299 30.559 52.5231 30.4139 52.354 30.23C52.0115 29.8581 51.8271 29.3675 51.84 28.862V27.623C51.8461 27.4537 51.873 27.2858 51.92 27.123C52.0143 26.7024 52.251 26.3272 52.59 26.061C52.9136 25.7981 53.3181 25.655 53.735 25.656C54.0234 25.647 54.3095 25.7088 54.5684 25.8361C54.8273 25.9633 55.051 26.1522 55.22 26.386V26.385ZM66.292 28.113C66.3216 28.6574 66.2433 29.2023 66.0616 29.7163C65.8798 30.2303 65.5982 30.7032 65.233 31.108C64.931 31.4262 64.5656 31.6776 64.1606 31.846C63.7555 32.0145 63.3196 32.0962 62.881 32.086C62.4567 32.1218 62.0305 32.0429 61.6472 31.8574C61.2638 31.672 60.9374 31.3869 60.702 31.032H60.67V34.945H58.963V26.936C58.963 26.1427 58.9423 25.3277 58.901 24.491H60.401L60.501 25.668H60.533C60.8007 25.2839 61.1519 24.9653 61.5603 24.7364C61.9687 24.5074 62.4236 24.3739 62.891 24.3459C63.3584 24.3179 63.826 24.3961 64.2588 24.5747C64.6916 24.7533 65.0784 25.0276 65.39 25.377C66.0206 26.1453 66.3437 27.1202 66.297 28.113H66.292ZM64.554 28.173C64.5798 27.538 64.4026 26.9114 64.048 26.384C63.8797 26.1498 63.6564 25.9604 63.3979 25.8326C63.1393 25.7048 62.8533 25.6425 62.565 25.651C62.1481 25.6488 61.7431 25.79 61.418 26.051C61.0789 26.3171 60.8422 26.6923 60.748 27.113C60.7018 27.2759 60.6749 27.4438 60.668 27.613V28.852C60.6556 29.3572 60.8395 29.8475 61.181 30.22C61.3503 30.4038 61.5573 30.5489 61.7879 30.6452C62.0185 30.7415 62.2673 30.7868 62.517 30.778C62.8069 30.7909 63.0955 30.732 63.3571 30.6065C63.6188 30.4811 63.8455 30.293 64.017 30.059C64.3964 29.5059 64.585 28.844 64.554 28.174V28.173ZM81.802 25.729H79.922V29.335C79.922 30.2523 80.2553 30.711 80.922 30.711C81.1769 30.7166 81.4315 30.6907 81.68 30.634L81.728 31.887C81.2992 32.0227 80.8505 32.0846 80.401 32.07C80.1103 32.0859 79.8196 32.0408 79.5474 31.9374C79.2753 31.8341 79.0278 31.6749 78.821 31.47C78.3872 30.8983 78.1841 30.1844 78.252 29.47V25.728H77.132V24.49H78.252V23.13L79.927 22.641V24.491H81.807L81.802 25.729ZM89.273 30.955C89.9606 30.1835 90.3229 29.1757 90.284 28.143C90.3244 27.1434 89.9723 26.1676 89.303 25.424C88.9526 25.0614 88.5292 24.7772 88.0609 24.5901C87.5925 24.4031 87.0899 24.3175 86.586 24.339C86.07 24.3141 85.5546 24.3993 85.0741 24.5889C84.5935 24.7786 84.1589 25.0684 83.799 25.439C83.0954 26.2083 82.7238 27.2242 82.765 28.266C82.7298 29.2731 83.0885 30.2542 83.765 31.001C84.1094 31.3644 84.5279 31.6495 84.9923 31.8367C85.4566 32.0239 85.9559 32.1089 86.456 32.086C86.979 32.1094 87.5009 32.0207 87.9868 31.8258C88.4726 31.6309 88.9112 31.3343 89.273 30.956V30.955ZM88.057 26.434C88.3595 26.9752 88.517 27.5854 88.5144 28.2055C88.5118 28.8255 88.3491 29.4343 88.042 29.973C87.8886 30.2457 87.6658 30.473 87.3961 30.6317C87.1264 30.7904 86.8195 30.8748 86.5067 30.8764C86.1938 30.8781 85.886 30.7968 85.6147 30.6409C85.3434 30.4851 85.1182 30.2601 84.962 29.989C84.6451 29.4571 84.4866 28.8459 84.505 28.227C84.4844 27.5981 84.6429 26.9763 84.962 26.434C85.1155 26.1562 85.3428 25.9262 85.6188 25.7694C85.8948 25.6127 86.2088 25.5354 86.526 25.546C86.8384 25.5386 87.1467 25.6177 87.4169 25.7746C87.6871 25.9315 87.9086 26.16 88.057 26.435V26.434ZM95.828 25.942C95.6507 25.9109 95.471 25.8955 95.291 25.896C95.0229 25.8828 94.7557 25.936 94.5131 26.0508C94.2705 26.1655 94.0599 26.3384 93.9 26.554C93.603 26.984 93.4535 27.4988 93.474 28.021V31.921H91.774L91.79 26.833C91.79 25.977 91.7687 25.1973 91.726 24.494H93.212L93.274 25.916H93.321C93.4846 25.4492 93.7807 25.0402 94.173 24.739C94.5319 24.4796 94.9632 24.3397 95.406 24.339C95.5489 24.3384 95.6916 24.3484 95.833 24.369L95.828 25.942ZM103.393 28.601C103.438 28.3543 103.459 28.1038 103.455 27.853C103.483 27.0219 103.246 26.2034 102.778 25.516C102.493 25.1221 102.113 24.8064 101.674 24.5981C101.235 24.3897 100.75 24.2955 100.265 24.324C99.7563 24.3031 99.2495 24.3997 98.7842 24.6065C98.3189 24.8132 97.9075 25.1244 97.582 25.516C96.9338 26.3018 96.5961 27.298 96.633 28.316C96.6084 28.8159 96.686 29.3155 96.861 29.7844C97.036 30.2533 97.3048 30.6815 97.651 31.043C98.0252 31.3922 98.4662 31.6622 98.9473 31.8368C99.4285 32.0114 99.9399 32.087 100.451 32.059C101.331 32.0795 102.206 31.9235 103.024 31.6L102.757 30.455C102.094 30.6961 101.393 30.815 100.687 30.806C100.086 30.8325 99.4939 30.6491 99.013 30.287C98.7713 30.0801 98.5791 29.8215 98.4507 29.5304C98.3223 29.2393 98.2609 28.923 98.271 28.605L103.393 28.601ZM101.493 26.156C101.731 26.535 101.847 26.978 101.825 27.425H98.272C98.3108 26.9576 98.4845 26.5116 98.772 26.141C98.9275 25.9279 99.1321 25.7554 99.3686 25.6384C99.605 25.5214 99.8662 25.4633 100.13 25.469C100.399 25.4504 100.667 25.5045 100.908 25.6256C101.148 25.7466 101.352 25.9302 101.497 26.157L101.493 26.156Z" fill="#F7F7F7"/>
</svg>
