<svg width="24" height="24" viewBox="0 0 24 24" fill="none" xmlns="http://www.w3.org/2000/svg">
<path d="M18.7 4.60001L12 11.3L5.30001 4.60001C5.10001 4.40001 4.80001 4.40001 4.60001 4.60001C4.40001 4.80001 4.40001 5.10001 4.60001 5.30001L11.3 12L4.60001 18.7C4.40001 18.9 4.40001 19.2 4.60001 19.4C4.80001 19.6 5.10001 19.6 5.30001 19.4L12 12.7L18.7 19.4C18.9 19.6 19.2 19.6 19.4 19.4C19.6 19.2 19.6 18.9 19.4 18.7L12.7 12L19.4 5.30001C19.6 5.10001 19.6 4.80001 19.4 4.60001C19.2 4.40001 18.9 4.40001 18.7 4.60001Z" fill="#333333"/>
</svg>
