<svg width="120" height="46" viewBox="0 0 120 46" fill="none" xmlns="http://www.w3.org/2000/svg">
<path d="M116 0H4C1.79086 0 0 1.79086 0 4V42C0 44.2091 1.79086 46 4 46H116C118.209 46 120 44.2091 120 42V4C120 1.79086 118.209 0 116 0Z" fill="black"/>
<path d="M59.742 24.411C59.0742 24.4306 58.4269 24.6466 57.8811 25.032C57.3353 25.4173 56.9151 25.9549 56.673 26.5777C56.4309 27.2004 56.3777 27.8807 56.52 28.5335C56.6622 29.1863 56.9937 29.7827 57.4729 30.2483C57.9522 30.7138 58.558 31.0278 59.2146 31.1511C59.8713 31.2744 60.5497 31.2015 61.1652 30.9415C61.7806 30.6815 62.3059 30.2459 62.6752 29.6891C63.0446 29.1324 63.2417 28.4791 63.242 27.811C63.2422 27.356 63.1511 26.9055 62.974 26.4863C62.7969 26.0672 62.5375 25.6878 62.2111 25.3708C61.8847 25.0537 61.498 24.8054 61.0739 24.6405C60.6497 24.4757 60.1968 24.3976 59.742 24.411ZM59.742 29.875C59.3293 29.8956 58.9199 29.792 58.5666 29.5776C58.2134 29.3632 57.9325 29.0479 57.7602 28.6723C57.5879 28.2967 57.5322 27.8781 57.6002 27.4705C57.6682 27.0629 57.8567 26.685 58.1416 26.3857C58.4264 26.0863 58.7945 25.8792 59.1982 25.7911C59.6019 25.703 60.0228 25.7379 60.4065 25.8913C60.7901 26.0447 61.119 26.3096 61.3507 26.6518C61.5823 26.994 61.7061 27.3978 61.706 27.811C61.7166 28.0766 61.6738 28.3416 61.5801 28.5903C61.4865 28.8391 61.3438 29.0665 61.1607 29.2591C60.9776 29.4518 60.7577 29.6057 60.514 29.7118C60.2703 29.818 60.0078 29.8741 59.742 29.877V29.875ZM52.111 24.411C51.4432 24.4306 50.7959 24.6466 50.2501 25.032C49.7043 25.4173 49.2841 25.9549 49.042 26.5777C48.7999 27.2004 48.7467 27.8807 48.889 28.5335C49.0312 29.1863 49.3627 29.7827 49.8419 30.2483C50.3212 30.7138 50.927 31.0278 51.5836 31.1511C52.2403 31.2744 52.9187 31.2015 53.5342 30.9415C54.1496 30.6815 54.6749 30.2459 55.0442 29.6891C55.4136 29.1324 55.6107 28.4791 55.611 27.811C55.6112 27.356 55.5201 26.9055 55.343 26.4863C55.1659 26.0672 54.9065 25.6878 54.5801 25.3708C54.2537 25.0537 53.867 24.8054 53.4429 24.6405C53.0187 24.4757 52.5658 24.3976 52.111 24.411ZM52.111 29.875C51.6983 29.8954 51.289 29.7916 50.9359 29.5771C50.5827 29.3626 50.302 29.0472 50.1299 28.6716C49.9578 28.2959 49.9022 27.8773 49.9703 27.4698C50.0384 27.0623 50.2271 26.6845 50.512 26.3853C50.7969 26.086 51.1649 25.879 51.5686 25.791C51.9723 25.7029 52.3931 25.7379 52.7767 25.8914C53.1603 26.0448 53.4892 26.3097 53.7208 26.6519C53.9524 26.9941 54.0761 27.3978 54.076 27.811C54.0866 28.0767 54.0438 28.3417 53.95 28.5905C53.8563 28.8394 53.7136 29.0668 53.5304 29.2595C53.3471 29.4521 53.1271 29.6061 52.8833 29.7121C52.6395 29.8182 52.3769 29.8743 52.111 29.877V29.875ZM43.04 25.461V26.901H46.577C46.5241 27.5795 46.242 28.2199 45.777 28.717C45.4198 29.0716 44.9932 29.3485 44.5239 29.5304C44.0547 29.7123 43.5529 29.7952 43.05 29.774C42.5405 29.7822 42.0344 29.6889 41.5612 29.4996C41.088 29.3103 40.6573 29.0287 40.294 28.6713C39.9308 28.3139 39.6423 27.8877 39.4454 27.4177C39.2484 26.9476 39.147 26.4431 39.147 25.9335C39.147 25.4239 39.2484 24.9193 39.4454 24.4493C39.6423 23.9793 39.9308 23.5531 40.294 23.1957C40.6573 22.8382 41.088 22.5567 41.5612 22.3673C42.0344 22.178 42.5405 22.0848 43.05 22.093C44.0377 22.0766 44.9927 22.4469 45.711 23.125L46.751 22.109C45.7562 21.1524 44.4229 20.6289 43.043 20.653C42.3313 20.6253 41.6213 20.7416 40.9555 20.9948C40.2898 21.2481 39.6821 21.6332 39.1687 22.1269C38.6554 22.6207 38.247 23.213 37.968 23.8684C37.6891 24.5238 37.5453 25.2287 37.5453 25.941C37.5453 26.6533 37.6891 27.3582 37.968 28.0136C38.247 28.669 38.6554 29.2613 39.1687 29.755C39.6821 30.2488 40.2898 30.6339 40.9555 30.8871C41.6213 31.1404 42.3313 31.2567 43.043 31.229C43.7405 31.2595 44.4367 31.1435 45.0867 30.8886C45.7367 30.6337 46.3261 30.2455 46.817 29.749C47.2401 29.2971 47.57 28.7663 47.7879 28.1868C48.0059 27.6074 48.1075 26.9907 48.087 26.372C48.0918 26.07 48.0647 25.7683 48.006 25.472H43.036L43.04 25.461ZM80.14 26.58C79.925 25.957 79.5239 25.4151 78.9909 25.0274C78.458 24.6396 77.8189 24.4248 77.16 24.412C76.7181 24.4092 76.2803 24.4961 75.873 24.6675C75.4657 24.8388 75.0974 25.0911 74.7905 25.409C74.4835 25.7269 74.2443 26.1037 74.0873 26.5168C73.9303 26.9299 73.8587 27.3705 73.877 27.812C73.8724 28.2644 73.9591 28.7131 74.1318 29.1313C74.3045 29.5495 74.5597 29.9286 74.8822 30.246C75.2047 30.5634 75.5878 30.8125 76.0087 30.9784C76.4297 31.1444 76.8797 31.2238 77.332 31.212C77.9013 31.219 78.4637 31.0858 78.9694 30.8243C79.4751 30.5627 79.9087 30.1807 80.232 29.712L79.045 28.936C78.8649 29.2272 78.6128 29.4671 78.3128 29.6323C78.0129 29.7975 77.6754 29.8825 77.333 29.879C76.9814 29.8939 76.6333 29.8038 76.333 29.6202C76.0328 29.4366 75.794 29.1678 75.647 28.848L80.305 26.967L80.14 26.58ZM75.387 27.716C75.3736 27.4658 75.4102 27.2154 75.4947 26.9794C75.5792 26.7435 75.71 26.5269 75.8793 26.3421C76.0486 26.1574 76.253 26.0082 76.4807 25.9035C76.7083 25.7987 76.9546 25.7404 77.205 25.732C77.4671 25.714 77.7288 25.7724 77.9583 25.9002C78.1878 26.028 78.3753 26.2197 78.498 26.452L75.387 27.716ZM71.604 31.011H73.135V21.011H71.604V31.011ZM69.104 25.17H69.047C68.8118 24.9216 68.527 24.7255 68.211 24.5946C67.895 24.4636 67.5549 24.4007 67.213 24.41C66.3102 24.41 65.4444 24.7686 64.806 25.407C64.1676 26.0454 63.809 26.9112 63.809 27.814C63.809 28.7168 64.1676 29.5826 64.806 30.221C65.4444 30.8594 66.3102 31.218 67.213 31.218C67.5564 31.2274 67.8979 31.1631 68.2143 31.0292C68.5307 30.8953 68.8147 30.6951 69.047 30.442H69.087V30.93C69.1232 31.1889 69.1013 31.4526 69.0228 31.702C68.9444 31.9513 68.8113 32.1801 68.6334 32.3716C68.4555 32.5632 68.2371 32.7127 67.9942 32.8092C67.7513 32.9058 67.4899 32.9471 67.229 32.93C66.8505 32.9233 66.4824 32.8051 66.1708 32.5903C65.8592 32.3754 65.6178 32.0734 65.477 31.722L64.142 32.266C64.4008 32.8681 64.8321 33.3801 65.3815 33.7374C65.9308 34.0947 66.5737 34.2815 67.229 34.274C69.023 34.274 70.536 33.242 70.536 30.73V24.621H69.087V25.173L69.104 25.17ZM67.343 29.87C66.8189 29.8373 66.3269 29.6061 65.9673 29.2233C65.6076 28.8406 65.4074 28.3352 65.4074 27.81C65.4074 27.2848 65.6076 26.7794 65.9673 26.3967C66.3269 26.0139 66.8189 25.7827 67.343 25.75C67.6026 25.7597 67.8575 25.8215 68.0927 25.9317C68.3279 26.042 68.5385 26.1984 68.7119 26.3918C68.8854 26.5851 69.0181 26.8113 69.1023 27.0571C69.1865 27.3028 69.2204 27.5629 69.202 27.822C69.2208 28.0799 69.187 28.3388 69.1027 28.5833C69.0184 28.8277 68.8854 29.0524 68.7116 29.2439C68.5379 29.4354 68.3271 29.5896 68.092 29.6972C67.857 29.8049 67.6025 29.8636 67.344 29.87H67.343ZM87.307 21.011H83.647V31.011H85.178V27.221H87.314C87.7417 27.2531 88.1714 27.1965 88.5761 27.0548C88.9809 26.913 89.352 26.6892 89.6663 26.3974C89.9805 26.1055 90.2311 25.7519 90.4023 25.3587C90.5734 24.9654 90.6615 24.5411 90.6611 24.1122C90.6606 23.6833 90.5715 23.2592 90.3994 22.8664C90.2274 22.4735 89.976 22.1205 89.6611 21.8293C89.3462 21.5381 88.9746 21.3152 88.5695 21.1744C88.1644 21.0335 87.7346 20.9779 87.307 21.011ZM87.34 25.827H85.17V22.396H87.339C87.5705 22.3863 87.8015 22.4235 88.0182 22.5054C88.2349 22.5873 88.4328 22.7122 88.5999 22.8726C88.7671 23.0329 88.9002 23.2254 88.9911 23.4385C89.0819 23.6516 89.1288 23.8808 89.1288 24.1125C89.1288 24.3441 89.0819 24.5734 88.9911 24.7865C88.9002 24.9996 88.7671 25.1921 88.5999 25.3524C88.4328 25.5128 88.2349 25.6376 88.0182 25.7195C87.8015 25.8014 87.5705 25.8387 87.339 25.829L87.34 25.827ZM96.788 24.394C96.2349 24.3609 95.6839 24.4874 95.2007 24.7585C94.7174 25.0296 94.3222 25.4338 94.062 25.923L95.421 26.475C95.601 26.2049 95.8563 25.9934 96.1552 25.8669C96.4541 25.7403 96.7836 25.7041 97.1028 25.7629C97.4221 25.8216 97.7171 25.9727 97.9514 26.1974C98.1857 26.422 98.3489 26.7105 98.421 27.027V27.127C97.9261 26.8725 97.3775 26.7405 96.821 26.742C95.356 26.742 93.873 27.527 93.873 28.99C93.8911 29.3025 93.9717 29.6083 94.1099 29.8892C94.2481 30.1701 94.4412 30.4205 94.6778 30.6256C94.9143 30.8306 95.1896 30.9862 95.4873 31.0832C95.785 31.1801 96.0991 31.2164 96.411 31.19C96.793 31.214 97.1745 31.1363 97.5167 30.9649C97.8589 30.7934 98.1496 30.5343 98.359 30.214H98.408V30.99H99.887V27.165C99.887 25.389 98.531 24.397 96.787 24.397L96.788 24.394ZM96.6 29.875C96.1 29.875 95.4 29.627 95.4 29.027C95.4 28.259 96.268 27.963 97.021 27.963C97.5065 27.95 97.9869 28.0659 98.413 28.299C98.3512 28.7363 98.1337 29.1366 97.8004 29.4265C97.4672 29.7163 97.0407 29.8763 96.599 29.877L96.6 29.875ZM105.262 24.611L103.51 28.948H103.461L101.642 24.611H99.996L102.723 30.675L101.167 34.043H102.767L106.967 24.611H105.262ZM91.507 31.011H93.038V21.011H91.507V31.011Z" fill="#F7F7F7"/>
<path d="M23.276 22.012L13.939 12.672C14.1789 12.6375 14.4232 12.6896 14.628 12.819L26.01 19.283L23.276 22.012ZM22.723 22.569L13.386 13.24C13.3371 13.3674 13.3173 13.504 13.328 13.64V20.555C13.328 24.015 13.328 27.235 13.328 31.43C13.3194 31.5929 13.3425 31.756 13.396 31.91L22.723 22.57V22.569ZM13.9 32.469L23.285 23.139L26.009 25.866L14.55 32.366C14.3486 32.4649 14.1218 32.4998 13.9 32.466V32.469ZM26.728 19.665L23.828 22.555L26.707 25.455L30.528 23.275C30.668 23.2102 30.7879 23.1086 30.8748 22.9811C30.9618 22.8537 31.0127 22.7051 31.022 22.551C31.0134 22.3997 30.9624 22.2538 30.8749 22.1301C30.7873 22.0063 30.6668 21.9096 30.527 21.851L26.728 19.665Z" fill="white"/>
<path d="M38.147 16.558V11.758H39.654C39.9847 11.7426 40.3151 11.7934 40.626 11.9074C40.9368 12.0214 41.2217 12.1964 41.464 12.422C41.6901 12.6494 41.867 12.9209 41.9838 13.2195C42.1006 13.5181 42.1548 13.8376 42.143 14.158C42.1545 14.4785 42.1 14.798 41.9831 15.0966C41.8661 15.3952 41.6891 15.6666 41.463 15.894C41.2187 16.1191 40.9323 16.2936 40.6203 16.4075C40.3083 16.5215 39.9768 16.5726 39.645 16.558H38.147ZM38.774 15.965H39.642C40.138 15.9897 40.6237 15.8171 40.993 15.485C41.1654 15.3097 41.2991 15.1001 41.3852 14.8697C41.4714 14.6394 41.5081 14.3935 41.493 14.148C41.5072 13.904 41.4701 13.6597 41.384 13.4309C41.2978 13.2022 41.1646 12.994 40.993 12.82C40.8105 12.655 40.5972 12.5276 40.3654 12.4452C40.1335 12.3629 39.8877 12.3271 39.642 12.34H38.774V15.964V15.965ZM43.022 16.557V11.757H43.653V16.557H43.022ZM46.158 16.657C45.7816 16.6524 45.4158 16.5323 45.11 16.313C44.7715 16.0912 44.531 15.7479 44.438 15.354L45.011 15.13C45.0733 15.3914 45.2203 15.6248 45.429 15.794C45.6264 15.9719 45.8833 16.0693 46.149 16.067C46.3982 16.071 46.6427 15.998 46.849 15.858C46.9437 15.7953 47.0209 15.7096 47.0734 15.6088C47.1259 15.508 47.1519 15.3956 47.149 15.282C47.154 15.1625 47.1292 15.0436 47.0768 14.9361C47.0244 14.8286 46.9461 14.7358 46.849 14.666C46.565 14.4803 46.2526 14.3425 45.924 14.258C45.559 14.1608 45.2203 13.9832 44.933 13.738C44.823 13.6329 44.7363 13.5059 44.6786 13.3651C44.6209 13.2244 44.5934 13.0731 44.598 12.921C44.598 12.7496 44.6354 12.5803 44.7076 12.4249C44.7798 12.2694 44.885 12.1316 45.016 12.021C45.3159 11.7581 45.7055 11.6207 46.104 11.637C46.4663 11.6209 46.8236 11.7265 47.119 11.937C47.3537 12.0997 47.5314 12.3319 47.627 12.601L47.054 12.833C47.0032 12.6626 46.8977 12.5136 46.754 12.409C46.5721 12.2741 46.3492 12.2063 46.123 12.217C45.8986 12.2089 45.6785 12.2797 45.501 12.417C45.4211 12.4734 45.3562 12.5484 45.312 12.6355C45.2677 12.7227 45.2454 12.8193 45.247 12.917C45.2488 13.0061 45.2711 13.0936 45.3122 13.1727C45.3533 13.2518 45.4121 13.3203 45.484 13.373C45.6974 13.5205 45.934 13.6314 46.184 13.701C46.3896 13.7654 46.5919 13.8402 46.79 13.925C46.9637 14.0027 47.1284 14.0993 47.281 14.213C47.442 14.3253 47.5717 14.4767 47.658 14.653C47.7457 14.8465 47.7904 15.0566 47.789 15.269C47.7923 15.4864 47.7414 15.7012 47.641 15.894C47.5499 16.0696 47.4144 16.2182 47.248 16.325C47.0856 16.4315 46.9093 16.515 46.724 16.573C46.5423 16.6313 46.3528 16.6613 46.162 16.662L46.158 16.657ZM49.335 16.557H48.704V11.757H50.374C50.7732 11.7501 51.1599 11.896 51.455 12.165C51.5992 12.2938 51.7145 12.4516 51.7935 12.6281C51.8725 12.8045 51.9133 12.9957 51.9133 13.189C51.9133 13.3824 51.8725 13.5735 51.7935 13.75C51.7145 13.9264 51.5992 14.0842 51.455 14.213C51.16 14.4821 50.7732 14.6281 50.374 14.621H49.334V16.557H49.335ZM49.335 14.021H50.394C50.5132 14.0255 50.632 14.0043 50.7423 13.9587C50.8525 13.9132 50.9517 13.8444 51.033 13.757C51.1865 13.6042 51.2732 13.3967 51.274 13.18C51.2702 12.9651 51.1856 12.7594 51.037 12.604C50.9557 12.5167 50.8565 12.4479 50.7463 12.4023C50.636 12.3568 50.5172 12.3355 50.398 12.34H49.338V14.021H49.335ZM56.727 15.933C56.4367 16.2357 56.0757 16.4615 55.6765 16.5901C55.2773 16.7187 54.8524 16.746 54.44 16.6695C54.0276 16.5931 53.6407 16.4154 53.314 16.1523C52.9874 15.8893 52.7313 15.5491 52.5687 15.1625C52.4061 14.7759 52.3422 14.3549 52.3828 13.9375C52.4233 13.52 52.5669 13.1192 52.8008 12.7711C53.0347 12.4229 53.3514 12.1384 53.7226 11.9431C54.0937 11.7477 54.5076 11.6477 54.927 11.652C55.2583 11.6463 55.5874 11.7068 55.8949 11.83C56.2025 11.9533 56.4824 12.1367 56.7181 12.3696C56.9538 12.6025 57.1405 12.8802 57.2674 13.1862C57.3943 13.4923 57.4588 13.8207 57.457 14.152C57.4637 14.4822 57.4024 14.8103 57.277 15.1158C57.1516 15.4213 56.9647 15.6978 56.728 15.928L56.727 15.933ZM53.592 15.533C53.9511 15.8771 54.4292 16.0691 54.9265 16.0691C55.4238 16.0691 55.9019 15.8771 56.261 15.533C56.4417 15.3534 56.5836 15.1386 56.678 14.9019C56.7725 14.6652 56.8174 14.4117 56.81 14.157C56.8109 13.7844 56.7022 13.4197 56.4974 13.1083C56.2926 12.7969 56.0008 12.5527 55.6582 12.4059C55.3157 12.2592 54.9375 12.2164 54.5709 12.2829C54.2042 12.3494 53.8651 12.5223 53.596 12.78C53.2437 13.1516 53.0474 13.6441 53.0474 14.156C53.0474 14.668 53.2437 15.1605 53.596 15.532L53.592 15.533ZM58.34 16.557V11.757H59.11L61.5 15.494H61.524L61.5 14.566V11.757H62.131V16.557H61.476L58.976 12.644H58.952L58.976 13.572V16.556L58.34 16.557ZM63.253 16.557V11.757H63.884V16.557H63.253ZM63.843 11.38H63.294L63.654 10.525H64.342L63.842 11.381L63.843 11.38ZM66.225 16.557L64.497 11.757H65.197L66.54 15.657H66.564L67.972 11.757H68.672L66.886 16.557H66.232H66.225ZM72.25 12.349H70.018V13.869H72.032V14.445H70.018V15.965H72.254V16.557H69.389V11.757H72.254L72.25 12.349ZM73.234 16.557V11.757H73.864V15.965H75.993V16.557H73.234ZM78.434 16.557V11.757H79.204L81.594 15.494H81.618L81.594 14.566V11.757H82.225V16.557H81.574L79.074 12.644H79.05L79.074 13.572V16.556L78.434 16.557ZM87.366 15.933C87.0757 16.2357 86.7147 16.4615 86.3155 16.5901C85.9163 16.7187 85.4914 16.746 85.079 16.6695C84.6666 16.5931 84.2797 16.4154 83.953 16.1523C83.6264 15.8893 83.3703 15.5491 83.2077 15.1625C83.0451 14.7759 82.9813 14.3549 83.0218 13.9375C83.0623 13.52 83.2059 13.1192 83.4398 12.7711C83.6737 12.4229 83.9904 12.1384 84.3616 11.9431C84.7327 11.7477 85.1466 11.6477 85.566 11.652C86.0633 11.6485 86.5506 11.7927 86.9659 12.0664C87.3811 12.3401 87.7058 12.731 87.8986 13.1895C88.0914 13.648 88.1437 14.1534 88.0489 14.6417C87.9541 15.1299 87.7164 15.579 87.366 15.932V15.933ZM84.231 15.533C84.5901 15.8771 85.0682 16.0691 85.5655 16.0691C86.0628 16.0691 86.5409 15.8771 86.9 15.533C87.0807 15.3534 87.2226 15.1386 87.317 14.9019C87.4115 14.6652 87.4564 14.4117 87.449 14.157C87.4505 13.7838 87.3419 13.4183 87.137 13.1064C86.9321 12.7944 86.6398 12.5497 86.2966 12.4028C85.9535 12.2559 85.5747 12.2134 85.2075 12.2804C84.8403 12.3475 84.501 12.5213 84.232 12.78C83.8797 13.1516 83.6834 13.6441 83.6834 14.156C83.6834 14.668 83.8797 15.1605 84.232 15.532L84.231 15.533Z" fill="#F7F7F7"/>
</svg>
