<svg width="148" height="124" viewBox="0 0 148 124" fill="none" xmlns="http://www.w3.org/2000/svg">
<path d="M124.029 36.6722C123.611 36.6722 102.253 36.6722 102.253 36.6722V30.6935C102.253 25.3042 98.0739 21.2202 92.7659 21.2202C92.7659 21.2202 89.3805 21.2202 83.989 21.2202C83.989 16.3783 83.989 12.7153 83.989 11.9995C83.989 9.17857 84.4487 8.92595 88.4611 8.92595C90.8434 8.92595 92.8913 6.90498 92.8913 4.46297C92.8913 2.06307 91.0105 0.084207 88.67 0C88.67 0 83.4456 0 79.5587 0C76.5077 0 75.1284 2.61042 75.1284 4.46297C75.1284 5.01032 75.1284 13.3468 75.1284 21.2623C69.7787 21.2623 65.9335 21.2623 65.9335 21.2623C59.7896 21.2623 56.5296 26.1042 56.5296 30.7356V36.7564C56.5296 36.7564 35.5067 36.7564 35.0888 36.7564C26.7716 36.7564 19.8754 42.5246 17.911 50.2295H15.0272V45.7665C15.0272 43.2824 13.021 41.3036 10.5969 41.3036C8.13099 41.3036 6.16663 43.3245 6.16663 45.7665V63.7026C6.16663 66.1867 8.17278 68.1656 10.5969 68.1656C13.0628 68.1656 15.0272 66.1446 15.0272 63.7026V59.2397H17.9528C19.959 66.9446 26.8552 72.6286 35.0888 72.6286C35.2142 72.6286 123.903 72.6286 124.029 72.6286C133.85 72.6286 141.833 64.5868 141.833 54.6925C141.833 44.7139 133.85 36.6722 124.029 36.6722Z" fill="white"/>
<path d="M27.3108 86.1317L17.3375 115.502H9.84703L0 86.1317H7.32215L10.8991 97.8379C11.5303 99.9209 12.1194 101.921 12.5823 103.879C13.0452 105.795 13.3398 107.211 13.5081 108.086L13.7185 109.419C14.1814 106.42 15.1493 102.545 16.58 97.8379L20.1149 86.1317H27.3108Z" fill="white"/>
<path d="M30.467 89.5894C29.7516 88.8812 29.3729 88.0063 29.3729 86.9648C29.3729 85.965 29.7516 85.0901 30.467 84.3403C31.1824 83.6321 32.0661 83.2571 33.1181 83.2571C34.128 83.2571 35.0118 83.6321 35.7692 84.3403C36.4846 85.0485 36.8633 85.9233 36.8633 86.9648C36.8633 87.9646 36.4846 88.8395 35.7692 89.5894C35.0538 90.2976 34.1701 90.6725 33.1181 90.6725C32.1081 90.6725 31.2244 90.3392 30.467 89.5894ZM29.9199 115.46V93.3804H36.3584V115.46H29.9199Z" fill="white"/>
<path d="M41.0293 100.171V94.4635C42.7967 93.4637 45.3215 92.9638 48.646 92.9638C51.8021 92.9638 54.1586 93.6304 55.7156 95.0051C57.2726 96.3382 58.0301 98.4628 58.0301 101.296V115.46H51.7179V112.752C50.7921 114.627 48.9405 115.585 46.1632 115.585C43.9749 115.585 42.2917 114.96 41.0713 113.752C39.851 112.544 39.2618 111.002 39.2618 109.169C39.2618 107.045 40.0614 105.42 41.6184 104.212C43.1754 103.045 45.532 102.462 48.6039 102.462H51.4233V100.921C51.4233 99.0461 50.1609 98.1296 47.6781 98.1296C45.3215 98.1712 43.0912 98.8378 41.0293 100.171ZM51.4654 106.42H49.4034C48.3093 106.42 47.4677 106.67 46.8786 107.128C46.2894 107.586 45.9948 108.169 45.9948 108.919C45.9948 110.419 46.8786 111.127 48.6039 111.127C49.5297 111.127 50.203 110.836 50.708 110.294C51.2129 109.753 51.4654 109.003 51.4654 108.045V106.42Z" fill="white"/>
<path d="M76.1252 93.3804H82.5215V113.335C82.5215 116.876 81.4695 119.542 79.3233 121.334C77.1772 123.125 74.484 124 71.2858 124C68.1297 124 65.3944 123.458 63.0379 122.334V115.835C65.0999 117.46 67.6247 118.293 70.6125 118.293C72.5482 118.293 73.9369 117.876 74.8206 117.085C75.7043 116.251 76.1252 115.002 76.1252 113.252V111.752C74.8206 113.71 72.8007 114.71 69.9813 114.71C67.4985 114.71 65.3944 113.793 63.627 112.002C61.8596 110.211 60.9759 107.545 60.9759 104.004C60.9759 100.879 61.8175 98.2545 63.5428 96.2132C65.2682 94.1719 67.4985 93.1304 70.2759 93.1304C72.927 93.1304 74.8627 94.1719 76.1252 96.2549V93.3804ZM71.7487 109.669C73.1374 109.669 74.1894 109.169 74.989 108.128C75.7464 107.086 76.1672 105.837 76.1672 104.42C76.1672 100.462 74.6944 98.5045 71.7908 98.5045C70.4863 98.5045 69.4763 99.0044 68.7609 100.004C68.0456 101.004 67.6668 102.337 67.6668 104.087C67.6668 105.92 68.0035 107.295 68.7188 108.253C69.4342 109.211 70.4021 109.669 71.7487 109.669Z" fill="white"/>
<path d="M104.025 108.878V114.21C102.51 115.21 100.153 115.71 97.0394 115.71C93.3783 115.71 90.5168 114.668 88.4969 112.544C86.477 110.419 85.4249 107.711 85.4249 104.42C85.4249 100.921 86.4349 98.1712 88.4127 96.1716C90.3905 94.1719 92.8312 93.1721 95.7348 93.1721C98.7226 93.1721 101.079 94.0469 102.804 95.755C104.53 97.463 105.414 100.046 105.414 103.504C105.414 104.17 105.287 105.337 105.077 106.961H91.9475C92.3683 108.169 93.1679 109.128 94.2199 109.794C95.314 110.461 96.6185 110.794 98.1335 110.794C100.364 110.752 102.342 110.127 104.025 108.878ZM99.3959 102.42V101.879C99.1855 99.296 98.0493 98.0046 95.9453 98.0046C94.9353 98.0046 94.0095 98.3795 93.21 99.1294C92.4104 99.8793 91.9054 100.962 91.6109 102.42H99.3959Z" fill="white"/>
<path d="M115.092 93.3804V97.1297C115.64 95.9216 116.523 94.9634 117.659 94.2136C118.838 93.5054 120.184 93.1304 121.825 93.1304C124.098 93.1304 125.907 93.797 127.212 95.1717C128.516 96.5048 129.148 98.5045 129.148 101.129V115.46H122.709V102.295C122.709 101.004 122.415 100.004 121.783 99.296C121.152 98.6295 120.311 98.2545 119.174 98.2545C117.996 98.2545 117.028 98.7128 116.229 99.6293C115.471 100.546 115.05 101.921 115.05 103.754V115.418H108.612V93.3387H115.092V93.3804Z" fill="white"/>
<path d="M146.948 94.0469V99.5043C145.391 98.5878 143.581 98.1712 141.477 98.1712C140.72 98.1712 140.131 98.3379 139.71 98.6295C139.289 98.9211 139.079 99.3377 139.079 99.7959C139.079 100.046 139.163 100.296 139.289 100.546C139.415 100.796 139.668 101.004 140.005 101.212C140.341 101.421 140.678 101.587 140.972 101.754C141.267 101.921 141.688 102.129 142.235 102.337C142.782 102.587 143.203 102.754 143.539 102.962C144.886 103.67 145.98 104.462 146.78 105.378C147.621 106.295 148 107.461 148 108.878C148 111.044 147.2 112.752 145.643 113.918C144.044 115.127 141.982 115.71 139.331 115.71C136.638 115.71 134.366 115.252 132.556 114.377V108.628C134.576 110.002 136.722 110.711 138.995 110.711C140.594 110.711 141.435 110.211 141.435 109.169C141.435 108.919 141.351 108.669 141.225 108.419C141.099 108.169 140.846 107.961 140.467 107.753C140.131 107.545 139.794 107.378 139.5 107.253C139.205 107.128 138.784 106.961 138.237 106.711C137.69 106.461 137.269 106.295 136.975 106.128C134.029 104.753 132.514 102.629 132.514 99.8376C132.514 97.6713 133.356 96.0049 134.997 94.8385C136.638 93.6303 138.7 93.0471 141.183 93.0471C143.539 93.1304 145.433 93.4221 146.948 94.0469Z" fill="white"/>
</svg>
