<svg width="25" height="15" viewBox="0 0 25 15" fill="none" xmlns="http://www.w3.org/2000/svg">
<path d="M6.081 5.1727C5.51453 5.18804 4.96515 5.37003 4.50156 5.69593C4.03796 6.02183 3.68074 6.47717 3.47455 7.00501C3.26836 7.53285 3.22236 8.10976 3.34229 8.66361C3.46223 9.21745 3.74278 9.72365 4.14886 10.1189C4.55495 10.5141 5.06856 10.7809 5.62544 10.8858C6.18233 10.9907 6.75778 10.9291 7.27985 10.7088C7.80192 10.4884 8.24743 10.119 8.56068 9.64672C8.87392 9.17448 9.04099 8.62038 9.041 8.0537C9.0302 7.27924 8.71236 6.54075 8.15733 6.00053C7.60229 5.4603 6.85547 5.16255 6.081 5.1727ZM6.081 10.0497C5.68777 10.0397 5.30622 9.9139 4.9841 9.68812C4.66198 9.46235 4.41359 9.14661 4.27 8.78039C4.12642 8.41417 4.09402 8.01373 4.17685 7.62919C4.25968 7.24465 4.45407 6.89307 4.7357 6.61844C5.01733 6.34382 5.37369 6.15834 5.7602 6.08521C6.14671 6.01208 6.54619 6.05456 6.90868 6.20732C7.27117 6.36008 7.58057 6.61634 7.79816 6.94404C8.01575 7.27174 8.13188 7.65633 8.132 8.0497C8.12887 8.31575 8.07331 8.57858 7.96851 8.82315C7.8637 9.06771 7.71169 9.28921 7.52119 9.47497C7.3307 9.66073 7.10545 9.8071 6.85832 9.90572C6.6112 10.0043 6.34705 10.0533 6.081 10.0497ZM24.5 2.2167H20.424C17.9693 0.708091 15.1315 -0.060302 12.251 0.00369555C9.309 -0.0592515 6.4087 0.707325 3.882 2.2157H0C0.594823 2.89229 1.01323 3.70539 1.218 4.5827C0.462016 5.58767 0.0531438 6.81113 0.0530014 8.0687C0.0748657 9.66473 0.729803 11.1867 1.87375 12.2999C3.01769 13.4131 4.55696 14.0263 6.153 14.0047C7.05512 14.0075 7.94683 13.8119 8.76492 13.4317C9.58302 13.0515 10.3075 12.4961 10.887 11.8047C11.3889 12.3916 11.8446 13.0164 12.25 13.6737C12.25 13.6737 13.13 12.4037 13.618 11.8137C14.1981 12.5029 14.9225 13.0563 15.74 13.4347C16.5575 13.8131 17.4482 14.0074 18.349 14.0037C19.945 14.0253 21.4843 13.4121 22.6283 12.2989C23.7722 11.1857 24.4271 9.66373 24.449 8.0677C24.4481 6.8107 24.0389 5.588 23.283 4.5837C23.4874 3.70645 23.9054 2.89332 24.5 2.2167ZM6.152 12.8467C5.21252 12.8211 4.30142 12.5192 3.53262 11.9786C2.76382 11.438 2.17144 10.6828 1.82954 9.80741C1.48763 8.93198 1.41138 7.97518 1.61032 7.05665C1.80926 6.13813 2.27456 5.29862 2.94804 4.64311C3.62152 3.9876 4.47329 3.54516 5.39687 3.37113C6.32044 3.1971 7.27482 3.29919 8.14069 3.66464C9.00655 4.03009 9.74547 4.64267 10.2651 5.42581C10.7846 6.20894 11.0619 7.12787 11.062 8.0677C11.0446 9.35254 10.5175 10.5778 9.59675 11.4741C8.67595 12.3703 7.43684 12.8641 6.152 12.8467ZM6.161 2.1337C8.09778 1.36108 10.1669 0.974501 12.252 0.995696C14.278 0.973846 16.2874 1.36267 18.159 2.1387C16.5968 2.16533 15.1063 2.79919 14.0035 3.90595C12.9007 5.01272 12.2721 6.50541 12.251 8.0677C12.2289 6.47368 11.5752 4.95357 10.4334 3.84104C9.29161 2.72851 7.75506 2.11447 6.161 2.1337ZM18.349 12.8467C17.4095 12.8213 16.4983 12.5196 15.7293 11.9791C14.9604 11.4386 14.3679 10.6835 14.0258 9.80807C13.6837 8.93266 13.6074 7.97583 13.8062 7.05723C14.005 6.13863 14.4702 5.29903 15.1437 4.64342C15.8171 3.98781 16.6689 3.54528 17.5925 3.37117C18.5161 3.19706 19.4705 3.2991 20.3365 3.66452C21.2024 4.02995 21.9414 4.64254 22.461 5.4257C22.9806 6.20886 23.2579 7.12783 23.258 8.0677C23.2406 9.35236 22.7137 10.5775 21.7931 11.4737C20.8725 12.3699 19.6337 12.8638 18.349 12.8467ZM18.349 5.1597C17.7825 5.17503 17.2331 5.35703 16.7696 5.68293C16.306 6.00883 15.9487 6.46417 15.7425 6.99201C15.5364 7.51985 15.4904 8.09676 15.6103 8.65061C15.7302 9.20445 16.0108 9.71065 16.4169 10.1059C16.823 10.5011 17.3366 10.7679 17.8934 10.8728C18.4503 10.9777 19.0258 10.9161 19.5479 10.6958C20.0699 10.4754 20.5154 10.106 20.8287 9.63372C21.1419 9.16148 21.309 8.60738 21.309 8.0407C21.3038 7.65701 21.223 7.27811 21.0713 6.92565C20.9196 6.57318 20.7 6.25406 20.4249 5.98651C20.1498 5.71897 19.8247 5.50824 19.4682 5.36637C19.1117 5.22451 18.7307 5.15428 18.347 5.1597H18.349ZM18.349 10.0367C17.9558 10.0267 17.5742 9.9009 17.2521 9.67513C16.93 9.44936 16.6816 9.13361 16.538 8.76739C16.3944 8.40117 16.362 8.00073 16.4448 7.61619C16.5277 7.23165 16.7221 6.88007 17.0037 6.60544C17.2853 6.33082 17.6417 6.14534 18.0282 6.07221C18.4147 5.99908 18.8142 6.04156 19.1767 6.19432C19.5392 6.34707 19.8486 6.60334 20.0662 6.93104C20.2838 7.25874 20.3999 7.64333 20.4 8.0367C20.3969 8.30292 20.3412 8.56592 20.2363 8.81061C20.1314 9.05531 19.9792 9.2769 19.7885 9.46268C19.5978 9.64847 19.3723 9.7948 19.1249 9.8933C18.8776 9.9918 18.6132 10.0405 18.347 10.0367H18.349Z" fill="#040505"/>
</svg>
