<svg width="32" height="31" viewBox="0 0 32 31" fill="none" xmlns="http://www.w3.org/2000/svg">
<path d="M16 20.1333C15.4666 20.1333 14.9333 20.6667 14.9333 21.2C14.9333 21.7333 15.4666 22.2667 16 22.2667C16.5333 22.2667 17.0666 21.7333 17.0666 21.2C17.0666 20.6667 16.5333 20.1333 16 20.1333Z" fill="#222222"/>
<path d="M16 18.2667C16.4 18.2667 16.6666 18 16.6666 17.6V8.8C16.6666 8.4 16.4 8.13333 16 8.13333C15.6 8.13333 15.3333 8.4 15.3333 8.8V17.6C15.3333 18 15.6 18.2667 16 18.2667Z" fill="#222222"/>
<path d="M16 3.33333C9.06665 3.33333 3.33331 9.06667 3.33331 16C3.33331 22.9333 9.06665 28.6667 16 28.6667C22.9333 28.6667 28.6666 22.9333 28.6666 16C28.6666 9.06667 22.9333 3.33333 16 3.33333ZM16 27.3333C9.73331 27.3333 4.66665 22.2667 4.66665 16C4.66665 9.73333 9.73331 4.66667 16 4.66667C22.2666 4.66667 27.3333 9.73333 27.3333 16C27.3333 22.2667 22.2666 27.3333 16 27.3333Z" fill="#222222"/>
</svg>
