<svg width="32" height="32" viewBox="0 0 32 32" fill="none" xmlns="http://www.w3.org/2000/svg">
<path d="M25.687 22C25.617 22 25.572 21.962 25.587 21.914C25.602 21.866 25.633 21.775 25.651 21.714C25.8731 20.9054 26.0164 20.0772 26.079 19.241C26.079 19.02 26.069 18.798 26.049 18.581C26.504 18.524 26.944 18.457 27.355 18.381C27.3864 18.6666 27.403 18.9537 27.405 19.241C27.348 20.1016 27.2175 20.9557 27.015 21.794C26.999 21.86 26.979 21.935 26.972 21.959C26.965 21.983 26.898 22.004 26.826 22.004L25.687 22ZM8.395 22C8.323 22 8.25699 21.981 8.24899 21.955C8.24099 21.929 8.22199 21.855 8.20799 21.79C8.00567 20.9516 7.87519 20.0975 7.81799 19.237V19.178C8.23799 19.191 8.684 19.224 9.143 19.278C9.20959 20.0993 9.35185 20.9128 9.56799 21.708C9.58599 21.774 9.614 21.866 9.632 21.908C9.65 21.95 9.605 21.994 9.532 21.994L8.395 22ZM12.384 20.9C12.567 20.79 13.02 20.364 13.009 20.1C13.003 20 12.929 19.924 12.777 19.854C10.8633 19.0372 8.78766 18.6708 6.71001 18.783C5.56075 18.8312 4.41696 18.9686 3.289 19.194C2.473 19.351 1.789 19.454 1.589 19.479C1.389 19.504 0.717997 19.463 1.142 19.339C1.142 19.339 5.342 18.306 6.727 17.882C9.56 17.021 14.887 18.682 15.286 18.774L16.06 18.609C17.7746 17.7701 19.5347 17.0277 21.332 16.385C22.062 16.238 23.615 16.696 25.706 16.963C26.664 17.084 29.797 17.014 30.457 17.089C30.614 17.106 31.196 17.265 30.942 17.289C29.58 17.396 27.815 18.009 25.584 18.234C24.8799 18.3011 24.1708 18.2948 23.468 18.215C22.5407 18.0566 21.5878 18.1502 20.709 18.486C20.709 18.486 17.601 19.68 17.252 19.862L17.214 19.882C16.5366 20.2648 15.794 20.5184 15.024 20.63C14.6234 20.7005 14.2191 20.7476 13.813 20.771C13.6471 20.7734 13.4818 20.7932 13.32 20.83C13.0744 20.8861 12.8229 20.912 12.571 20.907C12.456 20.899 12.384 20.892 12.384 20.892V20.9ZM8.914 15C9.46558 14.8998 10.022 14.8284 10.581 14.786C10.0495 15.5295 9.65405 16.3614 9.41299 17.243C8.96007 17.2158 8.50592 17.2158 8.05299 17.243C8.23629 16.4595 8.52599 15.7049 8.914 15ZM25.759 16.555C25.699 16.549 25.64 16.539 25.579 16.531C25.2628 15.7118 24.8123 14.951 24.246 14.28L24.346 14.289C24.8631 14.3482 25.3844 14.3626 25.904 14.332C26.3775 15.0382 26.7479 15.8082 27.004 16.619C26.477 16.608 26.024 16.592 25.756 16.555H25.759ZM15.664 16.033C15.81 15.949 16.17 15.609 16.164 15.403C16.164 15.327 16.101 15.263 15.981 15.208C14.4646 14.5611 12.8203 14.2701 11.174 14.357C10.2627 14.3961 9.35565 14.505 8.461 14.683C7.817 14.807 7.269 14.892 7.112 14.912C6.955 14.932 6.421 14.896 6.755 14.801C6.755 14.801 10.081 13.982 11.185 13.645C13.428 12.962 17.649 14.279 17.964 14.351L18.578 14.22C19.9364 13.5562 21.3305 12.9683 22.754 12.459C23.92 12.5142 25.0794 12.6667 26.22 12.915C26.979 13.01 29.462 12.957 29.984 13.015C30.107 13.028 30.569 13.154 30.367 13.168C29.288 13.253 27.889 13.74 26.123 13.916C25.5637 13.9697 25.0003 13.9647 24.442 13.901C23.7084 13.7751 22.9544 13.8487 22.259 14.114C22.259 14.114 19.799 15.062 19.522 15.208L19.492 15.224C18.9543 15.5257 18.3659 15.7263 17.756 15.816C17.4384 15.8716 17.1179 15.9087 16.796 15.927C16.6647 15.9291 16.5339 15.9452 16.406 15.975C16.2141 16.0181 16.0177 16.038 15.821 16.034C15.725 16.036 15.664 16.032 15.664 16.032V16.033ZM17.612 10.001C19.8745 9.9918 22.0747 10.7414 23.861 12.13C23.4668 12.0452 23.0612 12.027 22.661 12.076C22.3939 12.1453 22.1319 12.2332 21.877 12.339C20.3704 11.5133 18.6564 11.1431 16.9433 11.2736C15.2303 11.4041 13.5921 12.0296 12.228 13.074C11.8297 13.0957 11.4351 13.1628 11.052 13.274C10.772 13.359 10.341 13.474 9.852 13.603C10.7987 12.4661 11.9856 11.5533 13.3275 10.9303C14.6693 10.3073 16.1326 9.98955 17.612 10V10.001Z" fill="#001453"/>
</svg>
