<svg width="32" height="32" viewBox="0 0 32 32" fill="none" xmlns="http://www.w3.org/2000/svg">
<path fill-rule="evenodd" clip-rule="evenodd" d="M16.096 4.83802C15.483 5.51702 15.669 4.62602 15.223 5.05002C14.2493 5.88524 13.4587 6.91275 12.901 8.06803C11.732 10.651 12.461 14.719 14.785 16.276C14.6487 16.8479 14.4229 17.3946 14.116 17.896C13.197 15.91 12.371 13.996 10.522 12.94C10.191 12.7912 9.84258 12.6843 9.485 12.622C8.64148 12.4779 7.776 12.532 6.957 12.78C6.457 12.956 7.068 13.124 6.679 13.256C6.42672 13.3518 6.18908 13.4824 5.973 13.644C5.68863 13.8348 5.45191 14.0885 5.28113 14.3853C5.11034 14.6822 5.01005 15.0143 4.988 15.356C4.976 15.468 5.005 16.227 5.005 16.227C2.297 17.037 1.71801 20.09 2.10501 20.915C2.19845 21.1855 2.35242 21.431 2.55519 21.6329C2.75795 21.8348 3.00415 21.9877 3.27501 22.08C3.74101 22.271 2.681 22.451 3.832 22.645C4.8888 22.7668 5.95896 22.695 6.99 22.433C9.30952 21.7682 11.4705 20.6409 13.343 19.119C11.9612 21.5506 10.0741 23.6576 7.809 25.298C7.943 25.949 7.291 26.235 7.341 27.045C7.354 27.245 7.071 27.626 6.973 27.823C6.906 27.923 7.023 28.093 7.224 27.934C10.3983 25.5706 12.9889 22.5113 14.797 18.991C18.425 24.091 21.67 24.141 23.056 24.277C23.8172 24.3573 24.5867 24.2894 25.322 24.077C26.3492 23.8513 27.3301 23.4512 28.222 22.894C28.779 22.524 27.922 22.488 28.422 22.188C28.8316 21.8531 29.1616 21.4312 29.388 20.953C29.6198 20.3372 29.666 19.6669 29.5208 19.0251C29.3755 18.3833 29.0453 17.7981 28.571 17.342C28.9725 17.1073 29.3108 16.7783 29.5567 16.3835C29.8025 15.9886 29.9485 15.5399 29.982 15.076C30.0289 14.637 29.9272 14.1949 29.6931 13.8206C29.4591 13.4462 29.1062 13.1611 28.691 13.011C28.5142 12.9039 28.3238 12.8208 28.125 12.764C26.565 12.535 28.106 12.005 26.704 12.173C26.504 12.173 26.611 12.182 26.045 12.235C23.37 12.517 22.553 13.228 20.279 14.499C18.165 15.681 16.233 17.299 15.347 17.819C15.5618 17.4475 15.741 17.0564 15.882 16.651C16.15 16.111 18.082 15.051 19.05 14.459C20.07 13.839 24.25 11.759 25.432 8.79303C25.6406 8.30182 25.7842 7.78543 25.859 7.25702C25.971 6.18102 25.45 6.92203 25.432 6.58603C25.4027 6.23265 25.3148 5.88659 25.172 5.56202C24.299 3.56802 21.086 3.90303 19.978 4.98203C19.525 3.49703 16.978 3.90302 16.089 4.83902L16.096 4.83802Z" fill="#6DA312"/>
</svg>
