<svg width="32" height="32" viewBox="0 0 32 32" fill="none" xmlns="http://www.w3.org/2000/svg">
<path d="M21.345 11.635C21.69 11.6362 22.029 11.7254 22.33 11.894C22.849 12.127 23.419 12.412 24.171 12.775C24.171 12.775 25.364 11.92 25.442 11.868C25.5121 11.8101 25.5942 11.7684 25.6823 11.7459C25.7704 11.7234 25.8625 11.7207 25.9518 11.738C26.041 11.7553 26.1254 11.7922 26.1988 11.846C26.2721 11.8997 26.3327 11.9691 26.376 12.049C27.0787 13.3916 27.6519 14.7979 28.088 16.249C28.1247 16.3699 28.1127 16.5002 28.0546 16.6123C27.9965 16.7244 27.8969 16.8094 27.777 16.849C27.5221 16.9157 27.2617 16.9592 26.999 16.979C26.558 17.031 26.584 17.394 26.584 17.601V20.235C26.579 20.4501 26.5312 20.6621 26.4434 20.8585C26.3556 21.055 26.2295 21.2319 26.0726 21.3791C25.9156 21.5263 25.7309 21.6407 25.5293 21.7158C25.3276 21.7908 25.113 21.8249 24.898 21.816H21.708C21.1435 21.8169 20.6007 21.5983 20.1943 21.2065C19.7879 20.8147 19.5497 20.2802 19.53 19.716V13.449C19.5282 13.2102 19.5738 12.9734 19.6644 12.7524C19.755 12.5314 19.8886 12.3307 20.0575 12.1618C20.2265 11.993 20.4273 11.8595 20.6483 11.769C20.8694 11.6786 21.1062 11.633 21.345 11.635Z" fill="#0B2343"/>
<path d="M16.251 21.818H5.887V22.984H18.065C18.3379 22.2987 18.4873 21.5705 18.506 20.833V12.982C18.4837 12.5282 18.6262 12.0817 18.9072 11.7246C19.1882 11.3676 19.5887 11.1241 20.035 11.039C20.061 11.039 20.113 11.013 20.135 11.013C23.2821 10.3325 26.5615 10.6215 29.541 11.842C29.93 12.023 30.007 11.712 29.981 11.583C29.9927 10.5685 29.6055 9.58996 28.9028 8.85809C28.2002 8.12623 27.2382 7.69959 26.224 7.67003C24.9891 7.61907 23.7656 7.92493 22.7 8.55103C22.674 8.57703 22.622 8.55103 22.57 8.49903C21.9834 7.96224 21.2839 7.56381 20.523 7.33303C20.393 7.30703 20.368 7.10003 20.523 7.10003C21.9389 6.94827 23.369 6.99201 24.773 7.23003C24.928 7.25603 25.058 7.15203 24.98 7.02303C24.928 6.92303 24.902 6.86803 24.825 6.68603C24.6972 6.46328 24.5262 6.26831 24.322 6.11255C24.1178 5.9568 23.8846 5.84341 23.636 5.77903C21.585 5.26825 19.4796 5.00802 17.366 5.00403C15.3884 5.0165 13.4173 5.23264 11.484 5.64903C11.342 5.64931 11.2014 5.67575 11.069 5.72703C10.862 5.75303 10.836 5.93403 10.914 6.01203L11.173 6.27103C11.1989 6.2998 11.2188 6.33346 11.2316 6.37003C11.2443 6.4066 11.2496 6.44534 11.2472 6.48399C11.2448 6.52264 11.2347 6.56042 11.2175 6.59511C11.2003 6.62981 11.1763 6.66072 11.147 6.68603L6.431 10.935H9.67C9.77768 10.9347 9.88127 10.9763 9.95888 11.0509C10.0365 11.1255 10.0821 11.2274 10.086 11.335C10.0899 11.4426 10.0518 11.5475 9.97975 11.6276C9.90773 11.7076 9.80742 11.7566 9.7 11.764H5.5L4.228 12.93H9.722C9.82524 12.9425 9.92078 12.991 9.9919 13.0668C10.063 13.1427 10.1052 13.2412 10.111 13.345C10.1098 13.4503 10.0692 13.5513 9.99719 13.6282C9.92518 13.705 9.82699 13.752 9.722 13.76H3.3L2 14.951H13.064C13.1672 14.9635 13.2628 15.012 13.3339 15.0878C13.405 15.1637 13.4472 15.2622 13.453 15.366C13.4571 15.4207 13.4502 15.4756 13.4327 15.5275C13.4153 15.5794 13.3876 15.6273 13.3514 15.6684C13.3151 15.7095 13.271 15.743 13.2217 15.7668C13.1723 15.7906 13.1187 15.8042 13.064 15.807H2V16.973H13.064C13.1187 16.9755 13.1724 16.989 13.2218 17.0127C13.2712 17.0363 13.3153 17.0697 13.3516 17.1107C13.3879 17.1517 13.4156 17.1996 13.433 17.2516C13.4504 17.3035 13.4572 17.3584 13.453 17.413C13.4446 17.5179 13.3974 17.6158 13.3206 17.6877C13.2439 17.7596 13.1432 17.8004 13.038 17.802H2V18.968H16.433C16.4876 18.9708 16.5411 18.9845 16.5904 19.0082C16.6397 19.032 16.6838 19.0653 16.72 19.1063C16.7562 19.1472 16.7839 19.195 16.8014 19.2469C16.8189 19.2987 16.8259 19.3535 16.822 19.408C16.824 19.4609 16.8155 19.5136 16.797 19.5632C16.7785 19.6127 16.7503 19.6581 16.7141 19.6967C16.6779 19.7353 16.6345 19.7664 16.5862 19.788C16.538 19.8097 16.4859 19.8216 16.433 19.823H5.887V20.989H16.459C16.5634 21.0045 16.6583 21.0582 16.7254 21.1397C16.7924 21.2212 16.8269 21.3246 16.822 21.43C16.8215 21.5313 16.7846 21.629 16.7179 21.7052C16.6512 21.7814 16.5593 21.8311 16.459 21.845H16.252L16.251 21.818ZM9.751 25.808V27.004H12.213C13.5165 26.9912 14.7835 26.5717 15.837 25.804L9.751 25.808ZM9.751 23.808V24.974H16.8C17.1355 24.6251 17.423 24.2329 17.655 23.808H9.751Z" fill="#0B2343"/>
</svg>
