<svg width="32" height="32" viewBox="0 0 32 32" fill="none" xmlns="http://www.w3.org/2000/svg">
<path d="M15.103 17.346C10.883 18.068 5.29299 18.556 1.00299 19.846C4.35899 19.8133 7.78866 19.7983 11.292 19.801C13.376 19.801 15.42 19.801 17.451 19.821C19.207 19.821 20.924 19.833 22.551 19.866C25.4337 19.886 28.2516 19.9293 31.005 19.996C30.835 19.001 30.088 17.85 27.728 17.85L26.364 17.83V17.836C26.744 18.727 25.807 19.299 24.988 18.857C24.562 18.642 24.333 18.194 24.935 17.738C25.537 17.282 26.548 16.593 27.052 16.301C28.736 15.301 28.671 13.608 26.246 13.426C20.466 12.952 10.046 12.32 6.258 11.995C8.9 13.687 12.615 14.141 16.022 15.295C18.222 16.051 17.089 17.007 15.103 17.346Z" fill="#0080C3"/>
</svg>
