<svg width="32" height="32" viewBox="0 0 32 32" fill="none" xmlns="http://www.w3.org/2000/svg">
<path d="M17.764 6.5469C17.7823 6.5448 17.8001 6.54008 17.817 6.5329C17.8 6.5369 17.78 6.5409 17.764 6.5469ZM6.68802 28.4609C6.66857 28.4716 6.64987 28.4837 6.63202 28.4969C6.65102 28.4809 6.67002 28.4719 6.68802 28.4609ZM6.26702 17.2609L6.37302 17.3189L6.26702 17.3969C6.45102 17.4189 6.49102 17.3119 6.58302 17.2499C6.44702 17.2739 6.42102 17.0719 6.26702 17.2649V17.2609ZM15 7.5629C14.9996 7.56555 14.9996 7.56826 15 7.5709L15.01 7.5649L15 7.5629ZM15 7.5709C14.9638 7.59227 14.9264 7.61163 14.888 7.6289C14.934 7.6159 14.986 7.6109 15 7.5709ZM17.908 6.4709C17.8795 6.49511 17.8483 6.51591 17.815 6.5329C17.858 6.5219 17.9 6.5099 17.91 6.4709H17.908ZM18.031 6.2879L17.821 6.2659L17.838 6.3979L18.031 6.2879ZM18.148 6.8489L18.137 6.8259L17.973 6.9119L18.006 6.9409L18.148 6.8489ZM17.928 7.0359L17.912 7.0009L17.755 7.0569L17.77 7.0929L17.928 7.0359ZM16.54 7.8259L16.433 7.9049L16.521 7.8739L16.54 7.8259ZM18.008 6.7869L17.86 6.9079L17.982 6.8649C18.014 6.8429 18.044 6.8179 18.01 6.7879L18.008 6.7869ZM18.216 6.3869C18.1 6.3999 18.107 6.5079 17.995 6.4369C17.9636 6.4398 17.9335 6.45121 17.908 6.4699C17.919 6.5209 18.183 6.5339 18.218 6.3869H18.216ZM20.272 4.4559C20.2648 4.4596 20.2585 4.46482 20.2534 4.47121C20.2484 4.4776 20.2449 4.485 20.243 4.4929C20.2505 4.48896 20.257 4.48357 20.2624 4.47704C20.2677 4.47052 20.2717 4.46299 20.274 4.4549L20.272 4.4559ZM18.11 6.2329C18.182 6.1999 18.11 6.1899 18.09 6.1729C18.057 6.2029 18.123 6.1539 18.11 6.2329ZM19.4 5.3119L19.39 5.2889L19.225 5.3739L19.259 5.4029L19.4 5.3119ZM20.188 4.5809C20.255 4.5679 20.238 4.5259 20.246 4.4929C20.194 4.5239 20.1 4.5269 20.187 4.5809H20.188ZM28.565 20.0319L28.472 19.9379L28.409 20.0699C28.459 20.0489 28.525 19.9899 28.564 20.0329L28.565 20.0319ZM7.66502 15.6209L7.67402 15.6149L7.70702 15.5789L7.66502 15.6209ZM19.179 5.4989L19.163 5.4639L19.005 5.5189L19.021 5.5559L19.179 5.4989ZM19.687 5.2789L19.659 5.2609L19.547 5.3279L19.576 5.3459L19.687 5.2789ZM18.921 6.0159C18.766 6.0289 18.645 6.1679 18.688 6.2629C18.948 6.1699 18.632 6.0899 18.921 6.0149V6.0159ZM18.09 6.1739L18.144 6.1259C18.075 6.1489 18.073 6.1629 18.089 6.1729L18.09 6.1739ZM18.229 6.7799L18.329 6.6799L18.3 6.6609L18.187 6.7689L18.229 6.7799ZM18.629 6.3109L18.384 6.4389L18.557 6.3769L18.629 6.3109ZM18.329 6.8829L18.44 6.8169L18.412 6.7989L18.299 6.8659L18.329 6.8829ZM7.52902 27.0879L7.78402 26.9399C7.68202 26.9309 7.60002 27.0329 7.52902 27.0879ZM28.352 22.2879C28.371 22.2489 28.627 21.7689 28.814 21.4259C28.8103 21.4287 28.8063 21.4311 28.802 21.4329C28.849 21.2479 28.502 21.3329 28.736 21.0739C28.482 20.6209 28.475 20.2209 28.136 19.9369L28.277 19.8439C28.268 19.6999 28.177 19.6329 28.131 19.5369L28.069 19.6679C27.975 19.6209 28.045 19.4679 28.033 19.3679C27.756 19.2519 27.433 18.8309 27.278 18.7779C27.184 18.5659 27.026 18.4869 27.019 18.2519L27.039 18.2389C26.4243 17.5794 25.733 16.9957 24.98 16.4999C24.988 16.3169 24.68 16.2569 24.893 16.1059L24.924 16.1219L24.497 15.7439C24.47 15.8009 24.46 15.8649 24.404 15.8599C24.0577 15.3634 23.655 14.9087 23.204 14.5049L23.218 14.4849C23.548 14.0239 23.965 13.5399 24.402 13.0419V13.0369L24.474 12.9529C25.009 12.3419 25.568 11.7109 26.024 11.0729C27.473 9.4119 28.918 7.6209 27.988 5.9929C26.788 5.1929 24.844 4.0109 22.819 4.8649C22.807 4.8339 22.779 4.8089 22.776 4.7829C22.516 5.2559 22.65 4.5119 22.224 4.6099C22.047 4.4809 21.783 4.4779 21.698 4.3309C21.361 4.7089 21.412 4.0909 21.033 4.2379L20.973 4.4219C20.958 4.2499 20.841 4.3999 20.655 4.3439C20.655 4.3969 20.737 4.4379 20.665 4.5039C20.486 4.5529 20.674 4.4329 20.526 4.4169C20.452 4.4289 20.438 4.4879 20.395 4.5319C20.411 4.5669 20.409 4.6089 20.467 4.6019C20.361 4.7759 20.236 4.7659 20.067 4.8809C20.102 4.8689 20.167 4.8329 20.2 4.8609L20.181 4.9099C20.269 4.8369 20.439 5.0379 20.452 4.8819C20.4801 4.86949 20.5092 4.85946 20.539 4.8519C20.63 4.5299 20.877 4.8609 20.958 4.8659C20.886 4.8659 20.871 4.9259 20.821 4.9439L20.732 4.8789C20.588 5.0109 20.822 4.9029 20.744 4.9979C20.537 5.0299 20.619 5.2199 20.361 5.1329L20.461 5.0009C20.4352 5.03262 20.3995 5.05478 20.3596 5.06384C20.3198 5.0729 20.278 5.06835 20.241 5.0509C20.247 5.0429 20.25 5.0349 20.256 5.0249L20.164 5.1049C20.026 5.1129 20.082 5.0109 20.014 4.9929C19.9095 5.01948 19.8154 5.07699 19.744 5.1579L19.956 5.1789C20.036 5.4099 19.669 5.3069 19.624 5.5289C19.467 5.5839 19.442 5.3869 19.276 5.5149C19.222 5.5239 19.25 5.5539 19.244 5.5789C19.2576 5.56457 19.2741 5.55336 19.2924 5.54605C19.3107 5.53873 19.3304 5.53548 19.3501 5.53653C19.3698 5.53757 19.389 5.54289 19.4064 5.5521C19.4238 5.56132 19.4391 5.57422 19.451 5.5899L19.4 5.6809C18.973 5.7649 19.354 6.0439 18.975 6.1029C18.996 6.0839 18.988 6.0559 18.995 6.0299C18.948 6.0589 18.865 6.0639 18.925 6.1089H18.931L18.939 6.1139C18.9764 6.1248 19.0156 6.12749 19.0541 6.12179C19.0926 6.11609 19.1294 6.10215 19.162 6.0809C19.172 6.1129 19.178 6.1459 19.228 6.1399C19.2179 6.15759 19.2062 6.17433 19.193 6.1899C18.974 6.2729 18.623 6.3669 18.548 6.5569L18.748 6.5379C18.6554 6.56963 18.572 6.62353 18.505 6.6949L18.716 6.7159C18.7254 6.73412 18.7297 6.75457 18.7283 6.77502C18.7268 6.79548 18.7198 6.81515 18.708 6.8319C18.6907 6.83649 18.6726 6.83679 18.6552 6.83278C18.6377 6.82877 18.6216 6.82058 18.608 6.8089C18.549 6.8569 18.381 6.8899 18.399 7.0209H18.406C18.3983 7.03577 18.3926 7.05157 18.389 7.0679C18.232 7.1229 18.207 6.9269 18.041 7.0539C17.986 7.0639 18.014 7.0939 18.008 7.1189C18.0212 7.10552 18.0371 7.09502 18.0546 7.08808C18.072 7.08113 18.0908 7.07788 18.1096 7.07854C18.1284 7.0792 18.1468 7.08375 18.1638 7.0919C18.1807 7.10005 18.1958 7.11163 18.208 7.1259L17.883 7.2739L17.867 7.2379C17.905 7.2089 17.942 7.1739 17.976 7.1449L17.865 7.1169L17.835 7.1659V7.1559C17.7961 7.16181 17.7592 7.17698 17.7273 7.20012C17.6955 7.22326 17.6697 7.25371 17.652 7.2889L17.494 7.2499C17.458 7.1669 17.642 7.1289 17.553 7.0639C17.34 7.0849 17.596 7.1179 17.503 7.1779C17.298 7.2639 17.303 7.0849 17.257 7.0319C17.145 7.0369 17.321 7.5809 17.421 7.9579L17.395 7.9669C17.386 7.9019 17.177 7.9329 17.28 7.8419C17.223 7.8499 17.169 7.9089 17.108 7.8619C17.1143 7.84662 17.1247 7.83343 17.1382 7.82386C17.1516 7.8143 17.1675 7.80877 17.184 7.8079L17.158 7.7479C16.879 7.8479 17.064 7.5349 16.998 7.6129L16.898 7.7029L16.81 7.6389C16.81 7.6809 16.726 7.7229 16.759 7.7529C16.7758 7.75227 16.7921 7.74672 16.8058 7.73695C16.8195 7.72717 16.83 7.7136 16.836 7.6979L16.994 7.7389L16.909 7.8649C16.887 7.8589 16.846 7.8589 16.854 7.8299L16.679 7.8909L16.837 7.9309L16.793 8.0139C16.754 8.05174 16.7046 8.07695 16.651 8.08622C16.5975 8.0955 16.5425 8.08842 16.493 8.0659C16.501 8.0509 16.465 8.0019 16.432 7.9659C15.844 7.7529 16.049 7.7929 15.672 8.0219L15.861 8.3579C15.7596 8.40606 15.6483 8.43002 15.536 8.4279C14.787 7.7059 13.907 6.8279 12.936 5.7439C12.42 5.5539 12.243 5.0209 11.719 4.8499C11.7 3.8159 10.619 3.7839 9.93102 3.3879C8.83102 2.6679 7.47402 3.1009 6.24202 3.4799C5.53576 3.60526 4.8727 3.90729 4.31459 4.35787C3.75647 4.80846 3.32145 5.39294 3.05002 6.0569C2.60702 9.2309 5.23502 10.6059 6.68802 12.5269C7.27121 13.2288 7.93895 13.8559 8.67602 14.3939C8.59302 14.4599 8.53102 14.5319 8.49802 14.5599C8.59802 14.7849 7.84802 15.0089 7.99802 15.1599C7.90502 15.1789 7.90802 15.2319 7.83902 15.2599C7.96357 15.2302 8.08509 15.1891 8.20202 15.1369C8.14102 15.2029 8.09302 15.2579 8.04502 15.3099C7.88002 15.3549 7.61102 15.5689 7.69202 15.5709C7.71749 15.5569 7.74598 15.5494 7.77502 15.5489C7.74502 15.5709 7.71202 15.5939 7.67502 15.6169L7.64802 15.6459C7.61502 15.6409 7.57602 15.6579 7.51902 15.7289L7.55502 15.7489L7.54402 15.7619L7.61002 15.7979L7.51802 15.8659H7.52702C7.42379 15.9304 7.32991 16.0088 7.24802 16.0989C7.27302 16.1539 7.24802 16.2089 7.19302 16.2639L7.17402 16.2739H7.18702C7.02202 16.4369 6.63802 16.5899 6.74702 16.7039C6.65402 16.7239 6.65902 16.7759 6.58802 16.8039C6.74302 16.7899 7.04402 16.6039 7.27202 16.6159C7.26502 16.6469 7.25802 16.6769 7.21902 16.6769C7.18502 16.7099 7.09102 16.7299 7.09402 16.7769C7.08901 16.7921 7.08194 16.8066 7.07302 16.8199L6.90002 16.8599C6.80002 16.7719 6.34502 17.1109 6.44802 17.1159C6.57702 17.0429 6.68002 17.1839 6.72702 17.0159L6.84102 17.0369C6.76408 17.086 6.69969 17.1525 6.65302 17.2309C6.63062 17.2376 6.60937 17.2478 6.59002 17.2609C6.61148 17.2578 6.63217 17.2506 6.65102 17.2399C6.64791 17.2473 6.64631 17.2553 6.64631 17.2634C6.64631 17.2715 6.64791 17.2795 6.65102 17.2869C6.5692 17.3253 6.5034 17.3911 6.46502 17.4729C6.43416 17.4838 6.40235 17.4918 6.37002 17.4969L6.39402 17.4599C6.34702 17.4909 6.24402 17.4859 6.22902 17.5449C6.30802 17.5239 6.38302 17.5039 6.45402 17.4889C6.43474 17.5353 6.40589 17.5771 6.36936 17.6115C6.33283 17.646 6.28944 17.6724 6.24202 17.6889L6.29202 17.7129C6.09202 18.0849 5.58602 18.2639 5.39802 18.6179C5.13102 18.7399 5.07602 19.0319 4.86902 19.2019L5.00302 19.2219L4.99202 19.2279L5.04302 19.2499C4.84302 19.6219 4.33702 19.8009 4.14902 20.1549C3.88102 20.2779 3.82702 20.5699 3.61902 20.7389L3.94302 20.7889C3.88664 20.8861 3.79827 20.9606 3.69302 20.9999C3.84802 20.9859 4.01202 20.8999 4.17302 20.8999L3.93002 21.2179L4.47102 21.0269L4.28902 21.2559L4.61102 21.1159C4.90502 21.0519 4.69902 21.3159 4.82202 21.3689C5.12902 21.2889 4.86702 21.6549 5.20202 21.5909L5.00902 21.7909L5.09502 21.7609C5.24802 21.9259 4.89502 22.2279 4.88402 22.3829L4.81802 22.3809C4.68002 22.5259 4.86302 22.5299 4.90602 22.5809C4.94202 22.6639 4.79702 22.7009 4.74402 22.7619L4.93302 22.7349C4.83859 22.8651 4.72652 22.9816 4.60002 23.0809L4.68702 23.0499C4.71002 23.0559 4.75002 23.0549 4.74402 23.0849C4.73802 23.1149 4.67202 23.1509 4.63702 23.1639L4.66402 23.2229C4.62902 23.2349 4.36402 23.2329 4.37702 23.3509C4.55102 23.4269 4.43002 23.1959 4.57702 23.2509C4.57702 23.4409 4.17702 23.6249 4.07702 23.8509C3.94802 24.0619 4.07702 24.1789 3.76602 24.3859C3.71602 24.4579 3.58902 24.6269 3.75102 24.5859L3.41302 25.1019C3.73502 25.0569 3.46902 25.3699 3.58802 25.4099C3.98202 25.4349 3.66002 25.8499 4.04002 25.7979C4.00202 25.8979 3.87802 25.9779 3.96102 26.0309C4.13002 25.8199 4.22802 26.0879 4.45102 25.9539C4.50602 25.9889 4.45102 26.0539 4.41502 26.1039L4.67602 26.0109C4.79802 25.9679 4.82302 26.0689 4.89602 26.0979L4.78402 26.1649H4.98402C4.95202 26.2299 4.88402 26.2549 4.84702 26.3089C4.96102 26.2949 5.00502 26.2089 5.08302 26.1569C5.2871 26.0571 5.50997 26.0015 5.73702 25.9939L5.56402 26.1509L6.04202 25.9509C6.05002 26.0169 5.98402 26.0939 5.86902 26.1069L5.90502 26.1899C6.07402 26.1149 6.18302 25.9899 6.37502 26.0229C6.31404 26.1198 6.23452 26.2038 6.14102 26.2699C6.18248 26.3638 6.19111 26.4689 6.16553 26.5683C6.13996 26.6678 6.08165 26.7557 6.00002 26.8179L6.24502 26.8279L6.18602 27.0129C6.41402 27.0289 6.46402 26.9129 6.63902 26.8529C6.53102 27.1109 6.87602 27.0709 6.96302 27.0389C7.21702 26.9769 7.45502 26.7819 7.75002 26.8569C7.83593 26.8438 7.91812 26.8127 7.99118 26.7657C8.06425 26.7187 8.12656 26.6567 8.17402 26.5839L8.26502 26.6059C8.29402 26.4869 8.56502 26.4599 8.59302 26.4349L8.52502 26.4169C8.69702 26.3979 8.59002 26.2449 8.80902 26.2889L8.78602 26.3249L9.01002 26.2859C9.052 26.274 9.09624 26.2722 9.13902 26.2809C8.87302 26.3929 8.47402 26.3879 8.33902 26.6719H8.52202C8.43602 26.8099 8.23102 26.8199 8.05602 26.8719C8.29302 26.8099 8.50202 26.9199 8.64602 26.7269C8.52302 26.9059 8.47702 27.0329 8.19302 27.1189L8.44702 27.0559C8.3875 27.1037 8.33848 27.1633 8.30304 27.2309C8.26759 27.2985 8.24648 27.3728 8.24102 27.4489C8.14102 27.4309 8.02702 27.4149 7.95802 27.5729L8.13302 27.5109C8.08702 28.0059 7.28402 27.7829 7.08802 28.2109H7.27102C7.18602 28.3509 6.98002 28.3599 6.80502 28.4109C7.04202 28.3479 7.25202 28.4579 7.39502 28.2649C7.27202 28.4449 7.22602 28.5709 6.94202 28.6569L7.19702 28.5939C7.13652 28.6425 7.08679 28.7032 7.05099 28.772C7.01518 28.8409 6.99408 28.9165 6.98902 28.9939C7.37689 28.8769 7.71826 28.6412 7.96502 28.3199C8.26546 28.1965 8.52481 27.9906 8.71302 27.7259C8.62602 27.3459 9.46302 27.4619 9.58902 27.0609C9.37702 26.9439 9.73502 26.7489 9.51902 26.7159C9.58402 26.6799 9.61902 26.7209 9.68302 26.7259C9.64102 26.6729 10.038 26.6159 9.87602 26.5259C10.604 26.1179 10.984 25.5599 11.676 25.1099C12.3557 24.4297 13.0822 23.7978 13.85 23.2189C15.012 22.3961 16.094 21.4661 17.082 20.4409C17.2959 20.6575 17.5409 20.8408 17.809 20.9849C17.717 21.7999 18.627 21.6079 18.809 22.0489L18.871 21.9179C18.917 22.1969 19.134 22.1909 19.298 22.2959L19.254 22.3899C19.863 22.6269 19.945 23.5299 20.711 23.6839C21.269 25.1069 22.862 25.2839 23.841 26.2679C24.309 26.0609 24.631 26.4559 25.02 26.5369C25.054 26.1369 25.526 26.5829 25.531 26.4459L25.517 26.3919L25.881 26.5299C25.793 26.3449 25.481 26.3769 25.448 26.1239C25.274 25.8699 24.828 25.9029 24.726 25.6499C24.749 25.6579 24.786 25.6659 24.791 25.6319L24.741 25.6539L24.723 25.6459C24.706 25.5978 24.6996 25.5467 24.704 25.4959C24.728 25.5399 24.784 25.5749 24.791 25.6319L24.865 25.5999C24.912 25.9049 25.08 25.7919 25.197 25.8499C25.073 25.7009 24.918 25.5829 24.78 25.4239L24.767 25.2919H25L24.9 25.0079C25.049 25.0345 25.1893 25.0969 25.3088 25.1898C25.4283 25.2826 25.5234 25.4031 25.586 25.5409C26.138 25.4469 26.679 25.9529 27.143 26.2109C27.169 26.1549 27.196 26.0979 27.253 26.1039L27.332 26.3039C27.455 26.2489 27.565 26.4689 27.678 26.4789L27.693 26.3239L27.772 26.3629C27.872 26.2029 27.772 26.1549 27.764 26.0099L28.107 26.0669C28.093 26.0139 28.039 25.9669 28.091 25.8959C28.133 25.8469 28.191 25.8959 28.219 25.9149C28.2094 25.6663 28.1694 25.4198 28.1 25.1809C28.194 25.2279 28.238 24.7619 28.426 24.9029L28.405 24.8239L28.593 24.7549C28.593 24.8009 28.613 24.8359 28.58 24.8649L28.611 24.8809L28.655 24.7869L28.623 24.7709C28.992 24.6539 28.633 24.3799 28.665 24.1859L28.881 24.2249C28.722 23.9819 28.543 23.8689 28.5 23.5449L28.558 23.5039C28.381 23.5039 28.368 23.2459 28.228 23.1279L28.428 22.9959L28.393 22.8619L28.336 22.9019C28.484 22.6289 28.178 22.6139 28.249 22.3019C28.271 22.2919 28.306 22.2619 28.352 22.2869V22.2879ZM8.26202 27.4559C8.33593 27.4322 8.40839 27.4041 8.47902 27.3719C8.43602 27.4809 8.35302 27.4709 8.26202 27.4549V27.4559ZM17.436 8.3049L17.476 8.2569C17.477 8.3019 17.466 8.3209 17.436 8.3039V8.3049ZM18.677 6.8619C18.6355 6.88264 18.5923 6.90003 18.548 6.9139C18.551 6.8679 18.541 6.8319 18.677 6.8619ZM18.654 7.1209C18.6249 7.12562 18.5954 7.1273 18.566 7.1259L18.666 7.0899C18.6629 7.10057 18.6589 7.11094 18.654 7.1209ZM18.719 7.0709C18.7 7.05492 18.6759 7.04608 18.651 7.0459C18.6499 7.03146 18.6466 7.01729 18.641 7.0039C18.636 6.9679 18.741 6.9859 18.841 6.9719L18.719 7.0709ZM19.091 6.6069C19.0596 6.6094 19.0281 6.60317 19 6.5889C19.0062 6.58098 19.0113 6.57223 19.015 6.5629L18.924 6.6429C18.792 6.6499 18.836 6.5579 18.782 6.5339L18.863 6.5269C18.835 6.5089 18.795 6.5099 18.784 6.4859L18.901 6.3859C18.9103 6.38286 18.9202 6.38199 18.93 6.38338C18.9397 6.38477 18.9489 6.38837 18.957 6.3939L18.939 6.4419C18.992 6.3989 19.071 6.4519 19.131 6.4689C19.075 6.5069 19.049 6.5329 19.153 6.5429C19.135 6.56701 19.1138 6.58854 19.09 6.6069H19.091ZM18.965 6.3419C19.0344 6.28666 19.1091 6.23843 19.188 6.1979C19.1259 6.26306 19.0491 6.31244 18.964 6.3419H18.965ZM19.444 6.2499C19.4158 6.26366 19.3859 6.27342 19.355 6.2789C19.3663 6.26733 19.3801 6.25865 19.3955 6.2536C19.4108 6.24855 19.4271 6.24728 19.443 6.2499H19.444ZM19.339 6.4059L19.301 6.4619L19.232 6.4929L19.339 6.4059ZM19.212 6.4189L19.229 6.4129L19.21 6.4259C19.2102 6.42388 19.2105 6.42187 19.211 6.4199L19.212 6.4189ZM19.284 6.6819C19.2665 6.68998 19.2473 6.69376 19.228 6.6929C19.267 6.6279 19.29 6.5459 19.372 6.5809C19.3506 6.62072 19.3201 6.65497 19.283 6.6809L19.284 6.6819ZM19.372 6.4299L19.388 6.4109L19.345 6.3999L19.44 6.3229L19.518 6.3639L19.372 6.4299ZM19.759 5.5809C19.735 5.4809 19.953 5.6069 19.891 5.4659C19.885 5.4119 20.121 5.4769 20.222 5.3859C20.2401 5.36158 20.2543 5.33459 20.264 5.3059C20.2601 5.33676 20.2452 5.36517 20.222 5.3859C20.1699 5.4575 20.0993 5.5135 20.0177 5.54787C19.9361 5.58224 19.8466 5.59366 19.759 5.5809ZM20.106 5.8659L20.091 5.8479H20.119L20.106 5.8659ZM20.256 5.5369C20.246 5.5729 20.228 5.6069 20.156 5.6049L20.256 5.5369C20.268 5.4839 20.256 5.4259 20.37 5.4599L20.256 5.5369ZM20.67 5.4369L20.621 5.4759C20.6355 5.46071 20.652 5.44759 20.67 5.4369L20.77 5.3539L20.702 5.3379L20.82 5.2379C20.922 5.3249 20.764 5.3809 20.67 5.4429V5.4369ZM22.936 24.1369C22.9223 24.1473 22.9112 24.1608 22.9035 24.1762C22.8959 24.1917 22.8919 24.2087 22.892 24.2259C22.527 23.9259 22.084 23.5849 21.803 23.3509C21.919 23.2709 21.695 23.2509 21.686 23.1049C21.862 23.3099 22.075 23.6049 22.386 23.5269C22.224 23.7479 22.563 23.7329 22.576 23.7859L22.62 23.6859C22.82 23.7359 22.844 24.0569 22.938 24.1319C22.988 24.0939 23.066 24.0909 23.11 24.0519C23.028 24.1569 22.976 24.1689 22.936 24.1389V24.1369ZM24.425 25.2369C24.303 25.0819 24.09 24.9969 24.057 24.8189C23.912 25.0019 23.869 24.6779 23.708 24.6889L23.678 24.6279C23.731 24.7279 24.033 24.6209 23.928 24.8009C24.028 24.9219 24.48 24.5009 24.306 24.9929L24.341 25.1259C24.384 25.0779 24.422 25.1199 24.469 25.1449L24.425 25.2369ZM24.725 25.3939C24.7245 25.3919 24.7245 25.3899 24.725 25.3879C24.7243 25.3895 24.7239 25.3912 24.724 25.3929L24.725 25.3939ZM6.90002 28.2369L6.75802 28.3279L6.88102 28.2839L6.90002 28.2369ZM19.016 6.5639L19.056 6.5299C19.039 6.53597 19.0247 6.54806 19.016 6.5639ZM18 7.1179C17.99 7.1259 17.979 7.1349 17.969 7.1439C18 7.1369 18 7.1279 18 7.1179ZM7.21902 27.5359L7.44502 27.5939C7.35302 27.6129 7.33302 27.6599 7.27202 27.7499C7.38302 27.7249 7.48902 27.6499 7.58002 27.6689C7.50802 27.7349 7.70102 27.7619 7.54402 27.8179C7.67102 27.9239 7.64902 27.6439 7.82402 27.5819L7.61502 27.6559L7.68102 27.5769C7.58302 27.5859 7.47102 27.4199 7.21902 27.5359ZM28.919 21.0509C28.8903 21.1215 28.882 21.1988 28.895 21.2739C28.944 21.1839 28.982 21.1159 28.995 21.0909L28.919 21.0509ZM28.895 21.2739C28.869 21.3189 28.841 21.3739 28.811 21.4239C28.8395 21.4111 28.8633 21.3898 28.8792 21.3629C28.8951 21.3361 28.9024 21.305 28.9 21.2739H28.895ZM7.80002 27.5349C7.84702 27.5049 7.98602 27.4979 7.95902 27.4349L7.78402 27.4959L7.80002 27.5349ZM8.15002 26.6999L8.00802 26.7899L8.13102 26.7479L8.15002 26.6999ZM7.94002 26.9279C7.9199 26.9373 7.9008 26.9486 7.88302 26.9619C7.90081 26.9483 7.91952 26.9359 7.93902 26.9249L7.94002 26.9279ZM8.07302 27.2789L8.35402 27.1379L7.86402 27.2159L8.07302 27.2789ZM7.53002 27.0899L7.48002 27.1189C7.49807 27.1116 7.51467 27.1011 7.52902 27.0879L7.53002 27.0899ZM5.92202 17.8119L6.04502 17.7689L6.26202 17.6229L5.92202 17.8119ZM19.222 5.6069C19.241 5.5999 19.248 5.5909 19.251 5.5809L19.219 5.6059L19.222 5.6069ZM19.022 5.9939C19.0148 5.99755 19.0084 6.00275 19.0034 6.00915C18.9984 6.01555 18.9948 6.02298 18.993 6.0309C19.0006 6.02757 19.0073 6.02248 19.0125 6.01604C19.0177 6.0096 19.0213 6.00202 19.023 5.9939H19.022ZM16.39 7.9279L16.423 7.9649H16.429L16.39 7.9279ZM27.2 18.3859L27.1 18.2939C27.112 18.3449 27.132 18.3809 27.2 18.3859ZM19.008 5.7509C19.091 5.72146 19.165 5.67118 19.223 5.6049L19.112 5.5769L19.008 5.7509ZM18.541 6.5739L18.548 6.5579H18.497L18.541 6.5739ZM27.082 18.2139L27.043 18.2409L27.1 18.2949C27.093 18.2679 27.088 18.2409 27.082 18.2139ZM22.787 4.7809C22.795 4.7669 22.804 4.7499 22.813 4.7309C22.8047 4.73627 22.798 4.7437 22.7934 4.75247C22.7888 4.76123 22.7866 4.77103 22.787 4.7809ZM20.571 4.9499L20.638 4.8719L20.592 4.8599L20.532 4.9499H20.571ZM20.271 5.0229L20.311 4.9889C20.2923 4.99536 20.2766 5.00854 20.267 5.0259L20.271 5.0229ZM20.552 4.8489L20.597 4.8599C20.5903 4.85442 20.5822 4.85079 20.5736 4.84939C20.565 4.84799 20.5562 4.84885 20.548 4.8519L20.552 4.8489ZM25.202 25.8489C25.2363 25.8891 25.2674 25.9319 25.295 25.9769C25.2891 25.9505 25.2776 25.9256 25.2612 25.904C25.2448 25.8824 25.2239 25.8647 25.2 25.8519L25.202 25.8489Z" fill="#ED3024"/>
<path d="M14.99 10.1469C14.8623 10.1756 14.7466 10.2431 14.6587 10.3401C14.5708 10.4372 14.515 10.559 14.499 10.6889C14.4912 10.7438 14.4972 10.7999 14.5165 10.8518C14.5359 10.9038 14.568 10.9502 14.6099 10.9866C14.6517 11.023 14.7021 11.0483 14.7562 11.0602C14.8104 11.0722 14.8667 11.0703 14.92 11.0549C15.0478 11.0258 15.1636 10.9581 15.2516 10.8609C15.3396 10.7638 15.3956 10.6419 15.412 10.5119C15.4198 10.4569 15.4136 10.4009 15.3941 10.349C15.3746 10.297 15.3424 10.2507 15.3005 10.2144C15.2585 10.1781 15.2081 10.1529 15.1539 10.1411C15.0996 10.1293 15.0433 10.1313 14.99 10.1469Z" fill="white"/>
<path d="M16.767 11.2609C16.667 11.2819 16.541 11.3049 16.073 11.8709C16.188 11.6519 16.225 11.4709 16.084 11.3709C15.9948 11.3335 15.8971 11.3205 15.8011 11.3333C15.7052 11.3462 15.6144 11.3843 15.538 11.4439C15.45 11.5029 15.4481 11.5339 15.4321 11.6439C15.4023 11.7592 15.3607 11.8711 15.3081 11.9779L15.166 12.2929C14.9185 12.7817 14.606 13.2348 14.237 13.6399C14.1824 13.7174 14.1067 13.7778 14.019 13.8139C13.979 13.8219 13.963 13.7919 13.966 13.7399C13.9815 13.6243 14.0153 13.5119 14.066 13.4069C14.166 13.1649 14.331 12.8069 14.459 12.5669C14.529 12.4239 14.707 12.0859 14.707 12.0859C14.876 11.6949 14.555 11.5579 14.368 11.5859C14.314 11.5949 13.723 11.6659 13.047 11.7859C13.1985 10.9658 13.441 10.1652 13.77 9.3989C13.957 8.8989 13.936 8.78491 13.778 8.59891C13.62 8.41291 13.649 8.19891 13.469 8.18491C13.051 8.14591 11.604 10.3079 10.439 12.4089C9.89263 12.5761 9.35809 12.7799 8.83905 13.0189C8.72905 13.0683 8.64243 13.1584 8.59732 13.2702C8.55221 13.382 8.55211 13.507 8.59704 13.6189C8.60459 13.6655 8.62347 13.7095 8.65203 13.7471C8.68058 13.7847 8.71794 13.8147 8.76081 13.8344C8.80368 13.8542 8.85074 13.8631 8.89786 13.8604C8.94499 13.8577 8.99073 13.8434 9.03105 13.8189C9.31664 13.6561 9.61223 13.5115 9.91604 13.3859C9.90604 13.4079 9.90305 13.4199 9.90605 13.4179C9.47953 14.2556 9.11197 15.122 8.80604 16.0109C8.76259 16.1414 8.76924 16.2834 8.82469 16.4093C8.88014 16.5351 8.98043 16.6359 9.10605 16.6919C9.35305 16.8079 9.52205 16.6849 9.60605 16.2859C9.96236 15.1537 10.4185 14.0554 10.969 13.0039C10.9718 12.9998 10.9741 12.9954 10.976 12.9909C11.359 12.8639 11.745 12.7499 12.109 12.6509C11.9524 13.2127 11.8595 13.7903 11.832 14.3729C11.832 14.7049 11.953 15.0919 12.303 15.0399C12.653 14.9879 12.596 14.6469 12.635 14.3309C12.724 13.6079 12.7351 13.2939 12.9041 12.4659C12.9041 12.4659 12.9131 12.4549 12.9181 12.4409C13.3081 12.3479 13.639 12.2739 13.872 12.2259C13.84 12.2999 13.802 12.3799 13.763 12.4649C13.609 12.7879 13.443 13.1859 13.338 13.4739C13.2518 13.6991 13.1947 13.9343 13.1681 14.1739C13.1351 14.5979 13.309 14.8259 13.615 14.7659C13.845 14.7219 14.196 14.4009 14.592 13.7659C14.5535 13.881 14.5281 14.0001 14.5161 14.1209C14.5041 14.4519 14.662 14.7209 15.178 14.3629C15.229 14.3269 15.2361 14.2729 15.2381 14.1679C15.2888 13.6979 15.4517 13.2469 15.713 12.8529C15.8535 12.57 16.0721 12.3333 16.343 12.1709C16.733 11.9949 16.982 12.0499 17.2 11.7709C17.418 11.4919 16.962 11.2239 16.767 11.2609ZM12.274 11.9429C12.001 11.9999 11.713 12.0649 11.417 12.1429C11.8997 11.2374 12.4339 10.3603 13.017 9.51591C12.7212 10.3097 12.4731 11.1205 12.274 11.9439V11.9429Z" fill="white"/>
<path d="M23.3091 17.0809C23.2075 17.2625 23.0882 17.4336 22.9531 17.5919C22.8231 17.7389 22.7201 17.7979 22.6641 17.7759C22.5151 17.7199 22.6001 17.4999 22.7521 17.1759C22.8241 17.0239 22.9241 16.8279 23.0161 16.6589C23.0972 16.5519 23.1545 16.4289 23.1841 16.2979C23.1971 16.1849 23.1291 16.1109 22.9261 16.0239C22.7971 15.9649 22.7861 15.9539 22.7341 15.7999C22.707 15.7133 22.6494 15.6395 22.572 15.5922C22.4945 15.5449 22.4025 15.5274 22.3131 15.5429C21.8426 15.7216 21.4404 16.0442 21.1641 16.4649C21.0171 16.6379 20.5151 17.3369 20.4541 17.4259L20.3751 17.5339C20.2601 17.7068 20.1342 17.8721 19.9981 18.0289C19.9386 18.1031 19.8597 18.1592 19.7701 18.1909C19.7311 18.1969 19.7141 18.1659 19.7221 18.1139C19.7412 17.9996 19.7787 17.8892 19.8331 17.7869C19.9471 17.5499 20.1261 17.2009 20.2641 16.9679C20.3401 16.8269 20.4711 16.5739 20.4821 16.5459L20.5561 16.4119C20.5931 16.3599 20.6137 16.298 20.6153 16.2342C20.6168 16.1704 20.5993 16.1076 20.5649 16.0539C20.5305 16.0001 20.4808 15.9579 20.4222 15.9326C20.3636 15.9073 20.2988 15.9001 20.2361 15.9119C20.1277 15.9307 20.025 15.9741 19.9361 16.0389C19.8791 16.0779 19.8711 16.0939 19.8541 16.1739C19.7801 16.3996 19.685 16.6179 19.5701 16.8259C19.4011 17.1419 19.2171 17.5259 19.0981 17.8129C19.0022 18.0369 18.935 18.2721 18.8981 18.5129C18.8461 18.9339 19.0081 19.1719 19.3171 19.1269C19.5491 19.0939 19.7951 18.8659 20.0991 18.5039C20.2108 18.3648 20.3136 18.2188 20.4071 18.0669C20.3511 18.5359 20.5771 18.8609 20.9641 18.8039C21.2717 18.7143 21.5382 18.5197 21.7171 18.2539C21.7541 18.2159 21.7671 18.1999 21.7881 18.1979C21.8091 18.1959 21.8251 18.2109 21.8271 18.2499L21.8411 18.2939C21.8467 18.3415 21.8626 18.3874 21.8875 18.4283C21.9125 18.4692 21.9461 18.5043 21.9859 18.5311C22.0256 18.5579 22.0707 18.5757 22.1181 18.5835C22.1654 18.5912 22.2138 18.5886 22.2601 18.5759C22.6411 18.4717 22.9678 18.2255 23.1731 17.8879C23.3569 17.6632 23.5025 17.4098 23.6041 17.1379C23.6651 16.9509 23.4241 16.8869 23.3091 17.0809ZM21.7291 17.6569C21.5341 17.9239 21.3521 18.0929 21.2471 18.1079C21.1811 18.1169 21.1471 18.0509 21.1571 17.9519C21.3119 17.4675 21.5487 17.0132 21.8571 16.6089C21.9766 16.4196 22.1448 16.2659 22.3441 16.1639C22.4171 16.1529 22.4441 16.1939 22.4321 16.2929C22.2673 16.7804 22.03 17.2402 21.7281 17.6569H21.7291Z" fill="white"/>
<path d="M20.665 15.4559C20.7927 15.4268 20.9083 15.359 20.9962 15.2619C21.084 15.1647 21.1398 15.0429 21.156 14.9129C21.1636 14.8581 21.1574 14.8022 21.138 14.7503C21.1185 14.6984 21.0865 14.6522 21.0447 14.6159C21.0029 14.5796 20.9527 14.5542 20.8986 14.5422C20.8445 14.5301 20.7883 14.5318 20.735 14.5469C20.6072 14.5757 20.4915 14.6432 20.4034 14.7402C20.3154 14.8372 20.2594 14.959 20.243 15.0889C20.2352 15.144 20.2412 15.2001 20.2606 15.2522C20.28 15.3043 20.3122 15.3508 20.3542 15.3873C20.3961 15.4237 20.4466 15.4491 20.5009 15.4611C20.5552 15.4731 20.6116 15.4713 20.665 15.4559Z" fill="white"/>
<path d="M16.9691 16.5409L16.8611 16.5569C17.0131 15.7362 17.2559 14.935 17.5851 14.1679C17.7721 13.6679 17.7511 13.5519 17.5921 13.3629C17.4331 13.1739 17.4621 12.9629 17.2831 12.9489C16.8661 12.9099 15.4241 15.0619 14.2611 17.1599C13.7126 17.326 13.1777 17.534 12.6611 17.7819C12.5569 17.8351 12.4765 17.9254 12.4356 18.035C12.3947 18.1446 12.3963 18.2655 12.4401 18.3739C12.4459 18.4186 12.4627 18.4612 12.489 18.4978C12.5154 18.5344 12.5503 18.564 12.5908 18.5838C12.6313 18.6036 12.6761 18.6131 12.7212 18.6113C12.7662 18.6096 12.8102 18.5968 12.8491 18.5739C13.1324 18.4041 13.4275 18.2547 13.7321 18.1269C13.3086 18.9841 12.9363 19.8657 12.6171 20.7669C12.575 20.8973 12.5824 21.0386 12.6377 21.164C12.693 21.2894 12.7924 21.39 12.9171 21.4469C13.1631 21.5639 13.3321 21.4409 13.4171 21.0469C13.7868 19.905 14.2493 18.7953 14.8001 17.7289C15.1821 17.6019 15.5651 17.4909 15.9221 17.3929C15.7818 17.9647 15.6884 18.5469 15.6431 19.1339C15.6431 19.4659 15.7631 19.8529 16.1131 19.8009C16.4631 19.7489 16.4071 19.4069 16.4461 19.0909C16.5351 18.3679 16.5461 18.0539 16.7141 17.2269C16.7243 17.2161 16.7312 17.2025 16.7341 17.1879C16.8251 17.1649 16.9141 17.1439 16.9961 17.1259C17.4341 17.0259 17.5581 17.0309 17.5881 16.6759C17.6091 16.4529 17.1201 16.5139 16.9691 16.5409ZM16.8371 14.2719C16.5419 15.0649 16.2938 15.8747 16.0941 16.6969C15.8251 16.7519 15.5391 16.8149 15.2421 16.8879C15.7239 15.9861 16.2564 15.1124 16.8371 14.2709V14.2719Z" fill="white"/>
<path d="M17.525 19.4459C17.298 19.4709 16.804 19.3549 16.725 18.9459C16.7488 18.75 16.8172 18.5622 16.925 18.3969C16.936 18.379 16.9516 18.3644 16.9701 18.3546C16.9887 18.3448 17.0095 18.3402 17.0305 18.3412C17.0515 18.3422 17.0718 18.3488 17.0893 18.3604C17.1068 18.372 17.1209 18.388 17.13 18.4069C17.208 18.5249 17.624 18.9069 17.866 18.6619C18.021 18.5009 17.78 18.2899 17.68 18.1189C17.5726 17.8639 17.5426 17.583 17.5939 17.3111C17.6451 17.0392 17.7752 16.7883 17.968 16.5899C18.0587 16.4753 18.173 16.3815 18.3031 16.3149C18.4332 16.2484 18.576 16.2105 18.722 16.2039C19.209 16.1869 19.377 16.4729 19.34 16.6419C19.309 16.7805 19.2397 16.9077 19.14 17.0089C19.094 17.0629 18.956 17.0769 18.913 17.0089C18.813 16.8519 18.749 16.6419 18.448 16.7669C18.207 16.8669 18.193 17.2079 18.248 17.3749C18.332 17.6409 18.675 17.8409 18.672 18.2249C18.6778 18.5378 18.5611 18.8406 18.3469 19.0687C18.1326 19.2968 17.8377 19.4321 17.525 19.4459Z" fill="white"/>
</svg>
