<svg width="32" height="32" viewBox="0 0 32 32" fill="none" xmlns="http://www.w3.org/2000/svg">
<path fill-rule="evenodd" clip-rule="evenodd" d="M5.00001 15.8L27 2C26.831 3.373 27.52 5.18698 24.23 7.62598C27.873 9.50198 27.873 14.016 24.43 14.926C22.6527 15.1467 21.595 14.4767 21.257 12.916C21.552 10.971 22.857 11.508 22.948 12.316C23.273 14.143 24.892 13.81 25.239 12.182C25.626 7.07098 16.861 9.126 19.639 14.461C19.268 14.2723 18.8634 14.1588 18.4484 14.1271C18.0333 14.0953 17.6162 14.146 17.2208 14.2761C16.8254 14.4062 16.4597 14.6132 16.1446 14.8852C15.8296 15.1572 15.5714 15.4888 15.385 15.861C15.913 17.281 17.061 18.085 19.569 17.535C16.588 22.555 24.506 24.895 25.104 20.22C24.922 18.052 23.393 17.897 22.945 19.55C22.626 20.598 21.299 20.731 21.189 19.35C21.194 16.385 26.013 16.143 26.789 19.416C27.319 21.274 26.383 22.846 24.221 24.171C25.1018 24.8509 25.7982 25.7405 26.2468 26.7587C26.6954 27.7769 26.8818 28.8912 26.789 30L4.98901 15.8H5.00001Z" fill="#8C7737"/>
</svg>
