<svg width="32" height="32" viewBox="0 0 32 32" fill="none" xmlns="http://www.w3.org/2000/svg">
<path d="M16.495 21.892C16.495 20.992 16.951 20.823 17.795 21.305C19.352 22.191 20.973 23.105 20.973 23.105C21.028 22.598 21.457 22.169 22.389 22.39C23.261 22.597 24.232 22.815 24.232 22.815C24.232 22.815 23.708 21.615 23.473 21.084C23.047 20.115 23.458 19.649 23.873 19.513C23.873 19.513 23.273 19.1 22.887 18.823C22.046 18.229 22.245 17.65 23.059 17.291C24.175 16.806 25.553 16.174 25.553 16.174C25.3984 16.0842 25.2646 15.9626 25.1604 15.8173C25.0561 15.6719 24.9839 15.5062 24.9484 15.331C24.9129 15.1557 24.9149 14.9749 24.9543 14.8005C24.9937 14.6261 25.0696 14.462 25.177 14.319C25.748 13.472 26.601 12.291 26.601 12.291C26.601 12.291 25.093 12.307 24.089 12.291C23.9273 12.2932 23.7671 12.2603 23.6194 12.1948C23.4716 12.1292 23.3398 12.0324 23.2329 11.9111C23.126 11.7898 23.0467 11.6469 23.0003 11.492C22.9538 11.3372 22.9415 11.1741 22.964 11.014C22.964 11.014 21.48 12.083 20.418 12.814C19.518 13.429 18.712 12.83 18.845 11.775C19.058 10.123 19.245 8.29902 19.245 8.29902C19.0899 8.41149 18.9112 8.48712 18.7224 8.5202C18.5337 8.55327 18.3399 8.54291 18.1558 8.4899C17.9717 8.43688 17.8021 8.3426 17.6599 8.21422C17.5176 8.08585 17.4065 7.92675 17.335 7.74901C16.714 6.38701 16 4.79101 16 4.79101C16 4.79101 15.287 6.39101 14.668 7.74901C14.5958 7.92687 14.4842 8.08601 14.3415 8.21437C14.1988 8.34273 14.0288 8.43697 13.8443 8.48995C13.6598 8.54293 13.4657 8.55327 13.2766 8.52019C13.0876 8.48711 12.9085 8.41149 12.753 8.29902C12.753 8.29902 12.944 10.124 13.153 11.775C13.288 12.83 12.478 13.429 11.586 12.814C10.524 12.082 9.03798 11.014 9.03798 11.014C9.06034 11.1742 9.0478 11.3374 9.00119 11.4923C8.95459 11.6472 8.87504 11.7903 8.76799 11.9115C8.66095 12.0328 8.52893 12.1296 8.381 12.1951C8.23308 12.2606 8.07274 12.2933 7.91098 12.291C6.91098 12.307 5.40197 12.291 5.40197 12.291C5.40197 12.291 6.25498 13.472 6.82398 14.319C6.93066 14.4622 7.00596 14.6262 7.045 14.8005C7.08404 14.9747 7.08594 15.1552 7.05056 15.3302C7.01518 15.5052 6.94332 15.6708 6.83967 15.8162C6.73601 15.9616 6.6029 16.0835 6.44898 16.174C6.44898 16.174 7.82798 16.807 8.93598 17.291C9.75698 17.65 9.95397 18.229 9.10997 18.823C8.71898 19.1 8.12397 19.513 8.12397 19.513C8.54198 19.648 8.95098 20.113 8.52398 21.084C8.29098 21.611 7.76898 22.815 7.76898 22.815C7.76898 22.815 8.73997 22.597 9.61197 22.39C10.547 22.168 10.977 22.597 11.031 23.105L14.208 21.305C15.053 20.823 15.508 20.987 15.508 21.892V24.111C15.5638 25.2948 15.3232 26.4738 14.808 27.541C11.6661 27.2853 8.7424 25.833 6.64026 23.4841C4.53813 21.1351 3.41806 18.0688 3.51126 14.9179C3.60446 11.767 4.90381 8.77222 7.14111 6.55162C9.37841 4.33103 12.3829 3.05415 15.5343 2.98456C18.6858 2.91497 21.7437 4.05798 24.0768 6.17765C26.41 8.29733 27.8403 11.2319 28.0725 14.3755C28.3047 17.5192 27.321 20.632 25.3246 23.0715C23.3283 25.511 20.4715 27.0908 17.344 27.485V29.107C20.8628 28.7668 24.1224 27.1074 26.4678 24.4623C28.8132 21.8172 30.0706 18.3824 29.9873 14.8482C29.904 11.314 28.4862 7.94231 26.0188 5.41065C23.5513 2.87899 20.2171 1.37501 16.6862 1.20095C13.1553 1.02688 9.68941 2.19563 6.98493 4.47232C4.28045 6.74902 2.53787 9.96494 2.10737 13.4738C1.67686 16.9827 2.59034 20.5245 4.66423 23.3874C6.73812 26.2504 9.81872 28.2224 13.287 28.907C14.1833 28.9469 15.0279 29.3381 15.638 29.996C16.326 28.716 16.489 25.996 16.489 24.466C16.489 24.466 16.489 22.594 16.489 21.888" fill="#E50019"/>
</svg>
