<svg width="32" height="32" viewBox="0 0 32 32" fill="none" xmlns="http://www.w3.org/2000/svg">
<path d="M21.779 15.5689L19.779 16.9169V19.1169L27.079 14.5439C27.9765 14.0181 28.7508 13.3061 29.35 12.4559C29.7521 11.8362 29.9731 11.1165 29.988 10.3779C30.0386 9.7559 29.9366 9.13092 29.6909 8.55724C29.4452 7.98356 29.0632 7.47851 28.578 7.08594C27.3516 6.2987 25.904 5.9277 24.45 6.02794C23.2277 6.04098 22.0198 6.29411 20.895 6.77294C19.762 7.23208 18.7076 7.86537 17.77 8.64994C17.1791 7.86006 16.4404 7.19238 15.595 6.68394C14.6839 6.19622 13.6586 5.96207 12.626 6.00594C11.1421 6.01557 9.68209 6.38114 8.36869 7.07194C7.05528 7.76275 5.92682 8.75863 5.07805 9.97594C3.10284 12.4242 2.01696 15.4703 1.99805 18.6159C1.99805 21.2679 2.49271 23.1623 3.48205 24.2989C3.9315 24.8448 4.49907 25.2815 5.14193 25.576C5.78479 25.8704 6.48613 26.0151 7.19305 25.9989C8.30163 25.9789 9.38995 25.6983 10.37 25.1799C11.669 24.4998 12.8822 23.6673 13.984 22.6999C14.4437 23.7476 15.2233 24.6227 16.211 25.1999C17.2817 25.758 18.4771 26.0334 19.684 25.9999C21.5675 26.0177 23.4105 25.4533 24.961 24.3839C26.4202 23.397 27.8004 22.298 29.0891 21.0969L28.089 19.5399L26.15 20.9689C25.3759 21.536 24.5538 22.0346 23.693 22.4589C22.8603 22.8923 21.9377 23.1245 20.999 23.1369C20.4887 23.164 19.9815 23.0423 19.539 22.7867C19.0965 22.5311 18.7376 22.1525 18.506 21.6969C17.9281 20.5485 17.6498 19.2727 17.697 17.9879C17.6262 15.5493 18.2464 13.1402 19.486 11.0389C20.6787 9.1056 22.0764 8.14227 23.679 8.14894C24.0012 8.10455 24.3293 8.14358 24.632 8.26229C24.9348 8.381 25.202 8.57542 25.408 8.82694C25.6999 9.26856 25.8525 9.78762 25.846 10.3169C25.8867 11.2474 25.6041 12.1633 25.046 12.9089C24.0737 13.9411 22.9711 14.8424 21.766 15.5899L21.779 15.5689ZM14.75 11.4869C14.6193 12.0436 14.4522 12.5911 14.25 13.1259C13.8675 14.0933 13.5622 15.0894 13.337 16.1049C13.1565 16.8999 13.056 17.7109 13.037 18.5259C13.037 19.1019 13.052 19.5563 13.082 19.8889C13.1168 20.173 13.1713 20.4544 13.245 20.7309L10.692 22.2209C10.4363 22.3794 10.1653 22.5117 9.88305 22.6159C9.64717 22.7123 9.39577 22.7652 9.14105 22.7719C8.7167 22.7541 8.308 22.6067 7.96992 22.3496C7.63185 22.0925 7.38062 21.7381 7.25005 21.3339C6.78595 20.2892 6.55787 19.1549 6.58205 18.0119C6.4671 15.4666 7.19196 12.954 8.64505 10.8609C10.0157 9.02827 11.4804 8.11193 13.039 8.11193C13.3097 8.09097 13.5817 8.12724 13.8374 8.21839C14.0931 8.30953 14.3267 8.45351 14.523 8.64094C14.8488 9.03842 15.0156 9.5426 14.991 10.0559C14.9842 10.5283 14.9218 10.9982 14.805 11.4559" fill="#2568AD"/>
</svg>
