<svg width="32" height="32" viewBox="0 0 32 32" fill="none" xmlns="http://www.w3.org/2000/svg">
<path d="M15.72 11.347L12.307 17.107C11.9781 17.6426 11.769 18.243 11.694 18.867H10.36C10.501 18.0065 10.8287 17.1873 11.32 16.467L13.72 12.44C13.8758 12.0955 14.1326 11.8065 14.4564 11.6113C14.7802 11.4161 15.1556 11.324 15.533 11.347H15.72Z" fill="#01426A"/>
<path d="M15.453 17.4C15.1467 17.7179 14.743 17.9245 14.306 17.987C14.013 17.987 14.013 17.72 14.199 17.347C14.919 15.96 15.692 15.24 16.626 15.24H16.786L15.453 17.4ZM16.733 14.44C15 14.44 13.933 15.453 12.973 17.667C12.733 18.227 12.6 18.92 13.4 18.894C14.0323 18.8373 14.639 18.6167 15.16 18.254C15.133 18.467 15.107 18.734 15.107 18.867H16.334C16.4158 18.2361 16.6244 17.6283 16.947 17.08L18.467 14.547C17.906 14.493 17.32 14.44 16.733 14.44Z" fill="#01426A"/>
<path d="M27.987 17.4C27.6807 17.7179 27.277 17.9245 26.84 17.987C26.547 17.987 26.547 17.72 26.733 17.347C27.453 15.96 28.226 15.24 29.16 15.24H29.32L27.987 17.4ZM29.267 14.44C27.534 14.44 26.467 15.453 25.507 17.667C25.267 18.227 25.134 18.92 25.934 18.894C26.5663 18.8373 27.173 18.6167 27.694 18.254C27.6379 18.4443 27.6199 18.6438 27.641 18.841H28.868C28.9498 18.2101 29.1583 17.6023 29.481 17.054L31.001 14.521C30.44 14.493 29.854 14.44 29.267 14.44Z" fill="#01426A"/>
<path d="M25.293 20.093H24.893C24.64 20.088 24.3951 20.0026 24.1938 19.8493C23.9924 19.696 23.8451 19.4826 23.773 19.24L23.16 16.947L22.04 18.84H20.733L24.36 12.707C24.5158 12.3624 24.7725 12.0733 25.0963 11.8779C25.4201 11.6826 25.7955 11.5902 26.173 11.613H26.333L23.933 15.693L25.746 14.44H27.186L24.146 16.547L25.293 20.093Z" fill="#01426A"/>
<path d="M13.32 11C12.1828 10.9981 11.087 11.4268 10.253 12.2L6.2 15.133H3.613C3.2898 15.0875 2.96078 15.1065 2.64496 15.1888C2.32913 15.2712 2.03277 15.4154 1.773 15.613L1.106 16.226C1.106 16.226 3.053 16.146 4.893 16.093L1 18.867H2.68L6.653 15.987C7.426 15.96 7.96 15.934 7.96 15.934C8.24697 15.9142 8.52569 15.8294 8.77513 15.6862C9.02458 15.5429 9.23824 15.3449 9.4 15.107H7.88L11.107 12.787L8.733 16.653C8.30708 17.3284 8.01731 18.0805 7.88 18.867H9.267C9.32539 18.2393 9.53578 17.6352 9.88 17.107L13.107 11.667C13.347 11.294 13.534 11 13.534 11H13.32Z" fill="#01426A"/>
<path d="M19.8 15.693C19.773 15.8 19.827 15.88 20.067 16.04L20.44 16.28C20.6099 16.379 20.7479 16.5245 20.8378 16.6994C20.9276 16.8743 20.9655 17.0712 20.947 17.267C20.87 17.7784 20.5945 18.2388 20.1802 18.5483C19.7659 18.8577 19.2462 18.9913 18.734 18.92C18.1802 18.9236 17.6271 18.8791 17.081 18.787L17.641 17.854C18.0365 17.9321 18.438 17.9766 18.841 17.987C19.374 17.987 19.588 17.747 19.614 17.56C19.641 17.453 19.587 17.32 19.321 17.133L19.028 16.92C18.548 16.573 18.441 16.307 18.495 15.907C18.602 15.107 19.535 14.494 20.842 14.494C21.2874 14.4964 21.7324 14.5231 22.175 14.574L21.668 15.454C21.2691 15.4177 20.8681 15.4087 20.468 15.427C20.067 15.373 19.827 15.506 19.8 15.693Z" fill="#01426A"/>
</svg>
