<svg width="32" height="32" viewBox="0 0 32 32" fill="none" xmlns="http://www.w3.org/2000/svg">
<path d="M19.745 12.5321C19.283 12.7451 18.821 12.9581 18.387 13.1401C17.405 13.5961 16.451 14.0831 15.498 14.6001C15.4439 14.6246 15.3843 14.6349 15.325 14.6301C15.065 14.6601 14.776 14.6911 14.516 14.7211C13.967 14.8121 13.447 14.8731 12.898 14.9951C12.06 15.1471 11.222 15.2951 10.385 15.4821C9.11404 15.7821 7.84304 16.0901 6.54304 16.4251C6.48504 16.4251 6.45604 16.4551 6.39904 16.4551C6.36222 16.4661 6.32349 16.4692 6.28537 16.4643C6.24726 16.4593 6.21063 16.4463 6.17787 16.4262C6.14512 16.4061 6.11698 16.3793 6.09529 16.3476C6.07361 16.3158 6.05887 16.2799 6.05204 16.2421C6.01465 16.1665 6.00881 16.0791 6.03582 15.9992C6.06282 15.9194 6.12045 15.8535 6.19604 15.8161C6.42136 15.7034 6.65271 15.6033 6.88904 15.5161C8.56504 14.8471 10.269 14.2391 12.002 13.7221C13.2447 13.353 14.5083 13.0585 15.786 12.8401C16.5889 12.6952 17.3991 12.5951 18.213 12.5401C18.704 12.5101 19.195 12.5101 19.686 12.4791C19.686 12.5091 19.715 12.5091 19.744 12.5401L19.745 12.5321Z" fill="#00A651"/>
<path d="M29.794 15.2081C29.534 15.1471 29.274 15.1171 29.014 15.0561C27.945 14.8741 26.876 14.6911 25.779 14.5391C25.23 14.4481 24.652 14.4481 24.079 14.3871C23.935 14.3871 23.963 14.3571 23.935 14.3261C23.617 13.8391 23.299 13.3831 22.982 12.8971C22.9468 12.8391 22.9173 12.7778 22.894 12.7141C25.2784 13.2761 27.5927 14.1022 29.794 15.1771V15.2081Z" fill="#00A651"/>
<path d="M21.479 13.3831C21.679 13.6831 21.879 13.9611 22.115 14.2651H19.63L19.688 14.2351C20.266 13.9611 20.872 13.6571 21.479 13.3831Z" fill="#00A651"/>
<path d="M21.449 13.3831C21.94 13.1701 22.431 12.9571 22.922 12.7751C23.153 13.1401 23.384 13.4751 23.615 13.8091C24.4228 15.0388 25.0913 16.3545 25.608 17.7321C26.0245 18.7827 26.3722 19.8593 26.649 20.9551C26.649 20.9851 26.678 21.0161 26.678 21.0771C26.7027 21.1567 26.6957 21.2427 26.6585 21.3173C26.6212 21.3918 26.5565 21.4491 26.478 21.4771C26.4421 21.4953 26.4028 21.5059 26.3625 21.508C26.3223 21.5102 26.2821 21.5039 26.2444 21.4896C26.2067 21.4753 26.1725 21.4533 26.1438 21.4249C26.1152 21.3966 26.0928 21.3626 26.078 21.3251C25.934 21.0511 25.818 20.7471 25.678 20.4431C24.7076 18.3188 23.5355 16.2925 22.178 14.3921C21.947 14.0921 21.745 13.7841 21.514 13.4801C21.507 13.4441 21.478 13.4441 21.449 13.3831Z" fill="#005E9E"/>
<path d="M21.449 10.8901C21.102 10.8601 20.756 10.7991 20.409 10.7681L19.369 10.6771C19.331 10.6777 19.2934 10.6698 19.2588 10.6541C19.2242 10.6384 19.1935 10.6151 19.169 10.5861C18.68 10.0691 18.18 9.52206 17.664 9.00506C16.537 7.84906 15.324 6.75506 14.111 5.72106C14.049 5.68587 13.9988 5.63294 13.967 5.56906C13.9389 5.54117 13.9166 5.50799 13.9014 5.47143C13.8861 5.43487 13.8783 5.39566 13.8783 5.35606C13.8783 5.31645 13.8861 5.27724 13.9014 5.24068C13.9166 5.20413 13.9389 5.17094 13.967 5.14306C13.989 5.10814 14.0178 5.078 14.0517 5.05443C14.0856 5.03086 14.1239 5.01434 14.1643 5.00585C14.2047 4.99736 14.2463 4.99708 14.2868 5.00502C14.3273 5.01295 14.3658 5.02895 14.4 5.05206L14.833 5.32606C16.162 6.26906 17.491 7.24206 18.762 8.30606C19.6301 9.03282 20.4505 9.81477 21.218 10.6471C21.2873 10.7351 21.3646 10.8165 21.449 10.8901Z" fill="#005E9E"/>
<path d="M23.067 12.7461C22.749 12.8681 22.167 13.1111 21.854 13.2631C19.2581 14.3598 16.779 15.7146 14.454 17.3071C12.692 18.4931 10.954 19.7701 9.28304 21.1391C7.89604 22.2951 6.51004 23.4801 5.12304 24.6391C4.28504 25.3691 3.47604 26.1291 2.63904 26.8591C2.57252 26.9171 2.49344 26.9588 2.40804 26.9811C2.34592 27.0069 2.2764 27.0088 2.213 26.9862C2.1496 26.9637 2.09686 26.9183 2.06504 26.8591C2.02305 26.8075 2.00012 26.743 2.00012 26.6766C2.00012 26.6101 2.02305 26.5456 2.06504 26.4941C2.19023 26.3351 2.32375 26.1829 2.46504 26.0381C3.76504 24.5481 5.06504 23.0581 6.48004 21.6591C8.69726 19.4115 11.1364 17.3942 13.76 15.6381C15.5592 14.4681 17.4646 13.4704 19.451 12.6581C19.6767 12.5536 19.908 12.4622 20.144 12.3841C20.2742 12.3336 20.4079 12.2929 20.544 12.2621C21.266 12.3841 21.757 12.5051 22.508 12.6621C22.605 12.6591 22.98 12.7461 23.067 12.7461Z" fill="#FFCB05"/>
<path d="M23.182 11.438C23.442 11.377 23.731 11.256 23.962 11.195C24.829 10.982 25.695 10.769 26.562 10.587C27.313 10.435 28.062 10.313 28.815 10.187H29.075C29.1442 10.1935 29.2087 10.2249 29.2565 10.2752C29.3043 10.3256 29.3322 10.3916 29.335 10.461C29.3533 10.5283 29.3456 10.5999 29.3136 10.6617C29.2816 10.7236 29.2275 10.7712 29.162 10.795C28.9159 10.8801 28.6652 10.9512 28.411 11.008C27.371 11.308 26.302 11.616 25.262 11.92C25.1386 11.9506 25.0095 11.9506 24.886 11.92C24.366 11.738 23.846 11.62 23.355 11.433C23.3291 11.4489 23.2996 11.4577 23.2692 11.4586C23.2389 11.4595 23.2088 11.4524 23.182 11.438Z" fill="#FFCB05"/>
<path d="M13.678 11.6771H11.83C11.762 11.6817 11.6937 11.6715 11.63 11.6471C11.5686 11.6295 11.5139 11.5941 11.4727 11.5453C11.4316 11.4965 11.4059 11.4365 11.399 11.3731C11.3808 11.3058 11.3884 11.2342 11.4205 11.1724C11.4525 11.1105 11.5066 11.0629 11.572 11.0391L11.914 10.9511C12.405 10.8901 12.925 10.7991 13.414 10.7691C13.814 10.7081 14.252 10.6781 14.656 10.6471C15.205 10.6171 15.756 10.5561 16.303 10.5251C16.967 10.4951 17.661 10.4951 18.325 10.5251C18.961 10.5551 19.567 10.6161 20.174 10.6771C20.961 10.7659 21.7422 10.8995 22.514 11.0771C23.3406 11.2705 24.1518 11.5246 24.941 11.8371C26.0497 12.271 27.114 12.8108 28.119 13.4491C28.697 13.8141 29.246 14.1791 29.795 14.5441C29.824 14.5741 29.853 14.6051 29.882 14.6051C29.9376 14.6535 29.9761 14.7186 29.9917 14.7907C30.0074 14.8627 29.9994 14.9379 29.969 15.0051C29.9615 15.0387 29.9471 15.0704 29.9266 15.0982C29.9061 15.1259 29.8801 15.1491 29.8502 15.1662C29.8203 15.1834 29.7871 15.1941 29.7528 15.1976C29.7185 15.2012 29.6838 15.1976 29.651 15.1871C29.5703 15.1848 29.4913 15.1639 29.42 15.1261C28.3181 14.5623 27.1803 14.0715 26.014 13.6571C24.9255 13.2643 23.8165 12.9304 22.692 12.6571C21.941 12.4751 21.219 12.3571 20.468 12.2011C19.948 12.1101 19.399 12.0191 18.85 11.9581C18.417 11.8971 18.012 11.8671 17.579 11.8361C17.03 11.7751 16.479 11.7451 15.961 11.7141C15.297 11.6841 14.661 11.6841 13.997 11.6531C13.8938 11.6829 13.786 11.6931 13.679 11.6831L13.678 11.6771Z" fill="#ED1C24"/>
</svg>
