<svg width="32" height="32" viewBox="0 0 32 32" fill="none" xmlns="http://www.w3.org/2000/svg">
<path d="M28 4H4V28H28V4Z" fill="#D71920"/>
<path d="M18.417 8.94499C18.368 8.99799 18.09 9.22899 18.005 9.32299C17.8451 9.49168 17.7581 9.71661 17.763 9.94899C17.763 10.041 17.763 12.135 17.763 12.238C17.7607 12.5423 17.6448 12.8348 17.438 13.058C17.364 13.142 16.658 13.768 16.59 13.833H16.382C16.414 13.798 16.782 13.464 16.841 13.405C16.952 13.2636 17.0182 13.0923 17.031 12.913C17.031 12.834 17.031 10.623 17.031 10.531C17.0342 10.2563 17.1269 9.99023 17.295 9.77299C17.368 9.69699 18.147 8.99399 18.2 8.94099L18.417 8.94499ZM18.333 15.055V16.005L18.665 16.35C18.921 16.623 18.918 17.119 18.107 17.91C17.8191 18.2197 17.4231 18.4066 17.001 18.432H15.547L16.411 19.187H16.99C17.5443 19.1858 18.0761 18.9679 18.472 18.58C18.6334 18.4094 18.7594 18.2086 18.8428 17.9891C18.9262 17.7695 18.9654 17.5357 18.958 17.301V16.063C18.9559 15.9247 18.9252 15.7883 18.8677 15.6625C18.8102 15.5366 18.7272 15.4241 18.624 15.332C18.584 15.293 18.332 15.056 18.332 15.056L18.333 15.055ZM19.632 14.512C19.808 14.512 19.85 14.278 19.67 14.032C19.6376 14.0005 19.5987 13.9766 19.556 13.9619C19.5133 13.9472 19.4679 13.9421 19.423 13.947C19.2992 13.9413 19.1773 13.9795 19.079 14.055C19.1681 14.1757 19.2664 14.2894 19.373 14.395C19.444 14.4618 19.535 14.5033 19.632 14.513V14.512ZM12.678 11.926C12.712 11.94 12.9 12.015 12.9 12.734C12.9 12.734 12.887 13.569 12.887 13.614C12.884 13.8098 12.9555 13.9994 13.0869 14.1445C13.2183 14.2897 13.3999 14.3796 13.595 14.396H17.029C17.0605 14.1677 17.1504 13.9514 17.29 13.768C17.384 13.668 18.12 12.99 18.204 12.925H18.422C18.389 12.955 18.033 13.275 17.953 13.359C17.8301 13.524 17.7639 13.7243 17.764 13.93V14.399H18.239C18.427 14.3792 18.5998 14.2871 18.721 14.142V13.677C18.792 13.7778 18.8772 13.8677 18.974 13.944C19.024 13.881 19.457 13.357 19.819 13.354H19.825C20.425 13.354 20.287 14.113 20.04 14.354C19.96 14.433 19.603 14.76 19.492 14.866C19.4092 14.9484 19.2978 14.9956 19.181 14.998C18.945 14.998 18.717 14.785 18.717 14.305C18.717 14.305 18.192 14.805 18.117 14.869C18.042 14.933 17.767 15.222 17.767 15.222V16.457C17.7835 16.6351 17.7601 16.8146 17.6983 16.9824C17.6365 17.1502 17.538 17.3021 17.41 17.427C17.348 17.496 16.68 18.105 16.591 18.171L16.373 18.176C16.373 18.176 16.764 17.821 16.842 17.74C16.9795 17.5746 17.0483 17.3626 17.034 17.148C17.034 17.069 17.024 15.207 17.024 15.207H13.987C12.931 15.207 12.706 14.036 12.699 13.722C12.699 13.63 12.699 12.694 12.699 12.549C12.6968 12.4285 12.6667 12.3101 12.6112 12.203C12.5557 12.096 12.4762 12.0033 12.379 11.932H12.679L12.678 11.926ZM14.851 15.561L14.271 16.141C14.666 16.536 14.799 16.733 14.838 16.912C14.869 16.881 15.399 16.441 15.399 16.275C15.399 16.033 15.24 15.95 14.851 15.561ZM15.863 13.161C16.354 13.161 16.257 12.856 16.168 12.702C15.9438 12.3811 15.6925 12.08 15.417 11.802L14.384 12.866C14.2908 12.9849 14.1774 13.0865 14.049 13.166H15.862L15.863 13.161ZM16.069 8.93999C16.0897 9.20401 16.2093 9.45047 16.404 9.62999C16.52 9.74699 16.77 10.062 16.62 10.212C16.488 10.344 16.282 10.555 16.282 10.555C16.272 10.479 16.082 10.297 16.082 10.297C16.082 10.297 16.082 10.857 16.082 10.926C16.075 11.179 15.982 11.251 15.982 11.251C16.258 11.5377 16.4234 11.9129 16.449 12.31C16.449 12.598 16.449 12.864 16.449 12.921C16.4514 12.9778 16.4423 13.0345 16.4224 13.0878C16.4025 13.141 16.3721 13.1897 16.333 13.231C16.291 13.277 15.858 13.712 15.792 13.772C15.6949 13.8604 15.5673 13.9078 15.436 13.904H13.826C13.573 13.904 13.312 13.704 13.312 13.504C13.312 13.455 13.312 12.904 13.312 12.904C13.3509 12.9646 13.4043 13.0146 13.4673 13.0495C13.5303 13.0844 13.601 13.1032 13.673 13.104H13.681C13.8197 13.0881 13.9494 13.0277 14.051 12.932C14.097 12.885 15.269 11.661 15.269 11.661C14.9807 11.3929 14.6765 11.1424 14.358 10.911C14.3168 10.8828 14.2679 10.8678 14.218 10.868C14.1496 10.8698 14.0834 10.8929 14.0286 10.9339C13.9738 10.9749 13.9331 11.0319 13.912 11.097C13.8512 11.5007 13.8512 11.9113 13.912 12.315L13.467 11.871C13.3779 11.7544 13.3331 11.61 13.3406 11.4635C13.3482 11.3169 13.4075 11.1779 13.508 11.071C13.7047 10.8443 13.9804 10.7013 14.279 10.671H14.922C15.2585 10.7203 15.5722 10.8702 15.822 11.101C15.8597 11.0596 15.8838 11.0076 15.891 10.952C15.891 10.731 15.883 10.135 15.883 10.135C15.559 9.81099 15.514 9.47499 15.67 9.31999C15.96 9.02999 16.07 8.92799 16.07 8.92799L16.069 8.93999ZM12.315 14.509H12.015C12.1183 14.5771 12.2022 14.6708 12.2583 14.7811C12.3144 14.8914 12.3408 15.0144 12.335 15.138V16.585C12.3342 17.0501 12.5123 17.4977 12.8325 17.8351C13.1527 18.1724 13.5905 18.3736 14.055 18.397H14.843C15.0151 18.4098 15.1878 18.3832 15.3481 18.3193C15.5084 18.2553 15.652 18.1557 15.768 18.028C15.87 17.9329 15.9671 17.8328 16.059 17.728C16.1761 17.6275 16.2684 17.5013 16.3286 17.3592C16.3888 17.2171 16.4153 17.063 16.406 16.909V16.435C16.4055 16.3 16.3735 16.167 16.3126 16.0465C16.2516 15.926 16.1634 15.8214 16.055 15.741C15.981 15.667 15.78 15.475 15.78 15.475V16.445C15.78 16.445 15.98 16.656 16.066 16.725C16.1437 16.7897 16.2 16.8764 16.2275 16.9737C16.2549 17.071 16.2522 17.1743 16.2197 17.2701C16.1872 17.3658 16.1265 17.4495 16.0455 17.51C15.9645 17.5705 15.867 17.605 15.766 17.609C15.69 17.609 14.141 17.609 14.035 17.609H14.006C13.6141 17.5934 13.2431 17.4284 12.9691 17.1477C12.6951 16.8671 12.5391 16.4921 12.533 16.1V15.314C12.533 14.506 12.312 14.506 12.312 14.506L12.315 14.509ZM13.661 15.554L13.081 16.134C13.481 16.529 13.61 16.726 13.648 16.905C13.679 16.874 14.208 16.433 14.208 16.268C14.208 16.025 14.049 15.943 13.661 15.554ZM7.711 19.186H5.711C5.82666 19.3043 5.91637 19.4455 5.97439 19.6005C6.03242 19.7554 6.05749 19.9208 6.048 20.086L6.058 22.51C6.058 23.118 6.302 23.135 6.302 23.135H8.273C8.34479 23.1426 8.41737 23.1358 8.48653 23.1151C8.55569 23.0944 8.62005 23.0602 8.67587 23.0144C8.73169 22.9687 8.77786 22.9123 8.8117 22.8485C8.84554 22.7847 8.86638 22.7149 8.873 22.643L8.88 22.411C8.88 22.411 8.74 22.709 8.152 22.709H7.224C6.932 22.709 6.954 22.466 6.924 22.259V20.929C6.924 20.929 7.124 20.924 7.356 20.924C7.434 20.924 7.516 20.924 7.603 20.924C7.82541 20.913 8.04672 20.9617 8.244 21.065C8.16366 20.8989 8.037 20.7595 7.87927 20.6637C7.72154 20.5679 7.53947 20.5197 7.355 20.525H6.929V20.099C6.93408 19.9339 6.90302 19.7698 6.838 19.618H7.45C7.92315 19.5611 8.40204 19.6579 8.816 19.894C8.816 19.894 8.735 19.194 7.711 19.194V19.186ZM10.834 19.975C10.6528 19.9772 10.4771 20.0377 10.333 20.1476C10.1889 20.2575 10.0841 20.4108 10.034 20.585C10.034 20.585 10.019 19.997 9.505 19.997H9.005C9.005 19.997 9.297 20.117 9.297 20.626V22.509C9.297 23.131 9.548 23.142 9.548 23.142H10.378C10.2795 23.0672 10.1995 22.9708 10.1442 22.8602C10.0889 22.7495 10.0597 22.6277 10.059 22.504V20.834C10.0916 20.7315 10.1583 20.6433 10.248 20.584C10.3377 20.5247 10.445 20.4979 10.552 20.508C10.6652 20.5176 10.7709 20.5688 10.8487 20.6517C10.9264 20.7346 10.9707 20.8434 10.973 20.957V22.509C10.973 23.14 11.221 23.141 11.221 23.141H12.054C11.9565 23.0655 11.8772 22.9691 11.822 22.8588C11.7668 22.7485 11.7371 22.6273 11.735 22.504V20.833C11.77 20.7295 11.84 20.6414 11.9331 20.5841C12.0262 20.5268 12.1363 20.5039 12.2445 20.5194C12.3527 20.5348 12.4521 20.5876 12.5254 20.6687C12.5987 20.7497 12.6414 20.8538 12.646 20.963C12.646 20.963 12.646 22.379 12.646 22.511C12.646 23.134 12.885 23.14 12.893 23.14H13.727C13.6295 23.0657 13.5502 22.9701 13.4951 22.8606C13.4401 22.7512 13.4106 22.6306 13.409 22.508V20.809C13.4103 20.6901 13.386 20.5723 13.3379 20.4635C13.2897 20.3548 13.2188 20.2577 13.1298 20.1787C13.0409 20.0998 12.9361 20.0408 12.8224 20.0058C12.7088 19.9708 12.5889 19.9607 12.471 19.976C12.2973 19.9817 12.13 20.0431 11.9939 20.1511C11.8577 20.2591 11.76 20.4081 11.715 20.576C11.6535 20.3957 11.5356 20.24 11.3787 20.132C11.2218 20.0239 11.0344 19.9692 10.844 19.976L10.834 19.975ZM14.317 19.997H13.817C13.817 19.997 14.106 20.125 14.106 20.623V22.509C14.106 23.132 14.355 23.135 14.36 23.135H15.19C15.0916 23.0612 15.0115 22.9657 14.956 22.8559C14.9005 22.7461 14.8711 22.625 14.87 22.502V20.702C14.87 20.002 14.5 20.002 14.323 20.002L14.317 19.997ZM15.815 20.002H15.315C15.315 20.002 15.607 20.122 15.607 20.63V22.499C15.607 23.121 15.858 23.132 15.858 23.132H16.688C16.5896 23.0574 16.5096 22.9611 16.4543 22.8507C16.399 22.7402 16.3698 22.6185 16.369 22.495V20.95C16.3773 20.8855 16.3995 20.8236 16.434 20.7686C16.4686 20.7135 16.5146 20.6666 16.569 20.631C16.677 20.5606 16.8031 20.523 16.932 20.523C17.0275 20.5221 17.1221 20.5426 17.2086 20.5831C17.2952 20.6236 17.3715 20.683 17.432 20.757V20.224C17.3935 20.1467 17.3319 20.0834 17.2557 20.0427C17.1796 20.002 17.0926 19.9861 17.007 19.997C16.485 19.997 16.358 20.617 16.358 20.617C16.316 20.126 16.184 19.982 15.817 19.982L15.815 20.002ZM21.103 19.266C20.952 19.5037 20.7631 19.7151 20.544 19.892C20.3133 20.0577 20.0683 20.2026 19.812 20.325L20.34 20.334V22.522C20.34 23.129 20.593 23.129 20.593 23.129C21.049 23.129 21.422 23.129 21.422 23.129C21.325 23.0581 21.2457 22.9658 21.19 22.8594C21.1343 22.7529 21.1039 22.6351 21.101 22.515V20.338H21.301C21.4722 20.3389 21.6406 20.3811 21.792 20.461V19.987H21.092L21.103 19.266ZM22.656 21.714C22.838 21.514 23.112 21.475 23.322 21.088C23.457 20.84 23.563 20.22 23.134 20.22H23.098C22.552 20.261 22.656 21.712 22.656 21.712V21.714ZM23.156 19.968C23.994 19.968 24.445 20.647 23.835 21.285C23.369 21.772 23.004 21.696 22.71 22.053C22.721 22.1855 22.7624 22.3136 22.8311 22.4274C22.8998 22.5412 22.9939 22.6376 23.106 22.709C23.2129 22.7573 23.3287 22.7828 23.446 22.784C23.5787 22.7823 23.7082 22.7434 23.8199 22.6718C23.9316 22.6003 24.021 22.4988 24.078 22.379V22.887C24.078 22.887 23.865 23.135 23.188 23.135C22.9958 23.1341 22.8059 23.0935 22.6301 23.0157C22.4544 22.9379 22.2967 22.8246 22.1669 22.6828C22.0371 22.5411 21.938 22.374 21.8759 22.1922C21.8138 22.0103 21.79 21.8175 21.806 21.626C21.806 20.771 22.262 19.976 23.122 19.972H23.131L23.156 19.968ZM14.466 18.972C14.3914 18.9736 14.3189 18.9971 14.2577 19.0397C14.1964 19.0823 14.1491 19.142 14.1216 19.2114C14.0941 19.2808 14.0878 19.3567 14.1033 19.4297C14.1188 19.5027 14.1555 19.5695 14.2088 19.6217C14.2621 19.6739 14.3297 19.7092 14.403 19.7232C14.4762 19.7372 14.552 19.7292 14.6208 19.7003C14.6896 19.6714 14.7483 19.6228 14.7896 19.5607C14.8309 19.4986 14.853 19.4256 14.853 19.351C14.8525 19.3007 14.8421 19.251 14.8223 19.2047C14.8026 19.1585 14.7739 19.1165 14.738 19.0813C14.7021 19.0461 14.6595 19.0184 14.6129 18.9996C14.5662 18.9808 14.5163 18.9715 14.466 18.972ZM18.275 22.772C18.3652 22.7836 18.4568 22.7733 18.5423 22.7422C18.6277 22.7111 18.7044 22.6599 18.766 22.593V21.27C18.594 21.479 17.951 21.588 17.951 22.37C17.943 22.4657 17.9724 22.5608 18.033 22.6354C18.0936 22.71 18.1807 22.7582 18.276 22.77L18.275 22.772ZM18.552 19.979C19.052 19.979 19.519 20.308 19.519 20.731V22.498C19.5204 22.6208 19.5503 22.7417 19.6064 22.851C19.6624 22.9603 19.7431 23.0551 19.842 23.128C19.842 23.128 19.442 23.128 19.012 23.128C19.012 23.128 18.835 23.108 18.779 22.758C18.71 22.8796 18.6083 22.9794 18.4855 23.0462C18.3627 23.113 18.2236 23.1441 18.084 23.136C17.993 23.1488 17.9003 23.1433 17.8114 23.12C17.7225 23.0967 17.6391 23.0559 17.5661 23.0001C17.493 22.9443 17.4318 22.8745 17.386 22.7949C17.3401 22.7152 17.3106 22.6272 17.299 22.536C17.069 21.373 18.571 21.302 18.764 20.964C18.8262 20.8675 18.8487 20.7507 18.827 20.638C18.827 20.533 18.798 20.322 18.376 20.322C18.2453 20.3311 18.1198 20.3767 18.0137 20.4536C17.9076 20.5305 17.8253 20.6356 17.776 20.757V20.209C18.0069 20.0556 18.2788 19.9754 18.556 19.979H18.552ZM25.364 19.959C25.1402 19.9374 24.9168 20.0037 24.741 20.1439C24.5652 20.284 24.4508 20.487 24.422 20.71C24.4235 20.8777 24.4671 21.0424 24.5489 21.1888C24.6307 21.3353 24.748 21.4588 24.89 21.548C25.0271 21.6465 25.1703 21.736 25.319 21.816C25.4113 21.8539 25.4913 21.9167 25.5501 21.9974C25.6089 22.0781 25.6442 22.1735 25.652 22.273C25.6467 22.3478 25.6263 22.4207 25.5921 22.4875C25.5579 22.5542 25.5105 22.6133 25.4529 22.6613C25.3953 22.7093 25.3286 22.7452 25.2568 22.7668C25.185 22.7884 25.1095 22.7953 25.035 22.787C24.9024 22.7775 24.7752 22.7308 24.668 22.6523C24.5608 22.5737 24.478 22.4665 24.429 22.343V22.909C24.6659 23.0575 24.9404 23.1349 25.22 23.132C25.5063 23.1426 25.7852 23.0403 25.9966 22.847C26.208 22.6537 26.335 22.385 26.35 22.099C26.3451 21.9005 26.2767 21.7088 26.155 21.552C25.9216 21.3055 25.6463 21.1024 25.342 20.952C25.2827 20.9163 25.231 20.8692 25.19 20.8134C25.1489 20.7576 25.1194 20.6943 25.103 20.627C25.103 20.527 25.15 20.309 25.573 20.309C25.7015 20.3202 25.8244 20.3666 25.9281 20.4432C26.0319 20.5198 26.1125 20.6235 26.161 20.743V20.217C25.928 20.0538 25.6504 19.9665 25.366 19.967" fill="white"/>
</svg>
