<svg width="32" height="32" viewBox="0 0 32 32" fill="none" xmlns="http://www.w3.org/2000/svg">
<path d="M24.98 25.104C25.312 25.031 25.411 24.724 25.556 24.492C25.6661 24.3184 25.7395 24.1243 25.7718 23.9213C25.8042 23.7184 25.7947 23.511 25.7441 23.3118C25.6934 23.1127 25.6026 22.926 25.4773 22.7632C25.3519 22.6003 25.1946 22.4648 25.015 22.365C24.166 21.7703 23.2233 21.3224 22.226 21.04C20.7625 20.5317 19.3403 19.9115 17.972 19.185C16.6812 18.4899 15.4467 17.6948 14.28 16.807C13.58 16.285 12.896 15.759 12.247 15.185C11.5997 14.6137 10.9838 14.0078 10.402 13.37C9.50386 12.3938 8.70028 11.3348 8.002 10.207C6.47633 7.73185 5.45667 4.97874 5.002 2.10696C5.00062 2.06978 5.0033 2.03257 5.00999 1.99597L6.476 2.72696L17.653 8.32697C19.86 9.43697 22.074 10.519 24.271 11.645C25.0175 11.9845 25.6555 12.5239 26.1144 13.2036C26.5733 13.8833 26.8351 14.6767 26.871 15.496C27.013 17.896 27.016 20.296 26.983 22.696C26.9533 23.1442 26.816 23.5786 26.5828 23.9624C26.3495 24.3463 26.0271 24.6682 25.643 24.901C25.4164 25.1008 25.1488 25.2487 24.859 25.334C24.887 25.253 24.991 25.208 24.98 25.104Z" fill="#B13436"/>
<path d="M24.98 25.104C24.991 25.204 24.887 25.253 24.855 25.334L24.786 25.377C23.9737 25.9589 23.1167 26.4759 22.223 26.923C20.582 27.874 18.923 28.802 17.281 29.746C17.0474 29.9347 16.7492 30.0246 16.4502 29.9964C16.1513 29.9681 15.8752 29.8241 15.681 29.595C15.5556 29.4697 15.4604 29.3175 15.4025 29.15C15.3446 28.9824 15.3257 28.8039 15.347 28.628C15.435 27.7087 15.629 26.8027 15.925 25.928C16.4374 24.4846 17.2113 23.148 18.208 21.985C18.6133 21.4806 19.069 21.0189 19.568 20.607C19.608 20.57 19.6591 20.5473 19.7134 20.5424C19.7677 20.5376 19.822 20.5508 19.868 20.58C21.112 21.159 22.423 21.558 23.7 22.075C23.9639 22.1793 24.2199 22.3026 24.466 22.444C24.8509 22.6705 25.1354 23.0347 25.262 23.463C25.3886 23.8912 25.3478 24.3516 25.148 24.751C25.088 24.877 25.034 24.99 24.98 25.104Z" fill="#626263"/>
</svg>
