<svg width="32" height="32" viewBox="0 0 32 32" fill="none" xmlns="http://www.w3.org/2000/svg">
<path d="M12.34 11.525C12.3408 11.5279 12.3408 11.531 12.34 11.534C12.293 11.534 12.24 11.534 12.192 11.534C12.247 11.534 12.292 11.542 12.346 11.546C12.346 11.546 12.346 11.54 12.346 11.538C12.346 11.536 12.342 11.529 12.34 11.525Z" fill="#D40017"/>
<path d="M11.893 11.015C11.8631 11.0012 11.8324 10.9891 11.801 10.979C11.8324 10.9891 11.8631 11.0012 11.893 11.015Z" fill="#D40017"/>
<path d="M12.099 11.535C11.9385 11.5385 11.7783 11.5502 11.619 11.57C11.7783 11.5502 11.9385 11.5385 12.099 11.535Z" fill="#D40017"/>
<path d="M11.185 10.643L11.154 10.649C11.017 10.676 10.444 10.791 10.054 10.874H10.073C10.521 10.776 11.185 10.643 11.185 10.643Z" fill="#D40017"/>
<path d="M9.93201 11.961C10.16 11.8856 10.3773 11.8216 10.584 11.769C10.3773 11.8223 10.16 11.8863 9.93201 11.961Z" fill="#D40017"/>
<path d="M10.722 10.816H10.862H10.841C10.798 10.812 10.761 10.815 10.722 10.816Z" fill="#D40017"/>
<path d="M11.577 10.895C11.538 10.884 11.495 10.88 11.454 10.871C11.495 10.88 11.538 10.88 11.577 10.895Z" fill="#D40017"/>
<path d="M9.72801 12.025C9.44901 12.125 9.15001 12.235 8.83301 12.363C9.14901 12.234 9.44901 12.121 9.72801 12.025Z" fill="#D40017"/>
<path d="M10.544 10.825L10.484 10.83L10.544 10.825Z" fill="#D40017"/>
<path d="M11.4221 11.593C11.2221 11.623 11.0091 11.663 10.7791 11.717C11.0111 11.663 11.2221 11.626 11.4221 11.593Z" fill="#D40017"/>
<path d="M11.218 10.832C11.173 10.827 11.13 10.827 11.085 10.824C11.134 10.823 11.179 10.823 11.218 10.832Z" fill="#D40017"/>
<path d="M16.788 9.65302L16.714 9.66502C15.803 9.80702 14.889 9.95601 13.982 10.116L13.951 10.121C13.016 10.285 12.089 10.459 11.184 10.644C13.002 10.273 14.908 9.94402 16.788 9.65302Z" fill="#D40017"/>
<path d="M16.789 9.65198L16.713 9.66498L16.789 9.65198Z" fill="#D40017"/>
<path d="M8.55202 12.482C8.23802 12.616 7.91002 12.762 7.55902 12.931C7.91002 12.763 8.23702 12.616 8.55202 12.482Z" fill="#D40017"/>
<path d="M13.9831 10.115L14.0241 10.107L13.9241 10.124H13.9511L13.9831 10.115Z" fill="#D40017"/>
<path d="M13.923 10.125C12.996 10.289 12.079 10.461 11.183 10.644C12.081 10.456 12.998 10.289 13.923 10.125Z" fill="url(#paint0_linear)"/>
<path d="M14.027 10.107C14.921 9.95098 15.822 9.80698 16.716 9.66498C15.819 9.80298 14.918 9.95098 14.027 10.107Z" fill="url(#paint1_linear)"/>
<path d="M13.983 10.115L13.952 10.12L13.983 10.115Z" fill="#D40017"/>
<path d="M13.983 10.115L13.952 10.12L13.983 10.115Z" fill="url(#paint2_linear)"/>
<path d="M16.715 9.664C15.82 9.803 14.915 9.95 14.026 10.106L13.985 10.114C14.89 9.95501 15.804 9.806 16.715 9.664Z" fill="#D40017"/>
<path d="M16.715 9.664C15.82 9.803 14.915 9.95 14.026 10.106L13.985 10.114C14.89 9.95501 15.804 9.806 16.715 9.664Z" fill="url(#paint3_linear)"/>
<path d="M14.209 13.079C14.2078 13.0582 14.2055 13.0375 14.202 13.017C14.2055 13.0375 14.2078 13.0582 14.209 13.079Z" fill="#D40017"/>
<path d="M14.209 13.079C14.2078 13.0582 14.2055 13.0375 14.202 13.017C14.2055 13.0375 14.2078 13.0582 14.209 13.079Z" fill="url(#paint4_linear)"/>
<path d="M13.053 11.657C13.012 11.643 12.963 11.633 12.918 11.622C12.963 11.634 13.016 11.643 13.053 11.657Z" fill="#D40017"/>
<path d="M13.053 11.657C13.012 11.643 12.963 11.633 12.918 11.622C12.963 11.634 13.016 11.643 13.053 11.657Z" fill="url(#paint5_linear)"/>
<path d="M13.9521 10.12H13.925C12.998 10.284 12.0811 10.455 11.1851 10.639C12.0901 10.459 13.0161 10.284 13.9521 10.12Z" fill="#D40017"/>
<path d="M13.9521 10.12H13.925C12.998 10.284 12.0811 10.455 11.1851 10.639C12.0901 10.459 13.0161 10.284 13.9521 10.12Z" fill="url(#paint6_linear)"/>
<path d="M14.0511 12.488C14.0381 12.462 14.0221 12.438 14.0081 12.412C14.0221 12.434 14.0431 12.46 14.0511 12.488Z" fill="#D40017"/>
<path d="M14.0511 12.488C14.0381 12.462 14.0221 12.438 14.0081 12.412C14.0221 12.434 14.0431 12.46 14.0511 12.488Z" fill="url(#paint7_linear)"/>
<path d="M12.3461 11.534C12.3461 11.534 12.3461 11.539 12.3461 11.542L12.4461 11.549C12.4111 11.547 12.3871 11.536 12.3461 11.534Z" fill="#D40017"/>
<path d="M12.3461 11.534C12.3461 11.534 12.3461 11.539 12.3461 11.542L12.4461 11.549C12.4111 11.547 12.3871 11.536 12.3461 11.534Z" fill="url(#paint8_linear)"/>
<path d="M13.7991 12.11C13.8211 12.135 13.8401 12.16 13.8601 12.185C13.8401 12.157 13.8211 12.135 13.7991 12.11Z" fill="#D40017"/>
<path d="M13.7991 12.11C13.8211 12.135 13.8401 12.16 13.8601 12.185C13.8401 12.157 13.8211 12.135 13.7991 12.11Z" fill="url(#paint9_linear)"/>
<path d="M16.789 9.65302L16.715 9.66602L16.789 9.65302Z" fill="#D40017"/>
<path d="M16.789 9.65302L16.715 9.66602L16.789 9.65302Z" fill="url(#paint10_linear)"/>
<path d="M30.995 8C30.995 8 24.082 8.526 16.788 9.653C14.908 9.944 13.002 10.273 11.188 10.643C11.188 10.643 10.524 10.776 10.074 10.871L10.226 10.851L10.292 10.843C10.333 10.843 10.392 10.835 10.44 10.83H10.487L10.547 10.825C10.598 10.825 10.657 10.825 10.713 10.82H10.721C10.76 10.82 10.797 10.82 10.839 10.82H10.86C10.934 10.82 11.012 10.826 11.088 10.831C11.133 10.831 11.176 10.831 11.221 10.839C11.301 10.847 11.377 10.863 11.453 10.878C11.494 10.886 11.537 10.891 11.576 10.902C11.653 10.9236 11.7279 10.9517 11.8 10.986C11.8313 10.9967 11.862 11.0091 11.892 11.023C11.9854 11.0714 12.0686 11.1372 12.137 11.217C12.2162 11.3135 12.2833 11.4193 12.337 11.532C12.337 11.532 12.337 11.537 12.344 11.541C12.385 11.541 12.409 11.554 12.444 11.557L12.344 11.55C12.4332 11.7433 12.478 11.9541 12.475 12.167C12.475 13.23 11.524 15.225 7.16304 19.214C5.21855 20.9511 3.15704 22.5525 0.993042 24.007L5.11104 23.317C8.5824 19.994 12.4317 17.0898 16.58 14.664C21.1978 12.0941 26.0047 9.88006 30.959 8.041C30.989 8.03 30.996 8.018 30.996 8.011C30.997 8.00733 30.9967 8.00343 30.995 8Z" fill="url(#paint11_linear)"/>
<path d="M12.0961 11.535C12.1221 11.535 12.1511 11.535 12.1761 11.535H12.1961C12.1661 11.531 12.1261 11.535 12.0961 11.535Z" fill="url(#paint12_linear)"/>
<path d="M3.71301 12.384L7.47301 12.97L7.55901 12.93C7.52801 12.945 7.50401 12.954 7.47301 12.969L3.71301 12.384Z" fill="url(#paint13_linear)"/>
<path d="M8.83305 12.363C8.74105 12.4 8.64706 12.441 8.55206 12.481C8.64606 12.441 8.74105 12.4 8.83305 12.363Z" fill="url(#paint14_linear)"/>
<path d="M9.93205 11.96C9.86205 11.982 9.79905 12 9.72705 12.025C9.79905 12.001 9.86005 11.982 9.93205 11.96Z" fill="url(#paint15_linear)"/>
<path d="M3.69299 12.368L3.703 12.381H3.713H3.703L3.69299 12.368Z" fill="url(#paint16_linear)"/>
<path d="M11.616 11.569C11.553 11.576 11.489 11.583 11.424 11.593C11.489 11.583 11.553 11.576 11.616 11.569Z" fill="url(#paint17_linear)"/>
<path d="M10.78 11.713C10.717 11.728 10.647 11.748 10.58 11.764C10.647 11.752 10.715 11.732 10.78 11.713Z" fill="url(#paint18_linear)"/>
<path d="M12.34 11.525C12.286 11.4125 12.2189 11.3067 12.14 11.21C12.0533 11.1017 11.9363 11.0217 11.804 10.98C11.732 10.945 11.6571 10.9166 11.58 10.895C11.541 10.884 11.498 10.88 11.457 10.871C11.381 10.856 11.305 10.84 11.225 10.832C11.182 10.832 11.137 10.827 11.092 10.824C11.016 10.819 10.938 10.813 10.864 10.813H10.724C10.662 10.813 10.601 10.813 10.546 10.819L10.486 10.824C10.234 10.842 10.055 10.873 10.055 10.873H10.074H10.055L3.71501 12.355H3.70502L3.69501 12.364L3.70502 12.377H3.71501L7.47502 12.963C7.50602 12.948 7.53002 12.939 7.56102 12.924C7.91202 12.756 8.23902 12.61 8.55402 12.475C8.64802 12.435 8.74301 12.394 8.83501 12.357C9.15101 12.229 9.45101 12.115 9.73001 12.019C9.80201 11.994 9.86501 11.976 9.93501 11.954C10.163 11.8787 10.3804 11.8147 10.587 11.762C10.65 11.745 10.72 11.725 10.787 11.711C11.017 11.656 11.228 11.617 11.43 11.587C11.495 11.578 11.559 11.571 11.622 11.563C11.7813 11.5432 11.9415 11.5315 12.102 11.528C12.135 11.528 12.172 11.528 12.202 11.528C12.253 11.528 12.302 11.528 12.35 11.528C12.3471 11.526 12.3436 11.525 12.34 11.525Z" fill="#D40017"/>
<path d="M12.34 11.525C12.286 11.4125 12.2189 11.3067 12.14 11.21C12.0533 11.1017 11.9363 11.0217 11.804 10.98C11.732 10.945 11.6571 10.9166 11.58 10.895C11.541 10.884 11.498 10.88 11.457 10.871C11.381 10.856 11.305 10.84 11.225 10.832C11.182 10.832 11.137 10.827 11.092 10.824C11.016 10.819 10.938 10.813 10.864 10.813H10.724C10.662 10.813 10.601 10.813 10.546 10.819L10.486 10.824C10.234 10.842 10.055 10.873 10.055 10.873H10.074H10.055L3.71501 12.355H3.70502L3.69501 12.364L3.70502 12.377H3.71501L7.47502 12.963C7.50602 12.948 7.53002 12.939 7.56102 12.924C7.91202 12.756 8.23902 12.61 8.55402 12.475C8.64802 12.435 8.74301 12.394 8.83501 12.357C9.15101 12.229 9.45101 12.115 9.73001 12.019C9.80201 11.994 9.86501 11.976 9.93501 11.954C10.163 11.8787 10.3804 11.8147 10.587 11.762C10.65 11.745 10.72 11.725 10.787 11.711C11.017 11.656 11.228 11.617 11.43 11.587C11.495 11.578 11.559 11.571 11.622 11.563C11.7813 11.5432 11.9415 11.5315 12.102 11.528C12.135 11.528 12.172 11.528 12.202 11.528C12.253 11.528 12.302 11.528 12.35 11.528C12.3471 11.526 12.3436 11.525 12.34 11.525Z" fill="url(#paint19_linear)"/>
<path d="M10.548 10.821C10.603 10.821 10.664 10.821 10.726 10.815H10.718C10.656 10.817 10.599 10.818 10.548 10.821Z" fill="#D50008"/>
<path d="M10.548 10.821C10.603 10.821 10.664 10.821 10.726 10.815H10.718C10.656 10.817 10.599 10.818 10.548 10.821Z" fill="url(#paint20_linear)"/>
<path d="M10.289 10.842L10.223 10.85L10.071 10.87H10.052C10.052 10.87 10.231 10.84 10.483 10.821H10.436C10.385 10.834 10.33 10.838 10.289 10.842Z" fill="#D50008"/>
<path d="M10.289 10.842L10.223 10.85L10.071 10.87H10.052C10.052 10.87 10.231 10.84 10.483 10.821H10.436C10.385 10.834 10.33 10.838 10.289 10.842Z" fill="url(#paint21_linear)"/>
<defs>
<linearGradient id="paint0_linear" x1="-100.195" y1="141.609" x2="-99.0961" y2="141.609" gradientUnits="userSpaceOnUse">
<stop stop-color="#D40017"/>
<stop offset="0.209" stop-color="#D00016"/>
<stop offset="0.38" stop-color="#C60016"/>
<stop offset="0.537" stop-color="#B50016"/>
<stop offset="0.686" stop-color="#9D0015"/>
<stop offset="0.725" stop-color="#960015"/>
<stop offset="1" stop-color="#960015"/>
</linearGradient>
<linearGradient id="paint1_linear" x1="-100.183" y1="141.65" x2="-99.1635" y2="141.65" gradientUnits="userSpaceOnUse">
<stop stop-color="#D40017"/>
<stop offset="0.209" stop-color="#D00016"/>
<stop offset="0.38" stop-color="#C60016"/>
<stop offset="0.537" stop-color="#B50016"/>
<stop offset="0.686" stop-color="#9D0015"/>
<stop offset="0.725" stop-color="#960015"/>
<stop offset="1" stop-color="#960015"/>
</linearGradient>
<linearGradient id="paint2_linear" x1="-101.212" y1="135.317" x2="-101.212" y2="135.317" gradientUnits="userSpaceOnUse">
<stop stop-color="#D40017"/>
<stop offset="0.209" stop-color="#D00016"/>
<stop offset="0.38" stop-color="#C60016"/>
<stop offset="0.537" stop-color="#B50016"/>
<stop offset="0.686" stop-color="#9D0015"/>
<stop offset="0.725" stop-color="#960015"/>
<stop offset="1" stop-color="#960015"/>
</linearGradient>
<linearGradient id="paint3_linear" x1="-100.107" y1="141.535" x2="-99.0777" y2="141.535" gradientUnits="userSpaceOnUse">
<stop stop-color="#D40017"/>
<stop offset="0.209" stop-color="#D00016"/>
<stop offset="0.38" stop-color="#C60016"/>
<stop offset="0.537" stop-color="#B50016"/>
<stop offset="0.686" stop-color="#9D0015"/>
<stop offset="0.725" stop-color="#960015"/>
<stop offset="1" stop-color="#960015"/>
</linearGradient>
<linearGradient id="paint4_linear" x1="-108.162" y1="141.749" x2="-107.009" y2="141.749" gradientUnits="userSpaceOnUse">
<stop stop-color="#D40017"/>
<stop offset="0.209" stop-color="#D00016"/>
<stop offset="0.38" stop-color="#C60016"/>
<stop offset="0.537" stop-color="#B50016"/>
<stop offset="0.686" stop-color="#9D0015"/>
<stop offset="0.725" stop-color="#960015"/>
<stop offset="1" stop-color="#960015"/>
</linearGradient>
<linearGradient id="paint5_linear" x1="-99.7757" y1="140.885" x2="-98.7659" y2="140.885" gradientUnits="userSpaceOnUse">
<stop stop-color="#D40017"/>
<stop offset="0.209" stop-color="#D00016"/>
<stop offset="0.38" stop-color="#C60016"/>
<stop offset="0.537" stop-color="#B50016"/>
<stop offset="0.686" stop-color="#9D0015"/>
<stop offset="0.725" stop-color="#960015"/>
<stop offset="1" stop-color="#960015"/>
</linearGradient>
<linearGradient id="paint6_linear" x1="-100.206" y1="140.552" x2="-99.1573" y2="140.552" gradientUnits="userSpaceOnUse">
<stop stop-color="#D40017"/>
<stop offset="0.209" stop-color="#D00016"/>
<stop offset="0.38" stop-color="#C60016"/>
<stop offset="0.537" stop-color="#B50016"/>
<stop offset="0.686" stop-color="#9D0015"/>
<stop offset="0.725" stop-color="#960015"/>
<stop offset="1" stop-color="#960015"/>
</linearGradient>
<linearGradient id="paint7_linear" x1="-99.3622" y1="141.424" x2="-98.2992" y2="141.424" gradientUnits="userSpaceOnUse">
<stop stop-color="#D40017"/>
<stop offset="0.209" stop-color="#D00016"/>
<stop offset="0.38" stop-color="#C60016"/>
<stop offset="0.537" stop-color="#B50016"/>
<stop offset="0.686" stop-color="#9D0015"/>
<stop offset="0.725" stop-color="#960015"/>
<stop offset="1" stop-color="#960015"/>
</linearGradient>
<linearGradient id="paint8_linear" x1="-95.5982" y1="135.304" x2="-94.5997" y2="135.304" gradientUnits="userSpaceOnUse">
<stop stop-color="#D40017"/>
<stop offset="0.209" stop-color="#D00016"/>
<stop offset="0.38" stop-color="#C60016"/>
<stop offset="0.537" stop-color="#B50016"/>
<stop offset="0.686" stop-color="#9D0015"/>
<stop offset="0.725" stop-color="#960015"/>
<stop offset="1" stop-color="#960015"/>
</linearGradient>
<linearGradient id="paint9_linear" x1="-99.3432" y1="141.489" x2="-98.3117" y2="141.489" gradientUnits="userSpaceOnUse">
<stop stop-color="#D40017"/>
<stop offset="0.209" stop-color="#D00016"/>
<stop offset="0.38" stop-color="#C60016"/>
<stop offset="0.537" stop-color="#B50016"/>
<stop offset="0.686" stop-color="#9D0015"/>
<stop offset="0.725" stop-color="#960015"/>
<stop offset="1" stop-color="#960015"/>
</linearGradient>
<linearGradient id="paint10_linear" x1="-100.936" y1="146.158" x2="-99.9845" y2="146.158" gradientUnits="userSpaceOnUse">
<stop stop-color="#D40017"/>
<stop offset="0.209" stop-color="#D00016"/>
<stop offset="0.38" stop-color="#C60016"/>
<stop offset="0.537" stop-color="#B50016"/>
<stop offset="0.686" stop-color="#9D0015"/>
<stop offset="0.725" stop-color="#960015"/>
<stop offset="1" stop-color="#960015"/>
</linearGradient>
<linearGradient id="paint11_linear" x1="0.993042" y1="16.0035" x2="30.9966" y2="16.0035" gradientUnits="userSpaceOnUse">
<stop stop-color="#960015"/>
<stop offset="0.282" stop-color="#960015"/>
<stop offset="0.647" stop-color="#D40017"/>
</linearGradient>
<linearGradient id="paint12_linear" x1="-109.231" y1="65.4684" x2="-108.208" y2="65.4684" gradientUnits="userSpaceOnUse">
<stop stop-color="#D40017"/>
<stop offset="0.09" stop-color="#CF0016"/>
<stop offset="0.184" stop-color="#C30015"/>
<stop offset="0.279" stop-color="#AE0013"/>
<stop offset="0.375" stop-color="#910010"/>
<stop offset="0.471" stop-color="#6C000D"/>
<stop offset="0.5" stop-color="#60000C"/>
<stop offset="1" stop-color="#60000C"/>
</linearGradient>
<linearGradient id="paint13_linear" x1="-109.536" y1="138.821" x2="-108.486" y2="138.821" gradientUnits="userSpaceOnUse">
<stop stop-color="#D40017"/>
<stop offset="0.09" stop-color="#CF0016"/>
<stop offset="0.184" stop-color="#C30015"/>
<stop offset="0.279" stop-color="#AE0013"/>
<stop offset="0.375" stop-color="#910010"/>
<stop offset="0.471" stop-color="#6C000D"/>
<stop offset="0.5" stop-color="#60000C"/>
<stop offset="1" stop-color="#60000C"/>
</linearGradient>
<linearGradient id="paint14_linear" x1="-109.719" y1="138.795" x2="-108.649" y2="138.795" gradientUnits="userSpaceOnUse">
<stop stop-color="#D40017"/>
<stop offset="0.09" stop-color="#CF0016"/>
<stop offset="0.184" stop-color="#C30015"/>
<stop offset="0.279" stop-color="#AE0013"/>
<stop offset="0.375" stop-color="#910010"/>
<stop offset="0.471" stop-color="#6C000D"/>
<stop offset="0.5" stop-color="#60000C"/>
<stop offset="1" stop-color="#60000C"/>
</linearGradient>
<linearGradient id="paint15_linear" x1="-109.542" y1="138.776" x2="-108.46" y2="138.776" gradientUnits="userSpaceOnUse">
<stop stop-color="#D40017"/>
<stop offset="0.09" stop-color="#CF0016"/>
<stop offset="0.184" stop-color="#C30015"/>
<stop offset="0.279" stop-color="#AE0013"/>
<stop offset="0.375" stop-color="#910010"/>
<stop offset="0.471" stop-color="#6C000D"/>
<stop offset="0.5" stop-color="#60000C"/>
<stop offset="1" stop-color="#60000C"/>
</linearGradient>
<linearGradient id="paint16_linear" x1="-108.741" y1="119.348" x2="-107.65" y2="119.348" gradientUnits="userSpaceOnUse">
<stop stop-color="#D40017"/>
<stop offset="0.09" stop-color="#CF0016"/>
<stop offset="0.184" stop-color="#C30015"/>
<stop offset="0.279" stop-color="#AE0013"/>
<stop offset="0.375" stop-color="#910010"/>
<stop offset="0.471" stop-color="#6C000D"/>
<stop offset="0.5" stop-color="#60000C"/>
<stop offset="1" stop-color="#60000C"/>
</linearGradient>
<linearGradient id="paint17_linear" x1="-109.267" y1="140.998" x2="-108.221" y2="140.998" gradientUnits="userSpaceOnUse">
<stop stop-color="#D40017"/>
<stop offset="0.09" stop-color="#CF0016"/>
<stop offset="0.184" stop-color="#C30015"/>
<stop offset="0.279" stop-color="#AE0013"/>
<stop offset="0.375" stop-color="#910010"/>
<stop offset="0.471" stop-color="#6C000D"/>
<stop offset="0.5" stop-color="#60000C"/>
<stop offset="1" stop-color="#60000C"/>
</linearGradient>
<linearGradient id="paint18_linear" x1="-111.7" y1="137.857" x2="-110.644" y2="137.857" gradientUnits="userSpaceOnUse">
<stop stop-color="#D40017"/>
<stop offset="0.09" stop-color="#CF0016"/>
<stop offset="0.184" stop-color="#C30015"/>
<stop offset="0.279" stop-color="#AE0013"/>
<stop offset="0.375" stop-color="#910010"/>
<stop offset="0.471" stop-color="#6C000D"/>
<stop offset="0.5" stop-color="#60000C"/>
<stop offset="1" stop-color="#60000C"/>
</linearGradient>
<linearGradient id="paint19_linear" x1="-109.582" y1="138.514" x2="-108.526" y2="138.514" gradientUnits="userSpaceOnUse">
<stop stop-color="#D40017"/>
<stop offset="0.09" stop-color="#CF0016"/>
<stop offset="0.184" stop-color="#C30015"/>
<stop offset="0.279" stop-color="#AE0013"/>
<stop offset="0.375" stop-color="#910010"/>
<stop offset="0.471" stop-color="#6C000D"/>
<stop offset="0.5" stop-color="#60000C"/>
<stop offset="1" stop-color="#60000C"/>
</linearGradient>
<linearGradient id="paint20_linear" x1="-109.337" y1="144.134" x2="-108.258" y2="144.134" gradientUnits="userSpaceOnUse">
<stop stop-color="#D40017"/>
<stop offset="0.09" stop-color="#CF0016"/>
<stop offset="0.184" stop-color="#C30015"/>
<stop offset="0.279" stop-color="#AE0013"/>
<stop offset="0.375" stop-color="#910010"/>
<stop offset="0.471" stop-color="#6C000D"/>
<stop offset="0.5" stop-color="#60000C"/>
<stop offset="1" stop-color="#60000C"/>
</linearGradient>
<linearGradient id="paint21_linear" x1="-109.625" y1="139.53" x2="-108.572" y2="139.53" gradientUnits="userSpaceOnUse">
<stop stop-color="#D40017"/>
<stop offset="0.09" stop-color="#CF0016"/>
<stop offset="0.184" stop-color="#C30015"/>
<stop offset="0.279" stop-color="#AE0013"/>
<stop offset="0.375" stop-color="#910010"/>
<stop offset="0.471" stop-color="#6C000D"/>
<stop offset="0.5" stop-color="#60000C"/>
<stop offset="1" stop-color="#60000C"/>
</linearGradient>
</defs>
</svg>
