<svg width="32" height="32" viewBox="0 0 32 32" fill="none" xmlns="http://www.w3.org/2000/svg">
<path d="M6.76514 2C8.51468 8.69845 11.6533 14.9541 15.9772 20.361C15.9772 20.361 8.01814 20.108 5.23114 14.705C4.20983 12.6709 3.81067 10.381 4.0835 8.12132C4.35633 5.86166 5.28905 3.73253 6.76514 2Z" fill="#DB0809"/>
<path d="M18.5721 23.119C21.2562 25.7102 24.4637 27.697 27.9791 28.946C27.9791 28.946 23.0242 29.356 20.0342 27.922C17.0442 26.488 13.9341 24.073 12.0071 23.909C10.0801 23.745 8.95715 23.639 8.44415 23.119H18.5721Z" fill="#DB0809"/>
<path d="M23.0042 23.346C21.7962 20.459 15.9781 20.361 15.9781 20.361C15.9781 20.361 17.5541 22.118 18.5721 23.119C20.0533 23.0502 21.5377 23.1263 23.0042 23.346Z" fill="#DB0809"/>
</svg>
