<svg width="32" height="32" viewBox="0 0 32 32" fill="none" xmlns="http://www.w3.org/2000/svg">
<path d="M26.548 19.992L25.389 19.009L29 19.436L25.929 21.382L26.548 19.992Z" fill="#A3181C"/>
<path d="M24.496 19.326C23.209 19.244 16.818 19.326 2.99597 26.76H5.08698C7.15898 25.706 9.11097 24.815 10.921 24.06L11.268 23.398H12.574C16.4461 21.8249 20.4946 20.7269 24.631 20.128L24.496 19.326Z" fill="#A3181C"/>
<path d="M24.453 19.079L22.168 6L14.734 6.276L3.42096 24.463C15.026 19.543 22.888 19.113 24.453 19.079ZM17.431 11.6H17.492L18.215 19.075H13.552L17.431 11.6Z" fill="#A3181C"/>
<path d="M24.68 20.37C23.597 20.423 20.48 20.826 14.9 23.403H17.183C19.6991 22.5895 22.2831 22.0035 24.904 21.652L24.68 20.37Z" fill="#A3181C"/>
<path d="M24.943 21.882C22.7764 22.0918 20.6531 22.6229 18.643 23.458L18.962 26.758L25.751 26.484L24.943 21.882Z" fill="#A3181C"/>
<path d="M8.50299 26.76H9.50299L9.93199 25.943C9.46999 26.205 8.99299 26.476 8.50299 26.76Z" fill="#A3181C"/>
</svg>
