<svg width="32" height="32" viewBox="0 0 32 32" fill="none" xmlns="http://www.w3.org/2000/svg">
<path d="M20.967 4.63699H19.299V5.93299H20.967V4.63699Z" fill="#5960A2"/>
<path d="M18.257 18.568H13.156V23.955H18.257V18.568Z" fill="#7A2983"/>
<path d="M19.863 25.108H16.51V27.119H19.863V25.108Z" fill="#7284BB"/>
<path d="M18.551 26.049H14.523V30H18.551V26.049Z" fill="#C85416"/>
<path d="M22.963 22.459H19.513V23.955H22.963V22.459Z" fill="#B31E1D"/>
<path d="M21.79 19.737H18.253V20.623H21.79V19.737Z" fill="#E0A511"/>
<path d="M25.431 22.459H22.958V23.134H25.431V22.459Z" fill="#839ACB"/>
<path d="M21.632 15.446H18.253V19.738H21.632V15.446Z" fill="#4D6CAC"/>
<path d="M18.256 12.156H11.651V18.569H18.256V12.156Z" fill="#9FCBE2"/>
<path d="M12.219 12.157H7.80801V15.705H12.219V12.157Z" fill="#A7BF30"/>
<path d="M21.005 6.14999H13.531V12.203H21.005V6.14999Z" fill="#5960A2"/>
<path d="M27.071 12.94H21.625V19.528H27.071V12.94Z" fill="#699CD1"/>
<path d="M25.431 16.689H20.768V22.478H25.431V16.689Z" fill="#E0A511"/>
<path d="M21.703 20.609H18.253V23.951H21.703V20.609Z" fill="#B31E1D"/>
<path d="M20.688 22.708H16.237V25.129H20.688V22.708Z" fill="#5E97A4"/>
<path d="M26.377 18.941H25.426V21.841H26.377V18.941Z" fill="#BBCAE5"/>
<path d="M29.563 12.737H27.071V14.263H29.563V12.737Z" fill="#7BB5AF"/>
<path d="M28.638 14.262H26.839V15.254H28.638V14.262Z" fill="#931551"/>
<path d="M21.632 9.582H18.253V15.453H21.632V9.582Z" fill="#97BF99"/>
<path d="M26.171 7.218H21.625V12.939H26.171V7.218Z" fill="#EAE21E"/>
<path d="M24.315 6.14999H21.001V11.515H24.315V6.14999Z" fill="#7BB9D1"/>
<path d="M30 11.364H25.478V12.939H30V11.364Z" fill="#8FAFDA"/>
<path d="M28.335 7.909H26.176V11.366H28.335V7.909Z" fill="#C25C99"/>
<path d="M29.691 8.998H27.688V10.448H29.691V8.998Z" fill="#5B448F"/>
<path d="M30 10.448H27.174V11.897H30V10.448Z" fill="#F4DE00"/>
<path d="M20.986 4.57401H19.287V5.93301H20.986V4.57401Z" fill="#5960A2"/>
<path d="M16.614 4.61501H13.531V8.00001H16.614V4.61501Z" fill="#5960A2"/>
<path d="M13.545 4.61501H4.009V12.202H13.545V4.61501Z" fill="#7AB8E4"/>
<path d="M12.22 2H8.901V6.279H12.22V2Z" fill="#6DA63B"/>
<path d="M8.157 11.553H2V13.931H8.157V11.553Z" fill="#DFBC0A"/>
<path d="M18.999 2.388H16.609V6.15H18.999V2.388Z" fill="#C7D027"/>
<path d="M20.768 16.689H19.801V17.645H20.768V16.689Z" fill="#A7BF30"/>
</svg>
