<svg width="32" height="32" viewBox="0 0 32 32" fill="none" xmlns="http://www.w3.org/2000/svg">
<path d="M23.59 2C22.1206 2.60875 20.9007 3.69721 20.129 5.088C18.1428 9.12949 16.5388 13.3479 15.338 17.688C14.813 19.858 12.986 22.475 12.472 23.471C10.104 28.062 7.73699 28.778 6.83699 28.82C6.114 28.8729 5.38883 28.7527 4.72156 28.4694C4.05429 28.1861 3.46413 27.7479 3 27.191L4.468 27.069C4.84305 27.3626 5.30262 27.5277 5.77876 27.54C6.25491 27.5522 6.72235 27.4109 7.112 27.137C8.884 26.107 10.212 23.047 11.212 20.609C12.629 17.144 14.089 11.609 14.784 10.262C17.83 4.362 19.045 3.739 20.517 2.868C21.4525 2.32591 22.5091 2.02745 23.59 2Z" fill="#D6430D"/>
<path d="M22.216 3.192C21.5916 3.6915 21.025 4.25937 20.527 4.885C20.527 4.885 22.154 2.219 23.92 2.461C26.288 2.786 27.658 7.336 27.658 7.336C26.7337 5.93478 25.646 4.64842 24.418 3.504C24.1231 3.23988 23.7563 3.06924 23.3643 3.0137C22.9724 2.95816 22.5727 3.02021 22.216 3.192Z" fill="#D6430D"/>
<path d="M25.36 7.64702C24.5831 7.79574 23.8481 8.11295 23.207 8.57632C22.5658 9.03969 22.034 9.63796 21.649 10.329C20.307 12.62 19.683 13.593 18.243 16.424C17.228 18.424 15.018 23.324 14.505 24.324C12.137 28.915 10.061 29.424 9.16101 29.47C7.65292 29.554 6.17199 29.0435 5.03601 28.048L6.50401 27.926C6.87918 28.1708 7.32673 28.2801 7.77249 28.2357C8.21826 28.1913 8.63548 27.996 8.95502 27.682C11.614 25.569 13.183 20.406 14.922 17.082C15.8737 15.1716 16.9424 13.3218 18.122 11.543C19.701 9.41702 21.181 8.20902 22.954 7.72402C23.747 7.57237 24.5589 7.54639 25.36 7.64702Z" fill="#F5A300"/>
<path d="M22.216 9.936C22.216 9.936 23.616 7.81201 25.374 8.10201C27.546 8.46001 29 13.336 29 13.336C29 13.336 26.712 9.33601 24.873 8.56801C23.794 8.12001 22.216 9.936 22.216 9.936Z" fill="#F5A300"/>
<path d="M23.422 16.139C22.7632 16.2515 22.1349 16.4997 21.5772 16.8679C21.0194 17.2362 20.5443 17.7164 20.182 18.278C19.471 19.41 16.761 24.02 16.761 24.02C16.761 24.02 14.735 26.82 14.034 27.704C13.1349 28.8534 11.87 29.661 10.449 29.993C9.85045 30.0829 9.23885 30.0166 8.67346 29.8006C8.10808 29.5845 7.60809 29.2261 7.22198 28.76L8.31599 28.679C8.63001 28.8388 8.9757 28.9265 9.3279 28.9359C9.6801 28.9452 10.0299 28.8759 10.352 28.733C11.758 27.986 13.395 25.223 14.23 23.939C14.959 22.816 16.337 20.739 17.221 19.496C18.2973 17.9875 19.8025 16.8377 21.541 16.196C22.1609 16.0764 22.796 16.0571 23.422 16.139Z" fill="#AABC14"/>
<path d="M21.029 17.612C21.029 17.612 22.155 16.348 23.157 16.494C24.746 16.727 25.484 20.094 25.484 20.094C25.484 20.094 24.284 17.412 23.033 16.844C22.3 16.506 21.029 17.612 21.029 17.612Z" fill="#AABC14"/>
</svg>
