<svg width="32" height="32" viewBox="0 0 32 32" fill="none" xmlns="http://www.w3.org/2000/svg">
<path fill-rule="evenodd" clip-rule="evenodd" d="M28.9319 14.9501C27.8615 15.8208 26.6491 16.5007 25.3479 16.9601C24.1079 17.4501 23.5559 17.6471 22.8669 17.8921C22.0859 18.1371 20.5239 18.6761 20.5239 18.6761C22.322 19.2685 24.1659 19.7113 26.0369 20.0001C26.9956 19.6465 27.9187 19.2032 28.7939 18.6761C29.4049 18.396 29.9642 18.0146 30.4479 17.5481C30.7226 17.3288 30.9033 17.013 30.9529 16.6651C30.9529 16.6161 30.9989 16.5651 30.9989 16.4651V16.3651C30.972 16.3384 30.9557 16.3029 30.9529 16.2651C30.9511 16.196 30.9355 16.128 30.907 16.0651C30.8645 15.8923 30.7678 15.7377 30.631 15.6241C30.3412 15.3559 29.9961 15.1548 29.6199 15.0351C29.4101 14.9546 29.1954 14.8878 28.9769 14.8351L28.9309 14.9351L28.9319 14.9501Z" fill="#00366C"/>
<path fill-rule="evenodd" clip-rule="evenodd" d="M30.9999 16.4211C31.0003 16.3685 30.9842 16.3171 30.9539 16.2741C30.944 16.1861 30.9124 16.1019 30.8619 16.0291C30.776 15.939 30.6992 15.8405 30.6329 15.7351C30.5292 15.6677 30.4362 15.5851 30.3569 15.4901C29.8896 15.2176 29.3754 15.0348 28.8409 14.9511C28.2459 14.8848 27.6477 14.8514 27.049 14.8511C26.773 14.8511 24.8899 14.8511 24.4299 14.9001C22.3169 14.9491 19.6979 14.9491 19.0089 14.9491C11.9799 14.9491 8.90195 14.8021 5.50195 14.0661C3.97714 13.7756 2.47371 13.3824 1.00195 12.8891C3.57495 12.7891 18.5019 12.1041 21.2159 12.0551C22.5626 11.98 23.9123 11.98 25.2589 12.0551C25.8014 12.0516 26.3419 12.1188 26.8669 12.2551C27.3191 12.335 27.7644 12.4497 28.1989 12.5981C28.7454 12.7806 29.2252 13.1218 29.5769 13.5781C29.6536 13.6288 29.7167 13.6975 29.761 13.7781C29.8352 13.9358 29.9278 14.0841 30.037 14.2201C30.2641 14.581 30.4646 14.958 30.6369 15.3481C30.7175 15.4863 30.7794 15.6346 30.821 15.7891C30.8522 15.8214 30.8765 15.8599 30.8924 15.902C30.9082 15.9442 30.9152 15.9891 30.9129 16.0341C30.9589 16.1811 30.9589 16.3281 31.0049 16.3771V16.4261L30.9999 16.4211Z" fill="#D40D1E"/>
</svg>
