<svg width="32" height="32" viewBox="0 0 32 32" fill="none" xmlns="http://www.w3.org/2000/svg">
<path d="M23.806 10.207H21.487L19.466 18.975L17.506 10.207H15.106L17.989 21.824H20.858L23.806 10.207Z" fill="#030103"/>
<path d="M27.665 17.177H25.728C26.022 15.964 26.447 14.167 26.536 13.699C26.609 13.319 26.741 12.341 26.741 12.341C26.741 12.341 26.859 13.319 26.932 13.685C27.032 14.167 27.402 16.022 27.665 17.177ZM25.276 19.004H28.076L28.676 21.822H30.996L28.326 10.207H25.244L22.352 21.824H24.642L25.276 19.004Z" fill="#030103"/>
<path d="M14.913 17.399H12.535C12.4848 17.8801 12.2875 18.334 11.97 18.699C11.182 19.599 9.96301 19.957 8.09001 19.957C6.49801 19.957 4.81701 19.517 4.03201 18.418C3.60989 17.7061 3.37978 16.8968 3.36418 16.0692C3.34858 15.2417 3.54802 14.4243 3.94301 13.697C4.61201 12.66 6.04302 12.083 8.04302 12.083C10.043 12.083 11.269 12.631 11.908 13.371C12.2368 13.7317 12.4445 14.1863 12.502 14.671H14.881C14.8244 13.9782 14.6162 13.3063 14.271 12.703C13.306 11.09 11.507 9.995 8.07101 9.995C4.93401 9.995 3.06101 10.972 2.00601 12.407C1.32242 13.5197 0.971686 14.8048 0.995255 16.1104C1.01882 17.4161 1.41572 18.6877 2.13902 19.775C3.16402 21.137 5.13901 21.994 8.14401 21.994C11.369 21.994 13.244 21.032 14.179 19.538C14.5779 18.8856 14.8266 18.1525 14.907 17.392" fill="#030103"/>
</svg>
