<svg width="32" height="32" viewBox="0 0 32 32" fill="none" xmlns="http://www.w3.org/2000/svg">
<path d="M2 25.974C2.237 25.613 2.465 25.245 2.714 24.891C5.66137 20.705 9.86404 17.5653 14.714 15.926C16.4797 15.3318 18.2797 14.8446 20.104 14.467C23.418 13.7762 26.6807 12.8587 29.869 11.721C29.8903 11.7125 29.9132 11.7089 29.936 11.7105C29.9589 11.712 29.9811 11.7187 30.001 11.73C29.814 11.863 29.632 12.003 29.439 12.13C27.9211 13.0568 26.3014 13.8054 24.612 14.361C22.8948 14.9268 21.1503 15.4061 19.385 15.797C18.621 15.988 17.87 16.23 17.114 16.45C17.0911 16.457 17.07 16.4688 17.0519 16.4844C17.0338 16.5001 17.0192 16.5193 17.009 16.541L22.687 15.163L22.705 15.212L22.314 15.362L22.341 15.428C22.631 15.309 22.916 15.177 23.212 15.076C23.488 14.982 23.777 14.92 24.06 14.846C25.5231 14.4652 26.9452 13.9417 28.306 13.283C28.373 13.25 28.442 13.222 28.506 13.192L28.534 13.239L27.713 13.719L27.879 13.784L26.469 14.384L26.479 14.415L27.027 14.257C25.7268 14.8698 24.3856 15.3914 23.013 15.818C23.1262 15.8266 23.2398 15.8266 23.353 15.818C23.4816 15.7926 23.6085 15.7592 23.733 15.718C23.852 15.684 23.972 15.652 24.088 15.612C24.736 15.387 25.388 15.16 26.031 14.935C26.0592 14.9289 26.0881 14.9262 26.117 14.927L26.138 14.982L24.869 15.499C25.538 15.3304 26.19 15.1008 26.817 14.813L26.855 14.865C26.7636 14.9521 26.661 15.0268 26.55 15.087C25.363 15.54 24.172 15.987 22.981 16.431L22.558 16.588C22.7099 16.6002 22.8625 16.5982 23.014 16.582C23.1778 16.5378 23.3382 16.482 23.494 16.415L23.994 16.233C24.1942 16.1537 24.401 16.0921 24.612 16.049L24.019 16.31L24.04 16.358L25.722 15.692L25.768 15.736C25.7407 15.7378 25.7139 15.7446 25.689 15.756C24.6961 16.4422 23.618 16.9962 22.482 17.404C20.2143 18.2652 17.8846 18.9535 15.513 19.463C12.041 20.211 8.71168 21.5115 5.652 23.315C4.41276 24.0715 3.24553 24.9402 2.165 25.91C2.123 25.948 2.07601 25.981 2.03101 26.017L2 25.974ZM22.841 15.862L20.664 16.395C21.4255 16.4266 22.1803 16.2418 22.841 15.862ZM21.903 17.394C22.9158 17.1123 23.8921 16.7129 24.812 16.204L21.903 17.394Z" fill="#DC001C"/>
<path d="M26.221 16.041C24.9795 17.1614 23.5701 18.0802 22.044 18.764C23.1737 18.32 24.2477 17.7454 25.244 17.052L25.291 17.118L23.145 18.549L23.153 18.572C23.297 18.505 23.438 18.43 23.585 18.372C23.732 18.314 23.829 18.153 24.063 18.257C23.903 18.368 23.773 18.465 23.636 18.557C22.3064 19.3651 20.8779 19.998 19.386 20.44C17.5973 20.9429 15.7716 21.3037 13.926 21.519C12.71 21.707 11.502 21.947 10.291 22.163C10.249 22.17 10.207 22.174 10.165 22.179L10.139 22.118C10.71 21.858 11.274 21.58 11.854 21.341C13.4705 20.7249 15.1262 20.2168 16.81 19.82C19.1844 19.2613 21.4942 18.4569 23.702 17.42C24.457 17.041 25.184 16.612 25.924 16.206L26.221 16.041Z" fill="#DC001C"/>
<path d="M22.766 11.435C23.148 11.379 23.53 11.325 23.911 11.265C24.3196 11.2167 24.7253 11.1456 25.126 11.052C25.4353 10.9457 25.7361 10.8164 26.026 10.665C25.699 10.9308 25.3203 11.1259 24.914 11.238C24.495 11.389 24.068 11.522 23.654 11.7L24.865 11.372C24.3062 11.6475 23.7113 11.8428 23.098 11.952C22.486 12.073 21.87 12.175 21.258 12.298C22.1286 12.235 22.9945 12.1192 23.851 11.951C23.738 11.991 23.627 12.033 23.513 12.069C23.399 12.105 23.28 12.134 23.163 12.169L23.176 12.227C23.347 12.19 23.522 12.164 23.688 12.113C24.109 11.985 24.523 11.836 24.946 11.713C25.211 11.637 25.486 11.595 25.779 11.534C24.5653 12.1404 23.2723 12.573 21.938 12.819L21.969 12.925L24.21 12.425C22.2855 13.3602 20.2064 13.9364 18.075 14.125C18.461 13.802 18.826 13.516 19.167 13.206C20.0392 12.4201 20.7912 11.5104 21.399 10.506C21.4247 10.4696 21.4581 10.4393 21.4968 10.4171C21.5355 10.395 21.5786 10.3817 21.623 10.378C24.0567 10.5049 26.4687 9.8625 28.517 8.54199C28.5415 8.52532 28.5704 8.51627 28.6 8.51599C27.8252 9.30503 26.9225 9.95722 25.93 10.445C24.915 10.8944 23.8435 11.2033 22.745 11.363L22.766 11.435Z" fill="#DC001C"/>
<path d="M19.556 20.924C18.8789 21.24 18.1821 21.5119 17.47 21.738L17.494 21.807L18.378 21.558L18.394 21.597L17.926 21.797L17.953 21.863L19.195 21.37L19.214 21.399C19.1182 21.4683 19.018 21.5315 18.914 21.588C17.1174 22.5068 15.1784 23.1154 13.179 23.388C11.932 23.528 10.679 23.622 9.43001 23.744C9.04501 23.782 8.66301 23.844 8.20901 23.907C8.33701 23.831 8.40901 23.783 8.49301 23.74C9.66239 23.1418 10.9161 22.7253 12.211 22.505C13.919 22.17 15.634 21.868 17.336 21.511C17.983 21.375 18.605 21.128 19.236 20.93C19.329 20.901 19.419 20.867 19.511 20.836L19.556 20.924Z" fill="#DC001C"/>
<path d="M12.323 12.951C12.346 12.962 12.366 12.966 12.372 12.976C12.5674 13.29 12.8719 13.5207 13.227 13.6238C13.5821 13.727 13.9628 13.6954 14.296 13.535C14.8294 13.3322 15.3735 13.1589 15.926 13.016C16.572 12.878 17.239 12.83 17.897 12.744L17.915 12.822C17.8974 12.8344 17.8782 12.8445 17.858 12.852C16.8457 13.1236 15.8822 13.5524 15.003 14.123C14.5311 14.4412 13.972 14.6047 13.403 14.591C13.2149 14.5935 13.0289 14.5511 12.8605 14.4673C12.6921 14.3835 12.5461 14.2606 12.4347 14.109C12.3233 13.9574 12.2497 13.7815 12.2201 13.5957C12.1904 13.4099 12.2054 13.2198 12.264 13.041C12.2812 13.0095 12.3009 12.9794 12.323 12.951Z" fill="#DC001C"/>
<path d="M27.696 14.491L26.982 14.812L26.936 14.723L27.644 14.403L27.696 14.491Z" fill="#DC001C"/>
<path d="M19.619 20.82C19.8394 20.6784 20.0843 20.579 20.341 20.527L20.372 20.595L19.655 20.895L19.619 20.82Z" fill="#DC001C"/>
<path d="M24.647 17.816L24.095 18.216L24.037 18.139L24.601 17.757L24.647 17.816Z" fill="#DC001C"/>
<path d="M22.842 15.861C22.1813 16.2408 21.4265 16.4256 20.665 16.394L22.842 15.861Z" fill="#DC001C"/>
<path d="M21.903 17.393L24.812 16.203C23.8921 16.7119 22.9158 17.1113 21.903 17.393Z" fill="#DC001C"/>
<path d="M22.906 8.10001C23.5321 7.48401 24.0602 6.7758 24.472 6C24.394 6.037 24.372 6.048 24.343 6.062C22.6223 7.03913 20.601 7.34544 18.668 6.922C17.9624 6.78204 17.2475 6.69381 16.529 6.658C16.1175 6.60517 15.7015 6.7122 15.3666 6.95705C15.0317 7.20189 14.8035 7.56588 14.729 7.974C14.722 8.028 14.612 8.09201 14.539 8.11101C14.3858 8.14167 14.2429 8.2108 14.1238 8.31192C14.0046 8.41304 13.9132 8.54279 13.858 8.689C14.3753 9.08408 14.9646 9.37451 15.593 9.54401C15.2557 9.545 14.9197 9.50299 14.593 9.41901C13.909 9.20501 13.241 8.946 12.565 8.707C12.3413 8.60767 12.0981 8.55978 11.8534 8.56688C11.6087 8.57397 11.3686 8.63587 11.151 8.748C10.9572 8.85124 10.8043 9.01744 10.7176 9.21922C10.6309 9.421 10.6155 9.64632 10.674 9.858C10.736 10.0412 10.8595 10.1974 11.0236 10.2998C11.1877 10.4023 11.3822 10.4448 11.574 10.42C11.7775 10.3948 11.9691 10.3103 12.125 10.177C12.2477 10.0201 12.3436 9.8441 12.409 9.65601C12.4615 9.7529 12.4881 9.86166 12.4863 9.97182C12.4846 10.082 12.4545 10.1898 12.399 10.285C12.2901 10.4839 12.116 10.6393 11.9061 10.7251C11.6961 10.8108 11.4631 10.8217 11.246 10.756C11.1748 11.0448 11.2183 11.3501 11.3675 11.6074C11.5167 11.8648 11.76 12.0543 12.046 12.136C11.737 11.363 12.385 11.012 12.98 11.081C13.0809 11.0921 13.181 11.1088 13.28 11.131C13.852 11.263 14.422 11.408 14.997 11.531C15.362 11.607 15.736 11.646 16.162 11.71C15.6825 11.9957 15.1435 12.1669 14.587 12.21C13.889 12.2909 13.1856 12.113 12.61 11.71C12.7234 11.9759 12.9321 12.1899 13.195 12.31C13.6894 12.556 14.2371 12.6752 14.789 12.657C15.9007 12.648 16.9955 12.3839 17.989 11.885C18.6163 11.5966 19.2008 11.2231 19.726 10.775C17.9513 11.2054 16.0855 11.0572 14.401 10.352L14.556 10.376C14.956 10.442 15.364 10.532 15.771 10.569C17.4684 10.7296 19.1769 10.4141 20.705 9.658C20.7938 9.61635 20.893 9.60173 20.99 9.616C21.9224 9.78643 22.8741 9.82448 23.817 9.729C25.9358 9.54183 27.9277 8.63897 29.465 7.16901C29.654 6.99201 29.823 6.794 30.001 6.606C27.8492 7.83048 25.3689 8.35277 22.906 8.10001ZM16.982 9.089C17.165 8.28 16.843 7.87199 16.082 7.95399C16.107 8.00299 16.132 8.045 16.152 8.09C16.1905 8.15961 16.2036 8.2404 16.1892 8.31862C16.1748 8.39683 16.1337 8.46764 16.073 8.519C16.0133 8.58032 15.9352 8.62052 15.8506 8.63351C15.766 8.64651 15.6794 8.63159 15.604 8.591C15.5306 8.55934 15.4694 8.50466 15.4297 8.43523C15.3901 8.36579 15.374 8.28535 15.384 8.20601C15.3903 8.11777 15.4153 8.03187 15.4572 7.95399C15.4992 7.87612 15.5572 7.80803 15.6274 7.75424C15.6977 7.70046 15.7785 7.66219 15.8646 7.64198C15.9508 7.62177 16.0402 7.62008 16.127 7.63701C16.4525 7.68442 16.7679 7.7858 17.06 7.937C17.672 8.253 18.26 8.616 18.86 8.953C18.997 9.03 19.15 9.082 19.353 9.17C18.5662 9.31479 17.7573 9.28749 16.982 9.09V9.089Z" fill="#DC001C"/>
</svg>
