<svg width="32" height="32" viewBox="0 0 32 32" fill="none" xmlns="http://www.w3.org/2000/svg">
<path d="M26.9721 20.295C26.8611 19.895 25.6721 20.066 24.6901 19.98C23.5324 19.8868 22.3905 19.6517 21.2901 19.2799C20.0489 18.8712 18.8413 18.3667 17.6781 17.771C17.6781 17.771 17.2401 17.544 17.1941 17.519C17.1031 17.465 17.0321 17.427 16.9441 17.373C16.8911 17.342 16.8091 17.295 16.7501 17.268C16.6825 17.2376 16.6182 17.2004 16.5581 17.157C16.4891 17.118 16.3991 17.076 16.3321 17.035C16.244 16.9811 16.1588 16.9223 16.0771 16.859C16.0237 16.8225 15.9683 16.7891 15.9111 16.759C15.8641 16.73 15.7791 16.686 15.7391 16.659C15.6531 16.603 15.5971 16.559 15.5101 16.498C15.4561 16.46 15.4171 16.439 15.3541 16.398C15.2911 16.357 15.2341 16.312 15.1741 16.272C15.1387 16.2503 15.1052 16.2255 15.0741 16.198C15.0091 16.139 14.9472 16.0829 14.8801 16.0299C14.8131 15.9769 14.7601 15.93 14.7001 15.885C14.6621 15.857 14.6001 15.806 14.5581 15.776C14.4581 15.708 14.3991 15.6579 14.3031 15.5859C14.2401 15.5409 14.1871 15.481 14.1231 15.436C14.0591 15.391 13.9911 15.326 13.9161 15.276C13.8687 15.2428 13.8236 15.2063 13.7811 15.167C13.7341 15.112 13.6901 15.076 13.6411 15.02C13.6061 14.982 13.5361 14.939 13.4971 14.902C13.4309 14.8216 13.355 14.7497 13.2711 14.688C13.2419 14.6607 13.2149 14.6313 13.1901 14.6C13.1696 14.5707 13.1461 14.5436 13.1201 14.519C13.0821 14.48 13.0681 14.47 13.0521 14.455C13.0361 14.44 13.0141 14.421 12.9621 14.37C12.936 14.3414 12.9117 14.3114 12.8891 14.2799C12.8712 14.2511 12.8512 14.2238 12.8291 14.198C12.7831 14.149 12.7501 14.113 12.7161 14.08C12.6821 14.047 12.6671 14.028 12.6341 13.997C12.6162 13.9757 12.6001 13.953 12.5861 13.929C12.5712 13.9075 12.5552 13.8868 12.5381 13.867C12.5091 13.835 12.4891 13.847 12.4831 13.851C12.4771 13.855 12.4591 13.894 12.4831 13.934C12.5085 13.9786 12.5366 14.0217 12.5671 14.063C12.5671 14.071 12.5771 14.077 12.5791 14.081C12.5886 14.0951 12.5973 14.1098 12.6051 14.1249C12.6181 14.1469 12.6331 14.17 12.6491 14.191C12.6834 14.2353 12.7205 14.2774 12.7601 14.317C12.7741 14.3286 12.7872 14.3413 12.7991 14.355C12.824 14.3809 12.8461 14.4094 12.8651 14.44C12.8871 14.469 12.9091 14.499 12.9351 14.529C12.9491 14.5413 12.9609 14.5558 12.9701 14.572C12.9841 14.587 12.9951 14.603 13.0111 14.618L13.0761 14.6829C13.1131 14.7179 13.1501 14.756 13.1851 14.783C13.2201 14.81 13.2401 14.8319 13.2701 14.8619C13.3411 14.9469 13.4221 15.031 13.4861 15.111C13.5311 15.1549 13.5815 15.1928 13.6361 15.2239C13.6804 15.2668 13.7205 15.3137 13.7561 15.364C13.7821 15.395 13.8441 15.4509 13.8761 15.4869C13.9373 15.5674 14.0109 15.6376 14.0941 15.695C14.1497 15.7322 14.1993 15.7778 14.2411 15.83C14.2691 15.863 14.3511 15.943 14.3821 15.981C14.4611 16.081 14.4971 16.171 14.4821 16.173C14.4291 16.187 14.2981 16.073 14.2201 16.024C14.1601 15.98 14.1451 15.965 14.0861 15.924C14.0355 15.888 13.9874 15.8485 13.9421 15.8059C13.9161 15.7809 13.8421 15.706 13.8221 15.678C13.7397 15.5822 13.6491 15.4938 13.5511 15.414C13.4591 15.327 13.3451 15.249 13.2561 15.171C13.2301 15.142 13.2031 15.1159 13.1771 15.0859C13.1511 15.0559 13.1101 15.027 13.0851 15.003C13.0424 14.9354 12.9928 14.8724 12.9371 14.815C12.8851 14.779 12.8481 14.739 12.7951 14.697C12.7763 14.6809 12.7582 14.6639 12.7411 14.646C12.7133 14.6297 12.6878 14.6099 12.6651 14.587L12.4851 14.358C12.4561 14.32 12.4171 14.2889 12.3851 14.2519C12.3251 14.1709 12.2741 14.086 12.2141 14.01C12.1291 13.901 12.0141 13.825 11.9261 13.716C11.8381 13.607 11.7931 13.473 11.7131 13.357C11.6811 13.306 11.6261 13.2699 11.5931 13.2219C11.5711 13.1949 11.5591 13.16 11.5381 13.131C11.4971 13.068 11.4471 13.0059 11.4031 12.9459C11.3481 12.8649 11.3112 12.7789 11.2551 12.6939C11.2375 12.6557 11.2174 12.6187 11.1951 12.583C11.1584 12.5356 11.125 12.4859 11.0951 12.434C11.0551 12.375 11.0351 12.334 11.0111 12.296C10.9871 12.258 10.9651 12.215 10.9471 12.188C10.9291 12.161 10.8871 12.104 10.8731 12.082C10.8363 12.0186 10.7962 11.9572 10.7531 11.898C10.7211 11.855 10.6861 11.82 10.6531 11.83C10.6201 11.84 10.6371 11.873 10.6431 11.889C10.6541 11.9249 10.671 11.9587 10.6931 11.989C10.7341 12.065 10.7491 12.101 10.7931 12.17C10.8151 12.204 10.8531 12.278 10.8821 12.318C10.9112 12.3581 10.937 12.4006 10.9591 12.445C10.983 12.5047 11.0115 12.5625 11.0441 12.618C11.0737 12.6589 11.0995 12.7024 11.1211 12.748C11.1649 12.8242 11.2133 12.8977 11.2661 12.968C11.2971 13.023 11.3261 13.081 11.3571 13.137C11.4171 13.225 11.4891 13.309 11.5491 13.399L11.6591 13.592C11.6931 13.644 11.7451 13.692 11.7791 13.742C11.8131 13.792 11.8451 13.876 11.8891 13.942C11.9331 14.008 11.9651 14.042 11.9991 14.088C12.0591 14.173 12.1081 14.256 12.1711 14.335C12.2031 14.379 12.2481 14.4169 12.2801 14.4609C12.3281 14.5199 12.3631 14.594 12.4111 14.646C12.4549 14.6868 12.495 14.7313 12.5311 14.779C12.5961 14.857 12.7631 15.086 12.7311 15.088C12.6311 15.1 12.4491 14.893 12.3711 14.818C12.3102 14.7693 12.2524 14.7169 12.1981 14.661C12.1381 14.579 12.0921 14.4849 12.0291 14.4049C12.0071 14.3769 11.9731 14.354 11.9501 14.325C11.9095 14.2687 11.865 14.2152 11.8171 14.165C11.7959 14.1466 11.7758 14.1269 11.7571 14.106C11.6811 14.011 11.6181 13.906 11.5431 13.812C11.5121 13.77 11.4711 13.7339 11.4431 13.6939C11.4151 13.6539 11.4061 13.628 11.3831 13.594C11.3601 13.56 11.3131 13.505 11.2831 13.46C11.2531 13.415 11.2471 13.394 11.2231 13.36C11.1831 13.301 11.1281 13.248 11.0881 13.188C11.0481 13.128 11.0471 13.074 11.0151 13.026C10.9321 12.9 10.8401 12.774 10.7591 12.65C10.7401 12.617 10.7291 12.58 10.7091 12.55C10.6431 12.45 10.5801 12.337 10.5091 12.236C10.4851 12.198 10.4761 12.155 10.4491 12.118C10.4221 12.081 10.3731 12.036 10.3411 11.993C10.3226 11.9562 10.3059 11.9184 10.2911 11.88C10.2651 11.827 10.2311 11.7739 10.2041 11.7239C10.1871 11.6919 10.1771 11.662 10.1591 11.632C10.0807 11.5087 10.0105 11.3805 9.94913 11.248C9.91613 11.178 9.86414 11.1119 9.82914 11.0429C9.79414 10.9739 9.75714 10.8849 9.72114 10.8079C9.70114 10.7569 9.68214 10.708 9.66114 10.656C9.62414 10.575 9.56114 10.504 9.52714 10.421C9.50014 10.362 9.48714 10.3099 9.46214 10.2629C9.44814 10.2339 9.41814 10.21 9.39814 10.221C9.37814 10.232 9.37414 10.2599 9.38714 10.3039C9.41419 10.3838 9.44763 10.4614 9.48714 10.536C9.53214 10.636 9.55514 10.736 9.60114 10.83C9.62314 10.885 9.66115 10.936 9.68615 10.989C9.73115 11.081 9.77315 11.1759 9.81315 11.2649C9.83471 11.3162 9.85908 11.3663 9.88615 11.415C9.90386 11.4418 9.92021 11.4695 9.93514 11.498C9.96414 11.562 9.97314 11.627 10.0021 11.686C10.0311 11.745 10.0811 11.8039 10.1111 11.8619C10.2539 12.1719 10.4163 12.4725 10.5971 12.762C10.6491 12.84 10.6751 12.9349 10.7271 13.0129C10.7792 13.091 10.8531 13.156 10.9041 13.234C10.9551 13.312 10.9581 13.389 11.0041 13.46C11.0641 13.56 11.1401 13.653 11.2041 13.754C11.2211 13.781 11.2261 13.813 11.2451 13.842C11.2641 13.871 11.3011 13.918 11.3261 13.955C11.3518 14.0092 11.3805 14.0619 11.4121 14.113C11.4501 14.165 11.5051 14.213 11.5441 14.26C11.5831 14.307 11.6251 14.401 11.6751 14.466C11.7101 14.512 11.7641 14.543 11.7981 14.589C11.8551 14.659 12.0461 14.908 12.0981 14.976C12.2129 15.0991 12.3154 15.233 12.4041 15.376C12.4261 15.419 12.5041 15.521 12.4861 15.542C12.4461 15.568 12.2551 15.366 12.2221 15.333C12.1443 15.2504 12.0718 15.1628 12.0051 15.0709C11.9881 15.0519 11.8051 14.871 11.7891 14.856C11.7712 14.8332 11.7545 14.8095 11.7391 14.785C11.6871 14.713 11.6581 14.622 11.6011 14.55C11.5791 14.521 11.5411 14.498 11.5231 14.471C11.4801 14.416 11.4511 14.353 11.4091 14.298C11.3441 14.211 11.2611 14.133 11.1951 14.048C11.1291 13.963 11.0751 13.84 11.0031 13.748C10.9671 13.7 10.9211 13.6589 10.8861 13.61C10.8721 13.5879 10.8641 13.565 10.8511 13.542C10.82 13.5033 10.7926 13.4617 10.7691 13.4179C10.7533 13.3788 10.735 13.3407 10.7141 13.304C10.6401 13.189 10.5641 13.069 10.4901 12.951C10.4551 12.9 10.4371 12.845 10.4021 12.792C10.3451 12.707 10.2761 12.631 10.2221 12.546C10.1541 12.446 10.1221 12.32 10.0541 12.219C10.0101 12.153 9.95414 12.089 9.91514 12.019C9.87614 11.949 9.84214 11.861 9.79914 11.784C9.75614 11.707 9.71215 11.6549 9.67915 11.5839C9.64615 11.5129 9.61614 11.4379 9.57914 11.3619C9.56014 11.3219 9.53015 11.281 9.51115 11.241C9.49215 11.201 9.48214 11.1409 9.45814 11.0859C9.39314 10.9459 9.29415 10.812 9.22715 10.675C9.17815 10.575 9.13614 10.475 9.09614 10.365C9.07949 10.3081 9.05946 10.2524 9.03614 10.198C8.97614 10.07 8.90315 9.93295 8.84515 9.80595C8.82015 9.73695 8.79514 9.66996 8.76814 9.59996C8.76688 9.57963 8.76215 9.55967 8.75414 9.54095C8.72814 9.48195 8.69014 9.42295 8.66814 9.36195C8.64614 9.30095 8.62214 9.22395 8.60114 9.15295C8.50814 8.92695 8.42614 8.67196 8.33614 8.43496C8.32514 8.39296 8.32314 8.33495 8.30714 8.29295C8.26114 8.17495 8.21514 8.05095 8.16914 7.93095C8.14614 7.87195 8.08514 7.88895 8.09914 7.95295C8.11814 8.03595 8.12813 8.05296 8.14314 8.12196C8.15014 8.15496 8.15715 8.18795 8.16215 8.22195C8.17445 8.26343 8.18913 8.30417 8.20614 8.34396C8.22914 8.41596 8.23115 8.48796 8.25715 8.55696C8.29115 8.65696 8.32814 8.74696 8.35714 8.85096C8.36514 8.90096 8.37714 8.95095 8.38714 8.99995C8.40023 9.04744 8.41764 9.09363 8.43914 9.13795C8.49014 9.26195 8.53914 9.38096 8.58414 9.50096C8.60114 9.57196 8.62015 9.64095 8.63815 9.71095C8.65615 9.74895 8.68315 9.78996 8.70115 9.82896C8.71915 9.86796 8.72015 9.89395 8.73515 9.92895C8.76615 10.0079 8.79514 10.0879 8.83514 10.1679C8.86614 10.2329 8.90015 10.298 8.92715 10.368C8.94015 10.403 8.94014 10.43 8.95214 10.468C9.02914 10.675 9.11415 10.891 9.20515 11.085C9.22715 11.134 9.23314 11.1849 9.25614 11.235C9.27914 11.285 9.30015 11.32 9.31915 11.361C9.33815 11.402 9.33714 11.414 9.34814 11.439C9.37514 11.498 9.42214 11.546 9.44814 11.604C9.51845 11.7606 9.60104 11.9114 9.69514 12.055C9.77556 12.1971 9.84253 12.3464 9.89515 12.501C9.92979 12.5707 9.96991 12.6376 10.0151 12.701C10.0347 12.7345 10.0514 12.7696 10.0651 12.8059C10.1001 12.8813 10.1402 12.9541 10.1851 13.024C10.2171 13.07 10.2421 13.1206 10.2591 13.174C10.2801 13.2308 10.2945 13.2899 10.3021 13.35C10.2891 13.36 10.2111 13.315 10.1861 13.287C10.1341 13.2383 10.091 13.1807 10.0591 13.117C10.0411 13.076 10.0041 13.006 9.98214 12.967C9.9257 12.8705 9.8629 12.778 9.79414 12.69C9.76214 12.637 9.74215 12.577 9.71415 12.519C9.66415 12.413 9.60715 12.306 9.55415 12.197C9.53067 12.1515 9.50358 12.108 9.47314 12.067C9.44814 12.025 9.43314 11.979 9.40514 11.938C9.34005 11.8417 9.28094 11.7415 9.22814 11.6379C9.19114 11.5649 9.17415 11.489 9.13815 11.417C9.12468 11.3933 9.10964 11.3706 9.09315 11.3489C9.07267 11.3106 9.0543 11.2713 9.03814 11.231C9.01014 11.176 8.97015 11.121 8.93815 11.064C8.88515 10.949 8.85314 10.832 8.79914 10.717C8.77214 10.666 8.72915 10.617 8.70515 10.567C8.66515 10.486 8.66214 10.384 8.62214 10.3C8.52214 10.077 8.40315 9.84596 8.31715 9.61096C8.30415 9.57196 8.30014 9.52796 8.28614 9.48596C8.24914 9.38596 8.19815 9.28595 8.16215 9.18595C8.14515 9.13995 8.14014 9.09696 8.12214 9.05096C8.09714 8.98296 8.06514 8.91196 8.03814 8.84196C8.034 8.81776 8.02764 8.79399 8.01914 8.77096C7.99014 8.70696 7.97015 8.62895 7.94015 8.56295C7.92315 8.52795 7.89915 8.49195 7.88015 8.45495C7.85615 8.38695 7.86415 8.30296 7.83915 8.23796C7.80415 8.13796 7.76214 8.03795 7.72814 7.94395C7.70614 7.88495 7.70414 7.83496 7.68214 7.77896C7.66014 7.72296 7.63514 7.64695 7.61114 7.58395C7.58714 7.52095 7.58914 7.44696 7.56614 7.37896C7.55014 7.32696 7.52914 7.27895 7.51014 7.22496C7.47514 7.13296 7.46414 7.03595 7.42814 6.94895C7.42314 6.93295 7.41715 6.91696 7.41015 6.90196C7.40315 6.88696 7.38715 6.85496 7.36015 6.86296C7.33315 6.87096 7.33414 6.90395 7.33614 6.92695C7.34389 6.99069 7.36073 7.05299 7.38615 7.11195C7.40815 7.17095 7.41914 7.22996 7.43514 7.28796C7.44514 7.32496 7.44214 7.36396 7.45214 7.40196C7.46414 7.45496 7.48414 7.50196 7.49914 7.55996C7.51414 7.61796 7.50514 7.65995 7.51714 7.70495C7.55214 7.81895 7.59015 7.94995 7.63215 8.05795C7.64815 8.11695 7.65214 8.18096 7.66914 8.22996L7.73214 8.40595C7.75014 8.45395 7.75615 8.50595 7.77615 8.54795C7.80143 8.59781 7.82347 8.64926 7.84214 8.70196C7.86414 8.77296 7.86315 8.84396 7.88815 8.91096C7.92815 9.01796 7.97914 9.12296 8.01814 9.22796C8.02913 9.26596 8.03215 9.30596 8.04815 9.34596C8.07915 9.43696 8.10314 9.53495 8.13914 9.62495C8.18614 9.75495 8.24914 9.88095 8.29613 10.009C8.34313 10.137 8.35014 10.289 8.40414 10.409C8.43214 10.468 8.49014 10.5009 8.51514 10.5579C8.52754 10.5978 8.53656 10.6386 8.54214 10.68C8.55614 10.727 8.58014 10.775 8.59814 10.82C8.61614 10.865 8.62015 10.901 8.63215 10.941C8.65362 10.9899 8.67764 11.0376 8.70414 11.0839C8.73276 11.16 8.76617 11.2341 8.80415 11.3059C8.84072 11.3555 8.87411 11.4072 8.90414 11.4609C8.93414 11.5239 8.94514 11.591 8.97514 11.661C9.01914 11.761 9.07515 11.849 9.11015 11.95C9.1328 12.0411 9.16255 12.1304 9.19913 12.217C9.24214 12.297 9.29915 12.3669 9.34315 12.4459C9.37215 12.5049 9.39914 12.564 9.42814 12.622C9.45714 12.68 9.49415 12.711 9.52015 12.761C9.54615 12.811 9.58814 12.8839 9.62014 12.9439C9.63617 12.989 9.65625 13.0325 9.68014 13.074C9.72014 13.133 9.74915 13.1859 9.78915 13.2499C9.82912 13.3096 9.86264 13.3733 9.88914 13.44C9.9066 13.4896 9.92941 13.5372 9.95715 13.582C9.99255 13.6212 10.0259 13.6623 10.0571 13.705C10.0868 13.7676 10.1032 13.8357 10.1051 13.9049C10.0711 13.9169 9.97815 13.83 9.95315 13.797C9.88215 13.71 9.84514 13.597 9.77814 13.503C9.71303 13.4173 9.6558 13.3259 9.60714 13.23C9.56931 13.1469 9.52726 13.0657 9.48115 12.9869C9.43764 12.9342 9.3985 12.878 9.36414 12.8189C9.34114 12.7669 9.32914 12.707 9.30714 12.657C9.27114 12.583 9.20014 12.535 9.16314 12.457C9.12614 12.379 9.10315 12.285 9.06315 12.207C9.04115 12.169 9.01314 12.1259 8.99514 12.0859C8.97714 12.0459 8.95914 11.986 8.93514 11.936C8.88614 11.836 8.81114 11.745 8.76414 11.642C8.71714 11.539 8.68515 11.422 8.63215 11.315C8.60515 11.259 8.55714 11.21 8.53214 11.152C8.49514 11.076 8.47715 10.995 8.44015 10.917C8.41615 10.869 8.38514 10.827 8.36114 10.779C8.32914 10.714 8.31815 10.641 8.28515 10.573C8.21415 10.415 8.13914 10.253 8.06814 10.096C8.04214 10.037 8.03614 9.97396 8.00814 9.91296C7.98014 9.85196 7.95415 9.80695 7.92515 9.75495C7.86515 9.61595 7.84214 9.45495 7.77914 9.31495C7.74714 9.24695 7.70615 9.17895 7.67915 9.10195C7.63315 8.98395 7.61914 8.86196 7.57014 8.73896C7.50314 8.55396 7.45014 8.36196 7.38114 8.17596C7.36114 8.11696 7.35914 8.06595 7.33814 8.00895C7.31714 7.95195 7.29714 7.90095 7.27814 7.84695C7.25914 7.79295 7.25615 7.74695 7.24415 7.68395C7.19415 7.52795 7.14415 7.37095 7.09115 7.21395C7.08015 7.17695 7.07715 7.11396 7.06515 7.06196C7.05515 7.03496 7.04214 7.00295 7.03114 6.97695C7.02014 6.95095 7.01814 6.90995 7.00614 6.87695C6.96914 6.76295 6.93615 6.62796 6.89915 6.51396C6.88815 6.47896 6.88515 6.42795 6.87315 6.38595C6.83372 6.21124 6.78532 6.03868 6.72814 5.86895C6.71814 5.84095 6.69714 5.80996 6.66814 5.81596C6.63914 5.82196 6.64314 5.85695 6.64614 5.88395C6.65614 5.95895 6.68314 6.02395 6.69614 6.08395C6.70114 6.11295 6.70114 6.14996 6.70414 6.18395C6.70647 6.21515 6.71217 6.24599 6.72114 6.27595C6.75214 6.37595 6.78614 6.48796 6.82114 6.58496C6.83114 6.63096 6.82114 6.70295 6.83514 6.75695C6.87022 6.91927 6.91429 7.07951 6.96714 7.23695C7.00763 7.37413 7.04101 7.51333 7.06715 7.65396C7.07815 7.71296 7.08314 7.77195 7.09014 7.82995C7.10579 7.88029 7.12586 7.92916 7.15014 7.97596C7.16614 8.01196 7.16414 8.04195 7.17614 8.07595C7.20814 8.17595 7.23114 8.27596 7.26814 8.36996C7.29214 8.43796 7.32814 8.50296 7.35514 8.56996C7.36266 8.60012 7.36735 8.63092 7.36915 8.66195C7.38815 8.72895 7.40014 8.79795 7.42014 8.86195C7.46914 8.99695 7.52015 9.14495 7.56715 9.28095C7.59515 9.35495 7.60414 9.42796 7.62714 9.50096C7.73714 9.79496 7.84715 10.086 7.95715 10.374C7.97415 10.44 7.99315 10.503 8.01115 10.566C8.03587 10.6272 8.06598 10.6861 8.10114 10.742C8.13714 10.817 8.14914 10.896 8.17814 10.977C8.20714 11.058 8.25514 11.142 8.29314 11.239C8.31014 11.285 8.32814 11.339 8.34914 11.381C8.37014 11.423 8.39414 11.448 8.40914 11.481C8.43914 11.54 8.44614 11.611 8.46914 11.669C8.50354 11.7242 8.54128 11.7773 8.58215 11.828C8.60537 11.8841 8.6254 11.9415 8.64214 11.9999C8.68314 12.0879 8.73415 12.169 8.77415 12.2629C8.79115 12.3019 8.79915 12.3359 8.81715 12.3749C8.83515 12.4139 8.87014 12.461 8.89014 12.504C8.88976 12.5056 8.88976 12.5073 8.89014 12.509C8.89374 12.5163 8.89642 12.524 8.89814 12.532C8.89814 12.55 8.90914 12.573 8.91514 12.591C8.92885 12.6222 8.9456 12.652 8.96514 12.68C8.97214 12.688 8.99315 12.711 9.00915 12.732C9.01805 12.7402 9.02578 12.7496 9.03214 12.76C9.06103 12.8293 9.0864 12.9 9.10815 12.9719C9.14115 13.0379 9.19614 13.09 9.22814 13.157C9.25314 13.208 9.26614 13.333 9.23414 13.34C9.10014 13.34 9.09014 13.157 9.04514 13.06C9.00914 12.985 8.95414 12.924 8.91314 12.851C8.90116 12.828 8.89146 12.8038 8.88415 12.779C8.87621 12.754 8.86651 12.7296 8.85514 12.706C8.83814 12.671 8.83815 12.676 8.82615 12.651C8.81415 12.626 8.77614 12.5789 8.76614 12.5579C8.71614 12.4769 8.68214 12.3579 8.64614 12.3059C8.62188 12.2765 8.59918 12.2458 8.57815 12.214C8.54878 12.1589 8.52273 12.1021 8.50014 12.044C8.47514 11.991 8.43514 11.944 8.40914 11.885C8.38314 11.826 8.37714 11.736 8.34614 11.672C8.33014 11.635 8.30014 11.6 8.28614 11.572C8.24714 11.496 8.22615 11.416 8.18615 11.342C8.16915 11.306 8.13714 11.272 8.11814 11.236C8.08714 11.174 8.07315 11.106 8.03915 11.05C7.96422 10.9222 7.8958 10.7907 7.83414 10.656C7.80014 10.578 7.78815 10.501 7.75515 10.428C7.72215 10.355 7.68214 10.2979 7.65514 10.2349C7.63514 10.1939 7.63014 10.152 7.61214 10.106C7.58414 10.032 7.55215 9.95696 7.52415 9.88496C7.50815 9.83396 7.49315 9.72395 7.47915 9.67895C7.46515 9.63395 7.42914 9.56596 7.40414 9.51196C7.36814 9.43196 7.35615 9.34696 7.31915 9.26696C7.29115 9.20496 7.25915 9.13796 7.23515 9.07496C7.21115 9.01196 7.21015 8.96896 7.18815 8.91996C7.16615 8.87096 7.14715 8.83695 7.13215 8.79795C7.11715 8.75895 7.10314 8.67195 7.08814 8.60995C7.07314 8.54795 7.03414 8.47395 7.01214 8.40995C7.00014 8.35895 6.99914 8.24096 6.98414 8.20996C6.91114 7.99996 6.84114 7.77195 6.77314 7.56295C6.74214 7.46295 6.72614 7.36296 6.69814 7.26896C6.68814 7.23096 6.68614 7.18095 6.67814 7.14295C6.65714 7.08395 6.63115 7.02095 6.61015 6.95695C6.60015 6.91395 6.59314 6.86995 6.58514 6.82795C6.57103 6.78256 6.554 6.73814 6.53414 6.69496C6.49314 6.56696 6.46914 6.43195 6.43414 6.30595C6.42114 6.25395 6.42114 6.18795 6.40614 6.13995C6.35714 5.98495 6.34615 5.80595 6.29815 5.63995C6.28715 5.59195 6.28014 5.54495 6.26914 5.50195C6.18614 5.20195 6.14914 4.85996 6.06014 4.56996C6.04314 4.51096 6.06515 4.44196 6.05015 4.38096C6.03344 4.31729 6.0134 4.25453 5.99014 4.19296C5.98214 4.16196 5.98214 4.13796 5.97514 4.11096C5.95914 4.06096 5.93714 4.02295 5.90914 4.02795C5.88114 4.03295 5.88215 4.06796 5.88415 4.10896C5.88602 4.16923 5.89372 4.22917 5.90714 4.28796C5.91814 4.33396 5.91315 4.37095 5.92515 4.41395C5.94886 4.51587 5.96689 4.61903 5.97915 4.72296C5.98415 4.75796 5.97914 4.80595 5.98914 4.84895C5.99914 4.89195 6.03215 4.94895 6.03915 4.99395C6.05015 5.05595 6.04815 5.13795 6.06115 5.20695C6.07415 5.27595 6.09014 5.31896 6.10514 5.37196C6.12014 5.42496 6.10514 5.46395 6.12214 5.50695C6.14093 5.55115 6.15663 5.59659 6.16914 5.64295C6.17714 5.69695 6.16914 5.77596 6.18014 5.82496C6.25014 6.09096 6.27114 6.40595 6.35114 6.66195C6.36114 6.69995 6.36215 6.73796 6.37115 6.77496C6.43815 6.99896 6.48814 7.23695 6.55814 7.45895C6.56167 7.49525 6.56734 7.53132 6.57514 7.56695C6.59714 7.64695 6.61614 7.72895 6.63514 7.80895C6.63832 7.8426 6.64367 7.87601 6.65115 7.90896C6.67415 7.99096 6.70414 8.07095 6.73014 8.15095C6.74114 8.19095 6.74614 8.22996 6.75214 8.26896C6.76067 8.30306 6.77171 8.33648 6.78515 8.36895C6.79915 8.41495 6.79614 8.45995 6.81014 8.50295C6.82478 8.5278 6.83716 8.55391 6.84715 8.58096C6.85815 8.62996 6.86414 8.68096 6.87814 8.72296C6.89214 8.76496 6.92815 8.83396 6.95115 8.89096C6.97415 8.94796 6.96814 8.98595 6.98614 9.02795C7.01814 9.10595 7.05314 9.19896 7.08614 9.28396C7.11214 9.35196 7.11514 9.42196 7.14014 9.49296C7.15714 9.53796 7.18014 9.58596 7.19614 9.63096C7.20387 9.66712 7.21355 9.70284 7.22514 9.73796C7.24542 9.78357 7.26951 9.82738 7.29714 9.86895C7.30944 9.92374 7.31879 9.97916 7.32514 10.035C7.34114 10.086 7.37114 10.1349 7.38914 10.1809C7.40714 10.2269 7.40614 10.2809 7.42014 10.3339C7.43773 10.3732 7.45777 10.4113 7.48014 10.448C7.49414 10.492 7.51115 10.534 7.52615 10.577C7.54115 10.62 7.56315 10.636 7.57615 10.661C7.60115 10.712 7.62014 10.761 7.64114 10.814C7.66335 10.8953 7.68138 10.9778 7.69514 11.061C7.70214 11.085 7.70214 11.142 7.68514 11.149C7.65314 11.155 7.61315 11.101 7.59115 11.068C7.548 11.0106 7.51143 10.9485 7.48214 10.883C7.47214 10.857 7.46614 10.834 7.45814 10.809C7.43514 10.754 7.41714 10.691 7.39314 10.633C7.37416 10.5972 7.35714 10.5605 7.34214 10.523C7.32314 10.471 7.33214 10.408 7.31014 10.361C7.28814 10.314 7.26015 10.2909 7.24215 10.2519C7.22415 10.2129 7.22214 10.18 7.20814 10.144C7.18713 10.102 7.16377 10.0613 7.13815 10.022C7.12482 9.98108 7.11445 9.93931 7.10714 9.89695C7.09283 9.84238 7.07377 9.78918 7.05015 9.73796C7.02715 9.68796 6.99714 9.63795 6.97314 9.58395C6.96214 9.55495 6.95713 9.52495 6.94913 9.49595C6.94113 9.46695 6.91414 9.41395 6.89814 9.37795C6.88214 9.34196 6.88114 9.31896 6.86814 9.28996C6.85514 9.26096 6.82714 9.19895 6.80814 9.15095C6.78914 9.10295 6.79414 9.07195 6.78014 9.03295C6.75514 8.96695 6.73014 8.88996 6.70914 8.82496C6.68814 8.75996 6.68715 8.72496 6.67315 8.66996C6.65915 8.61496 6.62614 8.55196 6.60314 8.48896C6.58714 8.44096 6.58315 8.38895 6.56715 8.34095C6.54515 8.27595 6.51114 8.21595 6.48814 8.14895C6.46514 8.08195 6.47414 8.04095 6.46214 7.98995C6.42414 7.86395 6.38314 7.72695 6.34214 7.59895C6.29714 7.45495 6.29115 7.29396 6.24815 7.14796C6.21915 7.04796 6.18214 6.94795 6.14814 6.84295C6.13614 6.79095 6.13514 6.74295 6.12014 6.68995C6.09114 6.57495 6.04715 6.42595 6.00915 6.30595C5.99015 6.24295 5.99614 6.17795 5.97614 6.10595C5.95614 6.03395 5.95614 5.95496 5.93414 5.88296C5.91646 5.83978 5.90209 5.79531 5.89114 5.74995C5.88014 5.69095 5.88014 5.62496 5.87414 5.58096C5.86814 5.53696 5.78814 5.28696 5.78014 5.24096C5.77214 5.19496 5.77214 5.10895 5.76514 5.07795C5.75814 5.04695 5.72215 4.94795 5.71815 4.92095C5.71537 4.88132 5.71001 4.84191 5.70214 4.80296C5.68914 4.74696 5.65614 4.62196 5.65214 4.58496C5.64814 4.54796 5.64515 4.47596 5.63815 4.43896C5.63115 4.40196 5.60614 4.32095 5.59014 4.26295C5.57414 4.20495 5.59014 4.11395 5.56414 4.04595C5.55002 3.996 5.533 3.94691 5.51315 3.89895C5.50215 3.85695 5.48514 3.79895 5.48214 3.77395C5.47914 3.74895 5.48215 3.65596 5.47715 3.62596C5.47215 3.59596 5.45715 3.51695 5.45315 3.45695C5.44796 3.38372 5.43625 3.3111 5.41814 3.23995C5.41014 3.21095 5.41314 3.17695 5.40614 3.14695C5.38514 3.06795 5.36614 2.99496 5.32314 3.00096C5.29614 3.00096 5.28415 3.02895 5.29815 3.08195C5.31215 3.13495 5.31814 3.19096 5.33514 3.25296C5.34161 3.30035 5.34496 3.34813 5.34515 3.39596C5.34515 3.43796 5.34514 3.44796 5.35514 3.49096C5.35514 3.50696 5.36515 3.54995 5.36915 3.56495C5.37787 3.59395 5.38356 3.62378 5.38615 3.65396V3.75396C5.38621 3.77528 5.38924 3.79647 5.39515 3.81695C5.40183 3.84085 5.40651 3.86527 5.40914 3.88995V3.96095C5.41027 3.98869 5.41463 4.01621 5.42214 4.04295C5.45231 4.10685 5.46539 4.17748 5.46014 4.24795C5.45221 4.32648 5.46213 4.4058 5.48914 4.47996C5.49914 4.52796 5.48914 4.57996 5.49714 4.62196C5.50514 4.66396 5.53015 4.74996 5.54815 4.81396C5.56615 4.87796 5.54814 4.91396 5.56614 4.96296C5.58514 5.03396 5.63514 5.12896 5.64114 5.16296C5.64714 5.19696 5.64114 5.28096 5.65514 5.33296C5.66914 5.38496 5.67814 5.45095 5.68114 5.48295C5.68295 5.50792 5.68295 5.53298 5.68114 5.55795C5.68114 5.58295 5.72114 5.70695 5.72514 5.73695C5.72914 5.76695 5.73014 5.78395 5.73614 5.81695C5.74214 5.84995 5.77214 5.98096 5.77714 6.02296C5.78214 6.06496 5.78315 6.08995 5.79115 6.13395C5.80315 6.19995 5.83014 6.25196 5.84414 6.31596C5.85314 6.36196 5.85014 6.39196 5.85514 6.42796C5.86914 6.48696 5.89015 6.53995 5.89915 6.59695C5.90915 6.63795 5.90914 6.68096 5.91814 6.72596C5.93914 6.81996 5.95314 6.91495 5.97814 7.00895C5.99414 7.06395 6.02714 7.11396 6.04314 7.16696C6.05914 7.21996 6.06114 7.26695 6.07514 7.31695C6.08914 7.36695 6.11814 7.39796 6.12714 7.44296C6.13614 7.48796 6.13514 7.51995 6.14114 7.56095C6.14714 7.60195 6.17114 7.64995 6.18114 7.69395C6.18307 7.72755 6.18741 7.76098 6.19415 7.79396C6.20715 7.82896 6.22614 7.86695 6.23614 7.90495C6.24614 7.94295 6.24414 8.00496 6.25614 8.05096C6.27262 8.10652 6.29266 8.16097 6.31614 8.21395C6.32629 8.26552 6.33364 8.3176 6.33814 8.36996C6.36914 8.48296 6.40814 8.60896 6.44614 8.71496C6.46414 8.77396 6.46214 8.83295 6.48214 8.89495C6.49782 8.92912 6.51517 8.9625 6.53414 8.99496C6.54714 9.03196 6.53413 9.07096 6.54613 9.11296C6.56413 9.18196 6.57714 9.27495 6.60014 9.34295C6.62314 9.41095 6.67514 9.48196 6.70014 9.55496C6.72514 9.62796 6.72814 9.71195 6.75614 9.79295C6.78414 9.87395 6.81615 9.92596 6.84315 9.99296C6.85796 10.055 6.86963 10.1177 6.87814 10.1809C6.89814 10.2399 6.95114 10.294 6.97814 10.361C7.00514 10.428 7.02514 10.5099 7.04914 10.5859C7.05714 10.6189 7.06414 10.649 7.07114 10.686C7.09914 10.786 7.15215 10.862 7.18815 10.956C7.20115 11 7.20414 11.037 7.21914 11.077C7.24184 11.1454 7.26924 11.2123 7.30114 11.277C7.32914 11.336 7.36513 11.395 7.39314 11.449C7.41342 11.5028 7.43013 11.5579 7.44314 11.614C7.46514 11.671 7.49215 11.725 7.51315 11.779C7.52615 11.813 7.52714 11.844 7.54314 11.879C7.61014 12.027 7.69214 12.173 7.76414 12.322C7.80114 12.4 7.81615 12.485 7.85615 12.568C7.88715 12.63 7.92414 12.692 7.95614 12.759C7.97514 12.802 7.98014 12.844 7.99914 12.885C8.03714 12.964 8.08914 13.044 8.12814 13.12C8.14721 13.1634 8.1561 13.2106 8.15414 13.258C8.15414 13.258 8.15414 13.269 8.14614 13.27C8.12114 13.278 8.07013 13.235 8.04613 13.208C7.94614 13.116 7.93414 12.94 7.86614 12.818C7.84404 12.7839 7.824 12.7485 7.80614 12.712C7.79877 12.6857 7.78871 12.6602 7.77615 12.636C7.73515 12.558 7.68414 12.488 7.64614 12.404C7.61814 12.345 7.61514 12.279 7.58614 12.221C7.47614 11.99 7.35015 11.7649 7.24415 11.5299C7.19415 11.4239 7.18414 11.304 7.14414 11.19C7.11814 11.122 7.07614 11.067 7.04414 11.001C7.02114 10.952 7.01515 10.901 6.99215 10.848C6.96115 10.782 6.91814 10.721 6.89214 10.648C6.87614 10.602 6.87014 10.555 6.85114 10.509C6.83214 10.463 6.79615 10.416 6.77215 10.365C6.74632 10.2903 6.72625 10.2137 6.71214 10.136C6.69714 10.09 6.67914 10.044 6.66514 10.003C6.65114 9.96196 6.64815 9.92396 6.63415 9.88496C6.60215 9.79696 6.54914 9.71996 6.51414 9.62896C6.49214 9.56996 6.49515 9.49195 6.47015 9.42895C6.44515 9.36595 6.41015 9.33996 6.38815 9.28996C6.36615 9.23996 6.38815 9.17196 6.36915 9.11096C6.35015 9.04996 6.32814 8.99595 6.30914 8.93795C6.29814 8.90295 6.29315 8.86996 6.28515 8.83796C6.25615 8.76496 6.23015 8.69296 6.20515 8.62196C6.19115 8.58396 6.19014 8.54996 6.17614 8.51596C6.16214 8.48196 6.12414 8.43196 6.10714 8.38696C6.08914 8.31596 6.08214 8.24195 6.06614 8.17495C6.03814 8.08295 6.00214 8.00896 5.97514 7.91896C5.96914 7.89096 5.96914 7.86495 5.96114 7.83395C5.93814 7.75495 5.92914 7.66495 5.90614 7.58695C5.89714 7.54895 5.89814 7.51696 5.88914 7.47996C5.86714 7.40496 5.84115 7.32996 5.81715 7.25796C5.80615 7.21096 5.80414 7.16496 5.79214 7.11996C5.75414 7.00196 5.72115 6.86496 5.68615 6.75296C5.67615 6.71996 5.67914 6.69095 5.66914 6.65295C5.64014 6.56395 5.60414 6.45296 5.58114 6.36596C5.57114 6.31096 5.57115 6.26095 5.56115 6.21095C5.55115 6.16095 5.52414 6.08995 5.51014 6.02595C5.50834 6.00132 5.50834 5.97659 5.51014 5.95196C5.50514 5.91296 5.50015 5.87195 5.49215 5.83195C5.45115 5.66995 5.39214 5.47296 5.35114 5.30996C5.34014 5.25096 5.33815 5.19195 5.33215 5.13395C5.32844 5.09008 5.32108 5.04661 5.31014 5.00396C5.29504 4.96206 5.28236 4.91931 5.27215 4.87596C5.26315 4.80596 5.26315 4.73796 5.25015 4.67596V4.65995C5.23615 4.57795 5.19014 4.40795 5.18214 4.34295C5.17214 4.26095 5.16215 4.18095 5.15115 4.10195C5.14864 4.04833 5.14296 3.9949 5.13415 3.94195C5.12315 3.85695 5.10314 3.78595 5.09214 3.69895C5.08714 3.63995 5.09215 3.59096 5.08215 3.54196C5.08215 3.51096 5.07515 3.45895 5.03715 3.45895C4.99915 3.45895 5.00315 3.50296 5.00015 3.53996C4.99897 3.62432 5.00498 3.70862 5.01814 3.79196C5.03114 3.89196 5.01814 3.99196 5.03414 4.09196C5.04014 4.14796 5.05714 4.20396 5.06414 4.25796C5.07814 4.35796 5.08714 4.44995 5.10014 4.54095C5.10014 4.58695 5.10915 4.62695 5.11715 4.66795V4.67895C5.11779 4.68124 5.11779 4.68366 5.11715 4.68595C5.11787 4.68857 5.11787 4.69133 5.11715 4.69395C5.1202 4.71388 5.12454 4.73359 5.13015 4.75296C5.14015 4.78796 5.13714 4.81796 5.14614 4.85296C5.17814 4.96296 5.17015 5.08295 5.20115 5.18995C5.24515 5.34895 5.27014 5.52796 5.31614 5.68496C5.32914 5.73296 5.31614 5.77796 5.32914 5.82896C5.34214 5.87996 5.35514 5.92896 5.36814 5.97796C5.3718 6.03963 5.37881 6.10104 5.38914 6.16195C5.41014 6.22495 5.42015 6.27395 5.43615 6.32795C5.45215 6.38195 5.45514 6.46095 5.47314 6.52795C5.49714 6.60115 5.51718 6.6756 5.53315 6.75096C5.54915 6.83296 5.55614 6.92695 5.57214 7.01295C5.58814 7.09895 5.62714 7.17095 5.64414 7.24795C5.64414 7.27595 5.64415 7.30295 5.65115 7.32795C5.66215 7.38695 5.67814 7.44196 5.69114 7.49496C5.69408 7.52018 5.69842 7.54522 5.70414 7.56996C5.73114 7.66996 5.76415 7.80496 5.79815 7.90595C5.80615 7.93495 5.81015 7.96496 5.81715 7.99496C5.83815 8.06796 5.86014 8.12096 5.87014 8.16096C5.88014 8.20096 5.88114 8.23595 5.89014 8.27595C5.89914 8.31595 5.92414 8.37596 5.93314 8.42796C5.94214 8.47996 5.94914 8.50095 5.95914 8.54095C5.97307 8.58594 5.98977 8.63003 6.00915 8.67295C6.04315 8.76795 6.04615 8.86795 6.08015 8.95695C6.09915 9.01095 6.12715 9.06296 6.14515 9.11996C6.16315 9.17696 6.16214 9.23795 6.18014 9.29595C6.21114 9.38695 6.24714 9.48995 6.28014 9.57995C6.32014 9.68595 6.34415 9.80395 6.38015 9.90495C6.39615 9.94495 6.39414 9.98595 6.40714 10.033C6.43714 10.133 6.47415 10.246 6.50715 10.35C6.52615 10.403 6.52615 10.45 6.54815 10.508C6.58215 10.591 6.63314 10.666 6.66814 10.753C6.70314 10.84 6.70215 10.904 6.73115 10.975C6.77115 11.068 6.81414 11.163 6.85114 11.262C6.87614 11.33 6.88314 11.398 6.91114 11.462C6.93914 11.526 6.96815 11.575 6.99415 11.63C7.02015 11.685 7.02814 11.73 7.04514 11.776C7.06863 11.828 7.09605 11.8781 7.12714 11.926C7.15132 11.9957 7.17135 12.0668 7.18714 12.139C7.22714 12.25 7.28715 12.362 7.33015 12.466C7.34915 12.505 7.35314 12.5419 7.37014 12.5839C7.39914 12.6569 7.44715 12.713 7.47915 12.784C7.51115 12.855 7.51713 12.917 7.54613 12.984C7.59552 13.066 7.62114 13.1602 7.62014 13.256C7.62076 13.2616 7.61927 13.2673 7.61594 13.2719C7.61262 13.2765 7.60771 13.2798 7.60215 13.281C7.57715 13.29 7.55014 13.249 7.53214 13.234C7.47355 13.1675 7.43021 13.089 7.40514 13.004C7.33614 12.859 7.24914 12.722 7.18214 12.583C7.14614 12.509 7.13214 12.429 7.09614 12.353C7.07614 12.306 7.04514 12.261 7.02314 12.215C6.99114 12.148 6.97515 12.0789 6.94015 12.0149C6.89077 11.9211 6.84734 11.8243 6.81014 11.725C6.79614 11.689 6.79414 11.653 6.77714 11.617C6.76014 11.581 6.73115 11.544 6.71415 11.508C6.68815 11.449 6.67214 11.3749 6.64614 11.3079C6.59314 11.1899 6.53114 11.0669 6.48414 10.9439C6.43714 10.8209 6.42415 10.723 6.38415 10.608C6.36615 10.56 6.34313 10.508 6.32413 10.46C6.30513 10.412 6.30814 10.38 6.29414 10.342C6.25514 10.236 6.20415 10.127 6.16015 10.029C6.14152 9.97959 6.12582 9.92917 6.11314 9.87795C6.08814 9.81495 6.06014 9.74396 6.03814 9.67796C6.00514 9.59596 6.00514 9.49796 5.97114 9.41096C5.90414 9.22496 5.81514 9.02796 5.75614 8.83096C5.74414 8.78596 5.74714 8.73895 5.73414 8.69395C5.70214 8.59395 5.66914 8.48495 5.63914 8.37995C5.60914 8.27495 5.60514 8.13996 5.57014 8.02696C5.52314 7.87796 5.47014 7.72696 5.42214 7.58096C5.40814 7.53596 5.41414 7.48996 5.40014 7.44096C5.36714 7.33096 5.32914 7.19796 5.29014 7.09196C5.27114 7.03996 5.27114 6.98095 5.25114 6.93295C5.23114 6.88495 5.16513 6.89395 5.17113 6.96195C5.17848 7.01986 5.18918 7.07728 5.20315 7.13395C5.20577 7.17697 5.21145 7.21975 5.22015 7.26196C5.24015 7.34096 5.26515 7.40695 5.28515 7.47895C5.30515 7.55095 5.31014 7.62195 5.33114 7.69895C5.34414 7.73695 5.35915 7.77995 5.36915 7.81695C5.39515 7.89295 5.39514 7.97696 5.41914 8.04696C5.44013 8.10467 5.45815 8.16341 5.47314 8.22296C5.47888 8.26 5.48657 8.29672 5.49615 8.33296C5.51715 8.40196 5.53915 8.47096 5.56115 8.54196C5.57215 8.58096 5.56815 8.61696 5.57815 8.65396C5.59415 8.70896 5.60715 8.76495 5.62315 8.81695C5.63915 8.86895 5.63614 8.93495 5.65414 8.98695C5.68414 9.08695 5.72114 9.18696 5.75414 9.27496C5.78714 9.36296 5.79614 9.48095 5.83314 9.58195C5.90014 9.76395 5.96215 9.97195 6.03315 10.156C6.04815 10.203 6.04414 10.256 6.05914 10.302C6.08114 10.381 6.09714 10.458 6.12714 10.537C6.14014 10.575 6.16714 10.612 6.18014 10.645C6.19314 10.678 6.20815 10.738 6.22915 10.783C6.25015 10.828 6.26914 10.856 6.28414 10.896C6.30514 10.955 6.29714 11.025 6.32014 11.079C6.34314 11.133 6.36415 11.172 6.38015 11.217C6.39615 11.262 6.39914 11.322 6.42014 11.369C6.44114 11.416 6.46914 11.4499 6.48814 11.4869C6.50714 11.5239 6.51015 11.566 6.52615 11.605C6.54215 11.644 6.56814 11.695 6.58614 11.735C6.60414 11.775 6.60915 11.835 6.63215 11.881C6.65515 11.927 6.67814 11.962 6.69514 12.007C6.71214 12.052 6.71214 12.107 6.73014 12.152C6.75814 12.223 6.80315 12.285 6.83015 12.352C6.85315 12.403 6.85514 12.461 6.87814 12.511C6.90114 12.561 6.94215 12.629 6.97015 12.687C7.00815 12.765 7.03314 12.847 7.07014 12.922C7.13014 13.052 7.14914 13.197 7.21214 13.322C7.25814 13.422 7.31914 13.51 7.36214 13.604C7.37938 13.6573 7.39941 13.7097 7.42214 13.761C7.45014 13.81 7.49715 13.861 7.52215 13.923C7.54715 13.985 7.55915 14.041 7.58215 14.096C7.61615 14.169 7.66513 14.234 7.69913 14.304C7.72113 14.345 7.72814 14.385 7.74714 14.426C7.78414 14.504 7.84715 14.57 7.88215 14.647C7.90115 14.699 7.92215 14.747 7.93815 14.802C7.97915 14.884 8.03814 14.954 8.08514 15.037C8.1101 15.1008 8.13916 15.1629 8.17214 15.223C8.23214 15.312 8.26714 15.37 8.32514 15.458C8.36214 15.517 8.40915 15.604 8.44015 15.665C8.47115 15.726 8.51913 15.779 8.54613 15.841C8.57313 15.903 8.61614 15.964 8.64614 16.023C8.67614 16.082 8.72215 16.135 8.76315 16.199C8.83115 16.299 8.87315 16.399 8.93815 16.505C8.98315 16.573 9.03814 16.645 9.08814 16.712C9.22314 16.892 9.41614 17.212 9.49914 17.324C9.56614 17.412 9.62214 17.517 9.68714 17.609C9.73414 17.68 9.79414 17.751 9.84614 17.817C9.89814 17.883 9.92415 17.932 9.96615 17.989L10.0001 18.033C11.3895 19.7993 13.0675 21.318 14.9631 22.525C15.3451 22.7729 15.7512 22.9816 16.1751 23.148C16.2751 23.189 16.2071 23.261 16.1551 23.292L7.28614 28.851C7.25814 28.869 7.18614 28.92 7.21714 28.976C7.23714 29.017 7.32814 28.9919 7.35314 28.9849C14.4771 26.5369 19.6471 24.525 22.8071 23.055C26.0071 21.567 27.0881 20.716 26.9711 20.292L26.9721 20.295ZM8.01814 12.079C8.00114 12.045 7.98014 12.007 7.96714 11.979C7.95414 11.951 7.95114 11.902 7.93314 11.865C7.87814 11.744 7.81314 11.61 7.75814 11.489C7.72506 11.4246 7.71348 11.3514 7.72514 11.2799C7.72514 11.2719 7.74714 11.28 7.75614 11.287C7.77375 11.2998 7.78956 11.3149 7.80314 11.332C7.81614 11.349 7.81914 11.368 7.83114 11.386C7.86259 11.4268 7.891 11.4699 7.91615 11.5149C7.96215 11.6149 7.97615 11.7239 8.02215 11.8209C8.05215 11.8839 8.10115 11.939 8.13415 12.004C8.14876 12.0392 8.16144 12.0753 8.17214 12.1119C8.17726 12.1413 8.17961 12.1711 8.17915 12.201C8.17915 12.233 8.17914 12.252 8.16314 12.254C8.07514 12.254 8.05114 12.144 8.01714 12.083L8.01814 12.079ZM8.38815 14.742C8.38643 14.7478 8.38306 14.7529 8.37844 14.7568C8.37382 14.7608 8.36815 14.7632 8.36214 14.764C8.26814 14.764 8.23814 14.622 8.19714 14.564C8.15614 14.506 8.13415 14.454 8.09715 14.4C8.06826 14.3628 8.04251 14.3234 8.02015 14.282C8.00005 14.2291 7.97631 14.1776 7.94913 14.128C7.93067 14.1027 7.91063 14.0787 7.88914 14.0559C7.83537 13.9868 7.791 13.9108 7.75715 13.83C7.75215 13.799 7.74114 13.771 7.73414 13.739C7.71214 13.686 7.69114 13.631 7.67414 13.577C7.66545 13.5444 7.66275 13.5105 7.66615 13.477C7.66615 13.469 7.67215 13.464 7.67915 13.466C7.75315 13.475 7.82214 13.6489 7.85914 13.7109C7.89614 13.7729 7.95915 13.8349 7.99415 13.9029C8.02915 13.9709 8.03415 14.047 8.06715 14.103C8.10015 14.159 8.14114 14.19 8.16714 14.233C8.20561 14.2969 8.23905 14.3638 8.26714 14.4329C8.30214 14.5059 8.35014 14.563 8.38114 14.633C8.39498 14.669 8.39811 14.7082 8.39014 14.746L8.38815 14.742ZM10.3821 14.346C10.3381 14.346 10.3191 14.317 10.2911 14.295C10.2485 14.2657 10.2136 14.2265 10.1898 14.1806C10.1659 14.1347 10.1536 14.0837 10.1541 14.032C10.1541 14.02 10.1541 14.016 10.1661 14.016C10.2531 14.016 10.3431 14.1489 10.3771 14.2089C10.3939 14.2399 10.4041 14.2739 10.4071 14.309C10.4071 14.334 10.3941 14.343 10.3821 14.343V14.346ZM10.9821 14.366C10.9221 14.388 10.7821 14.2269 10.7381 14.1659C10.6631 14.056 10.5901 13.931 10.5091 13.827C10.4178 13.738 10.3574 13.6219 10.3371 13.496C10.3371 13.475 10.3231 13.426 10.3371 13.428C10.4161 13.428 10.4931 13.571 10.5371 13.628C10.5661 13.666 10.6001 13.703 10.6281 13.746C10.6661 13.805 10.6831 13.876 10.7281 13.93C10.7731 13.984 10.8401 14.061 10.8931 14.13C10.9272 14.165 10.9562 14.2047 10.9791 14.248C10.9871 14.274 11.0111 14.3659 10.9931 14.3749L10.9821 14.366ZM13.0931 15.512C13.0051 15.523 12.9101 15.4 12.8671 15.344C12.8541 15.326 12.8071 15.226 12.8201 15.212C12.8331 15.198 12.9371 15.232 12.9621 15.251C13.0379 15.3117 13.0902 15.3969 13.1101 15.492C13.11 15.4967 13.1082 15.5013 13.1052 15.5049C13.1021 15.5086 13.0978 15.5111 13.0931 15.512Z" fill="#006058"/>
</svg>
