<svg width="32" height="32" viewBox="0 0 32 32" fill="none" xmlns="http://www.w3.org/2000/svg">
<path fill-rule="evenodd" clip-rule="evenodd" d="M2 25.982H21.99L30 5.99695H21.99L2 25.982Z" fill="#008FCD"/>
<path fill-rule="evenodd" clip-rule="evenodd" d="M20.631 13.6949C20.4436 13.6054 20.2921 13.4547 20.2016 13.2677C20.111 13.0808 20.0867 12.8686 20.1327 12.666C20.1786 12.4634 20.292 12.2824 20.4543 12.1527C20.6167 12.0231 20.8182 11.9525 21.026 11.9525C21.2337 11.9525 21.4353 12.0231 21.5976 12.1527C21.76 12.2824 21.8734 12.4634 21.9193 12.666C21.9653 12.8686 21.941 13.0808 21.8504 13.2677C21.7598 13.4547 21.6084 13.6054 21.421 13.6949V13.9529C21.7115 13.989 21.9938 14.0739 22.256 14.2039C22.35 14.1959 22.472 14.1929 22.595 14.1929C22.8453 14.1731 23.097 14.2052 23.3343 14.2872C23.5716 14.3692 23.7895 14.4993 23.9741 14.6694C24.1588 14.8396 24.3064 15.046 24.4075 15.2758C24.5087 15.5056 24.5613 15.7539 24.562 16.0049C24.5528 16.3304 24.42 16.6402 24.1906 16.8713C23.9612 17.1023 23.6524 17.2374 23.327 17.2489C23.1658 17.2456 23.007 17.2088 22.8608 17.1407C22.7146 17.0726 22.5842 16.9748 22.4779 16.8535C22.3715 16.7323 22.2917 16.5902 22.2433 16.4363C22.195 16.2825 22.1792 16.1202 22.197 15.9599C22.1517 16.1204 22.1285 16.2862 22.128 16.4529V19.7599C22.0258 20.4477 21.6799 21.0758 21.1534 21.5298C20.6269 21.9839 19.9548 22.2337 19.2595 22.2337C18.5642 22.2337 17.8921 21.9839 17.3656 21.5298C16.8391 21.0758 16.4932 20.4477 16.391 19.7599V16.4529C16.3902 16.2861 16.3663 16.1202 16.32 15.9599C16.3367 16.1199 16.3202 16.2815 16.2716 16.4348C16.223 16.588 16.1432 16.7296 16.0373 16.8506C15.9314 16.9716 15.8017 17.0694 15.6562 17.138C15.5108 17.2065 15.3527 17.2443 15.192 17.2489C14.8663 17.2379 14.5572 17.103 14.3275 16.8719C14.0978 16.6407 13.965 16.3307 13.956 16.0049C13.9567 15.7536 14.0094 15.5051 14.1107 15.275C14.212 15.045 14.3599 14.8384 14.5449 14.6683C14.7299 14.4981 14.9481 14.368 15.1857 14.2862C15.4234 14.2044 15.6754 14.1727 15.926 14.1929C16.046 14.1929 16.169 14.1929 16.261 14.2039C16.5228 14.0719 16.8058 13.9869 17.097 13.9529V13.6919C16.9111 13.6011 16.7615 13.4499 16.6728 13.263C16.5842 13.0761 16.5616 12.8646 16.6088 12.6631C16.656 12.4617 16.7703 12.2823 16.9328 12.1543C17.0954 12.0263 17.2966 11.9573 17.5035 11.9586C17.7104 11.9599 17.9107 12.0314 18.0716 12.1615C18.2325 12.2915 18.3445 12.4724 18.3891 12.6744C18.4338 12.8764 18.4086 13.0876 18.3175 13.2734C18.2265 13.4591 18.075 13.6085 17.888 13.6969V14.0389C17.9678 14.0652 18.0463 14.0956 18.123 14.1299C18.1977 13.9766 18.3026 13.8398 18.4312 13.7278C18.5599 13.6158 18.7098 13.5308 18.872 13.4779V13.1979C18.6849 13.1086 18.5338 12.9583 18.4434 12.7717C18.3531 12.5851 18.3288 12.3734 18.3746 12.1712C18.4204 11.9691 18.5336 11.7885 18.6956 11.6591C18.8575 11.5297 19.0587 11.4592 19.266 11.4592C19.4733 11.4592 19.6744 11.5297 19.8364 11.6591C19.9984 11.7885 20.1116 11.9691 20.1574 12.1712C20.2032 12.3734 20.1789 12.5851 20.0885 12.7717C19.9982 12.9583 19.847 13.1086 19.66 13.1979V13.4749C19.8215 13.5283 19.9706 13.6136 20.0984 13.7258C20.2262 13.838 20.3302 13.9747 20.404 14.1279C20.4804 14.0937 20.5585 14.0633 20.638 14.0369V13.6899L20.631 13.6949Z" fill="white"/>
<path fill-rule="evenodd" clip-rule="evenodd" d="M24.194 16.007C24.201 15.156 23.616 14.461 22.424 14.461C21.63 14.461 20.686 15.127 20.686 16.826V19.351C21.0078 19.1248 21.3773 18.9756 21.766 18.9149V16.562C21.7494 16.4226 21.761 16.2813 21.8002 16.1465C21.8394 16.0118 21.9054 15.8863 21.9941 15.7775C22.0829 15.6688 22.1926 15.5791 22.3168 15.5137C22.441 15.4483 22.5771 15.4086 22.717 15.397C22.6288 15.4717 22.5583 15.5651 22.5108 15.6704C22.4632 15.7758 22.4397 15.8904 22.442 16.006C22.4433 16.2382 22.5361 16.4605 22.7003 16.6246C22.8645 16.7888 23.0868 16.8817 23.319 16.883C23.4344 16.8843 23.5489 16.8625 23.6557 16.8189C23.7626 16.7753 23.8596 16.7107 23.9411 16.6289C24.0225 16.5472 24.0868 16.4499 24.1301 16.3429C24.1733 16.2359 24.1947 16.1214 24.193 16.006L24.194 16.007Z" fill="#EC1C24"/>
<path fill-rule="evenodd" clip-rule="evenodd" d="M14.319 16.007C14.312 15.156 14.897 14.461 16.09 14.461C16.883 14.461 17.828 15.127 17.828 16.826V19.351C17.5057 19.1249 17.1359 18.9757 16.747 18.9149V16.562C16.7636 16.4226 16.7519 16.2813 16.7128 16.1465C16.6736 16.0118 16.6076 15.8863 16.5189 15.7775C16.4301 15.6688 16.3204 15.5791 16.1962 15.5137C16.072 15.4483 15.9359 15.4086 15.796 15.397C15.8839 15.4719 15.9541 15.5654 16.0016 15.6707C16.0492 15.776 16.0729 15.8905 16.071 16.006C16.0692 16.2382 15.976 16.4603 15.8117 16.6244C15.6475 16.7885 15.4252 16.8814 15.193 16.883C15.0776 16.8842 14.9632 16.8623 14.8564 16.8186C14.7496 16.7749 14.6527 16.7103 14.5712 16.6286C14.4898 16.5469 14.4255 16.4497 14.3822 16.3428C14.3389 16.2358 14.3174 16.1213 14.319 16.006V16.007Z" fill="#EC1C24"/>
<path fill-rule="evenodd" clip-rule="evenodd" d="M19.257 21.8459C19.8619 21.8708 20.4544 21.6695 20.919 21.2812C21.3836 20.893 21.687 20.3457 21.77 19.746V19.18C21.1586 19.3194 20.613 19.6629 20.223 20.154C20.0866 19.5878 19.7416 19.0939 19.257 18.771C18.7723 19.0947 18.4263 19.588 18.287 20.154C17.8982 19.663 17.3535 19.3193 16.743 19.18V19.746C16.8262 20.3458 17.1298 20.8931 17.5945 21.2813C18.0593 21.6696 18.6519 21.8708 19.257 21.8459Z" fill="#EC1C24"/>
<path fill-rule="evenodd" clip-rule="evenodd" d="M19.399 13.0029V13.6969C19.5621 13.7188 19.7169 13.7824 19.8482 13.8815C19.9796 13.9807 20.0832 14.112 20.149 14.2629C19.7255 14.5351 19.4101 14.9464 19.257 15.4259C19.1044 14.9467 18.7898 14.5354 18.367 14.2629C18.436 14.1145 18.5404 13.9853 18.671 13.8866C18.8015 13.7879 18.9544 13.7228 19.116 13.6969V12.9969C18.9617 12.962 18.8258 12.8714 18.7341 12.7426C18.6424 12.6137 18.6014 12.4556 18.619 12.2984C18.6366 12.1412 18.7114 11.996 18.8293 11.8905C18.9472 11.7851 19.0998 11.7268 19.258 11.7268C19.4162 11.7268 19.5688 11.7851 19.6867 11.8905C19.8046 11.996 19.8794 12.1412 19.897 12.2984C19.9146 12.4556 19.8736 12.6137 19.7819 12.7426C19.6902 12.8714 19.5543 12.962 19.4 12.9969L19.399 13.0029Z" fill="#EC1C24"/>
<path fill-rule="evenodd" clip-rule="evenodd" d="M17.631 13.497V14.236C18.0592 14.3526 18.4372 14.6066 18.7071 14.9589C18.977 15.3111 19.1238 15.7422 19.125 16.186V18.5509C18.6967 18.807 18.3664 19.1992 18.187 19.665C18.1545 19.6238 18.1187 19.5854 18.08 19.5499V16.49C18.0999 16.033 17.9782 15.5811 17.7315 15.1959C17.4849 14.8108 17.1253 14.5111 16.702 14.338C16.9078 14.2589 17.1266 14.2189 17.347 14.22V13.494C17.1939 13.4589 17.0591 13.3688 16.9682 13.2406C16.8774 13.1125 16.8369 12.9554 16.8546 12.7993C16.8722 12.6433 16.9467 12.4992 17.0638 12.3945C17.1809 12.2899 17.3325 12.2321 17.4895 12.2321C17.6466 12.2321 17.7981 12.2899 17.9153 12.3945C18.0324 12.4992 18.1069 12.6433 18.1245 12.7993C18.1421 12.9554 18.1016 13.1125 18.0108 13.2406C17.92 13.3688 17.7851 13.4589 17.632 13.494L17.631 13.497Z" fill="#EC1C24"/>
<path fill-rule="evenodd" clip-rule="evenodd" d="M21.165 13.4979V14.2189C21.3861 14.2177 21.6056 14.2577 21.812 14.3369C21.3904 14.5122 21.0325 14.8124 20.7865 15.1971C20.5405 15.5818 20.4182 16.0326 20.436 16.4889V19.549C20.3968 19.5845 20.3604 19.6229 20.327 19.6639C20.1492 19.1976 19.819 18.805 19.39 18.5499C19.39 18.5499 19.39 17.0889 19.39 16.1849C19.3918 15.7404 19.5395 15.3088 19.8106 14.9565C20.0816 14.6042 20.4608 14.3507 20.89 14.2349V13.4939C20.737 13.4591 20.6022 13.3692 20.5114 13.2413C20.4205 13.1134 20.38 12.9565 20.3975 12.8006C20.415 12.6447 20.4893 12.5008 20.6063 12.3962C20.7232 12.2916 20.8746 12.2338 21.0315 12.2338C21.1884 12.2338 21.3398 12.2916 21.4567 12.3962C21.5737 12.5008 21.648 12.6447 21.6655 12.8006C21.683 12.9565 21.6425 13.1134 21.5516 13.2413C21.4608 13.3692 21.326 13.4591 21.173 13.4939L21.165 13.4979Z" fill="#EC1C24"/>
</svg>
