<svg width="32" height="32" viewBox="0 0 32 32" fill="none" xmlns="http://www.w3.org/2000/svg">
<path d="M6.3 22.106C6.58 23.343 6.535 25.387 5.729 26.412C4.571 27.884 3.461 26.274 3.174 25.051C2.864 23.738 2.904 21.451 3.839 20.404C3.90128 20.2937 3.9852 20.197 4.08573 20.1199C4.18626 20.0428 4.30133 19.9868 4.42404 19.9552C4.54674 19.9237 4.67456 19.9172 4.79982 19.9362C4.92508 19.9553 5.04521 19.9994 5.153 20.066C5.77391 20.5812 6.18243 21.3078 6.3 22.106Z" fill="#A02031"/>
<path d="M5.221 23.713C5.271 23.852 5.145 24.083 5.374 24.129C5.523 24.258 5.874 24.21 5.844 24.453C5.561 24.436 5.344 24.167 5.017 24.24C4.85138 24.2946 4.68882 24.358 4.53 24.43C4.508 24.403 4.477 24.382 4.491 24.345C4.658 24.21 4.901 24.21 5.055 24.054L5.066 23.626C5.144 23.526 5.247 23.612 5.221 23.714" fill="white"/>
<path d="M5.49 24.668C5.651 24.827 5.54 25.036 5.565 25.241C5.5424 25.6659 5.5784 26.0919 5.672 26.507C5.6738 26.535 5.66762 26.5629 5.65416 26.5875C5.64071 26.6121 5.62053 26.6324 5.596 26.646C5.542 26.646 5.536 26.595 5.506 26.567C5.47 25.983 5.414 25.404 5.398 24.809C5.358 24.656 5.143 24.756 5.046 24.733C4.98995 24.7405 4.93829 24.7674 4.9 24.809C4.89821 25.4127 4.86484 26.0158 4.8 26.616C4.79103 26.6255 4.77983 26.6325 4.76743 26.6365C4.75502 26.6405 4.74181 26.6414 4.729 26.639L4.698 26.594C4.748 25.994 4.738 25.326 4.783 24.753C4.82168 24.6996 4.87296 24.6566 4.93228 24.6278C4.9916 24.599 5.05712 24.5853 5.123 24.588C5.24874 24.5831 5.37365 24.6103 5.486 24.667" fill="white"/>
<path d="M4.245 25.653C4.26 25.794 4.234 25.904 4.245 26.023C4.24532 26.162 4.2275 26.3005 4.192 26.435C4.192 26.503 4.137 26.56 4.165 26.635H4.238C4.351 26.576 4.338 26.429 4.347 26.31C4.36317 26.1906 4.37218 26.0704 4.374 25.95C4.39 25.686 4.394 25.461 4.396 25.222C4.39899 25.1717 4.39899 25.1213 4.396 25.071C4.42498 24.8381 4.41891 24.6021 4.378 24.371C4.297 24.148 4.052 24.135 3.87 24.083C3.8472 24.065 3.82879 24.042 3.81614 24.0159C3.8035 23.9897 3.79696 23.961 3.797 23.932C3.82345 23.8867 3.86171 23.8495 3.90768 23.8243C3.95366 23.7991 4.00562 23.7869 4.058 23.789C4.08763 23.777 4.11848 23.7683 4.15 23.763C4.19793 23.7418 4.24889 23.7283 4.301 23.723C4.346 23.714 4.357 23.673 4.357 23.631C4.272 23.503 4.178 23.647 4.064 23.643C3.934 23.703 3.693 23.691 3.664 23.905C3.65651 23.9465 3.65924 23.9893 3.67196 24.0295C3.68467 24.0698 3.707 24.1063 3.737 24.136C3.78216 24.182 3.84353 24.2086 3.908 24.21C4.028 24.253 4.197 24.26 4.25 24.393C4.25 24.457 4.263 24.593 4.264 24.639C4.27103 24.6897 4.27103 24.7412 4.264 24.792C4.28078 24.8782 4.28078 24.9668 4.264 25.053C4.231 25.125 4.12 25.088 4.055 25.091C3.998 25.059 3.925 25.085 3.88 25.041C3.85571 24.9617 3.84956 24.878 3.862 24.796C3.978 24.737 4.071 24.753 4.186 24.696C4.19092 24.689 4.19527 24.6817 4.199 24.674C4.20422 24.6601 4.20422 24.6448 4.199 24.631C4.19136 24.622 4.18465 24.6123 4.179 24.602C4.105 24.528 4.086 24.609 3.979 24.614C3.958 24.614 3.941 24.614 3.92 24.614C3.769 24.622 3.872 24.414 3.82 24.337C3.796 24.322 3.776 24.258 3.732 24.279C3.632 24.355 3.743 24.487 3.717 24.59C3.74566 24.8901 3.7349 25.1927 3.685 25.49C3.69074 25.6418 3.68237 25.7938 3.66 25.944C3.639 26.005 3.654 26.076 3.631 26.135C3.639 26.208 3.57 26.311 3.639 26.361C3.667 26.334 3.701 26.318 3.722 26.277C3.755 26.077 3.796 25.877 3.817 25.677C3.817 25.64 3.846 25.609 3.89 25.622C3.99 25.631 4.01 25.688 4.099 25.69C4.226 25.66 4.143 25.563 4.119 25.551C4.012 25.543 4.027 25.499 3.926 25.483C3.896 25.476 3.826 25.498 3.84 25.448C3.83897 25.3709 3.84908 25.2941 3.87 25.22C3.95822 25.2074 4.04778 25.2074 4.136 25.22C4.17 25.22 4.248 25.234 4.261 25.27C4.26657 25.3982 4.25819 25.5266 4.236 25.653" fill="white"/>
<path d="M5.899 22.143L5.763 22.118C5.71113 22.0808 5.65666 22.0474 5.6 22.018C5.45189 21.9375 5.31073 21.8449 5.178 21.741C5.06 21.747 5.009 21.86 4.899 21.926C4.886 21.939 4.859 21.955 4.845 21.926C4.889 21.826 4.98 21.785 5.045 21.715C5.09244 21.6903 5.13704 21.6604 5.178 21.626C5.26 21.657 5.29 21.714 5.352 21.746C5.452 21.794 5.493 21.846 5.58 21.884C5.6502 21.9313 5.7249 21.9714 5.803 22.004C5.848 22.038 5.966 22.021 5.914 22.136L5.899 22.143Z" fill="white"/>
<path d="M5.671 20.727C5.663 20.779 5.598 20.808 5.534 20.809C5.45 20.809 5.434 20.834 5.365 20.875C5.3535 20.8858 5.34498 20.8994 5.34025 20.9145C5.33552 20.9295 5.33475 20.9455 5.338 20.961C5.338 21.024 5.438 21.042 5.508 21.067C5.51387 21.0678 5.51949 21.0698 5.52452 21.073C5.52954 21.0761 5.53384 21.0802 5.53715 21.0851C5.54045 21.0901 5.54268 21.0956 5.54369 21.1014C5.5447 21.1073 5.54447 21.1133 5.543 21.119C5.515 21.139 5.479 21.119 5.443 21.125C5.343 21.149 5.223 21.102 5.121 21.119C5.079 21.134 5.07 21.119 5.009 21.14C4.98584 21.1434 4.96307 21.1491 4.941 21.157C4.875 21.181 4.755 21.157 4.749 21.231C4.73194 21.307 4.72057 21.3843 4.715 21.462C4.71387 21.5009 4.70644 21.5394 4.693 21.576C4.69842 21.723 4.7148 21.8694 4.742 22.014C4.73607 22.0471 4.73607 22.0809 4.742 22.114C4.803 22.183 4.916 22.136 4.96 22.15C5.049 22.15 5.097 22.159 5.167 22.15C5.233 22.163 5.304 22.15 5.374 22.17C5.385 22.163 5.41 22.187 5.42 22.196C5.42 22.229 5.384 22.231 5.354 22.234C5.29116 22.241 5.2276 22.2372 5.166 22.223C5.007 22.217 4.884 22.247 4.7 22.24C4.62285 22.2465 4.54539 22.2485 4.468 22.246C4.42857 22.2449 4.38911 22.2469 4.35 22.252C4.28296 22.2513 4.21608 22.2453 4.15 22.234C4.125 22.218 4.084 22.246 4.072 22.205C4.06 22.164 4.101 22.174 4.116 22.169H4.377C4.4589 22.1759 4.54125 22.1629 4.617 22.131C4.62567 22.1032 4.62939 22.0741 4.628 22.045C4.635 21.92 4.6 21.794 4.613 21.645C4.626 21.564 4.613 21.456 4.628 21.376C4.643 21.296 4.635 21.137 4.686 21.099L4.914 21.039C4.998 21.039 5.065 21.028 5.156 21.033C5.18186 21.0298 5.20659 21.0206 5.22815 21.006C5.24971 20.9914 5.26749 20.9718 5.28 20.949C5.28083 20.9265 5.27408 20.9045 5.26084 20.8863C5.2476 20.8682 5.22863 20.855 5.207 20.849C5.15 20.837 5.156 20.844 5.085 20.834C5.046 20.822 5 20.834 4.972 20.784C4.93079 20.7269 4.90209 20.6618 4.88779 20.5929C4.87348 20.5239 4.8739 20.4527 4.889 20.384C4.901 20.357 4.918 20.324 4.953 20.351C4.996 20.403 4.964 20.457 4.953 20.517C4.94708 20.5607 4.95451 20.6052 4.97432 20.6447C4.99413 20.6841 5.02539 20.7166 5.064 20.738C5.118 20.759 5.129 20.75 5.194 20.744C5.253 20.695 5.223 20.618 5.246 20.552C5.23993 20.4676 5.25833 20.3832 5.299 20.309C5.34 20.309 5.34 20.354 5.354 20.384V20.429C5.34926 20.5268 5.35869 20.6248 5.382 20.72C5.409 20.758 5.413 20.749 5.456 20.749C5.516 20.723 5.57 20.694 5.581 20.625C5.592 20.556 5.552 20.425 5.652 20.417C5.679 20.411 5.677 20.423 5.682 20.438L5.671 20.727Z" fill="white"/>
<path d="M5.667 21.632C5.63409 21.633 5.60176 21.6232 5.575 21.604C5.504 21.514 5.311 21.471 5.24 21.411C5.14 21.368 5.133 21.411 5.068 21.449C5.02925 21.4894 4.98262 21.5214 4.931 21.543C4.894 21.579 4.887 21.591 4.848 21.599C4.833 21.591 4.812 21.574 4.828 21.562C4.86013 21.5258 4.89525 21.4923 4.933 21.462C5.01411 21.4114 5.09255 21.3567 5.168 21.298C5.243 21.337 5.406 21.39 5.487 21.426C5.551 21.494 5.65 21.518 5.703 21.593C5.703 21.62 5.684 21.631 5.664 21.635" fill="white"/>
<path d="M5.296 22.919C5.32552 23.0377 5.30984 23.1632 5.252 23.271C5.23597 23.2935 5.21522 23.3122 5.19122 23.3258C5.16721 23.3395 5.14052 23.3477 5.113 23.35C4.971 23.367 5.013 23.372 4.869 23.388L4.651 23.408C4.511 23.408 4.41 23.422 4.26 23.418C4.18664 23.4189 4.11386 23.4049 4.046 23.377C4.029 23.352 3.996 23.352 3.996 23.307C3.996 23.262 4.081 23.283 4.147 23.285C4.27787 23.2988 4.4094 23.3055 4.541 23.305C4.68 23.288 4.727 23.296 4.898 23.288C4.94415 23.2824 4.98927 23.2703 5.032 23.252C5.159 23.204 5.143 23.209 5.176 23.089C5.209 22.969 5.176 22.949 5.06 22.918C4.922 22.881 4.824 22.909 4.738 22.818C4.676 22.732 4.75 22.618 4.622 22.56C4.51987 22.5764 4.41631 22.5821 4.313 22.577C4.251 22.577 4.205 22.585 4.143 22.582C4.09658 22.5762 4.04976 22.5742 4.003 22.576C3.965 22.576 3.959 22.566 3.917 22.566C3.897 22.542 3.856 22.518 3.889 22.484C3.938 22.462 3.979 22.484 4.022 22.467C4.134 22.467 4.228 22.467 4.346 22.462C4.391 22.467 4.438 22.467 4.473 22.468C4.578 22.457 4.673 22.477 4.797 22.468C4.887 22.468 4.959 22.48 5.032 22.474C5.08155 22.4823 5.13195 22.4843 5.182 22.48C5.25223 22.4746 5.32277 22.4746 5.393 22.48C5.493 22.491 5.531 22.455 5.61 22.475C5.641 22.48 5.652 22.519 5.668 22.528C5.653 22.547 5.651 22.569 5.626 22.574C5.553 22.61 5.485 22.585 5.384 22.585C5.31 22.599 5.246 22.585 5.15 22.602C5.08397 22.5899 5.01711 22.5829 4.95 22.581C4.90126 22.5792 4.8525 22.5839 4.805 22.595C4.80145 22.6252 4.80513 22.6558 4.81573 22.6844C4.82634 22.7129 4.84357 22.7385 4.866 22.759C4.94337 22.7912 5.02621 22.8081 5.11 22.809C5.174 22.835 5.265 22.843 5.293 22.921" fill="white"/>
<path d="M4.674 20.435C4.661 20.547 4.692 20.75 4.574 20.854C4.482 20.881 4.358 20.837 4.297 20.934C4.242 21.015 4.305 21.094 4.284 21.181C4.312 21.288 4.416 21.326 4.472 21.412C4.50621 21.4432 4.53024 21.484 4.541 21.529C4.52 21.543 4.495 21.557 4.477 21.543L4.456 21.521L4.417 21.475C4.384 21.449 4.344 21.389 4.299 21.375C4.141 21.375 4.06 21.524 3.937 21.604C3.897 21.639 3.856 21.666 3.817 21.694C3.79252 21.7184 3.76647 21.7411 3.739 21.762C3.69576 21.8034 3.64332 21.8339 3.586 21.851L3.57 21.831C3.583 21.804 3.639 21.769 3.677 21.743C3.75536 21.632 3.85579 21.5384 3.972 21.468C4.054 21.387 4.179 21.329 4.221 21.209C4.21879 21.1717 4.20358 21.1363 4.178 21.109C4.168 21.039 4.207 20.961 4.128 20.923C4.04693 20.9225 3.96825 20.8955 3.904 20.846C3.84885 20.7765 3.81321 20.6935 3.80073 20.6056C3.78826 20.5178 3.79939 20.4282 3.833 20.346H3.848C3.922 20.365 3.897 20.446 3.898 20.511C3.89561 20.5993 3.92629 20.6852 3.984 20.752C4.00862 20.7867 4.04365 20.8126 4.084 20.826C4.118 20.826 4.157 20.797 4.158 20.765C4.204 20.648 4.133 20.536 4.185 20.416C4.185 20.385 4.178 20.33 4.221 20.316L4.299 20.332C4.299 20.41 4.271 20.475 4.279 20.558C4.287 20.641 4.264 20.711 4.318 20.758C4.32976 20.7724 4.3459 20.7825 4.36396 20.7868C4.38202 20.7912 4.401 20.7895 4.418 20.782C4.45729 20.7761 4.4937 20.7579 4.52206 20.7301C4.55043 20.7022 4.5693 20.6662 4.576 20.627C4.576 20.527 4.598 20.446 4.591 20.386L4.609 20.342C4.62927 20.3519 4.64638 20.3672 4.6584 20.3863C4.67041 20.4054 4.67685 20.4275 4.677 20.45" fill="white"/>
<path d="M4.478 21.968C4.432 21.968 4.437 21.909 4.405 21.887C4.358 21.842 4.305 21.754 4.226 21.787C4.191 21.811 4.157 21.84 4.112 21.866C3.992 22.014 3.868 22.078 3.743 22.208C3.713 22.218 3.698 22.198 3.689 22.173C3.7295 22.1233 3.7774 22.0801 3.831 22.045C3.867 22.019 3.895 21.969 3.937 21.94C3.95859 21.911 3.98305 21.8842 4.01 21.86C4.08 21.785 4.138 21.76 4.198 21.695C4.225 21.671 4.27 21.65 4.298 21.676C4.327 21.749 4.41 21.785 4.465 21.841C4.488 21.875 4.548 21.941 4.473 21.969" fill="white"/>
<path fill-rule="evenodd" clip-rule="evenodd" d="M17.942 5C18.1539 5.01234 18.3581 5.08331 18.532 5.205C18.8147 5.40501 19.149 5.51925 19.495 5.534C19.7263 5.52591 19.9563 5.57143 20.167 5.667C20.911 6.029 21.332 7.324 21.462 8.039C21.4963 8.28816 21.4963 8.54084 21.462 8.79C21.4276 9.01805 21.4276 9.24995 21.462 9.478C21.543 9.852 21.684 9.853 21.776 9.853C21.886 9.84638 21.9952 9.8293 22.102 9.802C22.19 9.783 22.276 9.762 22.372 9.749C22.5759 9.71807 22.7818 9.70236 22.988 9.702C23.2648 9.70077 23.5406 9.73437 23.809 9.802C24.0817 9.86439 24.3589 9.90551 24.638 9.925C24.847 9.944 25.061 9.965 25.286 10.006C25.7691 10.0836 26.2431 10.2096 26.701 10.382C26.9309 10.4956 27.1399 10.6475 27.319 10.831C27.469 10.9805 27.6369 11.1108 27.819 11.219C28.0487 11.3025 28.2593 11.4314 28.4381 11.5979C28.6169 11.7645 28.7604 11.9654 28.86 12.1886C28.9596 12.4118 29.0132 12.6528 29.0176 12.8972C29.0221 13.1415 28.9773 13.3843 28.886 13.611C28.853 13.723 28.822 13.84 28.786 13.955C28.686 14.327 28.573 14.717 28.453 15.073C28.3318 15.4308 28.1004 15.7409 27.792 15.959C27.711 16.028 27.627 16.101 27.538 16.182C27.2852 16.4464 27.0684 16.743 26.893 17.064C26.6446 17.5473 26.2834 17.9638 25.84 18.278C25.4998 18.475 25.1109 18.5721 24.718 18.558H24.644C24.465 18.649 24.658 19.039 24.79 19.278C24.8761 19.427 24.9497 19.5829 25.01 19.744C25.0487 19.8812 25.0666 20.0235 25.063 20.166C25.0583 20.2761 25.0715 20.3862 25.102 20.492C25.1336 20.5473 25.1761 20.5956 25.227 20.634C25.3498 20.7315 25.4424 20.8619 25.494 21.01C25.604 21.5571 25.5907 22.1217 25.455 22.663C25.4012 22.7713 25.3303 22.8702 25.245 22.956C25.1761 23.0307 25.1138 23.1114 25.059 23.197C25.0227 23.2851 24.9978 23.3776 24.985 23.472C24.9628 23.645 24.9042 23.8113 24.813 23.96C24.2598 24.559 23.5428 24.9822 22.751 25.177C22.572 25.24 22.401 25.305 22.251 25.363C22.0903 25.4379 21.9162 25.4801 21.739 25.487C21.5431 25.476 21.3528 25.418 21.184 25.318C21.094 25.273 20.996 25.226 20.877 25.178C20.5802 25.0734 20.2694 25.014 19.955 25.002C19.794 24.99 19.629 24.975 19.449 24.949C19.1639 24.8978 18.897 24.7738 18.674 24.589C18.643 24.57 18.616 24.549 18.584 24.526H18.55C18.3008 24.5468 18.0531 24.4721 17.857 24.317C17.4518 24.8675 16.8921 25.2852 16.249 25.517C15.786 25.766 15.2843 25.935 14.765 26.017L14.444 26.117C14.0241 26.2527 13.5852 26.3203 13.144 26.317C12.981 26.317 12.812 26.307 12.65 26.292C12.1418 26.3156 11.6404 26.1681 11.226 25.873C10.8376 25.68 10.4868 25.4192 10.19 25.103C9.7367 24.8264 9.35882 24.442 9.09 23.984C8.98416 23.8118 8.93107 23.6123 8.93729 23.4103C8.94351 23.2082 9.00877 23.0124 9.125 22.847C9.171 22.76 9.22 22.665 9.268 22.552C9.279 22.528 9.292 22.497 9.306 22.461C9.48161 22.0923 9.62126 21.7075 9.723 21.312C9.5142 21.2187 9.32589 21.085 9.16887 20.9187C9.01185 20.7525 8.88921 20.5568 8.808 20.343C8.69624 20.102 8.56268 19.8717 8.409 19.655C8.33298 19.5609 8.25221 19.4708 8.167 19.385C8.103 19.322 8.017 19.247 7.993 19.222C7.67957 18.9323 7.32083 18.6958 6.931 18.522C6.58451 18.3657 6.26196 18.161 5.973 17.914C5.76582 17.7201 5.5963 17.4896 5.473 17.234C5.00459 16.575 4.66527 15.8333 4.473 15.048C4.36735 14.5019 4.46516 13.936 4.748 13.457C4.8141 13.3036 4.89061 13.1549 4.977 13.012C5.02 12.931 5.053 12.856 5.084 12.785C5.12644 12.6937 5.16415 12.6002 5.197 12.505C5.26791 12.2803 5.38974 12.0749 5.553 11.905C5.78383 11.6417 6.06546 11.4278 6.381 11.276C6.70101 11.1101 7.04756 11.0015 7.405 10.955C7.5075 10.9389 7.61136 10.9332 7.715 10.938C7.783 10.9581 7.85318 10.9698 7.924 10.973C7.93763 10.9745 7.95137 10.9745 7.965 10.973C8.03956 10.9621 8.11087 10.9351 8.174 10.894C8.28558 10.8438 8.40808 10.8228 8.53 10.833H8.56C8.889 10.851 10.06 11.464 10.386 11.474C10.4259 11.4785 10.4661 11.4785 10.506 11.474C10.5368 11.4641 10.5651 11.4477 10.589 11.426C10.7475 11.2862 10.8706 11.1107 10.948 10.914C10.9576 10.8958 10.9663 10.8771 10.974 10.858C10.989 10.819 11.004 10.776 11.018 10.738C11.031 10.695 11.045 10.656 11.056 10.61C11.1208 10.3721 11.1735 10.1312 11.214 9.888C11.227 9.822 11.236 9.752 11.25 9.688L11.264 9.63L11.277 9.555C11.277 9.542 11.289 9.489 11.289 9.489C11.295 9.472 11.297 9.45 11.303 9.434V9.419C11.303 9.404 11.31 9.387 11.313 9.37L11.319 9.35C11.319 9.331 11.327 9.313 11.333 9.29V9.282C11.333 9.266 11.341 9.246 11.345 9.229L11.352 9.214C11.352 9.193 11.363 9.174 11.367 9.153C11.374 9.133 11.379 9.116 11.387 9.098V9.079C11.3946 9.0601 11.4009 9.04072 11.406 9.021C11.412 9.004 11.421 8.984 11.426 8.966V8.949C11.4332 8.92984 11.4415 8.91114 11.451 8.893C11.459 8.876 11.466 8.858 11.473 8.84L11.481 8.823C11.49 8.807 11.497 8.786 11.506 8.771C11.6256 8.49567 11.7181 8.20931 11.782 7.916C11.8552 7.2843 12.168 6.70477 12.656 6.297C12.8793 6.17321 13.1297 6.10624 13.385 6.102C13.5837 6.09726 13.7795 6.05307 13.961 5.972C14.1071 5.88797 14.243 5.7873 14.366 5.672C14.5498 5.49053 14.77 5.3501 15.012 5.26L15.094 5.237L15.114 5.232C15.1394 5.22472 15.1651 5.21871 15.191 5.214H15.206L15.275 5.199H15.295C15.32 5.194 15.344 5.19 15.369 5.184H15.392C15.4112 5.18052 15.4305 5.17819 15.45 5.177H15.472L15.541 5.17H15.589C15.604 5.17 15.621 5.17 15.638 5.164H15.68H15.725H15.889C15.974 5.164 16.068 5.17 16.171 5.179L16.281 5.188H16.298L16.407 5.2C16.495 5.209 16.576 5.212 16.655 5.212C16.8832 5.20668 17.11 5.17514 17.331 5.118C17.5306 5.06798 17.7345 5.0375 17.94 5.027" fill="#C95665"/>
<path d="M29.074 5.15399H4.442V26.372H29.074V5.15399Z" fill="url(#paint0_radial)"/>
<path d="M21.115 5.13501H11.073V14.763H21.115V5.13501Z" fill="url(#paint1_radial)"/>
<path d="M21.587 5.38H11.742V16.194H21.587V5.38Z" fill="url(#paint2_radial)"/>
<path d="M18.602 17.373H9.442V26.499H18.602V17.373Z" fill="url(#paint3_radial)"/>
<path d="M13.19 11.622H4.584V22.368H13.19V11.622Z" fill="url(#paint4_radial)"/>
<path d="M28.476 10.116H17.324V20.153H28.476V10.116Z" fill="url(#paint5_radial)"/>
<path d="M24.566 10.771H9.899V24.536H24.566V10.771Z" fill="url(#paint6_radial)"/>
<path fill-rule="evenodd" clip-rule="evenodd" d="M13.505 19.119C13.268 18.942 13.505 18.319 13.789 18.012C14.073 17.705 14.504 17.197 14.389 17.139C14.274 17.081 13.789 17.197 13.635 17.139C13.481 17.081 14.482 16.673 14.595 16.616C14.708 16.559 13.88 16.324 13.578 16.286C13.276 16.248 12.655 16.344 12.711 16.207C12.767 16.07 13.127 15.898 13.202 15.82C13.277 15.742 12.731 15.452 12.693 15.315C12.655 15.178 12.806 15.043 13.37 15.18C13.7947 15.2471 14.2226 15.2922 14.652 15.315C14.817 15.3478 14.9757 15.4068 15.122 15.49C15.222 15.549 15.284 15.337 15.362 15.37C15.44 15.403 15.618 15.521 15.634 15.402C15.6295 15.3103 15.6066 15.2204 15.5666 15.1377C15.5265 15.0551 15.4702 14.9814 15.401 14.921C15.2287 14.7671 15.0819 14.5869 14.966 14.387C14.935 14.287 14.811 14.035 14.951 13.978C15.091 13.921 15.214 13.972 15.293 13.938C15.372 13.904 15.51 13.689 15.71 13.779C15.8398 13.8324 15.9606 13.9056 16.068 13.996C16.1071 14.023 16.1516 14.0411 16.1984 14.0491C16.2452 14.057 16.2932 14.0546 16.339 14.042C16.433 14.01 16.588 13.817 16.766 13.929C16.944 14.041 17.266 14.304 17.551 14.241C17.6644 14.224 17.7721 14.1803 17.8652 14.1136C17.9584 14.0468 18.0344 13.9589 18.087 13.857C18.2085 13.5698 18.3512 13.292 18.514 13.026C18.614 12.926 18.871 12.715 18.833 12.794C18.686 13.0954 18.5916 13.4198 18.554 13.753C18.569 14.053 18.508 14.121 18.6 14.193C18.6465 14.2221 18.7002 14.2375 18.755 14.2375C18.8098 14.2375 18.8635 14.2221 18.91 14.193C19.01 14.145 19.175 14.026 19.198 14.093C19.221 14.16 18.624 14.579 18.446 14.756C18.268 14.933 18.095 15.291 18.182 15.434C18.269 15.577 18.608 15.513 18.782 15.513C18.956 15.513 19.318 15.538 19.272 15.625C19.226 15.712 18.612 16.136 18.612 16.208C18.612 16.28 18.983 16.416 19.196 16.423C19.4985 16.449 19.7991 16.494 20.096 16.558C20.289 16.607 20.452 16.599 20.491 16.71C20.53 16.821 20.591 16.918 20.522 16.925C20.3086 16.9138 20.0973 16.8766 19.893 16.814C19.5592 16.7088 19.2159 16.6367 18.868 16.599C18.705 16.607 18.224 16.591 18.14 16.758C18.056 16.925 18.41 17.039 18.487 17.111C18.564 17.183 18.854 17.494 18.675 17.527C18.496 17.56 18.349 17.422 18.28 17.399C18.1326 17.3164 17.9918 17.2224 17.859 17.118C17.79 17.063 17.486 16.727 17.339 16.743C17.1215 16.7627 16.9101 16.8252 16.717 16.927C16.546 17.0567 16.3918 17.2072 16.258 17.375C16.158 17.495 15.745 17.767 15.575 17.911C15.405 18.055 14.464 18.821 14.294 18.95C14.124 19.079 13.694 19.25 13.503 19.111" fill="white"/>
<path fill-rule="evenodd" clip-rule="evenodd" d="M16.218 13.387C16.161 13.2212 16.1663 13.0402 16.233 12.878C16.283 12.743 16.685 11.978 17.102 12.129C17.1808 12.1456 17.2534 12.184 17.3114 12.2399C17.3694 12.2958 17.4105 12.3669 17.43 12.445C17.487 12.6107 17.5045 12.7874 17.481 12.961C17.4576 13.1346 17.3939 13.3004 17.295 13.445C17.2226 13.5161 17.1362 13.5713 17.0413 13.6071C16.9464 13.6429 16.845 13.6586 16.7437 13.6532C16.6424 13.6477 16.5434 13.6212 16.4529 13.5754C16.3623 13.5296 16.2824 13.4654 16.218 13.387Z" fill="#A02031"/>
<path fill-rule="evenodd" clip-rule="evenodd" d="M14.265 14.31C14.3345 14.2891 14.398 14.2519 14.4502 14.2014C14.5024 14.151 14.5418 14.0887 14.565 14.02C14.602 13.86 14.91 13.846 14.924 13.784C14.8355 13.4242 14.6643 13.09 14.424 12.808C14.206 12.714 14.143 12.867 13.949 12.85C13.799 12.836 13.666 12.775 13.576 12.943C13.437 13.201 13.176 13.534 13.385 13.816C13.469 13.9737 13.5964 14.1041 13.7522 14.1916C13.908 14.2792 14.0856 14.3203 14.264 14.31" fill="#A02031"/>
<path fill-rule="evenodd" clip-rule="evenodd" d="M18.929 14.98C18.9147 14.9993 18.8966 15.0154 18.8758 15.0274C18.855 15.0394 18.832 15.0469 18.8081 15.0495C18.7843 15.0522 18.7601 15.0498 18.7372 15.0427C18.7143 15.0355 18.6931 15.0237 18.675 15.008C18.8962 14.7589 19.1498 14.5406 19.429 14.359C19.536 14.239 19.449 13.731 19.506 13.564C19.563 13.397 20.07 13.038 20.291 13.158C20.4035 13.1977 20.5032 13.2667 20.58 13.358C20.6736 13.5648 20.7148 13.7915 20.7 14.018C20.678 14.2112 20.6232 14.3992 20.538 14.574C20.482 14.765 20.147 14.735 19.995 14.751C19.795 14.77 19.603 14.612 19.413 14.732C19.307 14.798 19.013 14.88 18.928 14.978" fill="#A02031"/>
<path fill-rule="evenodd" clip-rule="evenodd" d="M16.666 15.693C16.731 15.565 16.666 15.381 16.682 15.246C16.698 15.139 16.735 14.974 16.622 14.908C16.5498 15.164 16.5498 15.435 16.622 15.691C16.633 15.722 16.665 15.691 16.668 15.691" fill="#A02031"/>
<path fill-rule="evenodd" clip-rule="evenodd" d="M12.072 16.375C12.1699 16.2168 12.3012 16.0819 12.4566 15.9796C12.6121 15.8774 12.788 15.8103 12.972 15.783C12.978 15.735 12.878 15.699 12.84 15.699C12.6114 15.6429 12.4101 15.5076 12.272 15.317C11.979 14.952 11.807 14.656 11.324 14.809C10.813 14.97 10.792 15.835 10.937 16.255C10.9768 16.3672 11.0475 16.4659 11.141 16.5396C11.2344 16.6133 11.3468 16.6591 11.4652 16.6716C11.5836 16.6842 11.7031 16.663 11.8099 16.6105C11.9168 16.558 12.0066 16.4764 12.069 16.375" fill="#A02031"/>
<path fill-rule="evenodd" clip-rule="evenodd" d="M22.187 15.724C22.714 15.519 23.14 15.787 22.881 16.237C22.749 16.468 22.792 16.737 22.641 16.968C22.5711 17.0635 22.473 17.1347 22.3606 17.1716C22.2481 17.2086 22.1269 17.2094 22.014 17.174C21.7867 17.101 21.577 16.9819 21.398 16.824C21.236 16.652 21.189 16.513 20.924 16.443C20.4826 16.4115 20.0432 16.3554 19.608 16.275C20.086 16.026 20.632 16.297 21.133 16.261C21.349 16.245 21.501 15.852 22.188 15.723" fill="#A02031"/>
<path fill-rule="evenodd" clip-rule="evenodd" d="M19.591 16.263C19.5352 16.2276 19.471 16.2076 19.4049 16.2051C19.3388 16.2027 19.2733 16.2178 19.215 16.249C19.3375 16.283 19.4663 16.2878 19.591 16.263Z" fill="#A02031"/>
<path fill-rule="evenodd" clip-rule="evenodd" d="M13.125 17.835C12.647 17.248 11.632 18.367 11.558 18.435C11.484 18.503 11.294 18.656 11.273 18.735C11.213 18.967 11.737 19.278 11.9 19.374C12.114 19.504 12.3 19.832 12.593 19.602C12.7094 19.5055 12.8044 19.3857 12.8719 19.2503C12.9394 19.115 12.9779 18.9671 12.985 18.816C13.0398 18.4999 13.1865 18.207 13.407 17.974C13.6594 17.7799 13.8937 17.5634 14.107 17.327C13.644 17.29 13.457 17.679 13.121 17.827" fill="#A02031"/>
<path fill-rule="evenodd" clip-rule="evenodd" d="M20.274 15.288C20.183 14.91 19.534 15.307 19.374 15.272C19.558 15.32 19.826 15.307 20.074 15.345C20.146 15.359 20.295 15.369 20.279 15.288" fill="#A02031"/>
<path fill-rule="evenodd" clip-rule="evenodd" d="M17.485 17.458C17.669 17.558 17.732 17.823 17.92 17.939C18.1109 18.0435 18.2955 18.159 18.473 18.285C18.557 18.352 18.651 18.667 18.509 18.737C18.299 18.843 18.223 18.427 18.118 18.776C18.013 19.125 17.601 19.286 17.518 19.657C17.463 19.916 17.29 20.269 17.449 20.517C17.4729 20.5527 17.5046 20.5824 17.5416 20.6041C17.5787 20.6257 17.6202 20.6387 17.663 20.642C17.8019 20.6387 17.9382 20.6809 18.051 20.762C18.1316 20.8334 18.2312 20.8799 18.3377 20.8959C18.4442 20.9118 18.553 20.8966 18.651 20.852C18.761 20.8092 18.8587 20.7398 18.9354 20.6502C19.0122 20.5605 19.0656 20.4533 19.091 20.338C19.0362 20.0679 18.9982 19.7947 18.977 19.52C18.984 19.243 19.106 19.078 18.965 18.802C18.875 18.609 18.7374 18.442 18.565 18.317C18.42 18.203 18.365 17.993 18.265 17.84C18.0798 17.6057 17.8794 17.3839 17.665 17.176C17.6153 17.1131 17.5519 17.0624 17.4797 17.0277C17.4074 16.993 17.3281 16.9754 17.248 16.976C17.013 17.0255 16.804 17.1587 16.66 17.351C16.4747 17.5324 16.2783 17.702 16.072 17.859C15.878 18.052 15.921 18.346 15.821 18.587C15.7028 18.7978 15.6143 19.024 15.558 19.259C15.691 19.183 15.783 18.969 15.864 18.843C15.9215 18.7484 15.985 18.6575 16.054 18.571C16.125 18.478 16.236 18.471 16.317 18.397C16.55 18.167 16.575 17.877 16.727 17.617C16.8203 17.5166 16.9423 17.4475 17.0764 17.4192C17.2105 17.3909 17.3501 17.4048 17.476 17.459" fill="#A02031"/>
<path fill-rule="evenodd" clip-rule="evenodd" d="M21.872 19.795C21.8384 19.6499 21.8282 19.5003 21.842 19.352C21.8725 19.1748 21.8369 18.9927 21.742 18.84C21.642 18.64 21.335 18.173 21.063 18.301C20.969 18.344 20.876 18.463 20.763 18.395C20.626 18.314 20.582 18.188 20.413 18.127C20.244 18.066 20.093 18.048 19.935 18.004C19.8245 17.9726 19.7114 17.9512 19.597 17.94C19.697 18.166 20.064 18.307 20.242 18.46C20.631 18.791 20.442 19.171 20.42 19.595C20.3862 19.7419 20.4002 19.8957 20.46 20.034C20.545 20.161 20.868 20.185 20.945 20.234C20.988 20.262 21.383 20.403 21.554 20.305C21.6381 20.2477 21.7096 20.1737 21.7641 20.0877C21.8187 20.0018 21.855 19.9055 21.871 19.805" fill="#A02031"/>
<path fill-rule="evenodd" clip-rule="evenodd" d="M17.546 23.669C17.664 23.644 17.821 23.769 18.077 23.869C18.2891 23.9624 18.5151 24.0205 18.746 24.041C19.0057 24.0887 19.2396 24.2282 19.405 24.434C19.4957 24.6764 19.4921 24.9441 19.395 25.184C19.2927 25.3271 19.2207 25.4897 19.1835 25.6617C19.1464 25.8336 19.1449 26.0114 19.179 26.184C19.287 26.67 19.479 26.853 19.139 26.822C18.8649 26.7844 18.5963 26.7139 18.339 26.612C18.0709 26.5738 17.8239 26.445 17.639 26.247C17.423 25.972 17.285 26.022 16.93 25.8C16.575 25.578 16.359 25.113 16.536 24.911C16.713 24.709 17.254 24.211 17.323 24.1C17.392 23.989 17.491 23.676 17.541 23.665" fill="#A02031"/>
<path fill-rule="evenodd" clip-rule="evenodd" d="M24.57 20.804C24.57 20.691 24.826 20.518 24.842 20.444C24.8641 20.215 24.8567 19.9841 24.82 19.757C24.773 19.573 24.743 19.373 24.873 19.285C24.9786 19.2194 25.0963 19.1757 25.2191 19.1564C25.342 19.1372 25.4674 19.1428 25.588 19.173C25.806 19.273 25.983 19.358 26.188 19.437C26.5024 19.5555 26.7842 19.7471 27.01 19.996C27.104 20.196 27.228 20.413 27.088 20.626C26.948 20.839 26.95 20.995 26.84 21.092C26.6521 21.2388 26.4777 21.4021 26.319 21.58C26.171 21.773 26.063 22.18 25.884 22.267C25.705 22.354 25.348 22.467 25.246 22.34C25.1473 22.1858 25.1013 22.0036 25.115 21.821C25.139 21.709 25.387 21.501 25.325 21.321C25.263 21.141 25.083 21.113 24.889 21.041C24.695 20.969 24.571 20.921 24.571 20.809" fill="#A02031"/>
<path fill-rule="evenodd" clip-rule="evenodd" d="M8.041 22.431C7.941 22.324 7.851 22.231 7.898 22.131C7.9836 21.9684 8.04748 21.7952 8.088 21.616C8.10768 21.3747 8.10768 21.1323 8.088 20.891C8.09749 20.7454 8.13129 20.6024 8.188 20.468C8.218 20.353 8.18 20.141 8.388 20.068C8.58296 20.0092 8.79003 20.0034 8.988 20.051C9.171 20.083 9.536 20.182 9.637 20.385C9.738 20.588 9.804 20.826 9.923 20.906C10.042 20.986 10.405 21.152 10.414 21.206C10.423 21.26 10.343 21.335 10.214 21.564C10.1238 21.8654 10.079 22.1785 10.081 22.493C10.066 22.607 10.073 23.039 9.93 23.136C9.787 23.233 9.557 23.136 9.352 23.031C9.13575 22.9398 8.9288 22.8279 8.734 22.697C8.634 22.597 8.634 22.469 8.56 22.436C8.486 22.403 8.141 22.536 8.046 22.427" fill="#A02031"/>
<path fill-rule="evenodd" clip-rule="evenodd" d="M15.739 20.307C15.8137 20.4468 15.8506 20.6036 15.846 20.762C15.8534 20.9382 15.817 21.1134 15.74 21.272C15.6086 21.3983 15.4555 21.4999 15.288 21.572C15.202 21.602 14.943 21.694 14.801 21.563C14.6664 21.4677 14.5487 21.3504 14.453 21.216C14.3941 21.0581 14.3738 20.8883 14.394 20.7209C14.4142 20.5535 14.4742 20.3934 14.569 20.254C14.693 20.111 14.917 20.098 15.061 19.974C15.1844 19.8553 15.3143 19.7434 15.45 19.639C15.461 19.784 15.35 19.961 15.45 20.093C15.519 20.185 15.661 20.217 15.743 20.307" fill="#A02031"/>
<path fill-rule="evenodd" clip-rule="evenodd" d="M18.971 16.999C18.8229 16.9563 18.6707 16.9291 18.517 16.918C18.63 17.09 18.917 17.062 19.099 17.131C19.1698 17.1673 19.2368 17.2105 19.299 17.26C19.499 17.376 19.859 17.511 19.909 17.576C19.9936 17.6402 20.0906 17.686 20.1939 17.7106C20.2972 17.7353 20.4045 17.7381 20.509 17.719C20.592 17.689 20.736 17.656 20.699 17.549C20.545 17.225 20.105 17.341 19.871 17.187C19.793 17.14 19.793 17.077 19.68 17.057C19.5697 17.0509 19.4601 17.0365 19.352 17.014C19.226 16.9976 19.0988 16.993 18.972 17" fill="#A02031"/>
<path fill-rule="evenodd" clip-rule="evenodd" d="M16.85 14.096C16.8481 14.1595 16.8391 14.2226 16.823 14.284C16.7618 14.5068 16.7737 14.7435 16.857 14.959C16.909 14.8711 16.9264 14.7671 16.906 14.667C16.8978 14.5636 16.9046 14.4595 16.926 14.358C16.912 14.2679 16.8868 14.1799 16.851 14.096" fill="#A02031"/>
<path fill-rule="evenodd" clip-rule="evenodd" d="M16.052 16.625C16.132 16.725 16.022 16.885 15.959 16.975C15.896 17.065 15.77 17.127 15.538 17.375C15.306 17.623 15.058 17.919 14.993 18.006C14.928 18.093 14.782 18.327 14.726 18.276C14.67 18.225 14.839 17.898 14.881 17.826C14.9877 17.6556 15.1132 17.4976 15.255 17.355C15.34 17.305 15.778 16.928 15.763 16.877C15.748 16.826 15.601 16.84 15.531 16.855C15.461 16.87 15.131 16.993 15.037 17.016C14.943 17.039 14.837 16.979 14.967 16.863C15.097 16.747 15.136 16.725 15.206 16.71C15.276 16.695 15.474 16.689 15.516 16.646C15.558 16.603 15.565 16.464 15.524 16.436C15.483 16.408 15.419 16.427 15.362 16.427C15.305 16.427 14.635 16.305 14.523 16.283C14.411 16.261 13.769 16.083 13.656 16.065C13.543 16.047 13.529 15.965 13.713 15.965C13.897 15.965 14.228 16.031 14.348 16.031C14.468 16.031 14.609 16.01 14.735 16.017C14.9297 16.0509 15.1276 16.0633 15.325 16.054C15.432 16.017 15.581 15.954 15.602 15.88C15.6185 15.8436 15.6247 15.8033 15.6197 15.7635C15.6148 15.7238 15.599 15.6863 15.574 15.655C15.511 15.589 15.227 15.393 15.15 15.241C15.0998 15.109 15.0209 14.9898 14.919 14.892C14.841 14.849 14.708 14.826 14.651 14.746C14.594 14.666 14.566 14.446 14.664 14.492C14.811 14.5567 14.9488 14.6404 15.074 14.741C15.1355 14.8443 15.2023 14.9445 15.274 15.041C15.379 15.1625 15.4971 15.2722 15.626 15.368C15.7475 15.4392 15.8503 15.5382 15.926 15.657C16.194 15.673 16.25 15.657 16.426 15.666C16.5969 15.6683 16.7669 15.6898 16.933 15.73C16.99 15.76 17.18 15.854 17.243 15.788C17.306 15.722 17.482 15.34 17.553 15.245C17.624 15.15 17.948 14.738 18.012 14.628C18.1423 14.4633 18.305 14.3272 18.49 14.228C18.525 14.248 18.603 14.299 18.461 14.428C18.2466 14.6263 18.0461 14.8391 17.861 15.065C17.804 15.165 17.579 15.544 17.537 15.625C17.495 15.706 17.376 15.791 17.411 15.842C17.446 15.893 17.679 15.957 17.728 16.008C17.777 16.059 17.928 16.334 17.82 16.408C17.712 16.482 17.587 16.413 17.495 16.308C17.426 16.2076 17.3458 16.1153 17.256 16.033C17.1293 15.9628 16.9951 15.9072 16.856 15.867C16.6264 15.8052 16.3872 15.7876 16.151 15.815C16.038 15.845 15.812 15.925 15.807 16.055C15.8116 16.2659 15.8993 16.4664 16.051 16.613" fill="#A02031"/>
<path fill-rule="evenodd" clip-rule="evenodd" d="M16.368 15.451C16.306 15.451 16.095 15.251 16.023 15.111C15.9424 14.944 15.8529 14.7814 15.755 14.624C15.705 14.559 15.678 14.415 15.627 14.371C15.576 14.327 15.353 14.051 15.416 14.015C15.479 13.979 15.716 14.215 15.74 14.284C15.764 14.353 15.994 14.668 16.052 14.747C16.11 14.826 16.277 15.103 16.32 15.183C16.363 15.263 16.433 15.452 16.369 15.452" fill="#A02031"/>
<defs>
<radialGradient id="paint0_radial" cx="0" cy="0" r="1" gradientUnits="userSpaceOnUse" gradientTransform="translate(16.7109 15.6733) scale(11.1999 11.5251)">
<stop stop-color="white"/>
<stop offset="0.068" stop-color="white"/>
<stop offset="0.198" stop-color="#FAEDEF"/>
<stop offset="0.38" stop-color="#F2D3D9"/>
<stop offset="0.662" stop-color="#DC959B"/>
<stop offset="0.889" stop-color="#CE6774"/>
<stop offset="1" stop-color="#C95666"/>
</radialGradient>
<radialGradient id="paint1_radial" cx="0" cy="0" r="1" gradientUnits="userSpaceOnUse" gradientTransform="translate(15.7311 6.5822) scale(8.63388 8.88596)">
<stop stop-color="#C95666"/>
<stop offset="0.209" stop-color="#C95666"/>
<stop offset="0.298" stop-color="#CA5B6A"/>
<stop offset="0.419" stop-color="#CF6B76"/>
<stop offset="0.557" stop-color="#D7848C"/>
<stop offset="0.709" stop-color="#E2A7AC"/>
<stop offset="0.869" stop-color="#F2D3D8"/>
<stop offset="0.871" stop-color="#F2D3D9"/>
<stop offset="1" stop-color="#F2D3D9"/>
</radialGradient>
<radialGradient id="paint2_radial" cx="0" cy="0" r="1" gradientUnits="userSpaceOnUse" gradientTransform="translate(16.7977 8.27072) scale(9.59323 9.40101)">
<stop stop-color="#C95666"/>
<stop offset="0.096" stop-color="#CA5A69"/>
<stop offset="0.205" stop-color="#CE6673"/>
<stop offset="0.322" stop-color="#D47B84"/>
<stop offset="0.443" stop-color="#DD989E"/>
<stop offset="0.567" stop-color="#EABCC1"/>
<stop offset="0.638" stop-color="#F2D3D9"/>
<stop offset="0.725" stop-color="#F4D8DD"/>
<stop offset="0.837" stop-color="#F7E5E8"/>
<stop offset="0.963" stop-color="#FEF9FA"/>
<stop offset="1" stop-color="white"/>
</radialGradient>
<radialGradient id="paint3_radial" cx="0" cy="0" r="1" gradientUnits="userSpaceOnUse" gradientTransform="translate(13.0526 19.053) scale(6.23596 6.41753)">
<stop stop-color="white"/>
<stop offset="0.171" stop-color="#FAEDEF"/>
<stop offset="0.411" stop-color="#F2D3D9"/>
<stop offset="0.679" stop-color="#DC959B"/>
<stop offset="0.894" stop-color="#CE6774"/>
<stop offset="1" stop-color="#C95666"/>
</radialGradient>
<radialGradient id="paint4_radial" cx="0" cy="0" r="1" gradientUnits="userSpaceOnUse" gradientTransform="translate(13.086 17.2147) scale(7.93739 8.16618)">
<stop stop-color="white"/>
<stop offset="0.068" stop-color="white"/>
<stop offset="0.218" stop-color="#FAEDEF"/>
<stop offset="0.429" stop-color="#F2D3D9"/>
<stop offset="0.689" stop-color="#DC959B"/>
<stop offset="0.898" stop-color="#CE6774"/>
<stop offset="1" stop-color="#C95666"/>
</radialGradient>
<radialGradient id="paint5_radial" cx="0" cy="0" r="1" gradientUnits="userSpaceOnUse" gradientTransform="translate(31.9695 9.87483) scale(15.9066 16.3661)">
<stop stop-color="#C95666"/>
<stop offset="0.307" stop-color="#C95666"/>
<stop offset="0.368" stop-color="#CB5F6D"/>
<stop offset="0.474" stop-color="#D37982"/>
<stop offset="0.613" stop-color="#E0A2A7"/>
<stop offset="0.761" stop-color="#F2D3D9"/>
<stop offset="1" stop-color="#F2D3D9"/>
</radialGradient>
<radialGradient id="paint6_radial" cx="0" cy="0" r="1" gradientUnits="userSpaceOnUse" gradientTransform="translate(17.2265 17.5622) scale(8.29286 8.54041)">
<stop stop-color="white"/>
<stop offset="0.092" stop-color="white"/>
<stop offset="0.21" stop-color="#FAEDEF"/>
<stop offset="0.374" stop-color="#F2D3D9"/>
<stop offset="0.417" stop-color="#EBC1C6"/>
<stop offset="0.515" stop-color="#DE9BA1"/>
<stop offset="0.61" stop-color="#D57D85"/>
<stop offset="0.7" stop-color="#CE6774"/>
<stop offset="0.783" stop-color="#CA5A6A"/>
<stop offset="0.853" stop-color="#C95666"/>
<stop offset="1" stop-color="#C95666"/>
</radialGradient>
</defs>
</svg>
