<svg width="32" height="32" viewBox="0 0 32 32" fill="none" xmlns="http://www.w3.org/2000/svg">
<path fill-rule="evenodd" clip-rule="evenodd" d="M23.7281 27.993C23.675 27.886 23.6751 27.779 23.6211 27.726C23.2951 27.1732 22.8631 26.6903 22.3498 26.3052C21.8364 25.92 21.252 25.6403 20.6301 25.482C19.087 25.1136 17.481 25.0955 15.9301 25.429C13.9741 25.8079 12.0962 26.5148 10.3761 27.52L9.57605 28.001L23.7281 27.993Z" fill="#00569E"/>
<path fill-rule="evenodd" clip-rule="evenodd" d="M24.259 24.253C23.8934 23.584 23.3902 23 22.7827 22.5395C22.1751 22.079 21.4769 21.7523 20.734 21.581C18.858 21.1305 16.9041 21.1124 15.0201 21.528C12.6898 21.9989 10.452 22.847 8.39505 24.039C6.8104 24.9437 5.3402 26.0355 4.01605 27.291V27.991H8.76905C9.32558 27.5388 9.91449 27.1281 10.5311 26.762C12.6572 25.4023 15.0396 24.4929 17.5311 24.09C19.3971 23.7532 21.3222 24.0741 22.9781 24.998C23.4504 25.3508 23.8423 25.8001 24.1278 26.3159C24.4133 26.8317 24.5859 27.4024 24.634 27.99H24.7941L24.8471 27.402C24.9903 26.3157 24.7848 25.2119 24.26 24.25L24.259 24.253Z" fill="#00569E"/>
<path fill-rule="evenodd" clip-rule="evenodd" d="M4.02005 10.412V4H28V27.993H24.849C25.0093 26.9677 25.0452 25.9269 24.956 24.893C24.8835 23.8161 24.4645 22.7916 23.7615 21.9726C23.0586 21.1536 22.1095 20.584 21.056 20.349C18.599 19.649 15.179 20.135 11.708 21.634C9.97443 22.4008 8.32746 23.3501 6.79504 24.466C5.79465 25.2003 4.86224 26.0229 4.00905 26.924V22.169C4.78115 21.6097 5.58227 21.0917 6.40905 20.617C8.67944 19.2928 11.1521 18.351 13.7281 17.829C15.8054 17.3503 17.9685 17.3877 20.028 17.938C20.8551 18.1231 21.6339 18.4802 22.3139 18.986C22.9939 19.4919 23.5599 20.1351 23.975 20.874C24.1986 21.2759 24.3607 21.7091 24.456 22.159L24.67 23.014C24.5861 21.9586 24.3152 20.9266 23.87 19.966C22.855 17.938 20.933 16.76 18.156 16.495C16.5952 16.3828 15.0266 16.5263 13.512 16.92C11.7526 17.3399 10.0493 17.9677 8.43805 18.79C6.86744 19.6019 5.38232 20.5694 4.00505 21.678V17.787L4.48605 17.464C11.916 13.192 19.762 13.136 22.433 17.357L22.807 17.947C22.4355 17.0764 21.9109 16.2794 21.258 15.594C20.3407 14.746 19.248 14.1101 18.0575 13.7314C16.867 13.3528 15.6077 13.2407 14.369 13.403C11.0944 13.7611 7.93902 14.8374 5.12804 16.555C4.74224 16.7689 4.36775 17.0025 4.00605 17.255V14.314C9.77605 11.322 15.806 10.948 18.962 13.459L19.229 13.673C18.7295 13.107 18.1328 12.6349 17.467 12.279C14.047 10.462 8.81305 11.264 4.00005 13.879V12.062C5.48139 11.3881 7.04165 10.9033 8.64405 10.619C10.5426 10.2356 12.5065 10.3273 14.361 10.886L14.948 11.1C14.2632 10.6808 13.4987 10.4084 12.703 10.3C9.73313 9.87768 6.70463 10.3425 3.99805 11.636V10.888C5.40378 10.3669 6.88004 10.0608 8.37704 9.98L9.55205 9.927C7.68753 9.69287 5.79455 9.85681 3.99805 10.408L4.02005 10.412Z" fill="#00569E"/>
<path fill-rule="evenodd" clip-rule="evenodd" d="M4.01904 20.032V21.368C13.634 13.404 26.078 15.114 28 15.435C28 15.434 14.969 12.014 4.01904 20.032Z" fill="white"/>
<path fill-rule="evenodd" clip-rule="evenodd" d="M4.01904 15.648V16.823C13.258 10.623 24.102 12.123 25.919 12.442C25.918 12.438 14.486 9.44999 4.01904 15.648Z" fill="white"/>
<path fill-rule="evenodd" clip-rule="evenodd" d="M24.636 9.826C24.636 9.826 14.115 7.03799 4.01904 12.337V13.406C12.94 8.16799 22.927 9.504 24.636 9.826Z" fill="white"/>
</svg>
