<svg width="32" height="32" viewBox="0 0 32 32" fill="none" xmlns="http://www.w3.org/2000/svg">
<path fill-rule="evenodd" clip-rule="evenodd" d="M0.995972 12H30.996V20H0.995972V12Z" fill="#E35B00"/>
<path fill-rule="evenodd" clip-rule="evenodd" d="M4.06997 15.564H3.98197C3.79197 15.564 3.72997 15.55 3.72997 15.364C3.72328 15.2385 3.76566 15.1153 3.84815 15.0205C3.93064 14.9257 4.04677 14.8667 4.17197 14.856C4.22875 14.8578 4.28452 14.8714 4.33576 14.8959C4.387 14.9204 4.43258 14.9554 4.46963 14.9984C4.50667 15.0415 4.53437 15.0918 4.55096 15.1461C4.56754 15.2004 4.57265 15.2576 4.56597 15.314C4.56597 15.557 4.51196 15.565 4.13796 15.565L4.06997 15.564ZM5.49697 16.28C5.76197 16.28 5.87797 16.137 5.87797 15.729C5.87505 15.5118 5.82792 15.2974 5.73946 15.099C5.65101 14.9006 5.52307 14.7223 5.36344 14.5749C5.20382 14.4275 5.01586 14.3142 4.81101 14.2418C4.60617 14.1695 4.38874 14.1396 4.17197 14.154C3.85653 14.155 3.54621 14.2339 3.26864 14.3838C2.99107 14.5337 2.75484 14.7498 2.58097 15.013C2.3508 15.3535 2.22754 15.755 2.22697 16.166C2.21623 16.4225 2.25783 16.6785 2.34924 16.9184C2.44065 17.1583 2.57995 17.3771 2.75866 17.5614C2.93737 17.7458 3.15173 17.8918 3.3887 17.9905C3.62566 18.0893 3.88026 18.1388 4.13697 18.136C4.56624 18.141 4.98615 18.0104 5.33697 17.763C5.44979 17.7006 5.54694 17.6133 5.62109 17.5078C5.69523 17.4023 5.74442 17.2813 5.76496 17.154C5.76496 16.932 5.63597 16.782 5.47997 16.782C5.30297 16.782 5.03797 17.097 4.60297 17.097C4.39817 17.1026 4.19846 17.0327 4.04177 16.9007C3.88508 16.7687 3.7823 16.5838 3.75297 16.381C3.75297 16.295 3.81397 16.281 3.96397 16.281L5.49697 16.28ZM8.07298 15.815C7.89399 15.777 7.71188 15.7556 7.52897 15.751C7.35081 15.7306 7.17038 15.7459 6.99816 15.7959C6.82595 15.8459 6.66538 15.9296 6.52581 16.0422C6.38624 16.1548 6.27044 16.294 6.18514 16.4517C6.09985 16.6095 6.04676 16.7826 6.02897 16.961C6.02479 17.1164 6.05357 17.2709 6.11343 17.4143C6.17328 17.5577 6.26285 17.6868 6.37623 17.7931C6.48961 17.8994 6.62424 17.9805 6.77122 18.0309C6.9182 18.0814 7.0742 18.1002 7.22897 18.086C7.51129 18.0962 7.78739 18.0014 8.00397 17.82C8.07197 17.77 8.11996 17.712 8.18096 17.712C8.24196 17.712 8.32396 17.834 8.45296 17.963C8.5116 18.0183 8.58137 18.0605 8.65759 18.0867C8.7338 18.1129 8.81472 18.1226 8.89497 18.115C9.15104 18.1351 9.40598 18.0641 9.61488 17.9146C9.82378 17.7652 9.97324 17.5468 10.037 17.298C10.0388 17.2393 10.0197 17.1818 9.98304 17.1358C9.94641 17.0898 9.89464 17.0583 9.83697 17.047C9.63697 16.99 9.63697 16.89 9.63697 16.367V16.259C9.63697 16.023 9.65697 15.744 9.65697 15.429C9.65697 14.591 9.08597 14.147 8.00497 14.147C6.96497 14.147 6.30497 14.591 6.30497 15.078C6.30062 15.1365 6.3082 15.1953 6.32725 15.2508C6.3463 15.3062 6.37642 15.3573 6.41579 15.4008C6.45516 15.4442 6.50295 15.4793 6.55627 15.5037C6.60959 15.5282 6.66733 15.5415 6.72598 15.543C6.84857 15.534 6.96717 15.4955 7.07165 15.4307C7.17613 15.3659 7.26338 15.2768 7.32597 15.171C7.48197 14.971 7.58397 14.792 7.78797 14.792C7.99197 14.792 8.08797 15 8.08797 15.458C8.08797 15.565 8.08097 15.68 8.07497 15.816L8.07298 15.815ZM8.06597 16.538C8.06597 17.032 8.05197 17.233 7.81397 17.233C7.63697 17.233 7.54197 17.09 7.54197 16.811C7.54197 16.532 7.67097 16.353 7.88897 16.353C8.04497 16.353 8.06597 16.367 8.06597 16.539V16.538ZM13.341 16.86C13.341 16.294 13.035 15.96 12.389 15.614C12.022 15.421 11.789 15.349 11.789 15.163C11.7908 15.1112 11.8127 15.0621 11.85 15.0261C11.8873 14.9901 11.9371 14.97 11.989 14.97C12.207 14.97 12.315 15.17 12.499 15.342C12.5468 15.394 12.6045 15.436 12.6687 15.4656C12.7329 15.4951 12.8023 15.5116 12.873 15.514C12.9271 15.5161 12.981 15.5066 13.0312 15.4862C13.0813 15.4658 13.1265 15.4349 13.1638 15.3956C13.2011 15.3563 13.2296 15.3096 13.2474 15.2584C13.2652 15.2073 13.2718 15.1529 13.267 15.099C13.267 14.641 12.867 14.154 12.608 14.154C12.499 14.154 12.37 14.269 12.234 14.269C12.098 14.269 11.887 14.176 11.634 14.176C11.2827 14.161 10.9397 14.2847 10.6788 14.5204C10.418 14.7562 10.2604 15.085 10.24 15.436C10.2527 15.71 10.3433 15.9748 10.5011 16.1992C10.6589 16.4236 10.8774 16.5984 11.131 16.703C11.431 16.86 11.648 16.896 11.648 17.133C11.6441 17.1782 11.6227 17.2201 11.5883 17.2496C11.5539 17.2792 11.5092 17.2941 11.464 17.291C11.314 17.291 11.138 17.169 10.927 16.933C10.777 16.768 10.669 16.618 10.451 16.618C10.251 16.618 10.159 16.768 10.159 17.055C10.159 17.57 10.574 18.073 10.818 18.073C10.927 18.073 11.035 17.986 11.137 17.986C11.3808 18.0568 11.6316 18.1004 11.885 18.116C12.0639 18.1366 12.2451 18.1198 12.4172 18.0666C12.5893 18.0135 12.7484 17.9251 12.8846 17.8072C13.0207 17.6893 13.1309 17.5444 13.208 17.3817C13.2852 17.219 13.3278 17.042 13.333 16.862L13.341 16.86ZM14.653 16.874C14.8962 17.3273 15.0682 17.8154 15.163 18.321C15.163 18.479 15.095 18.564 14.993 18.564C14.843 18.564 14.884 18.335 14.769 18.07C14.727 17.9604 14.6522 17.8665 14.5549 17.801C14.4575 17.7355 14.3423 17.7016 14.225 17.704C14.0466 17.7166 13.8803 17.7989 13.7621 17.933C13.6438 18.0672 13.5831 18.2425 13.593 18.421C13.594 18.5632 13.625 18.7035 13.6838 18.8329C13.7426 18.9623 13.8279 19.0779 13.9343 19.1722C14.0406 19.2665 14.1656 19.3374 14.3012 19.3802C14.4367 19.4231 14.5797 19.437 14.721 19.421C15.0587 19.4074 15.3848 19.294 15.6582 19.0952C15.9315 18.8964 16.1399 18.6211 16.257 18.304C16.61 17.4576 16.9076 16.5891 17.148 15.704C17.291 15.31 17.338 15.167 17.617 15.052C17.817 14.973 17.95 14.916 17.95 14.644C17.95 14.35 17.705 14.207 17.175 14.207C16.604 14.207 16.312 14.372 16.312 14.637C16.312 14.852 16.584 14.931 16.584 15.11C16.5634 15.2591 16.5198 15.4042 16.455 15.54C16.367 15.748 16.292 15.855 16.17 15.855C16.027 15.855 15.952 15.748 15.87 15.533C15.8032 15.3875 15.7574 15.2333 15.734 15.075C15.734 14.946 15.958 14.932 15.958 14.667C15.958 14.287 15.604 14.202 14.858 14.202C13.958 14.202 13.492 14.417 13.492 14.796C13.492 15.054 13.648 15.096 13.805 15.183C13.995 15.283 14.036 15.455 14.131 15.677L14.654 16.877L14.653 16.874ZM20.173 16.374C20.173 16.904 19.99 17.183 19.704 17.183C19.6799 17.1841 19.6559 17.1803 19.6334 17.1717C19.611 17.1632 19.5905 17.1501 19.5732 17.1333C19.556 17.1166 19.5424 17.0964 19.5332 17.0742C19.524 17.0519 19.5195 17.0281 19.52 17.004C19.52 16.868 19.567 16.732 19.567 16.604C19.571 16.4979 19.5531 16.392 19.5144 16.2931C19.4756 16.1942 19.4168 16.1044 19.3417 16.0293C19.2666 15.9542 19.1768 15.8954 19.0779 15.8566C18.979 15.8178 18.8731 15.7999 18.767 15.804C18.6549 15.8063 18.5445 15.8318 18.4428 15.879C18.3411 15.9262 18.2503 15.9941 18.1762 16.0782C18.1021 16.1624 18.0463 16.261 18.0123 16.3679C17.9784 16.4748 17.967 16.5875 17.979 16.699C17.979 17.558 18.706 18.168 19.879 18.168C20.284 18.2173 20.6935 18.1223 21.0353 17.8995C21.3772 17.6767 21.6295 17.3405 21.748 16.95C21.8668 16.0941 21.9099 15.2294 21.877 14.366C21.891 14.001 21.891 13.886 22.115 13.75C22.278 13.65 22.38 13.6 22.38 13.342C22.38 12.927 21.959 12.819 21.007 12.819C20.055 12.819 19.62 12.962 19.62 13.413C19.62 13.656 19.742 13.707 19.912 13.785C20.143 13.885 20.17 13.957 20.17 14.365V16.377L20.173 16.374ZM24.544 15.565H24.456C24.266 15.565 24.204 15.551 24.204 15.365C24.1973 15.2395 24.2397 15.1163 24.3222 15.0215C24.4046 14.9267 24.5208 14.8677 24.646 14.857C24.7027 14.8588 24.7585 14.8724 24.8098 14.8969C24.861 14.9215 24.9066 14.9564 24.9436 14.9994C24.9807 15.0425 25.0084 15.0928 25.025 15.1471C25.0415 15.2014 25.0466 15.2586 25.04 15.315C25.04 15.558 24.986 15.566 24.612 15.566L24.544 15.565ZM25.971 16.281C26.236 16.281 26.352 16.138 26.352 15.73C26.3491 15.5128 26.3019 15.2984 26.2135 15.1C26.125 14.9016 25.9971 14.7232 25.8374 14.5759C25.6778 14.4285 25.4899 14.3152 25.285 14.2428C25.0802 14.1705 24.8627 14.1406 24.646 14.155C24.3305 14.1561 24.0203 14.2351 23.7427 14.3849C23.4652 14.5348 23.2289 14.7509 23.055 15.014C22.8249 15.3546 22.7017 15.756 22.701 16.167C22.6902 16.4235 22.7318 16.6795 22.8232 16.9194C22.9146 17.1593 23.054 17.3781 23.2327 17.5624C23.4114 17.7468 23.6257 17.8927 23.8627 17.9915C24.0997 18.0903 24.3543 18.1398 24.611 18.137C25.0402 18.1419 25.4601 18.0114 25.811 17.764C25.9238 17.7016 26.0209 17.6143 26.0951 17.5088C26.1692 17.4033 26.2184 17.2823 26.239 17.155C26.239 16.933 26.11 16.783 25.954 16.783C25.777 16.783 25.512 17.098 25.077 17.098C24.8722 17.1036 24.6725 17.0337 24.5158 16.9017C24.3591 16.7697 24.2563 16.5848 24.227 16.382C24.227 16.296 24.288 16.282 24.438 16.282L25.971 16.281ZM27.004 15.049V16.796C27.004 17.662 27.439 18.122 28.248 18.122C29.057 18.122 29.662 17.634 29.662 17.262C29.662 17.004 29.553 16.854 29.431 16.854C29.282 16.854 29.152 16.997 28.982 16.997C28.737 16.997 28.622 16.854 28.622 16.567V15.249C28.622 15.07 28.676 15.077 28.846 15.07L29.376 15.048C29.607 15.041 29.655 15.027 29.655 14.762V14.447C29.655 14.254 29.621 14.247 29.424 14.247H28.669V13.918C28.669 13.488 28.656 13.36 28.35 13.36C28.024 13.36 27.589 13.682 26.868 14.212C26.555 14.441 26.46 14.463 26.46 14.735C26.46 15.057 26.508 15.035 27.004 15.05V15.049Z" fill="white"/>
</svg>
