<svg width="32" height="32" viewBox="0 0 32 32" fill="none" xmlns="http://www.w3.org/2000/svg">
<path fill-rule="evenodd" clip-rule="evenodd" d="M20.924 8.18194C21.1788 8.59116 21.5776 8.89005 22.0419 9.01964C22.5062 9.14922 23.0022 9.1001 23.432 8.88196C23.6501 8.69102 23.813 8.44518 23.904 8.16997C23.9949 7.89475 24.0105 7.60021 23.949 7.31695C24.3858 7.39545 24.8118 7.52535 25.218 7.70395C25.463 7.78995 25.735 6.77795 25.373 6.74595C24.2234 6.59655 23.0548 6.76103 21.9911 7.22194C20.9274 7.68285 20.0082 8.42301 19.331 9.36395C19.931 8.89295 20.449 8.49996 20.924 8.18596V8.18194ZM23.173 8.54295C22.645 8.97395 21.785 8.70996 21.173 8.01996C21.838 7.54828 22.6289 7.28637 23.444 7.26794C23.517 7.48549 23.5301 7.71868 23.4819 7.94302C23.4337 8.16737 23.3259 8.3746 23.17 8.54295H23.173Z" fill="#00214E"/>
<path fill-rule="evenodd" clip-rule="evenodd" d="M3.65604 9.97895C4.31878 7.74372 5.46945 5.68349 7.02502 3.94693C13.775 1.02193 22.489 1.04694 29 6.42794C24.9 4.28894 12.808 2.00695 3.65604 9.97895Z" fill="#00214E"/>
<path fill-rule="evenodd" clip-rule="evenodd" d="M3.26203 17.4069C2.96178 15.7639 2.91926 14.0841 3.13603 12.4279C7.91303 7.43493 15.067 4.16294 22.564 5.77094C18.457 5.77894 8.61305 8.67094 3.26405 17.4069H3.26203Z" fill="#00214E"/>
<path fill-rule="evenodd" clip-rule="evenodd" d="M5.81003 23.5509C5.00921 22.3948 4.36683 21.1366 3.90002 19.8099C6.73902 13.6269 12.219 8.24994 19.581 7.07794C15.919 8.50094 8.27203 14.2589 5.81003 23.5509Z" fill="#00214E"/>
<path fill-rule="evenodd" clip-rule="evenodd" d="M10.448 27.9449C9.32321 27.2548 8.29176 26.423 7.37903 25.47C8.36203 18.938 12.236 12.1189 18.457 8.56995C18.0057 9.27274 17.7877 10.1 17.834 10.934C13.3273 15.4788 10.6914 21.5501 10.448 27.946V27.9449Z" fill="#00214E"/>
<path fill-rule="evenodd" clip-rule="evenodd" d="M16.199 29.9999C14.9896 29.8362 13.8051 29.5228 12.673 29.0669C12.71 23.1609 14.581 16.1409 17.966 11.8419C18.1825 12.6764 18.5606 13.4602 19.079 14.1489C21.5051 10.9964 24.8778 8.7043 28.702 7.60895C23.467 9.64495 15.312 16.1519 16.202 30.0009L16.199 29.9999Z" fill="#00214E"/>
</svg>
