<svg width="32" height="32" viewBox="0 0 32 32" fill="none" xmlns="http://www.w3.org/2000/svg">
<path d="M5.10899 26.445C8.42561 26.8362 11.7635 27.0192 15.103 26.993C17.495 26.914 19.292 27.269 21.316 25.042C23.432 22.759 23.181 21.574 21.906 21.942C16.3869 23.8345 10.7144 25.2461 4.95199 26.161C4.58699 26.211 4.67899 26.414 5.10599 26.443L5.10899 26.445Z" fill="#AE5149"/>
<path d="M3.263 25.833C8.834 24.351 22.776 16.554 24.841 15.174C25.859 14.512 26.983 14.906 25.184 17.961C23.96 19.842 23.084 20.847 19.843 21.97C14.4735 23.7631 8.97661 25.1497 3.399 26.118C2.971 26.201 2.82901 25.991 3.25901 25.844L3.263 25.833Z" fill="#F0CF32"/>
<path d="M3.81999 25.421C8.67599 23.649 19.258 17.85 22.867 15.546C25.461 13.901 27.467 12.687 28.257 10.625C28.6169 9.66073 28.8659 8.65861 28.999 7.638V6.23001C28.887 5.47201 28.566 5.053 28.137 5H27.943C27.6048 5.06416 27.295 5.23234 27.057 5.48102C25.023 7.54002 15.457 17.988 3.21499 25.333C3.02999 25.444 2.998 25.694 3.823 25.433L3.81999 25.421Z" fill="#839F70"/>
</svg>
