<svg width="32" height="32" viewBox="0 0 32 32" fill="none" xmlns="http://www.w3.org/2000/svg">
<path d="M6.2369 16.617L6.31191 16.643H6.3199L6.4729 16.564C6.51663 16.5332 6.56848 16.5162 6.6219 16.515H8.71391V19.365L8.69991 19.412C8.69142 19.4225 8.68129 19.4316 8.66991 19.439L8.5699 19.504L8.55991 19.511V19.581H9.67291V19.511L9.55891 19.441L9.5229 19.408C9.52368 19.394 9.52368 19.38 9.5229 19.366V16.516H11.3869C11.4659 16.525 11.4869 16.547 11.4869 16.565V16.642H11.5569L12.0909 15.982H6.7349L6.2369 16.617ZM6.42191 17.98V18.006H6.50291L7.0249 17.344H3.3349L2.9869 17.871H6.32691C6.40991 17.881 6.43591 17.905 6.43391 17.92V17.93L6.42191 17.98ZM7.5109 19.013C7.48633 19.0285 7.45975 19.0406 7.4319 19.049L4.8619 19.056C4.40403 19.0819 3.94631 19.0026 3.5239 18.824C3.3224 18.7364 3.15123 18.5912 3.03186 18.4068C2.9125 18.2223 2.85024 18.0067 2.85291 17.787C2.8521 17.5786 2.91299 17.3747 3.0279 17.201C3.14581 17.0308 3.29766 16.8869 3.47389 16.7783C3.65012 16.6697 3.84692 16.5988 4.0519 16.57C4.1809 16.546 4.2829 16.532 4.3589 16.524C4.4979 16.516 4.6589 16.513 4.8319 16.513H5.63191C5.71691 16.522 5.74091 16.546 5.73991 16.56V16.57L5.7329 16.611V16.637H5.8069L6.33691 15.985H4.83691C4.5544 15.9806 4.27189 15.9933 3.99091 16.023C3.88995 16.0347 3.78977 16.0524 3.6909 16.076C3.42947 16.1363 3.17864 16.2357 2.94691 16.371C2.59598 16.5573 2.31156 16.8481 2.13291 17.203C2.0427 17.3995 1.9976 17.6137 2.0009 17.83C2.00566 18.1223 2.09422 18.4072 2.25605 18.6508C2.41789 18.8943 2.6462 19.0863 2.9139 19.204C3.20014 19.3614 3.51136 19.4683 3.8339 19.52C4.1754 19.5679 4.52012 19.5889 4.86491 19.583H7.2449L7.7789 18.923H7.6629L7.5109 19.013ZM12.3509 16.055L12.4559 16.124C12.4939 16.149 12.5059 16.172 12.5059 16.192V19.363L12.4909 19.414C12.4806 19.4245 12.4692 19.4339 12.4569 19.442L12.3569 19.506L12.3469 19.512V19.582H13.4469V19.512L13.3469 19.442C13.334 19.4342 13.3231 19.4236 13.3149 19.411L13.3049 16.191L13.3189 16.146L13.3489 16.12L13.4349 16.06L13.4439 16.053V15.983H12.3439L12.3509 16.055ZM20.5229 16.486L21.0599 17.066L21.6689 17.688H20.6619L20.1619 18.243L20.2239 18.276L20.2339 18.282L20.3519 18.219C20.3641 18.2126 20.3773 18.2082 20.3909 18.206C20.4029 18.206 20.4559 18.206 20.5439 18.206H22.1439L23.2629 19.406C23.2672 19.408 23.2711 19.4109 23.2742 19.4145C23.2773 19.4181 23.2796 19.4224 23.2809 19.427L23.2929 19.465C23.2929 19.48 23.2619 19.506 23.1549 19.506H23.1329V19.584H24.3459L20.9889 15.984L20.5229 16.486ZM29.9359 17.393L29.9149 17.4L29.9359 17.393C29.7815 16.936 29.4531 16.5583 29.0219 16.342C28.4433 16.0689 27.8057 15.9449 27.1669 15.981H24.0389V16.051L24.1439 16.12C24.1569 16.128 24.1678 16.139 24.1759 16.152V16.507H27.1629C27.6211 16.4754 28.0799 16.5596 28.4969 16.752C28.6902 16.8467 28.8533 16.9933 28.9681 17.1753C29.0829 17.3574 29.1448 17.5678 29.1469 17.783C29.1512 17.9953 29.0924 18.2041 28.9779 18.383C28.8489 18.5718 28.6732 18.7241 28.4679 18.825C28.0485 19.0042 27.5933 19.084 27.1379 19.058H25.5479V16.704H24.7299L24.7379 19.372L24.7239 19.419C24.716 19.4296 24.7066 19.4391 24.6959 19.447L24.6009 19.509L24.5909 19.516V19.587H27.1419C27.5278 19.5957 27.9136 19.5669 28.2939 19.501C28.6427 19.4332 28.9747 19.2973 29.2709 19.101C29.5269 18.9371 29.7342 18.7075 29.8709 18.436C29.9577 18.2504 30.0017 18.0478 29.9999 17.843C30.0004 17.694 29.9788 17.5457 29.9359 17.403V17.393ZM18.7219 19.511C18.6719 19.502 18.6539 19.488 18.6489 19.475L20.8239 17.175L20.3599 16.675L17.6089 19.601H18.8089V19.522H18.7869C18.7658 19.5223 18.7447 19.5206 18.7239 19.517L18.7219 19.511ZM17.6649 19.171L17.7039 19.129L18.4949 18.268L18.4829 16.208L18.4889 16.168L18.5209 16.138L18.6209 16.078L18.6319 16.072V16.001H17.5159V16.071L17.6259 16.141C17.6619 16.164 17.6739 16.184 17.6739 16.208V17.301H15.3069L14.8069 17.944L14.8819 17.969H14.8919L15.0449 17.877C15.0692 17.8622 15.095 17.8501 15.1219 17.841C15.1454 17.8347 15.1696 17.832 15.1939 17.833H17.6699L17.6649 19.171ZM14.7889 19.427L14.7789 16.208L14.7899 16.168C14.7995 16.1572 14.811 16.1484 14.8239 16.142L14.9239 16.079L14.9339 16.072V16.001H13.8209V16.072L13.9259 16.141C13.9391 16.1491 13.9504 16.16 13.9589 16.173L13.9679 19.38L13.9539 19.431C13.9462 19.4418 13.9368 19.4513 13.9259 19.459L13.8259 19.522L13.8159 19.529V19.599H14.9289V19.529L14.8199 19.459C14.8052 19.4514 14.7925 19.4404 14.7829 19.427H14.7889ZM18.9689 14.204L19.7199 14.971L20.4709 14.204L19.9869 13.71L20.5809 13.073V10.113L20.5389 10.103C20.4706 10.2197 20.3876 10.3273 20.2919 10.423C20.2283 10.4989 20.155 10.5661 20.0739 10.623C20.0479 10.637 20.0219 10.648 20.0239 10.681C20.0239 10.69 20.0239 10.701 20.0239 10.719C20.0409 10.871 20.2169 10.807 20.2239 11.045C20.2239 11.127 20.2299 11.361 20.2299 11.635C20.2299 12.147 20.2249 12.8 20.2239 12.884L19.7189 13.42L19.2099 12.884C19.2099 12.799 19.2029 12.147 19.2039 11.635C19.2039 11.361 19.2039 11.127 19.2099 11.045C19.2199 10.807 19.3959 10.871 19.4099 10.719C19.4099 10.701 19.4099 10.69 19.4099 10.681C19.4099 10.648 19.3859 10.637 19.3599 10.623C19.2793 10.5659 19.2063 10.4987 19.1429 10.423C19.0473 10.3272 18.9643 10.2197 18.8959 10.103L18.8539 10.113V13.119L19.4459 13.711L18.9689 14.204ZM20.0759 14.204L19.7199 14.567L19.3639 14.204L19.7199 13.841L20.0759 14.204ZM21.6399 13.654C21.6399 13.654 21.6309 12.599 21.6309 11.82C21.6309 11.431 21.6309 11.111 21.6399 11.029C21.6519 10.793 21.8729 10.857 21.8929 10.702C21.8929 10.684 21.8929 10.673 21.8929 10.663C21.8929 10.627 21.8659 10.62 21.8309 10.605C21.7324 10.5496 21.6411 10.4825 21.5589 10.405C21.4421 10.3119 21.3376 10.2044 21.2479 10.085L21.2069 10.017V13.677H21.6389L21.6399 13.654ZM11.8289 14.084C11.8747 14.2103 11.9616 14.3176 12.0756 14.3887C12.1897 14.4598 12.3243 14.4905 12.4579 14.476H12.4889C12.632 14.4857 12.7747 14.4512 12.8976 14.3771C13.0205 14.3031 13.1176 14.1931 13.1759 14.062V12.455C13.1759 12.455 13.1759 12.448 13.1759 12.436C13.1759 12.36 13.1599 12.067 12.8929 12.063H10.4869V12.001C10.4969 11.763 10.6639 11.827 10.6799 11.675C10.6799 11.657 10.6799 11.646 10.6799 11.638C10.6819 11.6311 10.6819 11.6238 10.6799 11.617C10.6449 11.591 10.6579 11.617 10.6219 11.592C10.5496 11.5426 10.4855 11.4822 10.4319 11.413C10.3576 11.3206 10.2764 11.234 10.1889 11.154L10.1539 11.127V11.927V12.46H12.5489C12.5759 12.4568 12.6034 12.4597 12.6291 12.4686C12.6548 12.4775 12.6782 12.4922 12.6974 12.5114C12.7167 12.5307 12.7313 12.5541 12.7402 12.5798C12.7492 12.6055 12.7521 12.6329 12.7489 12.66V13.784C12.7498 13.8186 12.7438 13.8532 12.7311 13.8855C12.7185 13.9178 12.6995 13.9472 12.6752 13.972C12.651 13.9968 12.622 14.0165 12.59 14.0299C12.558 14.0433 12.5236 14.0501 12.4889 14.05C12.3819 14.0515 12.2784 14.0126 12.1989 13.941C12.1636 13.9101 12.1335 13.8736 12.1099 13.833V13.2H10.1529V13.659H11.8329L11.8289 14.084ZM16.8069 13.759C16.8053 13.7833 16.8053 13.8077 16.8069 13.832C16.8069 13.947 16.8279 14.17 17.0069 14.244C17.0565 14.2677 17.1109 14.28 17.1659 14.28C17.24 14.2795 17.3124 14.2572 17.3739 14.216L17.3999 14.199L17.3749 14.179C17.2669 14.097 17.2459 13.862 17.2469 13.737C17.2469 13.712 17.2469 13.691 17.2469 13.677H18.3879V13.122V12.465V11.205L18.3469 11.278C18.2617 11.3973 18.1608 11.5046 18.0469 11.597C17.9683 11.6744 17.8803 11.7416 17.7849 11.797C17.7529 11.812 17.7249 11.82 17.7259 11.855C17.7259 11.865 17.7259 11.876 17.7259 11.894C17.7459 12.048 17.9579 11.985 17.9689 12.221C17.9769 12.334 17.9769 13.002 17.9769 13.002V13.246H17.2459C17.2459 13.229 17.2459 13.202 17.2459 13.169C17.2459 13.154 17.2459 13.138 17.2459 13.122C17.2599 13.016 17.251 12.9083 17.2199 12.806C17.1888 12.7038 17.1361 12.6094 17.0654 12.5292C16.9947 12.4491 16.9076 12.385 16.8101 12.3413C16.7126 12.2976 16.6068 12.2753 16.4999 12.276H16.4649C16.2529 12.282 16.0649 12.287 15.9069 12.287C15.4769 12.287 15.2369 12.247 15.1759 12.13L15.1639 12.109L15.1439 12.122C15.1078 12.1493 15.0792 12.1852 15.0605 12.2264C15.0418 12.2676 15.0337 12.3128 15.0369 12.358C15.0369 12.514 15.1209 12.688 15.2699 12.7C15.3699 12.7 15.5199 12.706 15.6699 12.706C15.9349 12.706 16.1999 12.701 16.2009 12.701C16.8159 12.706 16.8009 12.99 16.8009 13.089V13.246H14.1589L14.1659 12.929V10.029L14.1249 10.099C14.0367 10.219 13.9324 10.3264 13.8149 10.418C13.7329 10.4956 13.6415 10.5628 13.5429 10.618C13.5079 10.634 13.4809 10.641 13.4809 10.677C13.4809 10.687 13.4809 10.698 13.4809 10.716C13.5019 10.87 13.7219 10.807 13.7339 11.043C13.7469 11.218 13.7489 12.285 13.7489 12.89C13.7489 13.139 13.7489 13.31 13.7489 13.311V13.673H16.8009L16.8069 13.759ZM18.3469 10.859L18.3309 10.843L18.0169 10.522L17.6869 10.858L18.0169 11.194L18.3469 10.859ZM17.6229 10.859L17.6069 10.843L17.2929 10.522L16.9629 10.859L17.2929 11.195L17.6229 10.859Z" fill="#B58E46"/>
<path d="M8.24791 21.493L8.21591 21.583C8.10991 21.889 8.18191 21.894 8.37491 21.918V21.967H7.8269V21.918C7.9219 21.888 7.96291 21.885 8.00191 21.791L8.39291 20.878L8.37491 20.825C8.44325 20.7974 8.50154 20.7496 8.54192 20.688H8.57591L8.90591 21.551C9.01991 21.84 9.0059 21.861 9.1889 21.918V21.967H8.58891V21.918C8.76091 21.888 8.77091 21.855 8.67491 21.604L8.6329 21.493H8.24791ZM8.59291 21.386L8.43391 20.976L8.28191 21.386H8.59291Z" fill="#B58E46"/>
<path d="M11.0969 21.57C11.0969 21.889 11.1199 21.877 11.3309 21.913V21.962H10.6309V21.913C10.8399 21.877 10.8629 21.889 10.8629 21.57V21.152C10.8629 20.832 10.8399 20.845 10.6309 20.81V20.76H11.3309V20.81C11.1199 20.846 11.0969 20.833 11.0969 21.152V21.57Z" fill="#B58E46"/>
<path d="M13.0449 21.103C13.0449 20.866 13.0339 20.831 12.8129 20.814V20.764H13.3619C13.5779 20.764 13.8699 20.764 13.8699 21.045C13.8662 21.111 13.8423 21.1743 13.8013 21.2262C13.7603 21.2781 13.7043 21.3161 13.6409 21.335C13.6927 21.4718 13.773 21.596 13.8764 21.6994C13.9799 21.8029 14.1041 21.8831 14.2409 21.935L14.2339 21.984C14.0701 21.9998 13.9052 21.9693 13.7579 21.896C13.6597 21.8039 13.5791 21.6948 13.5199 21.574C13.4379 21.415 13.4499 21.425 13.2819 21.401V21.574C13.2819 21.815 13.2719 21.895 13.5549 21.917V21.966H12.8159V21.917C13.0259 21.881 13.0479 21.893 13.0479 21.574L13.0449 21.103ZM13.2779 21.335C13.4419 21.324 13.6059 21.253 13.6059 21.061C13.6059 20.869 13.4359 20.829 13.2779 20.829V21.335Z" fill="#B58E46"/>
<path d="M15.7359 22L15.6649 21.986L15.3729 21.054C15.3349 20.932 15.3189 20.845 15.1729 20.814V20.764H15.7249V20.814C15.5399 20.858 15.5659 20.902 15.6249 21.107L15.7789 21.607L16.0019 20.975C15.9913 20.9309 15.9672 20.8912 15.933 20.8614C15.8987 20.8317 15.8561 20.8134 15.8109 20.809V20.759H16.3759V20.809C16.2279 20.849 16.1969 20.851 16.2689 21.083L16.4349 21.625L16.4959 21.432C16.5542 21.2691 16.5997 21.1019 16.6319 20.932C16.6319 20.837 16.5499 20.837 16.4779 20.812V20.762H16.9549V20.812C16.7979 20.86 16.7779 20.895 16.7009 21.112L16.3859 21.999L16.3139 21.985L16.0419 21.105L15.7359 22Z" fill="#B58E46"/>
<path d="M18.3549 21.493L18.3229 21.583C18.2229 21.889 18.2909 21.894 18.4819 21.918V21.967H17.9339V21.918C18.0339 21.888 18.0689 21.885 18.1109 21.791L18.4989 20.878L18.4809 20.825C18.5493 20.797 18.6077 20.7493 18.6489 20.688H18.6829L19.0119 21.551C19.1259 21.84 19.1119 21.861 19.2949 21.918V21.967H18.6949V21.918C18.8649 21.888 18.8759 21.855 18.7779 21.604L18.7359 21.493H18.3549ZM18.7009 21.386L18.5399 20.976L18.3899 21.386H18.7009Z" fill="#B58E46"/>
<path d="M21.2599 21.57C21.2599 21.811 21.2489 21.891 21.5159 21.913V21.962H20.7719V21.913C21.0039 21.877 21.0279 21.889 21.0279 21.57V21.488L20.8279 21.088C20.7489 20.926 20.7279 20.85 20.5279 20.81V20.76H21.1389V20.81C21.0169 20.841 20.9579 20.827 21.0589 21.043L21.2129 21.367L21.3129 21.172C21.4629 20.866 21.4309 20.85 21.2729 20.81V20.76H21.7869V20.81C21.7247 20.8147 21.6648 20.8357 21.6132 20.8708C21.5616 20.9058 21.5201 20.9539 21.4929 21.01L21.2929 21.383L21.2619 21.45L21.2599 21.57Z" fill="#B58E46"/>
<path d="M24.0829 21.122H24.0309C23.9969 20.976 23.9549 20.815 23.7739 20.815C23.7497 20.8143 23.7257 20.8185 23.7032 20.8276C23.6808 20.8366 23.6605 20.8502 23.6436 20.8675C23.6266 20.8848 23.6135 20.9054 23.605 20.928C23.5964 20.9507 23.5927 20.9748 23.5939 20.999C23.5939 21.286 24.1729 21.266 24.1729 21.636C24.1729 21.891 23.9299 21.997 23.7049 21.997C23.5797 21.9962 23.4566 21.9654 23.3459 21.907L23.2879 21.557L23.3419 21.546C23.3999 21.72 23.5299 21.916 23.7419 21.916C23.7679 21.9175 23.7939 21.9136 23.8184 21.9046C23.8428 21.8956 23.8651 21.8817 23.8839 21.8636C23.9026 21.8456 23.9174 21.8239 23.9274 21.7999C23.9374 21.7758 23.9424 21.75 23.9419 21.724C23.9419 21.424 23.3619 21.45 23.3619 21.101C23.3661 21.0478 23.3807 20.996 23.4052 20.9486C23.4296 20.9013 23.4633 20.8592 23.5042 20.8251C23.545 20.7909 23.5923 20.7652 23.6433 20.7496C23.6943 20.7339 23.7479 20.7286 23.8009 20.734C23.9063 20.7327 24.0101 20.7604 24.1009 20.814L24.0829 21.122Z" fill="#B58E46"/>
</svg>
