<svg width="32" height="32" viewBox="0 0 32 32" fill="none" xmlns="http://www.w3.org/2000/svg">
<path fill-rule="evenodd" clip-rule="evenodd" d="M28.655 6.041H30L22.919 26H21.465C23.708 19.061 25.957 12.82 28.659 6.041H28.655Z" fill="#CC6B2D"/>
<path fill-rule="evenodd" clip-rule="evenodd" d="M15.511 11.335L16.087 13.795L17.336 13.046L17.424 13.109L16.934 14.427L18.987 14.843L18.976 15.103L16.939 15.54L17.639 17.04L17.439 17.171L16.068 16.492L15.51 19.299H15.39L14.816 16.492L13.508 17.201L13.352 17.04L14.039 15.546L11.806 15.099L11.769 14.849L14.023 14.444L13.497 13.156L13.584 13.079L14.884 13.791L15.394 11.331L15.511 11.335Z" fill="#2D9242"/>
<path fill-rule="evenodd" clip-rule="evenodd" d="M8.39998 17.931L16.613 7.78398L17.908 8.35799C18.3511 8.49743 18.7795 8.67996 19.187 8.90297C20.3265 9.53747 21.2757 10.4652 21.936 11.59C22.0954 11.8521 22.2348 12.1259 22.353 12.409C22.484 12.7186 22.5953 13.0362 22.686 13.36C23.1094 14.9294 22.9948 16.5956 22.3604 18.0922C21.7259 19.5889 20.6083 20.8299 19.186 21.617C18.79 21.8336 18.3774 22.0181 17.952 22.169C16.3255 22.7704 14.5375 22.7704 12.911 22.169C12.4855 22.0184 12.0728 21.8338 11.677 21.617C10.5359 20.9836 9.58527 20.0561 8.92398 18.931C8.7283 18.6086 8.55231 18.2746 8.39697 17.931H8.39998ZM10.322 18.199H9.24698C9.3195 18.351 9.4003 18.4988 9.48898 18.642C9.79384 19.1649 10.1705 19.6426 10.608 20.061L10.758 20.199L10.833 20.265H12.263C11.7826 19.6414 11.4079 18.9431 11.154 18.198H10.326L10.322 18.199ZM9.95297 17.952L11.072 17.963C10.8241 17.1783 10.6851 16.3634 10.659 15.541L8.98598 17.613C9.03598 17.734 9.08597 17.843 9.13597 17.963L9.95398 17.952H9.95297ZM11.997 15.345L10.782 15.369C10.8027 16.2402 10.9451 17.1042 11.205 17.936L13.305 17.92C13.1745 17.0675 13.1076 16.2064 13.105 15.344H12.005L11.997 15.345ZM11.765 20.469H11.088C11.3867 20.7165 11.7086 20.9349 12.049 21.121C12.5359 21.4253 13.0644 21.6574 13.618 21.81C13.994 21.926 14.335 22.02 14.718 22.11L13.492 21.471C13.3504 21.4065 13.2162 21.3267 13.092 21.233C12.9569 21.1324 12.831 21.02 12.716 20.897C12.5895 20.7632 12.4731 20.6201 12.368 20.469H11.765ZM12.929 20.21L13.886 20.22C13.7619 19.8988 13.6571 19.5706 13.572 19.237C13.478 18.868 13.405 18.531 13.34 18.156L11.266 18.182C11.4621 18.7019 11.7075 19.2019 11.999 19.675C12.1121 19.8699 12.2377 20.0573 12.375 20.236L12.932 20.21H12.929ZM15.359 20.457H14.091C14.1861 20.7094 14.3005 20.9541 14.433 21.189C14.573 21.414 14.741 21.6203 14.933 21.803C15.0189 21.8839 15.1112 21.9578 15.209 22.024C15.2539 22.0543 15.3022 22.0792 15.353 22.098V20.456L15.359 20.457ZM14.971 21.933C14.8377 21.8104 14.7152 21.6766 14.605 21.533C14.4826 21.3744 14.3716 21.2073 14.273 21.033C14.1642 20.8444 14.067 20.6494 13.982 20.449L12.502 20.471C12.6665 20.67 12.8485 20.8537 13.046 21.02C13.2238 21.1726 13.418 21.3051 13.625 21.415L14.888 22.085C14.9952 22.1211 15.1101 22.1283 15.221 22.106C15.1294 22.0597 15.0443 22.0015 14.968 21.933H14.971ZM15.494 10.057H16.763C16.6684 9.80552 16.5551 9.56149 16.424 9.32698C16.3558 9.20021 16.2776 9.07915 16.19 8.96498C16.1553 8.91823 16.115 8.8759 16.07 8.83897L15.494 9.55699V10.057ZM15.505 22.081C15.6185 22.0205 15.7254 21.9485 15.824 21.866C15.9324 21.7748 16.0328 21.6745 16.124 21.566C16.3928 21.2441 16.6052 20.8789 16.752 20.486H15.495L15.506 22.078L15.505 22.081ZM15.646 22.098C15.7484 22.1208 15.8549 22.1181 15.956 22.09C16.008 22.0758 16.0582 22.056 16.106 22.031L17.256 21.411C17.5321 21.2694 17.7856 21.0874 18.008 20.871C18.1336 20.7534 18.2515 20.6278 18.361 20.495L16.861 20.489C16.7634 20.7232 16.6491 20.9502 16.519 21.168C16.4026 21.3652 16.2687 21.5517 16.119 21.725C16.0292 21.832 15.9252 21.9262 15.81 22.005C15.7579 22.0404 15.7031 22.0715 15.646 22.098ZM16.246 8.91798C16.4925 9.27732 16.7029 9.66019 16.874 10.061L18.353 10.039C18.1889 9.83966 18.0068 9.65587 17.809 9.48997C17.6311 9.33734 17.437 9.20487 17.23 9.09499L16.267 8.58598L16.117 8.77098C16.1669 8.81469 16.2112 8.86441 16.249 8.91899L16.246 8.91798ZM16.683 21.966C17.4362 21.81 18.1585 21.5309 18.821 21.14C19.185 20.9386 19.5297 20.7043 19.851 20.44L18.501 20.491C18.2954 20.7738 18.0514 21.0266 17.776 21.242C17.6532 21.3376 17.522 21.4219 17.384 21.494L16.301 22.054C16.4312 22.0371 16.5596 22.009 16.685 21.97L16.683 21.966ZM17.924 10.303L16.966 10.296C17.0903 10.617 17.1952 10.9453 17.28 11.279C17.375 11.648 17.447 11.985 17.513 12.36L19.587 12.334C19.3909 11.814 19.1454 11.3141 18.854 10.841C18.7409 10.6461 18.6153 10.4587 18.478 10.28L17.921 10.306L17.924 10.303ZM18.63 18.174L17.501 18.189C17.3965 18.8961 17.2138 19.5893 16.956 20.256H17.656L18.484 20.226C18.9702 19.6146 19.3428 18.921 19.584 18.178L18.63 18.174ZM18.512 17.953L19.665 17.929C19.9199 17.1008 20.0546 16.2404 20.065 15.374H17.743C17.7407 16.2364 17.6739 17.0975 17.543 17.95L18.512 17.953ZM19.088 10.043H19.765C19.4659 9.79588 19.1441 9.57757 18.804 9.39098C18.3178 9.08645 17.7904 8.85342 17.238 8.69899C16.938 8.60599 16.66 8.52998 16.353 8.45598L16.321 8.49998L17.365 9.04097C17.5064 9.10581 17.6405 9.18561 17.765 9.27898C17.8999 9.37938 18.0257 9.49147 18.141 9.61397C18.2679 9.74804 18.3845 9.89146 18.49 10.043H19.088ZM19.232 20.243H20.047L20.197 20.108L20.272 20.039C20.7036 19.6192 21.0782 19.1445 21.386 18.627C21.476 18.479 21.552 18.341 21.628 18.184H19.728C19.4815 18.9323 19.1061 19.6318 18.619 20.251L19.232 20.243ZM20.9 12.558L19.78 12.547C20.0443 13.3813 20.1844 14.2499 20.196 15.125H22.303C22.2851 14.2348 22.085 13.3578 21.715 12.548L20.898 12.559L20.9 12.558ZM20.533 12.311H21.609C21.5364 12.1589 21.4553 12.011 21.366 11.868C21.0616 11.345 20.6853 10.8673 20.248 10.449L20.097 10.311L20.022 10.245H18.592C19.0724 10.8686 19.447 11.5669 19.701 12.312H20.529L20.533 12.311ZM20.647 17.943H21.739C21.8791 17.626 21.9967 17.2995 22.091 16.966C22.2355 16.4444 22.3151 15.907 22.328 15.366H20.221C20.2113 16.241 20.0707 17.1096 19.804 17.943H20.647ZM17.737 14.534L17.546 14.495C17.5166 13.8583 17.4498 13.2239 17.346 12.595H15.788L15.732 12.346L17.332 12.355L17.247 11.855C17.1587 11.3696 17.0374 10.8908 16.884 10.422L16.847 10.312L16.839 10.291H15.485V11.329L15.475 11.285H15.368V10.261H14.917L13.607 11.873C13.579 12.027 13.556 12.173 13.532 12.323H15.151L15.096 12.581H13.496C13.4061 13.2205 13.3507 13.8645 13.33 14.51L13.137 14.545C13.1616 13.8789 13.2247 13.2148 13.326 12.556H13.114L11.023 15.14L12.237 15.133L13.305 15.348C13.305 15.877 13.333 16.359 13.384 16.886L13.338 16.986L13.401 17.052C13.433 17.352 13.469 17.618 13.517 17.913H15.105L15.155 18.162L13.53 18.153L13.614 18.653C13.7021 19.1384 13.8234 19.6172 13.977 20.086L14.014 20.196L14.022 20.217H15.368V19.243H15.489L15.5 19.191V20.261H16.842C17.0648 19.5878 17.2272 18.896 17.327 18.194H15.693L15.746 17.936H17.368C17.409 17.644 17.443 17.379 17.468 17.087L17.611 16.993L17.496 16.741C17.529 16.28 17.543 15.86 17.542 15.398H17.323L18.376 15.173H18.857L20.073 15.149C20.0514 14.2781 19.9087 13.4145 19.649 12.583L17.549 12.599C17.6485 13.2428 17.7106 13.8919 17.735 14.543L17.737 14.534Z" fill="#CC6B2D"/>
<path fill-rule="evenodd" clip-rule="evenodd" d="M18.582 6H27.829L20.9 25.64C20.8606 25.7473 20.7886 25.8396 20.6941 25.904C20.5996 25.9684 20.4873 26.0016 20.373 25.999H2L17.7 6.418C17.8048 6.28561 17.9387 6.17913 18.0913 6.10681C18.2439 6.0345 18.4112 5.99827 18.58 6.00098L18.582 6ZM8.55399 18.1L16.767 7.95499L17.954 8.34799C18.3971 8.48738 18.8255 8.6699 19.233 8.89297C20.3723 9.52731 21.3214 10.4547 21.982 11.579C22.1416 11.8415 22.2813 12.1156 22.4 12.399C22.5307 12.7087 22.642 13.0263 22.733 13.35C23.1564 14.9195 23.0418 16.5856 22.4074 18.0822C21.773 19.5789 20.6553 20.8199 19.233 21.607C18.8373 21.8244 18.425 22.0099 18 22.162C16.3733 22.7626 14.5857 22.7626 12.959 22.162C12.5336 22.0111 12.121 21.8265 11.725 21.61C10.5854 20.9755 9.63632 20.0478 8.976 18.923C8.81642 18.6608 8.67669 18.387 8.558 18.104L8.55399 18.1Z" fill="#2D9242"/>
</svg>
