<svg width="32" height="32" viewBox="0 0 32 32" fill="none" xmlns="http://www.w3.org/2000/svg">
<path d="M23.558 11.613C22.6339 10.629 21.5231 9.8388 20.2905 9.28841C19.0578 8.73802 17.728 8.43846 16.3784 8.40718C15.0289 8.37591 13.6866 8.61355 12.4298 9.10626C11.173 9.59896 10.0268 10.3369 9.05803 11.277V2H5.00103V19.215C4.98245 20.8651 5.35243 22.4964 6.08103 23.977L8.31903 24.325C8.3913 24.3372 8.46556 24.3248 8.53003 24.29C9.28903 23.707 11.269 22.4 12.02 21.817V21.77C11.813 21.707 10.49 20.87 8.18203 19.512C7.71203 19.234 7.63804 19.219 8.07604 18.812C8.32604 18.581 8.58903 18.362 8.83103 18.123C9.07888 17.8744 9.41498 17.7338 9.76603 17.732C10.987 17.689 14.203 18.871 15.502 18.832C15.6881 18.8187 15.8657 18.7489 16.011 18.632C16.973 18.061 18.961 16.914 20.017 16.402C20.893 15.976 23.053 14.81 23.93 16.011C24.173 16.355 24.791 17.224 22.322 18.985C21.344 19.826 10.389 26.122 8.55004 27.201C10.6026 29.0614 13.2898 30.0649 16.0594 30.0052C18.829 29.9455 21.4706 28.8272 23.441 26.88C24.4652 25.8941 25.2766 24.7087 25.8251 23.3972C26.3735 22.0856 26.6475 20.6755 26.63 19.254C26.647 17.8407 26.3843 16.4381 25.8571 15.1267C25.3298 13.8154 24.5485 12.6212 23.558 11.613Z" fill="#FEBE10"/>
</svg>
