<svg width="32" height="32" viewBox="0 0 32 32" fill="none" xmlns="http://www.w3.org/2000/svg">
<path fill-rule="evenodd" clip-rule="evenodd" d="M12.962 17.342C11.4636 16.5399 9.7907 16.1188 8.09103 16.116H5.11905L4.96204 15.836H8.44705C10.0701 15.8015 11.6923 15.9399 13.286 16.249C14.6813 16.6393 15.9977 17.2701 17.1761 18.113C17.4621 18.3 21.3451 21.063 21.3451 21.063C21.0001 21.421 20.5467 21.6552 20.0551 21.729C19.6038 21.6862 19.1714 21.527 18.8 21.267C18.8 21.267 16.7191 19.776 16.4001 19.556C15.3002 18.7452 14.1495 18.0056 12.955 17.342H12.962Z" fill="#007084"/>
<path fill-rule="evenodd" clip-rule="evenodd" d="M12.803 19.521C14.272 20.493 15.138 21.196 15.417 21.402C15.696 21.608 17.005 22.533 17.005 22.533C17.1832 22.6972 17.393 22.8233 17.6215 22.9036C17.8501 22.9839 18.0927 23.0167 18.3344 23C18.576 22.9834 18.8118 22.9176 19.0272 22.8067C19.2425 22.6958 19.4331 22.5421 19.587 22.355L16.187 19.969C15.2433 19.2785 14.1735 18.7794 13.038 18.5C11.7499 18.2257 10.436 18.0916 9.11902 18.1H6.28101L6.44601 18.387H8.746C10.1718 18.416 11.5674 18.8036 12.804 19.514L12.803 19.521Z" fill="#007084"/>
<path fill-rule="evenodd" clip-rule="evenodd" d="M13.281 15.056C14.7091 15.8496 16.0828 16.7372 17.393 17.713C17.743 17.967 20.584 19.988 20.584 19.988C20.9651 20.2413 21.4033 20.3956 21.859 20.437C22.3383 20.356 22.7804 20.1277 23.124 19.784C23.124 19.784 18.586 16.534 18.179 16.247C16.7985 15.1819 15.2089 14.4196 13.514 14.01C11.629 13.6627 9.71328 13.5099 7.79703 13.554H3.64502L3.81104 13.839H7.43704C9.45255 13.8009 11.4508 14.2165 13.284 15.055L13.281 15.056Z" fill="#007084"/>
<path fill-rule="evenodd" clip-rule="evenodd" d="M29.728 15.012C29.167 14.912 28.435 14.87 28.435 14.87L27.429 15.154L26.855 14.677C26.855 14.677 28.055 14.777 28.388 14.82C28.672 14.82 28.577 14.677 28.435 14.389C28.3864 14.3043 28.3168 14.2337 28.2329 14.1839C28.1489 14.1341 28.0535 14.107 27.956 14.105H24.937C24.5471 14.0986 24.159 14.0513 23.779 13.964C23.601 13.9263 23.4324 13.8531 23.2833 13.7488C23.1341 13.6445 23.0075 13.5113 22.911 13.357C22.669 13.908 23.628 14.548 23.628 14.548L26.613 16.681C26.7185 16.7504 26.8403 16.7912 26.9663 16.7994C27.0923 16.8076 27.2183 16.783 27.332 16.728C27.7173 16.5343 28.1188 16.3747 28.532 16.251C29.1003 16.1522 29.678 16.1186 30.254 16.151C30.5199 16.2217 30.7659 16.3528 30.973 16.534C31.162 15.197 30.299 15.109 29.728 15.008V15.012Z" fill="#001F52"/>
<path fill-rule="evenodd" clip-rule="evenodd" d="M13.873 10.598C15.7996 11.5793 17.636 12.7284 19.361 14.032C19.798 14.348 24.083 17.4 24.083 17.4C24.4654 17.6693 24.9114 17.8344 25.377 17.879C25.8485 17.8132 26.2848 17.593 26.618 17.253C26.618 17.253 20.558 12.922 20.118 12.613C18.2845 11.206 16.1797 10.1935 13.936 9.63902C11.5586 9.17667 9.13965 8.96254 6.71802 9.00004H0.994995L1.16299 9.29002H6.189C8.80745 9.24838 11.411 9.69187 13.868 10.598H13.873Z" fill="#001F52"/>
<path fill-rule="evenodd" clip-rule="evenodd" d="M13.553 12.82C11.4615 11.9201 9.19774 11.491 6.922 11.563H2.48801L2.32001 11.276H7.14499C9.35117 11.2364 11.5561 11.4068 13.73 11.785C15.6904 12.3076 17.5337 13.1977 19.162 14.408C19.402 14.572 24.9 18.497 24.9 18.497C24.5519 18.8519 24.0935 19.0779 23.6 19.138C23.1351 19.0938 22.6897 18.929 22.308 18.66C22.308 18.66 18.729 16.11 18.382 15.86C16.8472 14.7306 15.2331 13.7133 13.552 12.816L13.553 12.82Z" fill="#001F52"/>
</svg>
