<svg width="32" height="32" viewBox="0 0 32 32" fill="none" xmlns="http://www.w3.org/2000/svg">
<path d="M16 31C24.2843 31 31 24.2843 31 16C31 7.71573 24.2843 1 16 1C7.71573 1 1 7.71573 1 16C1 24.2843 7.71573 31 16 31Z" fill="white"/>
<path d="M16 30.25C23.8701 30.25 30.25 23.8701 30.25 16C30.25 8.12994 23.8701 1.75 16 1.75C8.12994 1.75 1.75 8.12994 1.75 16C1.75 23.8701 8.12994 30.25 16 30.25Z" stroke="#3493DA" stroke-width="1.5"/>
<path d="M10.5311 12.639L14.0641 14.101C14.1201 14.1247 14.1802 14.1369 14.2411 14.1369C14.3019 14.1369 14.3621 14.1247 14.4181 14.101L18.1791 12.464C18.2202 12.4468 18.2553 12.4178 18.28 12.3807C18.3047 12.3436 18.3179 12.3001 18.3179 12.2555C18.3179 12.2109 18.3047 12.1674 18.28 12.1303C18.2553 12.0932 18.2202 12.0642 18.1791 12.047L13.3891 10.068C13.1668 9.97653 12.9174 9.97653 12.6951 10.068L10.5321 10.968C10.3668 11.0367 10.2257 11.1528 10.1264 11.3017C10.0271 11.4506 9.97406 11.6255 9.97406 11.8045C9.97406 11.9834 10.0271 12.1584 10.1264 12.3073C10.2257 12.4561 10.3668 12.5722 10.5321 12.641L10.5311 12.639Z" fill="url(#paint0_linear)"/>
<path d="M25.043 12.244C24.8332 11.7475 24.4357 11.354 23.9371 11.1493C23.4385 10.9446 22.8792 10.9452 22.381 11.151H22.374L11.585 15.811C11.5302 15.8344 11.471 15.8457 11.4114 15.844C11.3519 15.8422 11.2934 15.8276 11.24 15.801L9.30404 14.84C9.19777 14.7883 9.0817 14.7599 8.96358 14.7566C8.84546 14.7533 8.728 14.7753 8.61903 14.821L6.49503 15.721C6.37265 15.7721 6.26477 15.8526 6.18096 15.9554C6.09715 16.0582 6.04 16.1801 6.01458 16.3103C5.98916 16.4404 5.99625 16.5749 6.03523 16.7016C6.07421 16.8284 6.14387 16.9436 6.23803 17.037L9.29004 20.065C9.40333 20.177 9.54679 20.2535 9.70289 20.2853C9.85899 20.3171 10.021 20.3028 10.169 20.244L14.747 18.426C14.7835 18.4107 14.8236 18.4065 14.8624 18.414C14.9012 18.4214 14.9369 18.4402 14.965 18.468C14.9934 18.4953 15.0131 18.5303 15.0216 18.5687C15.0302 18.6072 15.0272 18.6473 15.013 18.684L13.419 22.904C13.361 23.0562 13.3507 23.2224 13.3897 23.3806C13.4286 23.5387 13.5149 23.6812 13.637 23.789C13.759 23.8978 13.9108 23.9676 14.0727 23.9895C14.2347 24.0114 14.3995 23.9844 14.546 23.912L16.755 22.812C16.9136 22.7346 17.0424 22.6075 17.122 22.45L20.18 16.387C20.226 16.2946 20.3054 16.2231 20.402 16.187L23.943 14.878C24.1892 14.7774 24.413 14.6292 24.6017 14.4419C24.7903 14.2545 24.9401 14.0317 25.0423 13.7863C25.1445 13.5408 25.1972 13.2776 25.1973 13.0117C25.1975 12.7458 25.145 12.4825 25.043 12.237V12.244Z" fill="url(#paint1_linear)"/>
<defs>
<linearGradient id="paint0_linear" x1="11.5093" y1="9.99939" x2="14.3271" y2="20.9605" gradientUnits="userSpaceOnUse">
<stop stop-color="#3493DA"/>
<stop offset="1" stop-color="#2374BB"/>
</linearGradient>
<linearGradient id="paint1_linear" x1="9.53201" y1="10.9962" x2="21.008" y2="43.6846" gradientUnits="userSpaceOnUse">
<stop stop-color="#3493DA"/>
<stop offset="1" stop-color="#2374BB"/>
</linearGradient>
</defs>
</svg>
