<svg width="32" height="32" viewBox="0 0 32 32" fill="none" xmlns="http://www.w3.org/2000/svg">
<path fill-rule="evenodd" clip-rule="evenodd" d="M12.775 6.00001C14.8391 6.05409 16.8415 6.71555 18.5317 7.90169C20.2218 9.08782 21.5248 10.746 22.2775 12.6687C23.0302 14.5915 23.1993 16.6935 22.7636 18.7118C22.328 20.7302 21.3069 22.5753 19.828 24.0164C18.3492 25.4574 16.4784 26.4305 14.4494 26.8139C12.4205 27.1972 10.3235 26.9738 8.42088 26.1717C6.51823 25.3695 4.89431 24.0242 3.75226 22.3039C2.61021 20.5837 2.00071 18.5649 2 16.5C2.03689 13.6789 3.19274 10.9879 5.21335 9.01891C7.23396 7.04986 9.95389 5.96398 12.775 6.00001ZM12.775 10.254C14.0034 10.2859 15.1952 10.6793 16.2012 11.385C17.2072 12.0907 17.9827 13.0773 18.4308 14.2216C18.8789 15.3658 18.9796 16.6168 18.7204 17.8179C18.4612 19.0191 17.8535 20.1172 16.9734 20.9748C16.0933 21.8324 14.9798 22.4114 13.7724 22.6394C12.5649 22.8674 11.3169 22.7343 10.1847 22.2567C9.05246 21.7791 8.08622 20.9783 7.40681 19.9543C6.72741 18.9304 6.36503 17.7288 6.36501 16.5C6.38688 14.8218 7.07447 13.2209 8.27655 12.0496C9.47863 10.8782 11.0968 10.2324 12.775 10.254Z" fill="#FF5A00"/>
<path fill-rule="evenodd" clip-rule="evenodd" d="M19.224 6C21.2881 6.05408 23.2905 6.71554 24.9807 7.90168C26.6708 9.08781 27.9738 10.746 28.7265 12.6687C29.4792 14.5915 29.6483 16.6935 29.2126 18.7118C28.777 20.7302 27.7559 22.5753 26.2771 24.0164C24.7982 25.4574 22.9274 26.4305 20.8984 26.8138C18.8695 27.1972 16.7725 26.9738 14.8699 26.1717C12.9672 25.3695 11.3433 24.0242 10.2013 22.3039C9.05921 20.5836 8.44972 18.5648 8.44901 16.5C8.44759 14.4655 9.05117 12.4766 10.183 10.786C11.1114 10.3878 12.1191 10.209 13.1278 10.2636C14.1366 10.3183 15.1191 10.6048 15.999 11.101C15.0373 11.6381 14.2355 12.4212 13.6759 13.3701C13.1162 14.3189 12.8188 15.3994 12.814 16.501C12.8558 18.1733 13.5495 19.7631 14.747 20.9311C15.9446 22.0991 17.5512 22.7528 19.224 22.7528C20.8969 22.7528 22.5035 22.0991 23.701 20.9311C24.8986 19.7631 25.5922 18.1733 25.634 16.501C25.6263 15.2795 25.2605 14.0871 24.5818 13.0715C23.9032 12.0558 22.9416 11.2616 21.816 10.787C20.4322 8.72324 18.3775 7.20128 16 6.47898C17.045 6.16052 18.1316 5.99912 19.224 6Z" fill="#BABBBB"/>
</svg>
