<svg width="32" height="32" viewBox="0 0 32 32" fill="none" xmlns="http://www.w3.org/2000/svg">
<path d="M16 2C13.2311 2 10.5243 2.82109 8.22202 4.35943C5.91974 5.89777 4.12532 8.08427 3.06569 10.6424C2.00607 13.2006 1.72882 16.0155 2.26901 18.7313C2.80921 21.447 4.14258 23.9416 6.10051 25.8995C8.05845 27.8574 10.553 29.1908 13.2687 29.731C15.9845 30.2712 18.7994 29.9939 21.3576 28.9343C23.9157 27.8747 26.1022 26.0803 27.6406 23.778C29.1789 21.4757 30 18.7689 30 16C30.0013 14.1611 29.6401 12.34 28.937 10.6409C28.2339 8.94173 27.2027 7.39786 25.9024 6.09758C24.6022 4.79729 23.0583 3.76611 21.3591 3.06301C19.66 2.35991 17.8389 1.99869 16 2ZM24.16 10.72L14.6 16.08L16.64 17.26L24.08 12.98V17.8L19.2 20.54L24.06 21.42V26.42L2.86001 14.52L5.82001 12.82L10 13.58L24.14 5.58V10.72H24.16Z" fill="#235183"/>
</svg>
