<svg width="32" height="32" viewBox="0 0 32 32" fill="none" xmlns="http://www.w3.org/2000/svg">
<path d="M16.014 10.143C17.5135 10.143 18.729 8.88986 18.729 7.34401C18.729 5.79817 17.5135 4.54501 16.014 4.54501C14.5146 4.54501 13.299 5.79817 13.299 7.34401C13.299 8.88986 14.5146 10.143 16.014 10.143Z" fill="#DC001C"/>
<path d="M23.984 8.801C23.984 6.437 21.877 4.535 18.691 3.853C21.215 4.526 23.046 6.369 23.091 8.245C23.154 10.604 19.803 12.945 16.009 12.911C12.345 12.876 8.91604 10.899 8.88704 8.239C8.86704 6.339 10.631 4.533 13.301 3.858C10.12 4.544 8.00104 6.437 8.00104 8.794C8.00104 11.533 11.312 13.657 15.035 13.98C15.4012 14.0153 15.7419 14.1831 15.993 14.452C16.2427 14.175 16.5909 14.0067 16.963 13.983C20.706 13.671 23.984 11.548 23.984 8.801Z" fill="#DC001C"/>
<path d="M26.229 10.05C26.229 6.96699 23.471 4.17499 17.948 3.40799C21.448 3.85299 25.205 6.17399 25.028 9.45399C24.871 12.371 21.936 14.243 18.034 15.008C17.2878 15.0861 16.5813 15.3829 16.003 15.861C15.2446 15.2766 14.3325 14.9253 13.378 14.85C10.673 14.336 6.93002 12.506 6.93002 9.23099C6.93002 6.57899 10.383 3.95199 14.044 3.40899C9.18102 3.85399 5.74402 6.86599 5.74402 9.93999C5.74402 11.853 6.76902 13.303 8.63302 14.554C10.749 15.975 13.925 16.625 14.508 16.9C15.1086 17.1134 15.6277 17.5088 15.993 18.031C16.364 17.4593 16.9343 17.0459 17.593 16.871C22.334 15.622 26.229 13.632 26.229 10.05Z" fill="#DC001C"/>
<path d="M17.474 3C23.146 3.6 27.287 6.627 27.287 10.5C27.287 13.209 25.324 15.654 20.253 17.538C18.308 18.163 16.573 19.093 15.989 20.451C15.405 19.093 13.698 18.164 11.754 17.538C6.68303 15.654 4.72003 13.209 4.72003 10.5C4.72003 6.628 8.86103 3.6 14.533 3C7.89103 3.457 2.00403 7.09 2.00403 12.031C2.00403 15.739 4.73803 18.217 8.66703 19.845C12.867 21.584 14.847 23.166 15.99 27.233C17.134 23.166 19.145 21.584 23.342 19.845C27.271 18.217 30.005 15.739 30.005 12.031C30 7.09 24.113 3.457 17.474 3Z" fill="#DC001C"/>
<path d="M15.8 27.983C13.531 24.502 8.97803 22.2 7.00003 24.458C6.82154 24.6602 6.71144 24.9136 6.68541 25.1821C6.65939 25.4505 6.71876 25.7204 6.85508 25.9531C6.9914 26.1858 7.1977 26.3696 7.44459 26.4783C7.69147 26.5869 7.96634 26.6148 8.23003 26.558C8.43398 26.4695 8.61017 26.3274 8.73991 26.1468C8.86966 25.9663 8.94812 25.754 8.96699 25.5324C8.98585 25.3109 8.94441 25.0884 8.84706 24.8885C8.74971 24.6886 8.60007 24.5188 8.41403 24.397C11.122 25.656 9.77403 29.415 6.53203 28.966C5.98566 28.9014 5.46114 28.7133 4.99813 28.4162C4.53513 28.119 4.14575 27.7204 3.85945 27.2506C3.57315 26.7808 3.39742 26.252 3.34554 25.7043C3.29367 25.1566 3.36701 24.6042 3.56003 24.089C5.26603 19.317 13.584 20.568 15.8 27.983Z" fill="#DC001C"/>
<path d="M16.258 27.983C18.527 24.502 23.08 22.2 25.058 24.458C25.2365 24.6602 25.3466 24.9136 25.3727 25.1821C25.3987 25.4505 25.3393 25.7204 25.203 25.9531C25.0667 26.1858 24.8604 26.3696 24.6135 26.4783C24.3666 26.5869 24.0917 26.6148 23.828 26.558C23.6241 26.4695 23.4479 26.3274 23.3181 26.1468C23.1884 25.9663 23.1099 25.754 23.0911 25.5324C23.0722 25.3109 23.1136 25.0884 23.211 24.8885C23.3084 24.6886 23.458 24.5188 23.644 24.397C20.936 25.656 22.284 29.415 25.526 28.966C26.0724 28.9014 26.5969 28.7133 27.0599 28.4162C27.5229 28.119 27.9123 27.7204 28.1986 27.2506C28.4849 26.7808 28.6607 26.252 28.7125 25.7043C28.7644 25.1566 28.6911 24.6042 28.498 24.089C26.792 19.317 18.474 20.568 16.258 27.983Z" fill="#DC001C"/>
</svg>
