<svg width="32" height="32" viewBox="0 0 32 32" fill="none" xmlns="http://www.w3.org/2000/svg">
<path fill-rule="evenodd" clip-rule="evenodd" d="M2 12.101C2.71916 11.6452 3.52915 11.3519 4.37341 11.2415C5.21766 11.1311 6.07584 11.2064 6.888 11.462C7.40749 11.6323 7.87987 11.9218 8.2673 12.3075C8.65472 12.6932 8.94642 13.1643 9.119 13.683C9.319 14.208 9.454 14.758 9.608 15.3C9.80756 16.0273 10.1741 16.6979 10.6784 17.2587C11.1827 17.8194 11.8109 18.2547 12.513 18.53C12.932 18.711 13.356 18.88 13.782 19.045C14.6661 19.3204 15.4377 19.8738 15.982 20.623C16.6779 19.7367 17.6477 19.1059 18.74 18.829C19.5122 18.5645 20.2334 18.1694 20.872 17.661C21.6639 16.9593 22.2135 16.0251 22.442 14.992C22.5767 14.438 22.758 13.8964 22.984 13.373C23.2204 12.8329 23.5885 12.3607 24.0546 11.9996C24.5207 11.6385 25.0699 11.4 25.652 11.306C27.1504 11.0249 28.6998 11.31 30 12.106C29.905 12.132 29.85 12.151 29.794 12.162C29.4131 12.22 29.0542 12.3773 28.7534 12.6182C28.4527 12.859 28.2208 13.1749 28.081 13.534C27.8874 14.0626 27.7205 14.6006 27.581 15.146C27.3436 16.1203 26.9056 17.0345 26.295 17.83C25.5357 18.6976 24.5096 19.2882 23.378 19.509C22.343 19.7332 21.2816 19.811 20.225 19.74C19.0855 19.6301 17.9396 19.8701 16.94 20.428C16.5975 20.6606 16.2683 20.9124 15.954 21.182C15.4943 20.7026 14.9384 20.3259 14.3228 20.0767C13.7071 19.8275 13.0457 19.7114 12.382 19.736C11.597 19.712 10.809 19.762 10.025 19.72C8.86905 19.6882 7.74051 19.3607 6.747 18.769C5.72446 18.1018 4.97482 17.0904 4.634 15.918C4.459 15.398 4.304 14.87 4.171 14.338C4.09857 13.7809 3.84808 13.2622 3.45686 12.8591C3.06564 12.456 2.55463 12.1901 2 12.101Z" fill="#FE0000"/>
<path fill-rule="evenodd" clip-rule="evenodd" d="M4.26801 28.15C4.68401 28.035 5.1 27.935 5.506 27.803C6.03346 27.6252 6.47768 27.2606 6.755 26.778C7.132 26.1128 7.42682 25.4043 7.633 24.668C7.8858 23.7813 8.27223 22.9383 8.779 22.168C9.38131 21.3016 10.2769 20.6825 11.3002 20.4251C12.3236 20.1678 13.4055 20.2896 14.346 20.768C14.9972 21.0647 15.5598 21.5263 15.978 22.107C16.0068 22.0844 16.0339 22.0597 16.059 22.033C16.4656 21.503 16.9885 21.0736 17.5874 20.7776C18.1862 20.4816 18.845 20.3271 19.513 20.326C20.4261 20.2837 21.329 20.5335 22.0905 21.0392C22.8521 21.5448 23.4327 22.28 23.748 23.138C24.104 23.897 24.319 24.721 24.633 25.502C24.8288 25.9991 25.0649 26.4794 25.339 26.938C25.5491 27.2333 25.8184 27.4817 26.1296 27.6675C26.4409 27.8532 26.7873 27.9723 27.147 28.017C27.334 28.06 27.525 28.088 27.74 28.127C27.7019 28.1603 27.6603 28.1895 27.616 28.214C26.6134 28.6594 25.5281 28.888 24.4311 28.8849C23.334 28.8818 22.25 28.647 21.25 28.196C19.9156 27.5655 18.8613 26.4639 18.29 25.103C18.11 24.703 17.981 24.289 17.806 23.891C17.6813 23.5653 17.5193 23.2552 17.323 22.967C17.1599 22.7643 16.9529 22.6013 16.7175 22.4905C16.4821 22.3796 16.2246 22.3237 15.9645 22.3271C15.7043 22.3305 15.4484 22.393 15.216 22.5099C14.9835 22.6269 14.7808 22.7951 14.623 23.002C14.4239 23.2895 14.2664 23.6036 14.155 23.935C13.829 24.9894 13.2937 25.9673 12.581 26.81C11.5002 27.9976 10.0021 28.7214 8.40001 28.83C7.09278 28.9568 5.77407 28.7735 4.551 28.295C4.465 28.261 4.381 28.221 4.297 28.182C4.28534 28.1733 4.27548 28.1625 4.26801 28.15ZM19.52 21.95C19.4803 21.9571 19.4412 21.9671 19.403 21.98C19.2947 22.0397 19.2017 22.1237 19.1313 22.2253C19.0609 22.327 19.015 22.4436 18.9973 22.566C18.9796 22.6884 18.9905 22.8132 19.0291 22.9306C19.0677 23.0481 19.1331 23.155 19.22 23.243C19.4388 23.4741 19.7399 23.6095 20.058 23.62C20.3122 23.6335 20.565 23.5749 20.7873 23.4511C21.0097 23.3273 21.1926 23.1432 21.315 22.92C21.4253 22.6935 21.4633 22.4385 21.4237 22.1897C21.3842 21.9408 21.2691 21.7102 21.094 21.529C20.8408 21.2527 20.507 21.063 20.14 20.987C19.4944 20.8501 18.825 20.8747 18.1912 21.0588C17.5574 21.2428 16.9789 21.5806 16.507 22.042C16.4632 22.096 16.4243 22.1539 16.391 22.215C16.481 22.168 16.513 22.153 16.543 22.135C17.3896 21.6001 18.3949 21.3741 19.389 21.495C19.5469 21.4991 19.7021 21.537 19.8442 21.606C19.9863 21.675 20.1121 21.7735 20.213 21.895C20.2877 21.9872 20.3253 22.104 20.3185 22.2225C20.3117 22.3409 20.261 22.4526 20.1763 22.5357C20.0916 22.6188 19.9789 22.6673 19.8603 22.6718C19.7418 22.6763 19.6258 22.6365 19.535 22.56C19.355 22.407 19.343 22.214 19.515 21.948L19.52 21.95ZM15.603 22.193C15.576 22.16 15.552 22.125 15.523 22.093C15.468 22.036 15.413 21.98 15.354 21.928C14.6063 21.2713 13.649 20.9026 12.654 20.888C12.144 20.8576 11.6371 20.987 11.204 21.258C10.9604 21.3884 10.7667 21.5957 10.653 21.8475C10.5392 22.0994 10.5119 22.3817 10.5752 22.6507C10.6385 22.9197 10.7888 23.1603 11.0029 23.335C11.217 23.5097 11.4828 23.6089 11.759 23.617C12.038 23.6569 12.3215 23.5867 12.5497 23.4214C12.7779 23.2561 12.9329 23.0085 12.982 22.731C13.0091 22.5721 12.9774 22.4088 12.893 22.2716C12.8085 22.1343 12.677 22.0325 12.523 21.985C12.5527 22.1007 12.5678 22.2196 12.568 22.339C12.5566 22.4216 12.5164 22.4975 12.4546 22.5534C12.3928 22.6094 12.3133 22.6418 12.23 22.645C12.1391 22.6693 12.0428 22.6639 11.9551 22.6295C11.8675 22.5951 11.7932 22.5336 11.743 22.454C11.6888 22.3731 11.6606 22.2775 11.6622 22.1801C11.6638 22.0827 11.6951 21.9881 11.752 21.909C11.8946 21.7096 12.1103 21.5748 12.352 21.534C12.9 21.4233 13.4654 21.4315 14.01 21.558C14.5715 21.677 15.1086 21.8911 15.598 22.191L15.603 22.193Z" fill="#FE0000"/>
<path fill-rule="evenodd" clip-rule="evenodd" d="M15.976 3C16.176 3.84 16.363 4.645 16.57 5.445C16.9833 6.91689 17.5864 8.32874 18.364 9.645C18.8097 10.3775 19.1593 11.1643 19.404 11.986C19.6819 12.9052 19.6245 13.8932 19.242 14.774C18.8501 15.5814 18.1571 16.2029 17.312 16.505C16.866 16.69 16.426 16.89 15.988 17.082C15.56 16.896 15.101 16.689 14.637 16.495C14.1364 16.3166 13.6856 16.0211 13.3222 15.6332C12.9588 15.2453 12.6934 14.7762 12.548 14.265C12.3447 13.4937 12.36 12.6811 12.592 11.918C12.818 11.1569 13.1428 10.4287 13.558 9.752C14.7542 7.69918 15.5668 5.4458 15.956 3.102C15.956 3.076 15.965 3.051 15.976 3ZM14.951 14.954C14.9477 15.1599 15.0055 15.3621 15.1172 15.5351C15.2289 15.708 15.3894 15.844 15.5784 15.9256C15.7674 16.0073 15.9764 16.031 16.1789 15.9938C16.3814 15.9566 16.5683 15.8601 16.7159 15.7165C16.8635 15.573 16.9652 15.3889 17.0081 15.1875C17.051 14.9861 17.0331 14.7765 16.9567 14.5853C16.8804 14.3941 16.749 14.2298 16.5792 14.1133C16.4094 13.9969 16.2089 13.9334 16.003 13.931C15.7288 13.9304 15.4652 14.0371 15.2687 14.2282C15.0721 14.4194 14.9581 14.6799 14.951 14.954Z" fill="#FE0000"/>
<path fill-rule="evenodd" clip-rule="evenodd" d="M15.969 17.953C16.4254 17.6195 16.9429 17.379 17.492 17.245C18.1788 17.0222 18.8288 16.6991 19.421 16.286C19.7879 16.046 20.1008 15.7321 20.3397 15.3645C20.5786 14.9969 20.7384 14.5836 20.8087 14.1508C20.8791 13.7181 20.8586 13.2754 20.7484 12.851C20.6383 12.4267 20.4409 12.0299 20.169 11.686C20.057 11.525 19.932 11.374 19.829 11.209C20.3739 11.5597 20.8191 12.045 21.1218 12.618C21.4245 13.1909 21.5744 13.8322 21.557 14.48C21.5236 14.9347 21.3929 15.377 21.1738 15.7769C20.9547 16.1769 20.6523 16.525 20.287 16.798C19.5653 17.3625 18.7541 17.8019 17.887 18.098C17.607 18.205 17.329 18.318 17.053 18.432C16.6213 18.5799 16.247 18.8598 15.983 19.232C15.5758 18.7339 15.0196 18.3795 14.396 18.221C13.4515 17.9112 12.5614 17.4553 11.758 16.87C11.1066 16.3909 10.646 15.6965 10.458 14.91C10.3586 14.4248 10.3704 13.9233 10.4927 13.4434C10.615 12.9634 10.8445 12.5175 11.164 12.139C11.4414 11.8102 11.7365 11.4967 12.048 11.2L12.093 11.244C11.905 11.532 11.693 11.807 11.533 12.109C11.1219 12.8254 11.0092 13.6749 11.2193 14.4737C11.4295 15.2725 11.9456 15.9566 12.656 16.378C13.3338 16.8031 14.0643 17.1376 14.829 17.373C15.2477 17.4784 15.6373 17.6766 15.969 17.953Z" fill="#FE0000"/>
</svg>
