<svg width="32" height="32" viewBox="0 0 32 32" fill="none" xmlns="http://www.w3.org/2000/svg">
<path d="M29.9007 17.673C29.9673 17.1175 30.0007 16.5585 30.0007 15.999C30.0005 15.5131 29.9754 15.0274 29.9257 14.544C29.2163 16.5568 27.8365 18.2646 26.0177 19.381C27.9914 17.7093 29.2789 15.3681 29.6337 12.806C29.3613 11.6413 28.9395 10.5166 28.3787 9.46004C28.3998 9.9144 28.3921 10.3696 28.3557 10.823C28.2472 12.2309 27.8602 13.6032 27.2172 14.8603C26.5741 16.1173 25.6878 17.2342 24.6097 18.146C25.9421 16.8379 26.9038 15.1998 27.3965 13.3988C27.8893 11.5978 27.8956 9.69828 27.4147 7.89404C26.1208 6.07127 24.4091 4.58484 22.423 3.55907C20.4369 2.53331 18.234 1.99805 15.9987 1.99805C13.7633 1.99805 11.5605 2.53331 9.57438 3.55907C7.58827 4.58484 5.87666 6.07127 4.58271 7.89404C4.10187 9.69836 4.10825 11.5979 4.6012 13.399C5.09415 15.2 6.05603 16.8381 7.38871 18.146C6.31057 17.2341 5.42419 16.1173 4.78098 14.8602C4.13777 13.6032 3.75053 12.2309 3.6417 10.823C3.60557 10.3696 3.59788 9.9144 3.61869 9.46004C3.0582 10.5168 2.63641 11.6414 2.36371 12.806C2.71964 15.3684 4.0082 17.7095 5.9827 19.381C4.16389 18.2646 2.78414 16.5568 2.07471 14.544C1.96734 15.5848 1.97572 16.6342 2.09971 17.673C2.77271 19.0314 3.73041 20.2289 4.90769 21.184C3.95417 20.6579 3.09369 19.9785 2.36069 19.173C3.07791 22.2528 4.81628 24.9991 7.29288 26.9653C9.76949 28.9314 12.8386 30.0015 16.0007 30.0015C19.1629 30.0015 22.2319 28.9314 24.7085 26.9653C27.1851 24.9991 28.9235 22.2528 29.6407 19.173C28.9076 19.9783 28.0471 20.6577 27.0937 21.184C28.2707 20.2289 29.228 19.0314 29.9007 17.673ZM6.92771 11.446C6.92778 10.0238 7.26214 8.62152 7.90384 7.35229C8.54555 6.08307 9.47662 4.98246 10.6219 4.13925C11.7672 3.29605 13.0947 2.73386 14.4973 2.49806C15.8998 2.26226 17.3381 2.35944 18.6962 2.78177C20.0543 3.20409 21.2941 3.93974 22.3155 4.92934C23.337 5.91895 24.1116 7.13481 24.5767 8.47882C25.0418 9.82283 25.1845 11.2574 24.9933 12.6667C24.802 14.076 24.2822 15.4206 23.4757 16.592L23.4607 16.587C18.0947 23.458 9.8117 15.3 21.5777 8.64804C20.9497 8.24004 19.5697 6.04804 18.0007 6.04804C17.5348 6.04961 17.0759 6.1613 16.6614 6.37402C16.2469 6.58674 15.8886 6.89445 15.6157 7.27204L8.49271 7.99404L16.1487 8.40204C16.9647 8.46504 17.4037 8.84104 17.4037 9.50204C17.4037 10.163 16.3367 10.914 15.6147 11.479C14.9767 11.979 11.2687 15.106 11.7477 19.471C11.8147 20.0711 11.9534 20.661 12.1607 21.228C11.6142 20.6458 11.2619 19.9081 11.1527 19.117C9.85931 18.2978 8.79386 17.1651 8.05524 15.824C7.31662 14.483 6.92879 12.977 6.92771 11.446Z" fill="#E2001A"/>
<path d="M9.85672 25.383C10.1696 25.453 10.4909 25.4776 10.8107 25.456C11.0496 25.4121 11.2711 25.3013 11.4495 25.1365C11.6279 24.9717 11.756 24.7597 11.8187 24.525L12.7187 22.234H14.5017L13.6857 24.4991C13.5544 25.1003 13.2021 25.6304 12.6985 25.9843C12.195 26.3382 11.577 26.4901 10.9667 26.41C10.4487 26.41 9.54272 26.323 9.54272 26.323L9.85672 25.383Z" fill="white"/>
<path d="M16.4437 22.234H18.8367L19.2757 26.242H17.3837L17.3157 25.576H15.5227L14.9757 26.242H12.9757L16.4437 22.234ZM17.2167 24.698L17.2567 23.551L16.2367 24.698H17.2167Z" fill="white"/>
<path d="M21.2557 22.234H23.1647L22.1377 25.3911H24.4667L24.1807 26.242H19.8147L21.2557 22.234Z" fill="white"/>
</svg>
