<svg width="32" height="32" viewBox="0 0 32 32" fill="none" xmlns="http://www.w3.org/2000/svg">
<path d="M1.97501 13.296H3.13101V19.413C3.13432 19.6296 3.09259 19.8444 3.00848 20.0439C2.92438 20.2435 2.79972 20.4234 2.64243 20.5722C2.48513 20.7211 2.29862 20.8356 2.09473 20.9085C1.89083 20.9815 1.67402 21.0113 1.45801 20.996H1.005V19.921H1.33401C1.73401 19.921 1.98001 19.742 1.98001 19.321V13.296H1.97501ZM1.98001 11.002H3.13602V12.144H1.98001V11.002Z" fill="#001A57"/>
<path d="M5.034 15.622C5.01868 15.4534 5.03866 15.2836 5.09265 15.1232C5.14665 14.9628 5.23347 14.8154 5.3476 14.6904C5.46172 14.5654 5.60067 14.4656 5.75552 14.3973C5.91038 14.329 6.07776 14.2937 6.24701 14.2937C6.41625 14.2937 6.58364 14.329 6.73849 14.3973C6.89335 14.4656 7.03226 14.5654 7.14639 14.6904C7.26052 14.8154 7.34734 14.9628 7.40134 15.1232C7.45533 15.2836 7.47531 15.4534 7.45999 15.622H5.034ZM8.616 16.562V15.622C8.6274 15.3063 8.57412 14.9916 8.45944 14.6973C8.34476 14.4029 8.17113 14.1351 7.94916 13.9103C7.72719 13.6855 7.46159 13.5085 7.1687 13.3902C6.87581 13.2718 6.56182 13.2146 6.246 13.222C5.135 13.222 3.87701 13.938 3.87701 16.143C3.87701 18.47 5.24901 19.03 6.42801 19.03C6.82014 19.0392 7.20947 18.9617 7.56818 18.803C7.92688 18.6443 8.24607 18.4084 8.50299 18.112L7.664 17.412C7.33217 17.7523 6.88019 17.949 6.405 17.96C6.21867 17.9746 6.03141 17.9483 5.85638 17.8827C5.68136 17.8171 5.52285 17.7139 5.39203 17.5804C5.26121 17.4469 5.16124 17.2864 5.09921 17.1101C5.03718 16.9338 5.01457 16.746 5.03299 16.56L8.616 16.562Z" fill="#001A57"/>
<path d="M9.53302 11.573H10.69V13.296H11.529V14.169H10.69V17.469C10.69 17.783 10.815 17.894 11.098 17.894H11.529V18.973H10.929C10.7421 18.986 10.5546 18.9586 10.3792 18.8928C10.2037 18.8269 10.0445 18.7241 9.91229 18.5913C9.78008 18.4586 9.67795 18.2989 9.61285 18.1232C9.54776 17.9475 9.52119 17.7599 9.53497 17.573V14.173H8.95703V13.3H9.53497L9.53302 11.573Z" fill="#001A57"/>
<path d="M15.372 15.432C15.6903 15.432 15.9955 15.5584 16.2205 15.7835C16.4456 16.0085 16.572 16.3137 16.572 16.632C16.572 16.9503 16.4456 17.2555 16.2205 17.4805C15.9955 17.7056 15.6903 17.832 15.372 17.832H13.49V15.432H15.372ZM12.266 18.968H15.666C15.9642 18.9756 16.2608 18.9223 16.5376 18.8112C16.8144 18.7002 17.0656 18.5337 17.2758 18.3221C17.486 18.1105 17.6508 17.8582 17.76 17.5806C17.8692 17.3031 17.9206 17.0061 17.911 16.708C17.9365 16.2974 17.8196 15.8906 17.58 15.5561C17.3405 15.2217 16.993 14.98 16.596 14.872V14.85C16.9527 14.7315 17.2615 14.5006 17.4762 14.1921C17.6909 13.8835 17.7999 13.5137 17.787 13.138C17.7966 12.8323 17.7391 12.5282 17.6185 12.2471C17.498 11.9659 17.3173 11.7147 17.0892 11.5109C16.8611 11.3071 16.5911 11.1557 16.2982 11.0675C16.0054 10.9792 15.6967 10.9562 15.394 11H12.265V18.968H12.266ZM15.258 12.075C15.4203 12.054 15.5852 12.0679 15.7416 12.1156C15.8981 12.1634 16.0426 12.244 16.1655 12.352C16.2884 12.46 16.3868 12.593 16.4542 12.7421C16.5217 12.8912 16.5566 13.0529 16.5566 13.2165C16.5566 13.3801 16.5217 13.5418 16.4542 13.6909C16.3868 13.84 16.2884 13.973 16.1655 14.081C16.0426 14.189 15.8981 14.2696 15.7416 14.3174C15.5852 14.3651 15.4203 14.379 15.258 14.358H13.489V12.075H15.258Z" fill="#001A57"/>
<path d="M18.576 10.996H19.733V17.496C19.733 17.754 19.881 17.887 20.164 17.887H20.564V18.962H20.054C19.215 18.962 18.58 18.604 18.58 17.586L18.576 10.996Z" fill="#001A57"/>
<path d="M21.048 13.294H22.204V16.674C22.1936 16.83 22.2155 16.9864 22.2681 17.1337C22.3207 17.2809 22.4029 17.4157 22.5097 17.5299C22.6165 17.644 22.7457 17.735 22.8891 17.7972C23.0325 17.8594 23.1872 17.8915 23.3435 17.8915C23.4998 17.8915 23.6545 17.8594 23.7979 17.7972C23.9413 17.735 24.0705 17.644 24.1773 17.5299C24.2841 17.4157 24.3664 17.2809 24.419 17.1337C24.4715 16.9864 24.4933 16.83 24.483 16.674V13.294H25.64V18.968H24.483V18.368H24.461C24.2813 18.586 24.054 18.7599 23.7966 18.8762C23.5391 18.9926 23.2584 19.0482 22.976 19.039C22.7189 19.0403 22.4641 18.9899 22.2269 18.8908C21.9896 18.7918 21.7747 18.646 21.5949 18.4623C21.415 18.2785 21.2739 18.0605 21.18 17.8212C21.0861 17.5818 21.0411 17.326 21.048 17.069V13.294Z" fill="#001A57"/>
<path d="M27.416 15.622C27.4015 15.4539 27.4222 15.2845 27.4766 15.1248C27.531 14.965 27.618 14.8183 27.7321 14.6939C27.8462 14.5696 27.9848 14.4703 28.1393 14.4024C28.2938 14.3345 28.4607 14.2994 28.6295 14.2994C28.7983 14.2994 28.9651 14.3345 29.1196 14.4024C29.2741 14.4703 29.4129 14.5696 29.527 14.6939C29.6411 14.8183 29.7281 14.965 29.7825 15.1248C29.8369 15.2845 29.8575 15.4539 29.843 15.622H27.416ZM30.999 16.562V15.622C31.0104 15.3064 30.9571 14.9918 30.8425 14.6975C30.7279 14.4032 30.5544 14.1355 30.3325 13.9107C30.1107 13.6859 29.8451 13.5089 29.5524 13.3905C29.2596 13.272 28.9457 13.2147 28.63 13.222C27.519 13.222 26.26 13.938 26.26 16.143C26.26 18.47 27.632 19.03 28.811 19.03C29.2032 19.0392 29.5925 18.9617 29.9512 18.803C30.3099 18.6444 30.6291 18.4084 30.886 18.112L30.047 17.412C29.7152 17.7524 29.2632 17.9491 28.788 17.96C28.6016 17.9747 28.4144 17.9483 28.2394 17.8827C28.0644 17.8171 27.9058 17.7139 27.775 17.5804C27.6442 17.4469 27.5442 17.2864 27.4822 17.1101C27.4201 16.9338 27.3976 16.746 27.416 16.56L30.999 16.562Z" fill="#001A57"/>
</svg>
