<svg width="32" height="32" viewBox="0 0 32 32" fill="none" xmlns="http://www.w3.org/2000/svg">
<path d="M26.986 20.2H5.14899V24H26.986V20.2Z" fill="#3597D3"/>
<path d="M5.182 19.467C6.93937 19.467 8.364 18.0491 8.364 16.3C8.364 14.5509 6.93937 13.133 5.182 13.133C3.42463 13.133 2 14.5509 2 16.3C2 18.0491 3.42463 19.467 5.182 19.467Z" fill="#3597D3"/>
<path d="M12.35 19.467C14.1073 19.467 15.532 18.0491 15.532 16.3C15.532 14.5509 14.1073 13.133 12.35 13.133C10.5926 13.133 9.16797 14.5509 9.16797 16.3C9.16797 18.0491 10.5926 19.467 12.35 19.467Z" fill="#3597D3"/>
<path d="M19.584 19.467C21.3413 19.467 22.766 18.0491 22.766 16.3C22.766 14.5509 21.3413 13.133 19.584 13.133C17.8266 13.133 16.402 14.5509 16.402 16.3C16.402 18.0491 17.8266 19.467 19.584 19.467Z" fill="#3597D3"/>
<path d="M26.819 19.467C28.5763 19.467 30.001 18.0491 30.001 16.3C30.001 14.5509 28.5763 13.133 26.819 13.133C25.0616 13.133 23.637 14.5509 23.637 16.3C23.637 18.0491 25.0616 19.467 26.819 19.467Z" fill="#3597D3"/>
<path d="M18.747 9.79999H13.321V11.533H18.747V9.79999Z" fill="#3597D3"/>
<path d="M16.939 8H15.13V13.467H16.939V8Z" fill="#3597D3"/>
</svg>
