<svg width="32" height="32" viewBox="0 0 32 32" fill="none" xmlns="http://www.w3.org/2000/svg">
<path fill-rule="evenodd" clip-rule="evenodd" d="M29.993 16.002C29.9952 18.7714 29.1759 21.4792 27.6389 23.7829C26.1019 26.0867 23.9162 27.8828 21.3582 28.9441C18.8002 30.0054 15.9849 30.2843 13.2685 29.7453C10.552 29.2064 8.05642 27.8738 6.09738 25.9164C4.13834 23.9589 2.80389 21.4643 2.2628 18.7483C1.72172 16.0322 1.99831 13.2167 3.05762 10.6579C4.11692 8.09912 5.91134 5.91197 8.21387 4.37314C10.5164 2.83431 13.2236 2.01297 15.993 2.01297C17.8309 2.01192 19.6509 2.37294 21.3493 3.07544C23.0476 3.77795 24.5908 4.80818 25.8909 6.10724C27.191 7.40631 28.2224 8.94875 28.9263 10.6465C29.6301 12.3443 29.9926 14.1641 29.993 16.002Z" fill="white"/>
<path fill-rule="evenodd" clip-rule="evenodd" d="M22.013 7.56999C24.4744 8.32891 26.5683 9.97092 27.8922 12.1803C29.2161 14.3898 29.6766 17.0106 29.185 19.539L29.17 19.631C28.8498 21.4336 28.1182 23.1381 27.032 24.612L27.013 24.634C29.1657 21.8915 30.2177 18.4444 29.963 14.9672C29.7083 11.49 28.1654 8.23293 25.6361 5.8333C23.1067 3.43367 19.7731 2.06414 16.2873 1.99269C12.8015 1.92124 9.41451 3.15301 6.78898 5.44697L6.75799 5.47398C5.33773 6.77642 4.33586 8.47101 3.87926 10.3432C3.42265 12.2154 3.53184 14.1809 4.19299 15.991L4.213 16.037C4.79843 17.3194 5.80479 18.3631 7.06508 18.9949C8.32536 19.6266 9.76379 19.8084 11.1416 19.5101C12.5194 19.2117 13.7538 18.4512 14.6399 17.3547C15.526 16.2582 16.0105 14.8917 16.013 13.482L15.996 10.826C15.9958 10.2463 16.1524 9.67747 16.449 9.17949C16.7456 8.6815 17.1713 8.27293 17.681 7.99699L17.693 7.98897C18.5027 7.54262 19.4124 7.30901 20.337 7.30998C20.9029 7.30972 21.4654 7.39639 22.005 7.56697H22.01L22.013 7.56999Z" fill="#D50006"/>
<path fill-rule="evenodd" clip-rule="evenodd" d="M9.98698 24.43C7.52562 23.671 5.43167 22.029 4.10776 19.8196C2.78384 17.6102 2.32341 14.9893 2.81499 12.461L2.82998 12.37C3.14976 10.5667 3.8818 8.86173 4.96899 7.38797L4.98799 7.36597C2.83637 10.1085 1.78527 13.5551 2.04028 17.0316C2.29529 20.5081 3.83806 23.7644 6.36684 26.1636C8.89561 28.5629 12.2285 29.9324 15.7136 30.0044C19.1987 30.0764 22.5853 28.8457 25.211 26.553L25.242 26.526C26.6618 25.2234 27.6634 23.5291 28.1201 21.6572C28.5769 19.7853 28.4683 17.8201 27.808 16.01L27.788 15.963C27.2018 14.6814 26.1953 13.6388 24.9353 13.0078C23.6753 12.3767 22.2374 12.1953 20.8602 12.4935C19.4829 12.7917 18.2489 13.5517 17.3627 14.6474C16.4766 15.7431 15.9915 17.1088 15.988 18.518L16.006 21.174C16.0062 21.7536 15.8498 22.3226 15.5532 22.8206C15.2565 23.3186 14.8308 23.7271 14.321 24.003L14.308 24.011C13.4986 24.458 12.5887 24.6917 11.664 24.69C11.0984 24.6903 10.5362 24.6036 9.99699 24.433H9.99098L9.98698 24.43Z" fill="#003888"/>
</svg>
