<svg width="32" height="32" viewBox="0 0 32 32" fill="none" xmlns="http://www.w3.org/2000/svg">
<path d="M21.428 13.216C21.322 13.216 21.228 13.216 21.182 13.224C21.123 13.33 21.036 13.473 20.908 13.672C22.8657 13.6682 24.8196 13.8443 26.745 14.198L26.177 14.747C24.4453 14.4327 22.688 14.2816 20.928 14.296C20.648 14.296 20.589 14.296 20.522 14.296C20.455 14.396 20.304 14.596 20.152 14.775C20.323 14.764 20.652 14.758 21.109 14.758C22.6713 14.7557 24.2312 14.8811 25.773 15.133L25.205 15.685C23.8638 15.4861 22.5099 15.3858 21.154 15.385C20.678 15.385 20.138 15.402 19.654 15.43C19.545 15.556 19.259 15.864 19.173 15.959C19.8998 15.8875 20.6298 15.8542 21.36 15.859C22.5036 15.8548 23.646 15.9343 24.778 16.097L24.21 16.643C23.37 16.5436 22.5249 16.4932 21.679 16.492C19.721 16.4449 17.7924 16.9745 16.133 18.015C17.0499 18.9349 18.1395 19.6647 19.3392 20.1623C20.539 20.66 21.8252 20.9158 23.124 20.915H23.37L22.452 21.803C18.4642 21.0109 14.6751 19.4288 11.308 17.15C9.15939 15.585 6.84555 14.2604 4.40802 13.2L4.38702 12.55L6.09802 13.284L6.68002 12.822L12.265 15.381L11.901 15.672L9.03402 14.426L8.75102 14.647L10.24 15.478C11.1694 16.0759 12.2369 16.4247 13.34 16.491C15.275 16.491 17.01 15.119 18.13 12.709C19.0662 12.5943 20.0089 12.5409 20.952 12.549C23.2377 12.5561 25.5176 12.7801 27.761 13.218L27.167 13.792C25.2728 13.438 23.3518 13.246 21.425 13.218" fill="#0A1D3D"/>
<path d="M16 2.00001C13.2311 2.00001 10.5243 2.82109 8.22202 4.35943C5.91973 5.89777 4.12532 8.08427 3.06569 10.6424C2.00607 13.2006 1.72882 16.0155 2.26901 18.7313C2.80921 21.447 4.14258 23.9416 6.10051 25.8995C8.05845 27.8574 10.553 29.1908 13.2687 29.731C15.9845 30.2712 18.7994 29.9939 21.3576 28.9343C23.9157 27.8747 26.1022 26.0803 27.6406 23.778C29.1789 21.4757 30 18.7689 30 16C30.0017 14.161 29.6408 12.3397 28.9378 10.6404C28.2348 8.94108 27.2037 7.39706 25.9033 6.0967C24.603 4.79634 23.0589 3.76517 21.3596 3.06221C19.6603 2.35925 17.839 1.9983 16 2.00001ZM16 29.16C13.3972 29.16 10.8529 28.3882 8.6887 26.9421C6.52455 25.4961 4.8378 23.4408 3.84175 21.0361C2.8457 18.6314 2.58509 15.9854 3.09287 13.4326C3.60065 10.8798 4.85402 8.53494 6.69448 6.69448C8.53494 4.85402 10.8798 3.60065 13.4326 3.09287C15.9854 2.58509 18.6314 2.8457 21.0361 3.84175C23.4408 4.8378 25.4961 6.52455 26.9421 8.6887C28.3882 10.8529 29.16 13.3972 29.16 16C29.1592 19.49 27.7725 22.8368 25.3047 25.3047C22.8368 27.7725 19.49 29.1592 16 29.16Z" fill="#0A1D3D"/>
</svg>
