<svg width="32" height="32" viewBox="0 0 32 32" fill="none" xmlns="http://www.w3.org/2000/svg">
<path d="M28 16C28 9.37258 22.6274 4 16 4C9.37258 4 4 9.37258 4 16C4 22.6274 9.37258 28 16 28C22.6274 28 28 22.6274 28 16Z" fill="#D81939"/>
<path d="M24.2661 10.2051C24.8587 10.177 25.4511 10.2663 26.0091 10.4681C26.2196 10.5949 26.3748 10.7962 26.444 11.0321C26.4673 11.1798 26.4571 11.3309 26.4141 11.4742C26.3712 11.6175 26.2967 11.7494 26.1961 11.8601C25.6236 12.6528 24.912 13.3352 24.096 13.874C23.269 14.536 22.414 15.0601 21.586 15.6391C21.421 15.7221 21.255 15.887 21.086 15.97C21.252 16.053 21.334 16.0531 21.5 16.1361C21.5445 16.181 21.6025 16.2102 21.6651 16.219C21.9131 16.136 22.079 15.971 22.327 15.888C22.4194 15.8154 22.5299 15.7693 22.6465 15.7547C22.7631 15.74 22.8816 15.7574 22.989 15.805C23.1951 15.927 23.367 16.099 23.489 16.305C23.5368 16.4546 23.5541 16.6122 23.5398 16.7685C23.5256 16.9248 23.48 17.0766 23.406 17.215C24.506 17.715 25.506 18.236 26.523 18.732C26.771 18.898 27.023 18.98 27.268 19.146C27.351 19.311 27.185 19.477 27.02 19.56C26.606 19.726 26.2751 20.06 25.8341 20.06C25.3777 19.9762 24.9265 19.8657 24.4831 19.729C23.8208 19.5515 23.1486 19.4132 22.4701 19.315C21.9292 19.2446 21.3944 19.1339 20.87 18.9841C20.4817 18.8868 20.0841 18.8314 19.684 18.819C19.1538 18.7479 18.6188 18.7202 18.0841 18.736C17.4393 18.7497 16.7943 18.722 16.153 18.6531C15.132 19.0671 14.222 19.563 13.036 20.005C12.291 20.253 11.602 20.505 10.857 20.75C11.105 21.081 11.4361 21.164 11.6021 21.578C11.6023 21.589 11.6003 21.5999 11.5963 21.6101C11.5922 21.6203 11.5861 21.6296 11.5783 21.6373C11.5706 21.6451 11.5613 21.6512 11.5511 21.6553C11.5409 21.6594 11.53 21.6613 11.5191 21.6611C11.3531 21.7441 11.2711 21.7441 11.1051 21.8261C10.369 21.6719 9.64159 21.4786 8.92604 21.2471H8.76003C8.42903 21.3301 7.93306 21.6611 7.57406 21.2471C7.57406 21.1641 7.49105 21.0811 7.49105 20.9161C7.49105 20.8331 7.40807 20.8331 7.32607 20.7511C7.16007 20.6681 7.07801 20.668 6.99501 20.585C6.74701 20.502 6.58103 20.42 6.33303 20.337C5.86704 20.2162 5.4144 20.0487 4.98201 19.837C4.89901 19.754 4.81701 19.6721 4.98201 19.5061C5.12554 19.3968 5.29377 19.3245 5.47182 19.2955C5.64987 19.2666 5.83232 19.2819 6.00307 19.34C6.33407 19.34 6.74803 19.423 7.02303 19.423C6.60903 19.009 6.27806 18.595 5.83706 18.154C5.78666 18.1146 5.74567 18.0644 5.71712 18.0072C5.68858 17.9499 5.67316 17.887 5.67202 17.823C5.67202 17.74 5.75506 17.6571 5.83706 17.5751C5.86945 17.5434 5.90855 17.5195 5.9515 17.5051C5.99445 17.4907 6.04012 17.4863 6.08504 17.492C6.41604 17.327 6.49903 17.244 6.74703 17.327C7.49203 17.658 8.09904 17.906 8.92604 18.237C9.078 18.3295 9.24896 18.3863 9.42604 18.4031C9.60067 18.3375 9.76819 18.2544 9.92604 18.155C10.0807 18.104 10.2221 18.0193 10.34 17.9071C10.5535 17.7579 10.7745 17.6197 11.002 17.4931C11.502 17.1621 11.7471 16.9931 12.1881 16.7481C11.6091 16.5001 10.919 16.1691 10.34 15.9201C9.67805 15.7541 9.51303 15.6721 8.90603 15.5061C8.5986 15.4392 8.29489 15.3564 7.99605 15.258C7.16905 15.092 6.97504 15.01 6.23104 14.844C5.90004 14.679 5.48606 14.679 5.04506 14.513V14.348C5.12806 14.182 5.37606 14.017 5.54506 13.848C5.76356 13.6621 6.01678 13.5214 6.29006 13.434C6.85375 13.452 7.41564 13.5071 7.97207 13.599C8.71707 13.682 9.48902 13.7641 10.151 13.8471C11.061 13.9301 12.164 14.0121 13.075 14.1781C13.158 14.1781 13.24 14.2611 13.323 14.1781C13.406 14.2611 13.4881 14.1781 13.5711 14.2611H13.8191C14.2573 13.8573 14.7735 13.5476 15.336 13.3511C15.4968 13.3499 15.6555 13.3868 15.7993 13.4587C15.943 13.5307 16.0677 13.6357 16.163 13.7651C17.206 12.9884 18.3028 12.2866 19.445 11.6651C20.3787 11.1533 21.3575 10.7285 22.369 10.396C22.9945 10.2692 23.6309 10.2045 24.2691 10.203" fill="#003D50"/>
<path d="M24.845 10.863C24.3511 10.9384 23.8691 11.0776 23.4111 11.277C22.7508 11.5126 22.1058 11.7891 21.48 12.1051C20.5578 12.5549 19.6645 13.0615 18.8051 13.6221C18.4741 13.8701 17.705 14.4501 17.619 14.5321C17.04 14.4491 16.5191 14.449 15.9371 14.366L16.02 14.283C16.6938 13.7296 17.4242 13.249 18.199 12.849C19.0274 12.3325 19.8943 11.8805 20.7921 11.4971C21.5618 11.1516 22.3806 10.9283 23.2191 10.835C23.7527 10.6871 24.3178 10.6968 24.8461 10.863" fill="white"/>
<path d="M14.034 14.56C14.2 14.477 14.282 14.395 14.448 14.312C14.614 14.229 14.6961 14.147 14.7791 14.147C14.7382 14.2381 14.7171 14.3367 14.7171 14.4365C14.7171 14.5363 14.7382 14.635 14.7791 14.726C14.7791 14.892 14.945 14.974 14.945 15.057C14.614 15.305 14.283 15.471 13.924 15.719C13.8736 15.6796 13.8327 15.6294 13.8042 15.5722C13.7756 15.5149 13.7602 15.452 13.7591 15.388C13.7043 15.1647 13.7338 14.9289 13.8421 14.726L14.034 14.56Z" fill="white"/>
<path d="M13.4271 17.318C13.0249 17.5765 12.6002 17.798 12.1581 17.98C11.3311 18.394 10.393 18.89 9.12402 19.497C8.81504 19.6732 8.45284 19.7318 8.10406 19.662C7.93312 19.6756 7.76145 19.6471 7.60406 19.579L6.25305 18.227C6.17005 18.144 6.08704 18.061 6.08704 17.979L6.33502 17.814H6.41803C7.02178 18.0555 7.61111 18.3316 8.18304 18.641C8.43104 18.724 8.68304 18.889 8.92804 18.972C9.18355 18.9568 9.43501 18.9012 9.67303 18.807L9.83807 18.724C10.0435 18.563 10.2654 18.4242 10.5001 18.31C11.1621 17.896 11.769 17.565 12.431 17.124L12.597 17.041C12.928 17.151 13.0971 17.234 13.4241 17.317" fill="white"/>
</svg>
