<svg width="32" height="32" viewBox="0 0 32 32" fill="none" xmlns="http://www.w3.org/2000/svg">
<path d="M8.963 26.998C8.963 19.02 3 18.253 3 12.528C3.09356 10.7199 3.80932 8.99979 5.026 7.65903C2.463 11.987 14.926 19.021 14.926 23.167C14.928 27.185 8.963 26.998 8.963 26.998Z" fill="url(#paint0_radial)"/>
<path d="M11.747 5.26203C6.901 4.94603 5.329 7.34403 5.329 7.34403C2.671 11.892 15.219 19.111 15.219 22.944C15.219 24.26 15.081 25.172 14.09 25.744C14.09 25.744 19.59 23.309 19.59 20.154C19.59 15.241 9.89699 11.542 9.80399 7.80203C9.80916 7.22536 10.0014 6.66595 10.3518 6.2079C10.7022 5.74986 11.1918 5.41793 11.747 5.26203Z" fill="url(#paint1_radial)"/>
<path d="M29 4.99902C27.649 6.08102 25.46 6.53202 22.337 6.53202C19.214 6.53202 13.485 5.34702 12.411 5.35902C10.265 5.38402 9.111 7.91502 10.941 9.84502C11.4471 9.29872 12.0597 8.86176 12.741 8.56102C15.235 7.73202 18.541 9.01202 23.951 8.09302C27.319 7.52202 28.448 6.25402 29 4.99902Z" fill="url(#paint2_linear)"/>
<path d="M24.073 8.31502C25.3297 8.15571 26.5368 7.72547 27.611 7.05402C27.1841 7.95379 26.5669 8.75011 25.802 9.38791C25.0371 10.0257 24.1428 10.4898 23.181 10.748C20.957 11.516 15.516 10.466 14.656 13.138C13.3928 12.181 12.2019 11.1322 11.093 10C11.5963 9.48086 12.198 9.06715 12.863 8.78302C15.357 7.95302 18.663 9.23502 24.073 8.31502Z" fill="url(#paint3_linear)"/>
<path d="M18.114 16.36C18.1187 16.0618 18.1824 15.7675 18.3016 15.4941C18.4207 15.2206 18.5928 14.9735 18.808 14.767C19.78 13.826 25.083 13.174 26.071 9.38602C25.2801 10.094 24.3434 10.6197 23.327 10.926C20.927 11.67 17.619 11.103 15.809 12.126C15.3555 12.386 15.0108 12.8006 14.838 13.294C16.0063 14.2313 17.1015 15.2563 18.114 16.36Z" fill="url(#paint4_linear)"/>
<defs>
<radialGradient id="paint0_radial" cx="0" cy="0" r="1" gradientUnits="userSpaceOnUse" gradientTransform="translate(272.931 82.5996) scale(8.92036 8.63421)">
<stop stop-color="#E3E3E3"/>
<stop offset="0.013" stop-color="#E1E1E1"/>
<stop offset="0.445" stop-color="#BABABA"/>
<stop offset="0.789" stop-color="#A1A1A1"/>
<stop offset="1" stop-color="#999999"/>
</radialGradient>
<radialGradient id="paint1_radial" cx="0" cy="0" r="1" gradientUnits="userSpaceOnUse" gradientTransform="translate(4622.31 745.442) scale(130.58 177.054)">
<stop stop-color="#E3E3E3"/>
<stop offset="0.013" stop-color="#E1E1E1"/>
<stop offset="0.445" stop-color="#BABABA"/>
<stop offset="0.789" stop-color="#A1A1A1"/>
<stop offset="1" stop-color="#999999"/>
</radialGradient>
<linearGradient id="paint2_linear" x1="-49.8746" y1="4.51442" x2="-51.1889" y2="11.8928" gradientUnits="userSpaceOnUse">
<stop offset="0.494" stop-color="#A18750"/>
<stop offset="0.548" stop-color="#A48B55"/>
<stop offset="0.616" stop-color="#AE9765"/>
<stop offset="0.693" stop-color="#BEAA7F"/>
<stop offset="0.766" stop-color="#D2C3A0"/>
<stop offset="0.893" stop-color="#DACDB0"/>
<stop offset="0.924" stop-color="#D3C5A4"/>
<stop offset="0.979" stop-color="#C3B086"/>
<stop offset="1" stop-color="#BDA779"/>
</linearGradient>
<linearGradient id="paint3_linear" x1="-49.1151" y1="6.48212" x2="-52.4659" y2="15.5363" gradientUnits="userSpaceOnUse">
<stop offset="0.494" stop-color="#A18750"/>
<stop offset="0.548" stop-color="#A48B55"/>
<stop offset="0.616" stop-color="#AE9765"/>
<stop offset="0.693" stop-color="#BEAA7F"/>
<stop offset="0.766" stop-color="#D2C3A0"/>
<stop offset="0.893" stop-color="#DACDB0"/>
<stop offset="0.924" stop-color="#D3C5A4"/>
<stop offset="0.979" stop-color="#C3B086"/>
<stop offset="1" stop-color="#BDA779"/>
</linearGradient>
<linearGradient id="paint4_linear" x1="-48.2802" y1="8.60493" x2="-58.1901" y2="18.0153" gradientUnits="userSpaceOnUse">
<stop offset="0.494" stop-color="#A18750"/>
<stop offset="0.548" stop-color="#A48B55"/>
<stop offset="0.616" stop-color="#AE9765"/>
<stop offset="0.693" stop-color="#BEAA7F"/>
<stop offset="0.766" stop-color="#D2C3A0"/>
<stop offset="0.893" stop-color="#DACDB0"/>
<stop offset="0.924" stop-color="#D3C5A4"/>
<stop offset="0.979" stop-color="#C3B086"/>
<stop offset="1" stop-color="#BDA779"/>
</linearGradient>
</defs>
</svg>
