<svg width="32" height="32" viewBox="0 0 32 32" fill="none" xmlns="http://www.w3.org/2000/svg">
<path d="M1 15.8821C1.55585 15.5568 2.17729 15.3597 2.819 15.3051C4.26246 15.5524 5.60133 16.2187 6.669 17.2211C7.875 18.3211 9.736 19.7211 11.196 19.9331C10.1894 20.1083 9.15306 19.9407 8.253 19.4571C6.9 18.6521 3.285 15.8191 1 15.8821Z" fill="#FEDC32"/>
<path d="M25.178 12.0641C23.2875 11.854 21.3749 12.1418 19.63 12.8991C17.071 14.1451 13.605 18.7901 11.908 18.8081C12.8739 18.9679 13.8651 18.8643 14.777 18.5081C17.066 17.4401 22.021 12.3491 25.178 12.0641Z" fill="#FEDC32"/>
<path d="M19.87 12.4191C18.859 12.3826 17.8676 12.7038 17.07 13.3261C15.714 14.3751 13.126 17.7121 11.649 18.4161C12.4885 18.0828 13.271 17.6206 13.968 17.0461C14.825 16.2471 18.066 12.6191 19.87 12.4191Z" fill="#FEDC32"/>
<path d="M31 13.2191C29.824 12.3813 28.3836 11.9992 26.947 12.1441C21.973 12.6701 16.476 19.418 13.242 19.418C10.008 19.418 8.23099 15.8251 6.83099 15.1671C5.63486 14.6251 4.27565 14.566 3.03699 15.0021C3.8425 15.147 4.62353 15.4049 5.35699 15.768C7.56699 16.977 9.63099 19.9331 13.278 19.9331C19.616 19.9321 24.737 13.2191 31 13.2191Z" fill="url(#paint0_linear)"/>
<defs>
<linearGradient id="paint0_linear" x1="17.0185" y1="12.114" x2="17.0185" y2="19.9331" gradientUnits="userSpaceOnUse">
<stop offset="0.26" stop-color="#FEDC32"/>
<stop offset="1" stop-color="#D8AA29"/>
</linearGradient>
</defs>
</svg>
