<svg width="32" height="32" viewBox="0 0 32 32" fill="none" xmlns="http://www.w3.org/2000/svg">
<path fill-rule="evenodd" clip-rule="evenodd" d="M1.99597 24H18.059L20.921 8L1.99597 24Z" fill="#001771"/>
<path fill-rule="evenodd" clip-rule="evenodd" d="M18.714 14.988L18.847 9.75699L18.407 10.128L18.285 15.033L17.694 17.21L16.68 15.354L16.139 12.045L15.757 12.367L16.235 15.354V17.69H16.248L16.225 17.7H16.235L14.835 16.058L13.635 14.173L13.311 14.446L14.462 16.246L15.009 18.346L15.023 18.338L14.993 18.358L15.008 18.346L13.141 17.082L11.958 15.58L11.641 15.847L12.81 17.327L13.864 19.212L11.718 18.352L10.147 17.111L9.82999 17.379L11.448 18.659L12.932 20.228L12.946 20.213L12.923 20.241L12.931 20.228L10.604 19.828L8.19398 18.764L7.85599 19.05L10.403 20.175L12.181 21.427L12.193 21.408L12.171 21.453L12.181 21.427L9.89099 21.268L6.364 20.312L5.99799 20.622L9.756 21.641L11.695 22.682L9.424 22.95L3.63499 22.619L3.20099 22.987L9.36499 23.339L11.465 23.925L19.365 17.372L18.72 14.99L18.714 14.988Z" fill="#FAAE00"/>
<path fill-rule="evenodd" clip-rule="evenodd" d="M11.075 24H27.138L30 8L11.075 24Z" fill="#D60010"/>
</svg>
