<svg width="32" height="32" viewBox="0 0 32 32" fill="none" xmlns="http://www.w3.org/2000/svg">
<path d="M28 4H4V28H28V4Z" fill="#692277"/>
<path d="M22.429 16.046C22.2284 16.2617 22.0455 16.4931 21.882 16.738C19.74 19.5733 17.6003 22.411 15.463 25.251C15.4412 25.2836 15.4113 25.3099 15.3762 25.3275C15.3411 25.345 15.3021 25.3531 15.263 25.351C13.413 25.351 11.5633 25.351 9.71396 25.351C9.67096 25.351 9.61396 25.376 9.58796 25.331C9.56196 25.286 9.61597 25.25 9.64197 25.215L15.942 16.862C16.126 16.618 16.303 16.369 16.495 16.132C16.5122 16.1166 16.5261 16.0977 16.5356 16.0766C16.545 16.0555 16.5499 16.0326 16.5499 16.0095C16.5499 15.9864 16.545 15.9635 16.5356 15.9424C16.5261 15.9212 16.5122 15.9024 16.495 15.887C15.7136 14.8563 14.9346 13.823 14.158 12.787L11.379 9.10498C10.793 8.32898 10.208 7.55233 9.62396 6.775C9.60096 6.745 9.55196 6.71699 9.57496 6.67499C9.59796 6.63299 9.64896 6.65399 9.68796 6.65399C11.548 6.65399 13.408 6.65399 15.268 6.65399C15.3083 6.65313 15.348 6.66305 15.3832 6.68274C15.4184 6.70244 15.4476 6.73119 15.468 6.76599C17.048 8.86466 18.6293 10.9627 20.212 13.06L22.412 15.974L22.429 16.046Z" fill="#2AD705"/>
</svg>
