<svg width="32" height="32" viewBox="0 0 32 32" fill="none" xmlns="http://www.w3.org/2000/svg">
<path d="M2 8.10299C3.19897 8.1889 4.39031 8.36 5.565 8.61498C7.609 9.04098 9.62 9.60396 11.653 10.074C13.5476 10.5478 15.4857 10.8263 17.437 10.905C18.7406 10.9391 20.0438 10.821 21.32 10.553C21.311 10.616 21.259 10.642 21.22 10.677C20.82 11.068 20.42 11.453 20.028 11.848C19.7112 12.1699 19.4844 12.5691 19.37 13.006C19.3364 13.141 19.3299 13.2814 19.3508 13.4191C19.3716 13.5567 19.4195 13.6888 19.4916 13.8079C19.5637 13.9269 19.6587 14.0305 19.771 14.1128C19.8833 14.195 20.0107 14.2542 20.146 14.287C20.5516 14.3974 20.98 14.3926 21.383 14.2732C21.7861 14.1538 22.1479 13.9245 22.428 13.611C22.9017 13.0868 23.3467 12.5373 23.761 11.965C24.4849 10.9899 25.2999 10.0858 26.195 9.26497C26.789 8.69395 27.517 8.28134 28.312 8.06499C28.8856 7.92789 29.4901 8.02083 29.996 8.32396C29.487 8.57296 29.003 8.82397 28.536 9.10097C27.1258 9.93801 25.9134 11.0702 24.982 12.42C24.322 13.369 23.699 14.343 23.028 15.283C21.2196 17.7808 18.8103 19.7818 16.023 21.101C13.5802 22.2714 11.0134 23.163 8.371 23.759C8.018 23.843 7.661 23.916 7.306 23.997C7.272 24.005 7.248 24.013 7.221 23.969C10.6359 22.757 13.9137 21.1887 17 19.29C16.5023 19.458 15.9759 19.5243 15.4521 19.4848C14.9283 19.4452 14.4178 19.3008 13.951 19.06C14.372 18.946 14.751 18.868 15.119 18.744C15.5213 18.6209 15.9006 18.4328 16.242 18.187C16.4001 18.0885 16.5331 17.9544 16.6301 17.7954C16.7271 17.6364 16.7855 17.4569 16.8007 17.2712C16.8158 17.0856 16.7873 16.899 16.7174 16.7263C16.6475 16.5537 16.5381 16.3998 16.398 16.277C15.9844 15.8744 15.5229 15.5242 15.024 15.234C12.164 13.434 9.187 11.846 6.191 10.288C4.841 9.58598 3.49 8.88598 2.138 8.18798L2 8.10299Z" fill="#ED2A3E"/>
</svg>
