<svg width="32" height="32" viewBox="0 0 32 32" fill="none" xmlns="http://www.w3.org/2000/svg">
<path fill-rule="evenodd" clip-rule="evenodd" d="M21.119 14.856H24.079C24.2864 14.8679 24.494 14.8374 24.6892 14.7662C24.8844 14.695 25.0629 14.5847 25.214 14.442C25.365 14.2994 25.4854 14.1274 25.5676 13.9366C25.6499 13.7459 25.6923 13.5403 25.6923 13.3326C25.6923 13.1248 25.6499 12.9192 25.5676 12.7285C25.4854 12.5377 25.365 12.3657 25.214 12.2231C25.0629 12.0804 24.8844 11.9701 24.6892 11.899C24.494 11.8278 24.2864 11.7972 24.079 11.8091H21.119V14.856ZM17.912 8.00006H24.45C25.936 8.04403 27.3465 8.66527 28.3821 9.73196C29.4177 10.7987 29.9969 12.2269 29.9969 13.7136C29.9969 15.2003 29.4177 16.6285 28.3821 17.6952C27.3465 18.7619 25.936 19.3831 24.45 19.4271H21.119V23.998H16.802V7.99805L17.912 8.00006Z" fill="#D50006"/>
<path fill-rule="evenodd" clip-rule="evenodd" d="M12.984 12.1901L11.784 16.6341H14.813L13.373 11.2971V12.1901H12.984ZM12.484 8.00006H16.801L21.118 24.0001H16.801L15.944 20.826H10.653L9.89297 23.6431V24.0011H9.79297H5.47597V12.1901H1.99597V8.00006H12.484Z" fill="#B4BF00"/>
<path fill-rule="evenodd" clip-rule="evenodd" d="M5.47998 24.0001L9.79698 8.00006H12.484H13.374V11.3L13.3 11.024L12.984 12.1931H9.89398V23.64L9.79398 23.9991L5.47998 24.0001Z" fill="#00732C"/>
<path fill-rule="evenodd" clip-rule="evenodd" d="M21.119 23.998H16.802V7.99805L21.119 23.998Z" fill="#B3000E"/>
</svg>
