<svg width="32" height="32" viewBox="0 0 32 32" fill="none" xmlns="http://www.w3.org/2000/svg">
<path fill-rule="evenodd" clip-rule="evenodd" d="M29.3789 19.242C29.1398 18.7095 28.8329 18.21 28.4659 17.756C28.1089 17.3358 27.7038 16.9589 27.2589 16.6331C27.0372 16.454 26.7911 16.3075 26.5279 16.1981C26.4179 16.1261 26.2719 16.053 26.1629 15.981C26.2914 15.9354 26.4139 15.8747 26.5279 15.8C26.7911 15.6906 27.0372 15.5441 27.2589 15.3651C27.7039 15.039 28.109 14.6617 28.4659 14.2411C28.8329 13.787 29.1397 13.2876 29.3789 12.755C29.638 12.2022 29.8226 11.6174 29.9279 11.0161C29.9649 10.5811 30.0009 10.146 30.0009 9.74805V9.16904C29.9618 8.64898 29.8511 8.13681 29.6719 7.64703C29.4925 7.15208 29.2595 6.67826 28.9769 6.23404C28.6881 5.77181 28.3446 5.34607 27.9539 4.96603C27.5473 4.58809 27.1068 4.24834 26.6379 3.95105C26.135 3.65974 25.5937 3.44027 25.0299 3.29904C24.4392 3.10882 23.8226 3.01099 23.2019 3.00903C22.6012 2.9835 21.9997 3.03222 21.4109 3.15405C20.8653 3.29931 20.338 3.50596 19.8389 3.77005C19.338 4.0202 18.8813 4.35055 18.4869 4.74805C18.1106 5.12258 17.7907 5.5497 17.5369 6.01605C17.2746 6.48781 17.1011 7.00368 17.0249 7.53805C16.9643 7.81168 16.9398 8.09204 16.9519 8.37204C16.9449 8.60201 16.9573 8.83217 16.9889 9.06006C16.5063 8.77084 15.991 8.53988 15.4539 8.37204C14.78 8.15431 14.0788 8.03211 13.3709 8.00903C12.7068 8.00589 12.0445 8.07871 11.3969 8.22604C10.7966 8.34464 10.2175 8.55262 9.67892 8.84305C9.15936 9.11808 8.66945 9.4458 8.21693 9.82104C7.92393 10.075 7.63193 10.329 7.33993 10.621C7.10774 10.8507 6.88809 11.0927 6.68193 11.346C6.40843 11.6328 6.15198 11.9353 5.91393 12.252L5.32893 12.977C5.1911 13.1863 5.03192 13.3807 4.85393 13.557C4.6297 13.8408 4.38541 14.1082 4.12292 14.3571C3.69012 14.7935 3.2121 15.1827 2.69693 15.518L2.36793 15.735L2.14893 15.843C2.07593 15.879 2.00293 15.915 2.00293 15.988C2.00293 16.097 2.07593 16.133 2.14893 16.17L2.36793 16.278L2.69693 16.4951C3.21213 16.83 3.69016 17.2188 4.12292 17.6551C4.38528 17.904 4.62956 18.1714 4.85393 18.455C5.03171 18.6312 5.19088 18.8253 5.32893 19.0341L5.91393 19.759C6.1518 20.0759 6.40826 20.3785 6.68193 20.665C6.88451 20.9098 7.10441 21.1398 7.33993 21.3531C7.6138 21.6495 7.90676 21.9278 8.21693 22.186C8.66939 22.5616 9.1593 22.8897 9.67892 23.165C10.2175 23.4552 10.7966 23.6629 11.3969 23.781C12.0412 23.947 12.7059 24.0205 13.3709 23.9991C14.0788 23.9761 14.78 23.8539 15.4539 23.636C15.9909 23.468 16.5062 23.2371 16.9889 22.9481C16.9573 23.1759 16.9449 23.4061 16.9519 23.636C16.9398 23.9157 16.9643 24.1958 17.0249 24.4691C17.1011 25.0034 17.2746 25.5193 17.5369 25.9911C17.7908 26.4573 18.1108 26.8844 18.4869 27.259C18.8814 27.6564 19.3381 27.9868 19.8389 28.2371C20.3379 28.5014 20.8653 28.708 21.4109 28.8531C21.9997 28.975 22.6012 29.0237 23.2019 28.998C23.8225 28.996 24.4391 28.8981 25.0299 28.708C25.5937 28.5666 26.1349 28.3472 26.6379 28.0561C27.1067 27.759 27.5472 27.4196 27.9539 27.0421C28.3446 26.662 28.6881 26.2363 28.9769 25.774C29.2593 25.3297 29.4923 24.8559 29.6719 24.3611C29.8549 23.8599 29.9657 23.3353 30.0009 22.803V22.26C30.0009 21.86 29.9649 21.426 29.9279 20.992C29.8227 20.3906 29.6381 19.8059 29.3789 19.2531V19.242Z" fill="#FFC400"/>
<path fill-rule="evenodd" clip-rule="evenodd" d="M27.8439 19.823C27.6331 19.3485 27.3493 18.9099 27.003 18.5231C26.6744 18.1296 26.2782 17.798 25.833 17.5441C25.3843 17.2569 24.8898 17.0485 24.3709 16.9281C23.8533 16.7527 23.3095 16.6668 22.7629 16.6741C22.1835 16.6748 21.6064 16.7477 21.0449 16.8911C20.577 16.9933 20.1231 17.1515 19.6929 17.362C19.3006 17.548 18.9314 17.7792 18.5929 18.051C18.2608 18.2719 17.9432 18.5137 17.6419 18.7751C17.3129 18.9931 17.0209 19.21 16.6919 19.427C16.3786 19.6248 16.0483 19.7945 15.7049 19.9341C15.3123 20.0472 14.9065 20.1081 14.4979 20.1151C13.9455 20.1156 13.3986 20.0047 12.8899 19.789C12.3906 19.5863 11.9415 19.2771 11.5739 18.883C11.1759 18.5149 10.8747 18.0543 10.6969 17.5421C10.4879 17.05 10.3879 16.5185 10.4039 15.9841C10.3913 15.4616 10.4912 14.9425 10.6969 14.4621C10.8838 13.9543 11.1837 13.4958 11.5739 13.121C11.9417 12.7272 12.3908 12.418 12.8899 12.215C13.3986 11.9996 13.9455 11.8887 14.4979 11.8891C14.9065 11.8958 15.3124 11.9567 15.7049 12.0701C16.0482 12.2097 16.3785 12.3793 16.6919 12.577C17.0209 12.795 17.3129 13.0121 17.6419 13.2651C17.9339 13.4831 18.2629 13.7361 18.5929 13.9901C18.9414 14.2368 19.3093 14.4548 19.6929 14.642C20.1231 14.8527 20.577 15.0109 21.0449 15.1131C21.6063 15.2569 22.1834 15.3302 22.7629 15.3311C23.3064 15.3325 23.8475 15.2592 24.3709 15.1131C24.8861 14.9643 25.3781 14.7449 25.833 14.461C26.2781 14.2074 26.6743 13.8761 27.003 13.483C27.3495 13.0963 27.6332 12.6576 27.8439 12.1831C28.0616 11.6862 28.209 11.1615 28.2819 10.6241C28.3612 10.0461 28.349 9.45925 28.2459 8.88505C28.1404 8.3416 27.9554 7.81663 27.697 7.32704C27.1718 6.40767 26.3991 5.65412 25.4669 5.15205C24.9867 4.92935 24.4838 4.75937 23.9669 4.64506C23.4265 4.52967 22.8705 4.50501 22.322 4.57207C21.7871 4.64003 21.2679 4.79933 20.7869 5.04304C20.3333 5.26988 19.9244 5.57681 19.5799 5.94905C19.2264 6.31811 18.9419 6.74758 18.74 7.21706C18.5455 7.69168 18.4222 8.1924 18.374 8.70305C18.3568 9.23144 18.4309 9.75885 18.5929 10.2621C18.6004 10.339 18.6254 10.4132 18.6659 10.479C18.6634 10.4988 18.6653 10.5188 18.6716 10.5376C18.6778 10.5565 18.6882 10.5737 18.7019 10.5881C18.6996 10.6077 18.7017 10.6276 18.7081 10.6463C18.7145 10.665 18.725 10.682 18.7389 10.6961C18.7444 10.7097 18.7549 10.7207 18.7683 10.7269C18.7816 10.7332 18.7968 10.7341 18.8108 10.7295C18.8248 10.7249 18.8365 10.7152 18.8436 10.7023C18.8507 10.6894 18.8526 10.6743 18.8489 10.66V10.4431C18.8825 10.1671 18.9563 9.8976 19.0679 9.64305C19.2809 9.18165 19.6083 8.78233 20.0189 8.48305C20.4676 8.23063 20.9672 8.08231 21.4809 8.04906C22.0217 7.99703 22.5663 8.0975 23.0529 8.33906C23.4967 8.56776 23.8648 8.91988 24.113 9.35304C24.3618 9.80822 24.488 10.3204 24.479 10.8391C24.48 11.3665 24.3275 11.8829 24.0399 12.3251C23.7652 12.7721 23.3734 13.1356 22.9069 13.3761C22.4292 13.6028 21.8973 13.6908 21.3719 13.63C21.0057 13.5892 20.648 13.4913 20.3119 13.34C19.9748 13.1819 19.6559 12.9874 19.361 12.7601C19.032 12.5061 18.7029 12.2531 18.4109 11.9991C18.0819 11.7091 17.7529 11.4191 17.4239 11.1651C17.0776 10.8779 16.697 10.6348 16.2909 10.4411C15.8643 10.1959 15.4106 10.0013 14.9389 9.86107C14.4154 9.71568 13.8743 9.64266 13.3309 9.64406C12.7771 9.63267 12.2241 9.69352 11.6859 9.82506C11.2181 9.92739 10.7641 10.0855 10.3339 10.2961C9.95083 10.5251 9.58336 10.7793 9.23395 11.0571C8.9028 11.3311 8.59691 11.6343 8.31995 11.9631C8.02695 12.2891 7.77195 12.6161 7.51995 12.9411C7.22695 13.2671 6.97195 13.6301 6.71995 13.9561C6.42695 14.2821 6.17095 14.5711 5.84295 14.8981C5.55106 15.1928 5.2331 15.4606 4.89294 15.698L4.67395 15.8071C4.63795 15.8431 4.56395 15.8791 4.52795 15.9151C4.49095 15.9151 4.41895 15.9511 4.41895 15.9881C4.41895 16.0611 4.49195 16.097 4.52795 16.133C4.58265 16.1421 4.63345 16.1672 4.67395 16.2051C4.75477 16.2404 4.82886 16.2894 4.89294 16.3501C5.24027 16.5629 5.55945 16.8186 5.84295 17.1111C6.15371 17.4074 6.44656 17.7219 6.71995 18.0531C6.97595 18.3791 7.23195 18.7411 7.51995 19.0671C7.77595 19.3931 8.03195 19.7191 8.31995 20.0451C8.59682 20.3739 8.90272 20.6771 9.23395 20.9511C9.58347 21.2287 9.95093 21.4829 10.3339 21.712C10.7641 21.9226 11.218 22.0807 11.6859 22.1831C12.224 22.3151 12.777 22.3763 13.3309 22.3651C13.8743 22.3665 14.4154 22.2934 14.9389 22.1481C15.4039 22.0044 15.8561 21.8225 16.2909 21.604C16.6903 21.3843 17.0695 21.1297 17.4239 20.8431C17.7529 20.5891 18.0819 20.3 18.4109 20.043C18.7106 19.7568 19.0279 19.4897 19.361 19.2431C19.6558 19.0155 19.9747 18.8211 20.3119 18.6631C20.6481 18.512 21.0057 18.4142 21.3719 18.3731C21.8973 18.3123 22.4292 18.4003 22.9069 18.6271C23.381 18.8565 23.7756 19.2225 24.0399 19.6781C24.3275 20.1202 24.4801 20.6366 24.479 21.164C24.4925 21.6832 24.3661 22.1966 24.113 22.6501C23.8648 23.0832 23.4967 23.4354 23.0529 23.664C22.5663 23.9057 22.0218 24.0061 21.4809 23.9541C20.9655 23.9598 20.4602 23.811 20.0301 23.5269C19.6 23.2428 19.2649 22.8364 19.0679 22.3601C18.9563 22.1055 18.8826 21.836 18.8489 21.56V21.3431C18.8449 21.3156 18.8319 21.2903 18.8119 21.271C18.7843 21.2748 18.7587 21.2874 18.7389 21.3071C18.7143 21.3793 18.69 21.4516 18.6659 21.5241C18.6253 21.5902 18.6003 21.6648 18.5929 21.742C18.4309 22.2449 18.3568 22.772 18.374 23.3001C18.4221 23.8107 18.5455 24.3114 18.74 24.7861C18.9419 25.2556 19.2264 25.685 19.5799 26.0541C19.9245 26.4262 20.3334 26.7331 20.7869 26.9601C21.2679 27.2038 21.7871 27.3631 22.322 27.431C22.8705 27.4986 23.4264 27.4743 23.9669 27.3591C24.4838 27.2449 24.9868 27.0749 25.4669 26.8521C25.9309 26.5921 26.3608 26.2757 26.7469 25.91C27.1227 25.5485 27.4428 25.1333 27.697 24.6781C27.9553 24.1884 28.1402 23.6635 28.2459 23.12C28.349 22.5458 28.3612 21.959 28.2819 21.3811C28.209 20.8439 28.0616 20.3195 27.8439 19.823Z" fill="#220D59"/>
<path fill-rule="evenodd" clip-rule="evenodd" d="M20.0579 15.982L20.0209 15.946C19.384 15.7754 18.7874 15.4796 18.2659 15.076C17.6809 14.641 17.1329 14.206 16.5839 13.807C16.0191 13.3826 15.3496 13.1195 14.6469 13.046C14.0865 13.0009 13.5256 13.1275 13.0389 13.409C12.601 13.6618 12.2359 14.0235 11.9789 14.459C11.7071 14.9195 11.5686 15.4464 11.5789 15.981V16.017C11.5685 16.5516 11.707 17.0786 11.9789 17.539C12.2361 17.9746 12.6011 18.3366 13.0389 18.59C13.5322 18.8542 14.088 18.9793 14.6469 18.952C15.3497 18.8788 16.0192 18.6157 16.5839 18.191C17.1329 17.791 17.6839 17.357 18.2659 16.923C18.7873 16.5193 19.3839 16.2235 20.0209 16.053C20.041 16.0334 20.054 16.0078 20.0579 15.98V15.982Z" fill="#AD0070"/>
</svg>
