<svg width="32" height="32" viewBox="0 0 32 32" fill="none" xmlns="http://www.w3.org/2000/svg">
<path fill-rule="evenodd" clip-rule="evenodd" d="M29.593 15.997C29.5936 18.6856 28.7969 21.3139 27.3036 23.5497C25.8104 25.7854 23.6876 27.5281 21.2039 28.5574C18.7202 29.5867 15.987 29.8563 13.35 29.3322C10.713 28.808 8.29069 27.5136 6.38937 25.6127C4.48806 23.7119 3.19314 21.2898 2.66841 18.653C2.14368 16.0161 2.41269 13.2828 3.44142 10.7989C4.47015 8.31489 6.21241 6.19178 8.44783 4.69802C10.6833 3.20427 13.3114 2.40698 16 2.40698C19.6046 2.40698 23.0616 3.83869 25.6107 6.38722C28.1597 8.93575 29.5922 12.3924 29.593 15.997Z" fill="#C3360E"/>
<path d="M27.555 18.404L4.123 23.383H4.04601C3.88697 23.1327 3.74111 22.8744 3.60901 22.609H3.688C7.499 21.887 10.959 20.229 12.438 15.941C14.009 11.347 12.928 6.34697 9.69901 3.51997L9.63802 3.46297C9.94902 3.30497 10.264 3.15697 10.587 3.02597L10.687 3.06997C17.25 5.81697 20.618 9.53597 20.618 13.102C20.5859 14.063 20.3366 15.0043 19.8887 15.8552C19.4409 16.7061 18.8061 17.4445 18.032 18.015H27.556C27.826 18.013 27.887 18.328 27.555 18.404Z" fill="white"/>
</svg>
