<svg width="32" height="32" viewBox="0 0 32 32" fill="none" xmlns="http://www.w3.org/2000/svg">
<path d="M4.00999 4H27.998V25.469C27.989 26.313 28.014 27.157 27.985 28H22.938C23.2226 27.2115 23.4508 26.4038 23.621 25.583C23.9486 23.9149 24.011 22.2056 23.806 20.518C23.5187 18.2846 22.7531 16.1395 21.5614 14.2289C20.3697 12.3182 18.78 10.6871 16.9006 9.44672C15.0212 8.20633 12.8965 7.38587 10.6712 7.04129C8.44591 6.69671 6.17249 6.83613 4.00599 7.45001V4.00302L4.00999 4Z" fill="#003399"/>
<path d="M5.904 7.265C6.99438 7.02264 8.12322 7.00936 9.219 7.226C9.97233 7.37103 10.6822 7.68746 11.2936 8.15081C11.905 8.61415 12.4016 9.21197 12.745 9.898C13.0727 10.6047 13.2433 11.374 13.245 12.153C13.188 13.9651 12.6443 15.7284 11.671 17.258C10.7861 18.6982 9.68526 19.994 8.40699 21.1C7.23044 22.1414 5.91858 23.019 4.507 23.709C4.34702 23.7953 4.1797 23.8673 4.007 23.924V22.624C4.147 22.852 4.241 23.105 4.385 23.334C4.58788 23.2454 4.78553 23.1452 4.977 23.034C4.677 22.395 4.34699 21.776 4.04099 21.134C4.00839 21.0501 3.99806 20.9591 4.01099 20.87C4.01099 20.626 4.01099 20.381 4.01699 20.137C4.58754 19.8489 5.12419 19.498 5.617 19.091C5.667 19.029 5.71699 19.12 5.74999 19.155C6.27799 19.88 6.834 20.582 7.387 21.284C7.41144 21.3147 7.43928 21.3426 7.46999 21.367C7.74632 21.1866 7.99635 20.9689 8.21299 20.72C7.62099 20.009 7.013 19.32 6.363 18.654C6.337 18.615 6.263 18.578 6.285 18.528C6.7065 18.2114 7.09272 17.8503 7.43699 17.451C7.52604 17.3325 7.62653 17.2229 7.73699 17.124C8.49299 17.724 9.24799 18.324 9.98499 18.939C10.227 18.6403 10.4623 18.337 10.691 18.029C9.922 17.46 9.139 16.907 8.316 16.416C8.65365 15.9478 8.96318 15.4599 9.24299 14.955C10.0183 15.2916 10.7751 15.6695 11.51 16.087C11.5892 16.138 11.6737 16.1803 11.762 16.213C11.9523 15.8812 12.113 15.5331 12.242 15.173C11.4109 14.7511 10.5507 14.3892 9.66799 14.09C9.83869 13.7216 9.96847 13.3356 10.055 12.939C10.9462 13.1081 11.8231 13.3455 12.678 13.649C12.7783 13.2387 12.8363 12.8191 12.851 12.397C11.9985 12.1834 11.1325 12.0277 10.259 11.931C10.2875 11.6673 10.3022 11.4022 10.303 11.137C11.14 11.1969 11.9728 11.3061 12.797 11.464C12.7646 11.0864 12.6763 10.7157 12.535 10.364C11.7522 10.2684 10.9634 10.2293 10.175 10.247C10.118 10.0433 10.0495 9.84298 9.96999 9.64699C10.6931 9.58202 11.4199 9.568 12.145 9.605C11.9781 9.28032 11.7463 8.99337 11.464 8.76198C10.8268 8.7765 10.1916 8.83971 9.564 8.95101C9.44981 8.78866 9.32344 8.6352 9.186 8.49199C9.69828 8.37592 10.2173 8.29178 10.74 8.24001C10.703 8.15601 10.614 8.12301 10.54 8.08001C10.274 7.92829 9.99799 7.79466 9.714 7.68001C9.578 7.61601 9.43699 7.69899 9.30199 7.71999C9.02399 7.77799 8.757 7.887 8.481 7.945C8.29258 7.84698 8.09934 7.75855 7.902 7.68001C8.13848 7.57357 8.38166 7.4827 8.63 7.40801C8.06775 7.30597 7.49471 7.27673 6.925 7.321C6.58114 7.35673 6.23379 7.33749 5.89599 7.264L5.904 7.265Z" fill="#003399"/>
<path d="M9.66299 7.11804C10.597 7.18788 11.5184 7.37605 12.405 7.67804C13.1138 7.93526 13.7642 8.3313 14.318 8.84302C15.427 9.7971 16.1569 11.1174 16.375 12.564C16.5454 14.144 16.2892 15.7407 15.633 17.188C14.9744 18.7062 14.0883 20.115 13.005 21.366C11.1493 23.6536 8.79767 25.4892 6.128 26.734C5.44216 27.0504 4.73787 27.3253 4.01899 27.557C4.00899 26.435 4.01899 25.314 4.01899 24.192C4.23899 24.109 4.448 23.998 4.668 23.911C5.061 24.75 5.48199 25.578 5.94999 26.377C6.18465 26.2833 6.41083 26.1695 6.626 26.037C6.21534 25.2644 5.79567 24.4977 5.367 23.737C5.336 23.679 5.24099 23.568 5.35099 23.537C6.23622 23.0706 7.07069 22.5136 7.841 21.875C8.429 22.6237 9.01667 23.374 9.604 24.126C9.92165 23.9064 10.2225 23.6634 10.504 23.399C10.004 22.746 9.445 22.126 8.904 21.499C8.832 21.399 8.704 21.328 8.666 21.215C8.929 20.963 9.216 20.729 9.466 20.46C9.795 20.091 10.142 19.737 10.436 19.339C11.1882 19.9447 11.9032 20.5952 12.577 21.287C12.8918 20.9593 13.1717 20.5997 13.412 20.214C12.8387 19.7107 12.254 19.223 11.658 18.751C11.4926 18.6359 11.3377 18.5064 11.195 18.364C11.6368 17.8108 12.0104 17.2064 12.308 16.564C12.918 16.879 13.489 17.264 14.071 17.632C14.308 17.78 14.524 17.96 14.771 18.092C15.0006 17.6943 15.1954 17.2774 15.353 16.846C14.5697 16.3607 13.765 15.9117 12.939 15.499C12.891 15.475 12.8 15.437 12.845 15.373C13.0235 14.8879 13.1698 14.3915 13.283 13.887C14.006 14.1321 14.7113 14.4265 15.394 14.768C15.558 14.8585 15.7285 14.9367 15.904 15.002C16.0085 14.5054 16.0628 13.9995 16.066 13.492C15.224 13.1165 14.3548 12.805 13.466 12.56C13.472 12.243 13.44 11.931 13.432 11.613C14.2252 11.779 15.0056 12.0015 15.767 12.279C15.819 12.279 15.918 12.356 15.945 12.285C15.8426 11.7925 15.6832 11.3137 15.47 10.858C14.7172 10.6672 13.9539 10.5206 13.184 10.419C13.107 10.16 12.957 9.92503 12.902 9.66403C13.431 9.73703 13.966 9.77604 14.491 9.88004C14.6228 9.90874 14.7565 9.9281 14.891 9.93802C14.6051 9.52884 14.2584 9.16567 13.863 8.86102C13.7962 8.79262 13.7064 8.75132 13.611 8.74503C13.154 8.73103 12.697 8.71601 12.24 8.72601C12.094 8.60001 11.973 8.44702 11.826 8.32602C11.783 8.27702 11.7 8.24403 11.708 8.17203C12.032 8.15203 12.358 8.15703 12.683 8.15103C12.5408 8.04022 12.3804 7.95494 12.209 7.89902C11.657 7.66789 11.0759 7.51347 10.482 7.44003C10.22 7.31403 9.937 7.24902 9.675 7.12802L9.66299 7.11804Z" fill="#003399"/>
<path d="M4.55899 7.61305C5.63087 7.40137 6.74006 7.48358 7.769 7.85102C8.55372 8.13952 9.21162 8.69544 9.627 9.42103C10.1038 10.4008 10.2186 11.5178 9.95099 12.574C9.58289 14.0496 8.88354 15.422 7.90599 16.587C6.87196 17.8494 5.63506 18.9308 4.24599 19.787C4.17259 19.8341 4.09409 19.8727 4.01199 19.9021V16.947C4.45799 17.46 4.85099 18.019 5.28299 18.547C5.49356 18.4326 5.68489 18.2858 5.84999 18.112C5.24999 17.483 4.659 16.848 4.067 16.212C4.04658 16.198 4.02987 16.1792 4.01834 16.1572C4.00681 16.1353 4.00079 16.1108 4.00079 16.086C4.00079 16.0612 4.00681 16.0368 4.01834 16.0149C4.02987 15.9929 4.04658 15.9741 4.067 15.96C4.37748 15.6966 4.66701 15.4094 4.933 15.101C5.733 15.601 6.492 16.168 7.239 16.745C7.386 16.57 7.539 16.399 7.679 16.219C7.702 16.177 7.79099 16.108 7.72299 16.067C6.93495 15.5636 6.12118 15.1016 5.28499 14.683C5.53308 14.3699 5.74886 14.0326 5.929 13.676C6.72973 13.916 7.51745 14.1974 8.289 14.519C8.42239 14.5885 8.56286 14.6435 8.70799 14.683C8.83399 14.431 8.971 14.172 9.086 13.911C8.14909 13.5719 7.18538 13.312 6.205 13.134C6.31511 12.8957 6.39958 12.6462 6.457 12.39C7.47403 12.4406 8.48495 12.5771 9.47899 12.798C9.56618 12.4955 9.62477 12.1855 9.65399 11.8721C8.6392 11.7784 7.61975 11.745 6.601 11.772C6.627 11.572 6.636 11.372 6.655 11.167C7.66936 11.0827 8.6879 11.06 9.705 11.099C9.69543 10.8301 9.65105 10.5636 9.573 10.306C8.576 10.3376 7.5833 10.4513 6.605 10.646C6.57132 10.4892 6.52925 10.3344 6.47899 10.182C7.42119 9.94648 8.37997 9.78299 9.347 9.69304C9.23683 9.47542 9.10265 9.27083 8.94699 9.08305C8.05838 9.25916 7.18219 9.49297 6.32399 9.78303C6.25415 9.64845 6.16964 9.52203 6.07199 9.40605C6.84705 9.08105 7.65047 8.8283 8.472 8.65104C8.26195 8.46624 8.0227 8.31755 7.76399 8.21104C7.06718 8.42433 6.39243 8.70394 5.74899 9.04603C5.65449 8.96458 5.55422 8.89006 5.44899 8.82304C5.44899 8.75904 5.52099 8.74505 5.56499 8.71205C6.04662 8.42459 6.55257 8.17997 7.077 7.98103C6.72327 7.8767 6.35762 7.81824 5.989 7.80705C5.59012 8.00727 5.21079 8.24427 4.85599 8.51503C4.71686 8.46387 4.57457 8.4218 4.42999 8.38905C4.64097 8.18381 4.87252 8.00082 5.12099 7.84303C4.74407 7.85915 4.36897 7.90429 3.99899 7.97804V7.89705V7.72505C4.17999 7.68105 4.36699 7.65805 4.54799 7.61705L4.55899 7.61305Z" fill="#003399"/>
<path d="M13.744 8.13202C13.969 8.1727 14.1899 8.23359 14.404 8.314C15.218 8.56705 15.9661 8.99662 16.595 9.57202C17.1636 10.1219 17.6409 10.7589 18.009 11.459C18.8294 13.0505 19.0954 14.8702 18.765 16.63C18.3611 18.5603 17.5657 20.3872 16.428 21.998C14.7685 24.3606 12.6853 26.395 10.284 27.998H7.79298C7.50998 27.521 7.21999 27.048 6.93799 26.57C7.99959 26.0022 9.01535 25.3526 9.976 24.627C10.49 25.284 10.983 25.956 11.516 26.598C11.842 26.33 12.175 26.071 12.486 25.788C11.9942 25.1102 11.4643 24.4608 10.899 23.843C11.6551 23.1914 12.3574 22.4797 12.999 21.715C13.599 22.286 14.164 22.905 14.739 23.505C15.0936 23.1634 15.4095 22.7838 15.681 22.373C15.109 21.758 14.481 21.202 13.874 20.62C13.985 20.449 14.126 20.299 14.242 20.133C14.6139 19.6108 14.9503 19.0643 15.249 18.497C15.4031 18.58 15.5471 18.6807 15.678 18.797C16.178 19.174 16.658 19.583 17.145 19.98C17.3907 19.5316 17.5981 19.0633 17.765 18.58C17.1676 18.0735 16.5365 17.608 15.876 17.187C16.1303 16.5961 16.3204 15.9795 16.443 15.348C17.1147 15.6879 17.7581 16.0812 18.367 16.524C18.4824 15.9366 18.5347 15.3385 18.523 14.74C17.9242 14.3729 17.303 14.0435 16.663 13.754C16.6647 13.3652 16.645 12.9766 16.604 12.59C17.1987 12.83 17.7803 13.0967 18.349 13.39C18.2652 12.8314 18.0966 12.2888 17.849 11.781C17.791 11.681 17.755 11.537 17.627 11.504C17.146 11.337 16.664 11.174 16.178 11.028C16.0499 10.7233 15.8988 10.4288 15.726 10.147C16.1898 10.2367 16.6438 10.3706 17.082 10.547C16.6026 9.90859 15.9992 9.37357 15.308 8.974C15.089 8.841 14.808 8.93102 14.588 8.80402C14.3404 8.54645 14.0592 8.32345 13.752 8.14102L13.744 8.13202Z" fill="#003399"/>
<path d="M4.01099 8.51004C4.45248 8.55567 4.87657 8.70663 5.24757 8.95026C5.61858 9.19388 5.92566 9.52304 6.14299 9.91003C6.50772 10.7923 6.51418 11.7821 6.161 12.669C5.81138 13.6143 5.26615 14.475 4.56099 15.195C4.39224 15.3833 4.2101 15.5591 4.01599 15.721C4.02399 15.31 4.00499 14.898 4.02599 14.487C4.16114 14.5837 4.30472 14.6681 4.45499 14.739C4.56525 14.6395 4.66571 14.5297 4.75499 14.411C4.51803 14.2684 4.27144 14.1424 4.017 14.034V13.134C4.47559 13.2029 4.92593 13.3185 5.36099 13.479C5.44952 13.3295 5.52577 13.1729 5.58899 13.011C5.07427 12.8969 4.55186 12.8207 4.02599 12.783C4.01799 12.612 4.01999 12.441 4.02599 12.27C4.64157 12.2538 5.25758 12.2728 5.87099 12.327C5.92841 12.1563 5.97288 11.9814 6.004 11.804C5.34 11.789 4.683 11.882 4.02299 11.93V11.536C4.6874 11.3898 5.36042 11.2859 6.03799 11.225C6.03799 11.075 6.02799 10.925 6.02199 10.778C5.34008 10.8863 4.67028 11.0605 4.02199 11.298V10.921C4.63368 10.6662 5.26554 10.4629 5.911 10.313C5.87791 10.1966 5.83578 10.0829 5.78499 9.97302C5.17713 10.1611 4.58715 10.4027 4.02199 10.695C4.02199 10.555 4.022 10.416 4.028 10.276C4.51 10.039 4.99499 9.80404 5.48999 9.59204C5.4034 9.49316 5.30726 9.40305 5.20299 9.32303C4.80299 9.54803 4.41299 9.77502 4.02899 10.016V9.60504C4.24199 9.47004 4.452 9.33102 4.674 9.20502C4.719 9.16602 4.8 9.15304 4.821 9.08704C4.67835 8.99691 4.52093 8.93259 4.35599 8.89703C4.22999 8.94403 4.14199 9.04702 4.01999 9.09702V8.49704L4.01099 8.51004Z" fill="#003399"/>
<path d="M17.908 10.781C18.186 10.907 18.55 10.926 18.725 11.21C19.625 12.2492 20.255 13.4943 20.559 14.835C20.8755 16.2755 20.8477 17.7703 20.478 19.198C19.8135 21.5848 18.6169 23.79 16.978 25.648C16.2771 26.4619 15.5249 27.2301 14.726 27.948C14.5436 27.9554 14.361 27.9521 14.179 27.938C13.747 27.386 13.337 26.816 12.879 26.284C13.6977 25.5822 14.4561 24.8128 15.146 23.984C15.606 24.498 16.0543 25.0224 16.491 25.557C16.6677 25.3957 16.8315 25.2208 16.981 25.034C17.1576 24.8288 17.3203 24.612 17.468 24.385C17.459 24.259 17.333 24.179 17.263 24.085C16.885 23.646 16.501 23.214 16.098 22.799C16.4826 22.2906 16.8411 21.7629 17.172 21.218C17.3249 20.9736 17.4654 20.7216 17.593 20.463C17.785 20.5885 17.961 20.7369 18.117 20.905C18.4317 21.2144 18.742 21.5283 19.048 21.847C19.3153 21.3745 19.5385 20.8784 19.715 20.365C19.2919 19.9032 18.8364 19.4721 18.352 19.075C18.28 19.04 18.299 18.975 18.324 18.914C18.5904 18.2886 18.784 17.6347 18.901 16.965C19.0324 17.016 19.1531 17.0909 19.257 17.186C19.6137 17.4558 19.9562 17.7438 20.283 18.049C20.3905 17.3787 20.424 16.6986 20.383 16.021C19.9839 15.688 19.568 15.3756 19.137 15.085C19.101 14.647 19.106 14.204 19.037 13.772C19.407 13.972 19.757 14.212 20.128 14.414C19.9381 13.7136 19.657 13.0412 19.292 12.414C19.2423 12.3117 19.1791 12.2165 19.104 12.131C18.915 12.015 18.704 11.946 18.504 11.845C18.44 11.821 18.423 11.745 18.394 11.697C18.254 11.382 18.068 11.092 17.907 10.787L17.908 10.781Z" fill="#003399"/>
<path d="M19.7 12.207C19.9 12.231 20.012 12.436 20.15 12.566C21.1404 13.6702 21.8033 15.0288 22.064 16.489C22.346 18.0692 22.2716 19.6923 21.846 21.24C21.1605 23.7544 19.8891 26.0706 18.136 27.999H15.078C15.223 27.829 15.4 27.692 15.558 27.533C15.916 27.182 16.248 26.806 16.576 26.427C16.683 26.315 16.764 26.164 16.902 26.087C17.28 26.556 17.644 27.047 18.002 27.533C18.366 27.144 18.674 26.709 19.002 26.29C18.6578 25.7906 18.2879 25.3092 17.894 24.848C18.49 24.0423 19.0284 23.1956 19.505 22.314C19.875 22.7351 20.2232 23.1751 20.548 23.632C20.8323 23.1362 21.0578 22.609 21.22 22.061C20.9125 21.6099 20.5786 21.1775 20.22 20.766C20.4887 20.048 20.6866 19.3055 20.811 18.549C21.1547 18.8615 21.4759 19.198 21.772 19.556C21.8818 18.7897 21.9036 18.0133 21.837 17.242C21.5805 16.9657 21.3015 16.7112 21.003 16.481C20.97 15.96 20.896 15.444 20.827 14.927C21.027 15.074 21.22 15.227 21.427 15.371C21.0852 14.3294 20.5547 13.3596 19.862 12.51C19.798 12.418 19.696 12.336 19.703 12.21L19.7 12.207Z" fill="#003399"/>
<path d="M22.19 15.967C22.379 16.061 22.442 16.278 22.52 16.458C22.8443 17.1742 23.0668 17.9322 23.181 18.71C23.2509 19.5532 23.2153 20.4017 23.075 21.236C22.8648 22.6012 22.4649 23.9304 21.887 25.185C21.4469 26.1423 20.9317 27.0632 20.346 27.939C20.253 27.939 20.161 27.939 20.071 27.945C19.853 27.561 19.595 27.2 19.386 26.813C19.9686 25.9934 20.4941 25.1347 20.959 24.243L21.009 24.251C21.195 24.513 21.35 24.797 21.509 25.075C21.6046 24.919 21.6847 24.7538 21.748 24.582C21.9154 24.2023 22.0551 23.811 22.166 23.411C22 23.135 21.842 22.857 21.686 22.578C21.9451 21.8209 22.1457 21.0449 22.286 20.257C22.286 20.157 22.369 20.249 22.386 20.283C22.502 20.431 22.615 20.583 22.741 20.721C22.8886 19.9581 22.9437 19.1801 22.905 18.404C22.7752 18.2025 22.6322 18.0097 22.477 17.827C22.412 17.758 22.423 17.655 22.41 17.569C22.3708 17.0309 22.2973 16.4958 22.19 15.967Z" fill="#003399"/>
<path d="M23.495 20.762C23.52 20.678 23.481 20.417 23.621 20.489C23.7181 21.7983 23.5748 23.1144 23.198 24.372C22.8591 25.6309 22.3787 26.8473 21.766 27.998H20.588C20.6614 27.8285 20.7536 27.6679 20.863 27.519C21.241 26.919 21.563 26.29 21.904 25.668C22.0102 25.8427 22.1057 26.0237 22.19 26.21C22.4116 25.7201 22.5993 25.2156 22.752 24.7C22.878 24.406 22.508 24.149 22.626 23.858C22.9043 23.093 23.1102 22.3035 23.241 21.5C23.298 21.514 23.341 21.567 23.386 21.6C23.428 21.319 23.454 21.038 23.486 20.757L23.495 20.762Z" fill="#003399"/>
<path d="M23.606 23.544L23.69 23.525C23.5895 25.0377 23.2656 26.5271 22.729 27.945H22.051C22.186 27.645 22.334 27.355 22.472 27.057C22.472 27.01 22.549 26.931 22.566 27.017C22.595 27.043 22.591 27.173 22.649 27.143C23.027 25.962 23.342 24.753 23.606 23.543V23.544Z" fill="#003399"/>
<path d="M4.00999 27.756C4.7482 27.5259 5.47099 27.249 6.174 26.927C6.374 27.283 6.582 27.634 6.767 27.998H4.00699V27.756H4.00999Z" fill="#003399"/>
<path d="M10.962 27.789C11.289 27.583 11.573 27.316 11.893 27.098C12.079 27.398 12.306 27.679 12.462 27.998H10.685C10.7724 27.922 10.8649 27.8522 10.962 27.789Z" fill="#003399"/>
</svg>
