<svg width="32" height="32" viewBox="0 0 32 32" fill="none" xmlns="http://www.w3.org/2000/svg">
<path d="M16.001 22.457C14.384 23.5317 12.4702 24.0711 10.53 23.999C7.599 23.999 4.46901 22.576 3.48901 22.599C3.20148 22.5842 2.91424 22.6333 2.64801 22.743C2.23901 22.905 1.97102 22.643 2.00702 22.427C2.15607 22.083 2.36534 21.7684 2.625 21.498C2.98823 21.0706 3.41327 20.6998 3.88601 20.398C4.83285 19.739 5.98628 19.4452 7.13299 19.571C7.41446 19.612 7.67253 19.7508 7.862 19.963C8.987 21.0039 10.3496 21.7537 11.831 22.147C11.97 22.162 12.567 22.217 12.576 22.057C12.582 21.957 12.416 21.922 12.36 21.912C10.6652 21.5273 9.11093 20.6787 7.871 19.461C6.97329 18.6537 6.22603 17.6935 5.664 16.625C5.236 15.835 4.635 14.272 3.544 13.749C3.3 13.636 3.293 13.211 3.802 13.098C5.56022 12.9211 7.33047 13.2864 8.875 14.145C9.46518 14.3857 9.9512 14.8274 10.247 15.392C10.247 15.392 10.307 15.424 10.322 15.675C10.458 19.2 12.084 20.383 12.871 20.927C13.189 21.163 13.587 21.264 13.696 21.158C13.745 21.107 13.615 20.996 13.53 20.943C11.262 19.519 10.824 17.661 10.701 15.668C10.7468 13.8868 11.1953 12.1391 12.013 10.556C12.2562 9.9622 12.3114 9.3081 12.171 8.68199C12.009 8.15999 12.181 8.03897 12.481 7.99497C12.781 7.95097 13.249 8.55098 13.411 8.73698C13.8646 9.2721 14.2493 9.86203 14.556 10.493C15.3444 12.0866 15.7615 13.8381 15.776 15.616C15.754 17.268 15.435 17.369 14.611 17.751C14.322 17.8319 14.0645 17.999 13.873 18.23C13.6814 18.461 13.5649 18.745 13.539 19.044C13.539 19.566 13.948 19.952 14.69 20.254C14.74 20.268 14.827 20.294 14.865 20.303C15.191 20.38 15.465 20.31 15.465 20.192C15.465 20.074 15.142 20.048 15.142 20.048C14.417 19.877 13.913 19.487 13.913 19.042C13.913 18.437 14.803 17.823 15.943 17.823H16.064C17.199 17.823 18.089 18.435 18.089 19.042C18.089 19.488 17.589 19.877 16.863 20.048C16.863 20.048 16.54 20.087 16.54 20.192C16.54 20.297 16.811 20.38 17.14 20.304C17.181 20.296 17.265 20.27 17.319 20.254C18.062 19.954 18.467 19.565 18.467 19.044C18.4413 18.7453 18.325 18.4616 18.1335 18.2308C17.9421 18.0001 17.6848 17.8334 17.396 17.753C16.572 17.371 16.258 17.267 16.231 15.617C16.2465 13.8399 16.6625 12.0891 17.448 10.495C17.7538 9.86261 18.14 9.27238 18.597 8.73896C18.756 8.55296 19.22 7.95397 19.528 7.99497C19.836 8.03597 19.996 8.16099 19.835 8.68199C19.6944 9.30816 19.7499 9.96244 19.994 10.556C20.8095 12.1397 21.257 13.8872 21.303 15.668C21.184 17.66 20.746 19.518 18.478 20.941C18.387 20.996 18.267 21.105 18.316 21.159C18.416 21.265 18.816 21.159 19.138 20.928C19.923 20.384 21.549 19.201 21.685 15.674C21.703 15.425 21.765 15.39 21.765 15.39C22.0581 14.8258 22.5428 14.3847 23.132 14.146C24.6775 13.2869 26.4487 12.9212 28.208 13.098C28.717 13.212 28.708 13.638 28.467 13.748C27.367 14.274 26.774 15.836 26.345 16.625C25.7852 17.6949 25.0384 18.6561 24.14 19.463C22.8984 20.68 21.3433 21.5285 19.648 21.914C19.595 21.925 19.426 21.961 19.433 22.059C19.44 22.22 20.033 22.159 20.181 22.149C21.6608 21.7534 23.0223 21.0038 24.148 19.965C24.3384 19.7528 24.597 19.6138 24.879 19.572C26.0246 19.4485 27.1762 19.7429 28.122 20.401C28.5963 20.6996 29.0208 21.0708 29.38 21.501C29.6393 21.773 29.8494 22.0881 30.001 22.432C30.036 22.652 29.77 22.908 29.359 22.746C29.0926 22.6372 28.8055 22.588 28.518 22.602C27.536 22.574 24.407 24.002 21.476 23.997C19.535 24.068 17.6204 23.5295 16.001 22.457Z" fill="#CF8C00"/>
</svg>
