<svg width="32" height="32" viewBox="0 0 32 32" fill="none" xmlns="http://www.w3.org/2000/svg">
<path d="M27.547 15.671L30 12.425C30 12.425 27.258 12.911 26.627 13.001C26.136 13.062 26.055 12.867 26.033 12.58C26.016 12.434 25.928 10.793 25.928 10.793L21.944 12.704L21.868 12.619L24.946 7.08002L22.27 8.24202C21.605 8.52402 21.34 8.48502 21.24 8.01802C21.14 7.55102 20.661 4.19102 20.64 3.99902C20.449 4.19102 17.086 7.57102 16.62 8.01802C16.154 8.46502 15.82 8.52402 15.394 8.24202L13.677 7.09702L12.092 14.807L11.992 14.829L9.39203 11.012C9.39203 11.012 8.22398 12.312 7.96198 12.59C7.85683 12.7417 7.71181 12.8612 7.54291 12.9355C7.374 13.0099 7.18783 13.036 7.005 13.011C6.453 12.931 4.02698 12.435 4.02698 12.435C4.02698 12.435 3.83603 15.399 3.80603 15.681C3.78275 15.9023 3.71218 16.116 3.59918 16.3077C3.48618 16.4994 3.33335 16.6645 3.151 16.792L3.01599 16.904L1.99597 16.996L5.42999 20.996C6.20799 21.905 6.193 22.27 5.396 23.238L4.37097 24.485L9.552 23.619C10.133 23.519 10.715 23.682 10.57 24.475C10.47 25.017 9.927 27.996 9.927 27.996L12.64 23.423L12.74 23.44L19.53 24.485C19.53 24.485 19.552 23.454 19.579 22.691C19.5737 22.4594 19.6422 22.2322 19.7745 22.042C19.9068 21.8518 20.096 21.7086 20.315 21.633C20.577 21.473 28.321 17.033 28.321 17.033L27.543 16.615C27.074 16.381 27.336 15.957 27.547 15.671Z" fill="white"/>
<path d="M21.932 12.704L12.732 23.443L12.632 23.426L17.423 15.349L3.02301 16.893L3.15796 16.781L12.001 14.819L12.094 14.797L21.876 12.626L21.932 12.704Z" fill="white"/>
<path d="M12.0031 14.858L9.41003 11.053C9.41003 11.053 8.24505 12.346 7.98505 12.626C7.88033 12.7772 7.73564 12.8963 7.5672 12.9701C7.39876 13.0439 7.21313 13.0695 7.03101 13.044C6.47901 12.964 4.06305 12.47 4.06305 12.47C4.06305 12.47 3.87204 15.424 3.84204 15.704C3.81981 15.925 3.75 16.1385 3.63745 16.3299C3.52491 16.5213 3.37225 16.6861 3.19 16.813L12.0031 14.858Z" fill="#00AC9D"/>
<path d="M21.847 12.673L24.913 7.15103L22.242 8.30103C21.58 8.58503 21.317 8.54403 21.217 8.08003C21.117 7.61603 20.643 4.26503 20.611 4.07303C20.42 4.26503 17.069 7.63503 16.605 8.08003C16.141 8.52503 15.805 8.58603 15.391 8.30103C14.977 8.01603 13.691 7.16103 13.691 7.16103L12.097 14.837L21.847 12.673Z" fill="#00AC9D"/>
<path d="M27.5099 15.705L29.936 12.471C29.936 12.471 27.203 12.957 26.573 13.045C26.082 13.106 26.004 12.914 25.982 12.627C25.965 12.481 25.882 10.847 25.882 10.847L21.9109 12.747L12.744 23.447L19.512 24.488C19.512 24.488 19.534 23.462 19.561 22.701C19.5552 22.4699 19.6236 22.2431 19.756 22.0536C19.8884 21.8641 20.078 21.722 20.297 21.648C20.562 21.49 28.276 17.062 28.276 17.062L27.508 16.651C27.037 16.408 27.297 15.99 27.508 15.703" fill="#00AC9D"/>
<path d="M2.04401 17.032L5.45099 21.017C6.22599 21.924 6.21101 22.289 5.41901 23.251L4.39404 24.493L9.54504 23.632C10.126 23.532 10.705 23.695 10.563 24.485C10.463 25.022 9.92004 27.991 9.92004 27.991L12.62 23.435L17.393 15.385L3.039 16.924L2.04401 17.032Z" fill="#00467F"/>
</svg>
