<svg width="32" height="32" viewBox="0 0 32 32" fill="none" xmlns="http://www.w3.org/2000/svg">
<path d="M1 11.067C1.00412 11.0595 1.01019 11.0532 1.01758 11.0488C1.02497 11.0444 1.03339 11.042 1.04199 11.042C1.33234 11.008 1.62491 10.997 1.91699 11.009C2.09455 11.0318 2.26919 11.0734 2.43799 11.133C2.80164 11.2428 3.17349 11.3235 3.54999 11.374C3.74999 11.4154 3.95295 11.4408 4.15698 11.45C4.33647 11.441 4.51261 11.3979 4.67599 11.323C5.11542 11.1503 5.60499 11.1564 6.03998 11.34C6.6306 11.5683 7.19678 11.8555 7.72998 12.197C8.25898 12.522 8.767 12.875 9.28 13.222C9.58 13.422 9.866 13.637 10.168 13.832C10.47 14.027 10.775 14.225 11.082 14.417C11.424 14.631 11.772 14.837 12.134 15.017C12.6413 15.2923 13.193 15.4765 13.764 15.561C14.0207 15.5858 14.2795 15.5804 14.535 15.545C14.8241 15.515 15.1103 15.4622 15.391 15.387C15.7204 15.2958 16.0389 15.169 16.341 15.009C16.7699 14.779 17.1542 14.4742 17.476 14.109C17.78 13.7617 18.0455 13.3825 18.268 12.978C18.534 12.504 18.748 12.008 19.02 11.538C19.0992 11.3924 19.2004 11.2598 19.32 11.145C19.3688 11.0972 19.4267 11.0596 19.4902 11.0343C19.5537 11.0091 19.6217 10.9967 19.69 10.998C23.4233 10.998 27.1567 10.998 30.89 10.998H30.953C30.971 10.998 30.992 10.998 30.996 11.019C31 11.04 30.977 11.047 30.958 11.055C30.287 11.335 29.625 11.635 28.97 11.945C28.35 12.238 27.733 12.537 27.131 12.861C26.705 13.089 26.278 13.317 25.861 13.561C25.4203 13.8184 24.987 14.085 24.561 14.361C23.9997 14.7245 23.465 15.1276 22.961 15.567C22.6059 15.8704 22.2878 16.2144 22.013 16.592C21.8245 16.8426 21.6885 17.1287 21.613 17.433C21.5571 17.6729 21.568 17.9235 21.6445 18.1576C21.721 18.3918 21.8602 18.6004 22.047 18.761C22.3079 19.0055 22.6197 19.1893 22.96 19.299C23.2115 19.3808 23.4694 19.4417 23.731 19.481C24.361 19.5616 24.9973 19.5807 25.631 19.538C25.901 19.529 26.172 19.502 26.44 19.467C26.759 19.425 27.078 19.386 27.394 19.325C27.634 19.279 27.879 19.249 28.117 19.197C28.338 19.148 28.561 19.108 28.781 19.053C29.001 18.998 29.23 18.953 29.454 18.893C29.793 18.809 30.127 18.713 30.461 18.617C30.5695 18.5733 30.6843 18.5473 30.801 18.54C30.7127 18.6502 30.6044 18.7427 30.482 18.813C29.839 19.2815 29.1449 19.6753 28.413 19.987C27.995 20.1717 27.5654 20.329 27.127 20.458C26.8363 20.5407 26.5447 20.6177 26.252 20.689C25.836 20.789 25.411 20.848 24.988 20.91C24.704 20.952 24.414 20.959 24.126 20.978C23.813 20.998 23.499 20.994 23.186 20.993C22.705 20.993 22.227 20.949 21.749 20.91C21.37 20.879 20.993 20.818 20.618 20.756C20.318 20.706 20.018 20.643 19.718 20.578C19.157 20.456 18.607 20.304 18.062 20.132C17.588 19.982 17.122 19.812 16.662 19.632C16.107 19.422 15.571 19.174 15.038 18.922C14.651 18.739 14.27 18.544 13.9 18.33C13.659 18.19 13.4 18.075 13.161 17.93C12.943 17.799 12.727 17.665 12.507 17.537C11.987 17.237 11.486 16.904 10.981 16.581C10.543 16.301 10.115 16.007 9.68698 15.714C9.16198 15.355 8.64299 14.99 8.11899 14.631C7.65799 14.315 7.19998 13.997 6.72998 13.693C5.9093 13.1315 5.04177 12.6416 4.13699 12.229C3.56499 11.985 2.978 11.77 2.392 11.555C2.129 11.455 1.867 11.362 1.603 11.271C1.419 11.208 1.23398 11.149 1.04898 11.09C1.03298 11.094 1.007 11.094 1 11.067Z" fill="#018AC4"/>
</svg>
