<svg width="45" height="22" viewBox="0 0 45 22" fill="none" xmlns="http://www.w3.org/2000/svg">
<path d="M32.4709 4.87051L31.6209 6.9155H33.3269L32.4709 4.87051ZM22.6449 6.1385C22.7284 6.08812 22.7961 6.01551 22.8407 5.92879C22.8852 5.84207 22.9046 5.74467 22.8969 5.64751C22.9035 5.55455 22.8825 5.46172 22.8367 5.38061C22.7908 5.29951 22.722 5.23374 22.6389 5.1915C22.4536 5.11505 22.2529 5.08287 22.0529 5.0975H20.5289V6.2375H22.0289C22.2395 6.2657 22.4538 6.23127 22.6449 6.1385ZM3.12793 4.87051L2.28393 6.9155H3.97193L3.12793 4.87051ZM42.3209 17.9895H39.9339V16.8895H42.3139C42.491 16.9129 42.6703 16.8667 42.8139 16.7605C42.8606 16.7186 42.8979 16.6672 42.9232 16.6098C42.9486 16.5524 42.9614 16.4903 42.9609 16.4275C42.9643 16.363 42.9523 16.2986 42.9259 16.2396C42.8994 16.1807 42.8594 16.1289 42.8089 16.0885C42.6831 15.9985 42.529 15.9569 42.3749 15.9715C41.2139 15.9305 39.7659 16.0065 39.7659 14.3825C39.7659 13.6405 40.2409 12.8515 41.5419 12.8515H44.0029V11.8285H41.7169C41.1693 11.8009 40.6271 11.9484 40.1689 12.2495V11.8285H36.7799C36.2544 11.8 35.7345 11.9482 35.3029 12.2495V11.8285H29.2529V12.2495C28.7459 11.9619 28.1707 11.8164 27.5879 11.8285H23.5949V12.2495C23.0758 11.9236 22.4646 11.7758 21.8539 11.8285H17.3919L16.3719 12.9285L15.4159 11.8285H8.73893V18.9985H15.2819L16.3369 17.8825L17.3279 18.9985L21.3619 19.0045V17.3155H21.7619C22.3477 17.3514 22.9347 17.2659 23.4859 17.0645V18.9985H26.8029V17.1285H26.9609C27.1659 17.1285 27.1839 17.1345 27.1839 17.3385V18.9925H37.2839C37.8792 19.0164 38.4672 18.8549 38.9669 18.5305V18.9925H42.1739C42.795 19.0148 43.4134 18.9011 43.9859 18.6595V17.3215C43.7859 17.5628 43.5287 17.7504 43.2377 17.867C42.9468 17.9837 42.6313 18.0258 42.3199 17.9895H42.3209ZM21.8029 16.2945H20.2649V18.0185H17.8649L16.3409 16.3185L14.7579 18.0185H9.85793V12.8815H14.8349L16.3589 14.5645L17.9299 12.8815H21.8809C22.8599 12.8815 23.9679 13.1505 23.9679 14.5765C23.9679 16.0025 22.8909 16.2945 21.8029 16.2945ZM29.2249 16.0605C29.3948 16.3409 29.4669 16.6697 29.4299 16.9955V18.0125H28.1909V17.3695C28.1909 17.0595 28.2199 16.6035 27.9909 16.3645C27.8618 16.2687 27.7151 16.1992 27.5591 16.1601C27.4031 16.1209 27.241 16.1129 27.0819 16.1365H25.7639V18.0125H24.5209V12.8755H27.3759C27.8844 12.8333 28.3955 12.9157 28.8649 13.1155C29.0691 13.2243 29.2375 13.3898 29.3498 13.592C29.4621 13.7943 29.5135 14.0247 29.4979 14.2555C29.5061 14.5454 29.4265 14.8309 29.2697 15.0749C29.1129 15.3188 28.8861 15.5096 28.6189 15.6225C28.8576 15.7121 29.0681 15.8637 29.2289 16.0615L29.2249 16.0605ZM34.3369 13.9455H31.4369V14.8805H34.2629V15.9265H31.4449V16.9495L34.3449 16.9555V18.0195H30.2139V12.8825H34.3409L34.3369 13.9455ZM37.5149 18.0185H35.1049V16.9185H37.5049C37.6818 16.9393 37.8601 16.8933 38.0049 16.7895C38.0506 16.7467 38.0871 16.6952 38.1124 16.638C38.1376 16.5808 38.1511 16.519 38.1519 16.4565C38.154 16.3922 38.1414 16.3282 38.115 16.2695C38.0887 16.2107 38.0493 16.1588 37.9999 16.1175C37.8709 16.0299 37.7151 15.9906 37.5599 16.0065C36.4049 15.9655 34.9599 16.0415 34.9599 14.4175C34.9599 13.6695 35.4289 12.8865 36.7309 12.8865H39.2109V13.9795H36.9439C36.7717 13.958 36.5969 13.9905 36.4439 14.0725C36.3797 14.1158 36.3285 14.1758 36.2959 14.2461C36.2633 14.3164 36.2505 14.3943 36.2589 14.4713C36.2674 14.5483 36.2967 14.6215 36.3438 14.6831C36.3908 14.7446 36.4538 14.7922 36.5259 14.8205C36.6816 14.868 36.8444 14.8877 37.0069 14.8785L37.6749 14.8965C38.1813 14.8526 38.6857 15.0007 39.0879 15.3115C39.2215 15.4571 39.3234 15.629 39.3869 15.8161C39.4504 16.0033 39.4743 16.2016 39.4569 16.3985C39.4589 17.5005 38.7679 18.0185 37.5189 18.0185H37.5149ZM27.9229 14.0285C27.7363 13.9491 27.5329 13.9171 27.3309 13.9355H25.8109V15.0865H27.3109C27.52 15.1071 27.7308 15.0708 27.9209 14.9815C28.0032 14.9294 28.0703 14.8566 28.1155 14.7705C28.1608 14.6843 28.1827 14.5878 28.1789 14.4905C28.1862 14.3972 28.1662 14.3039 28.1215 14.2217C28.0768 14.1395 28.0092 14.0721 27.9269 14.0275L27.9229 14.0285ZM41.7419 13.9355C41.5695 13.9136 41.3946 13.9465 41.2419 14.0295C41.1812 14.0687 41.1322 14.1236 41.1001 14.1884C41.0681 14.2532 41.0542 14.3254 41.0599 14.3975C41.0569 14.4817 41.0816 14.5646 41.1305 14.6333C41.1793 14.702 41.2494 14.7527 41.3299 14.7775C41.4836 14.8247 41.6444 14.8443 41.8049 14.8355L42.4729 14.8535C42.9755 14.8076 43.4766 14.9561 43.8729 15.2685C43.918 15.3056 43.9574 15.349 43.9899 15.3975V13.9365H41.7459L41.7419 13.9355ZM21.8499 13.9355H20.2409V15.2445H21.8409C22.3159 15.2445 22.6089 15.0105 22.6089 14.5665C22.6089 14.1225 22.3029 13.9345 21.8539 13.9345L21.8499 13.9355ZM11.0859 13.9355V14.8705H13.8029V15.9165H11.0889V16.9395H14.1319L15.5449 15.4315L14.1909 13.9315L11.0859 13.9355ZM19.0239 17.5295V13.4095L17.1239 15.4375L19.0239 17.5295ZM11.1849 9.2785V10.1605H21.5249L21.5189 8.2905H21.7189C21.8599 8.2965 21.9009 8.30851 21.9009 8.53551V10.1605H27.2479V9.7225C27.8639 10.0252 28.5437 10.1755 29.2299 10.1605H31.4809L31.9619 9.02051H33.0289L33.4979 10.1605H37.8309V9.0795L38.4879 10.1605H41.9589V3.0005H38.5209V3.8475L38.0399 3.0005H34.5169V3.8475L34.0769 3.0005H29.3169C28.6046 2.96635 27.895 3.11109 27.2529 3.42151V3.0005H23.9639V3.42151C23.5649 3.11389 23.0665 2.96401 22.5639 3.0005H10.5559L9.75593 4.85251L8.91993 3.0005H5.13893V3.8475L4.72293 3.0005H1.50293L0.00292969 6.40751V9.13051L2.21893 3.99351H4.05393L6.15393 8.85551V3.99351H8.17593L9.79393 7.4765L11.2829 3.99351H13.3409V9.13051H12.0739L12.0679 5.1105L10.2739 9.13051H9.18993L7.38993 5.10451V9.13051H4.87493L4.40293 7.9855H1.82593L1.34493 9.13051H0.00292969V10.1645H2.11393L2.58893 9.0245H3.65493L4.12993 10.1645H8.28693V9.2935L8.65593 10.1705H10.8129L11.1849 9.2785ZM27.4719 4.59151C27.7284 4.37071 28.0266 4.2038 28.3489 4.10071C28.6712 3.99763 29.011 3.96049 29.3479 3.99151H30.5479V5.09151H29.3749C29.2043 5.06962 29.0309 5.08511 28.8669 5.13692C28.7029 5.18872 28.552 5.27559 28.4249 5.3915C28.165 5.72109 28.0373 6.13579 28.0669 6.5545C28.0309 6.98251 28.1518 7.409 28.4069 7.7545C28.6488 7.9516 28.9583 8.04602 29.2689 8.0175H29.8259L31.5669 3.97951H33.4199L35.5129 8.8355V3.9885H37.3949L39.5699 7.56451V3.9885H40.8359V9.1255H39.0839L36.7389 5.2685V9.1255H34.2179L33.7369 7.98051H31.1689L30.6999 9.1255H29.2519C28.6045 9.164 27.9656 8.96208 27.4579 8.5585C27.2182 8.29464 27.0356 7.98404 26.9217 7.64622C26.8078 7.3084 26.7649 6.95067 26.7959 6.5955C26.7491 5.86332 26.9935 5.1423 27.4759 4.58951L27.4719 4.59151ZM24.9279 3.99151H26.1879V9.1285H24.9279V3.99151ZM19.2409 3.99151H22.0839C22.5968 3.94 23.1141 4.0245 23.5839 4.2365C23.787 4.34612 23.9541 4.51196 24.0653 4.71416C24.1765 4.91635 24.2271 5.14631 24.2109 5.3765C24.2198 5.66586 24.1411 5.95115 23.9851 6.19504C23.8292 6.43894 23.6033 6.6301 23.3369 6.74351C23.5754 6.82996 23.7862 6.97921 23.9469 7.17551C24.1195 7.45705 24.1918 7.78869 24.1519 8.11651V9.1275H22.9029L22.8969 8.47851C22.948 8.13293 22.88 7.78025 22.7039 7.47851C22.4449 7.28878 22.1215 7.20899 21.8039 7.25651H20.4819V9.1265H19.2449V3.99351L19.2409 3.99151ZM14.2519 3.99151H18.3849V5.06051H15.4849V5.9835H18.3109V7.03551H15.4919V8.06351H18.3919V9.1275H14.2549V3.99351L14.2519 3.99151Z" fill="#2557D6"/>
</svg>
