<svg width="33" height="31" viewBox="0 0 33 31" fill="none" xmlns="http://www.w3.org/2000/svg">
<path d="M32.6339 0.000346254V30.5913C32.6339 30.6423 32.6229 30.6553 32.5719 30.6553H0.000945439V0.0913462C0.000945439 -0.0106537 -0.00805455 0.000346254 0.0909454 0.000346254H32.6339ZM18.5249 10.8223L18.4669 10.7783C18.1379 10.5563 17.8069 10.3353 17.4809 10.1123C17.4647 10.0982 17.444 10.0904 17.4224 10.0904C17.4009 10.0904 17.3802 10.0982 17.3639 10.1123C15.6253 11.285 13.8859 12.4567 12.1459 13.6273L11.3339 14.1713L11.4239 14.2323C13.0346 15.319 14.6446 16.4037 16.2539 17.4863C16.272 17.5016 16.2948 17.5099 16.3184 17.5099C16.3421 17.5099 16.3649 17.5016 16.3829 17.4863C17.8043 16.5283 19.2263 15.571 20.6489 14.6143L21.3019 14.1753L21.2719 14.1513C20.5546 13.6687 19.8396 13.1857 19.1269 12.7023C19.0869 12.6753 19.0669 12.6913 19.0369 12.7093C18.5763 13.0207 18.1149 13.3303 17.6529 13.6383C17.3039 13.8743 16.9529 14.1093 16.5949 14.3523L17.7009 15.1003C17.6769 15.1173 17.6599 15.1313 17.6409 15.1433L16.3729 16.0003C16.357 16.0134 16.3371 16.0206 16.3164 16.0206C16.2958 16.0206 16.2759 16.0134 16.2599 16.0003C15.4419 15.447 14.6229 14.895 13.8029 14.3443L13.5439 14.1743L18.5249 10.8223ZM14.1009 14.1733L14.1549 14.2113C14.4879 14.4353 14.8219 14.6593 15.1549 14.8853C15.1695 14.8985 15.1884 14.9058 15.2079 14.9058C15.2275 14.9058 15.2464 14.8985 15.2609 14.8853C17.2556 13.5413 19.2506 12.198 21.2459 10.8553C21.2959 10.8213 21.2909 10.8083 21.2459 10.7763L16.3629 7.50035C16.3493 7.48784 16.3315 7.4809 16.3129 7.4809C16.2944 7.4809 16.2766 7.48784 16.2629 7.50035L11.3909 10.7763C11.3439 10.8073 11.3329 10.8213 11.3909 10.8583C12.0903 11.325 12.7903 11.7957 13.4909 12.2703C13.5076 12.2868 13.5301 12.296 13.5534 12.296C13.5768 12.296 13.5993 12.2868 13.6159 12.2703C14.0539 11.973 14.4926 11.6773 14.9319 11.3833L16.0459 10.6323L14.9339 9.89335L14.9899 9.85335L16.2539 9.00035C16.2702 8.98594 16.2912 8.97798 16.3129 8.97798C16.3347 8.97798 16.3557 8.98594 16.3719 9.00035L19.0209 10.7863C19.0409 10.8003 19.0679 10.8073 19.0769 10.8363L14.1009 14.1733ZM21.8709 20.1943C21.8701 20.2013 21.8701 20.2084 21.8709 20.2153L22.4089 21.2873C22.4151 21.3004 22.4254 21.3112 22.4382 21.3178C22.451 21.3245 22.4657 21.3268 22.4799 21.3243H23.2129C23.2302 21.3269 23.2477 21.3226 23.2618 21.3123C23.2758 21.302 23.2852 21.2866 23.2879 21.2693C23.3229 21.1483 23.3629 21.0303 23.3989 20.9073C23.3999 20.9003 23.4022 20.8934 23.4058 20.8872C23.4094 20.8811 23.4142 20.8757 23.4199 20.8713C23.4256 20.8671 23.4321 20.864 23.4389 20.8623C23.4458 20.8606 23.4529 20.8603 23.4599 20.8613H24.0879C24.1032 20.8592 24.1186 20.8631 24.1309 20.8723C24.1431 20.882 24.151 20.896 24.1529 20.9113C24.1869 21.0293 24.2239 21.1453 24.2609 21.2643C24.2618 21.2732 24.2645 21.2817 24.2688 21.2894C24.2731 21.2972 24.2789 21.3039 24.2859 21.3093C24.2929 21.3146 24.3008 21.3183 24.3092 21.3204C24.3176 21.3224 24.3264 21.3228 24.3349 21.3213H24.7909C25.0909 21.3213 25.3909 21.3353 25.6909 21.3083C25.7762 21.311 25.8607 21.2926 25.9372 21.2548C26.0136 21.2169 26.0794 21.1608 26.1289 21.0913C26.1744 21.0218 26.2043 20.9433 26.2165 20.8611C26.2287 20.779 26.223 20.6951 26.1997 20.6154C26.1764 20.5357 26.1361 20.4619 26.0816 20.3993C26.0271 20.3366 25.9597 20.2865 25.8839 20.2523C25.7389 20.1733 25.6099 20.1313 25.4739 20.0713C25.4005 20.0434 25.3327 20.0025 25.2739 19.9503C25.2413 19.9214 25.2183 19.8833 25.2077 19.841C25.1972 19.7987 25.1997 19.7542 25.2149 19.7133C25.2284 19.6741 25.2538 19.6401 25.2874 19.6159C25.3211 19.5917 25.3615 19.5786 25.4029 19.5783H26.0889C26.1329 19.5783 26.1489 19.5673 26.1469 19.5213C26.1433 19.4547 26.1433 19.388 26.1469 19.3213C26.1469 19.2733 26.1339 19.2603 26.0869 19.2603H25.4069C25.2593 19.2554 25.1118 19.2757 24.9709 19.3203C24.895 19.3422 24.826 19.3836 24.7711 19.4405C24.7162 19.4973 24.6771 19.5676 24.6579 19.6443C24.6196 19.7574 24.6216 19.8802 24.6635 19.9919C24.7055 20.1036 24.7847 20.1974 24.8879 20.2573C24.995 20.3253 25.1082 20.3832 25.2259 20.4303C25.3337 20.4725 25.4369 20.5254 25.5339 20.5883C25.566 20.6072 25.5931 20.6335 25.6129 20.665C25.6328 20.6965 25.6448 20.7323 25.6479 20.7693C25.6524 20.8014 25.6496 20.834 25.6397 20.8648C25.6298 20.8956 25.6132 20.9238 25.5909 20.9473C25.5688 20.9707 25.5416 20.9888 25.5115 21C25.4813 21.0113 25.449 21.0155 25.4169 21.0123H24.7989C24.7872 21.0141 24.7752 21.0135 24.7637 21.0106C24.7522 21.0077 24.7414 21.0025 24.7319 20.9953C24.7128 20.9808 24.7002 20.9592 24.6969 20.9353C24.5169 20.4003 24.3379 19.8633 24.1669 19.3353C24.1623 19.3131 24.1495 19.2934 24.1309 19.2802C24.1124 19.267 24.0895 19.2613 24.0669 19.2643C23.8836 19.2683 23.7003 19.2683 23.5169 19.2643C23.506 19.2619 23.4946 19.2617 23.4835 19.2637C23.4724 19.2658 23.4619 19.2701 23.4526 19.2764C23.4432 19.2826 23.4352 19.2907 23.4291 19.3002C23.423 19.3097 23.4188 19.3202 23.4169 19.3313C23.2283 19.8933 23.0379 20.4547 22.8459 21.0153C22.8389 21.0353 22.8389 21.0593 22.8149 21.0763C22.6939 20.8383 22.5769 20.6053 22.4559 20.3713C22.4369 20.3353 22.4559 20.3323 22.4849 20.3253C22.5633 20.3148 22.6369 20.2819 22.6969 20.2304C22.7569 20.1789 22.8007 20.1112 22.8229 20.0353C22.8625 19.9054 22.866 19.7671 22.8329 19.6353C22.8181 19.5706 22.789 19.5101 22.7476 19.4581C22.7062 19.4062 22.6537 19.3642 22.5939 19.3353C22.4915 19.2857 22.3787 19.2614 22.2649 19.2643H21.2679C21.2239 19.2643 21.2109 19.2753 21.2109 19.3213V21.2703C21.2109 21.3213 21.2299 21.3293 21.2739 21.3283C21.4009 21.3283 21.5279 21.3283 21.6539 21.3283C21.7249 21.3283 21.7439 21.3153 21.7439 21.2373C21.7439 20.8923 21.7439 20.5463 21.7439 20.2003V19.6293C21.7439 19.6093 21.7329 19.5743 21.7669 19.5753C21.9046 19.5584 22.0441 19.5662 22.1789 19.5983C22.2439 19.63 22.2953 19.6841 22.3236 19.7506C22.3519 19.8171 22.3552 19.8916 22.3329 19.9603C22.3303 19.9948 22.3208 20.0284 22.305 20.0591C22.2892 20.0899 22.2674 20.1172 22.2409 20.1393C22.2147 20.1614 22.1842 20.1779 22.1514 20.1879C22.1186 20.1979 22.084 20.2011 22.0499 20.1973L21.8709 20.1943ZM20.4429 20.0133C20.4619 19.9923 20.4859 19.9943 20.5069 19.9893C20.6253 19.9712 20.7338 19.9129 20.8143 19.8242C20.8948 19.7355 20.9423 19.6219 20.9489 19.5023C20.9706 19.3683 20.9439 19.2309 20.8735 19.1147C20.8032 18.9986 20.6938 18.9112 20.5649 18.8683C20.4708 18.8356 20.3725 18.8161 20.2729 18.8103C19.8339 18.7863 19.3939 18.8103 18.9549 18.7993C18.8979 18.7993 18.9079 18.8333 18.9079 18.8663V21.2553C18.9079 21.3063 18.9209 21.3213 18.9719 21.3203H20.0589C20.2245 21.3252 20.3898 21.3043 20.5489 21.2583C20.6584 21.2332 20.7584 21.1772 20.837 21.0969C20.9155 21.0166 20.9693 20.9154 20.9919 20.8053C21.0139 20.6854 21.0116 20.5623 20.9849 20.4433C20.9703 20.3623 20.935 20.2864 20.8824 20.223C20.8299 20.1596 20.7619 20.1108 20.6849 20.0813C20.6062 20.0505 20.5244 20.028 20.4409 20.0143L20.4429 20.0133ZM5.60095 20.0133C5.61195 19.9973 5.63195 19.9993 5.64895 19.9943C5.72136 19.9854 5.79115 19.9615 5.85395 19.9244C5.91675 19.8872 5.97121 19.8375 6.01395 19.7783C6.05694 19.7188 6.08736 19.6511 6.10335 19.5794C6.11934 19.5077 6.12056 19.4335 6.10695 19.3613C6.1025 19.2579 6.06769 19.1581 6.00687 19.0743C5.94605 18.9906 5.86191 18.9266 5.76495 18.8903C5.65554 18.8466 5.53964 18.8212 5.42195 18.8153C4.98695 18.7923 4.55195 18.8153 4.12195 18.8043C4.06995 18.8043 4.06995 18.8283 4.06995 18.8653V21.2653C4.06995 21.3193 4.08595 21.3293 4.13595 21.3293H5.20095C5.36643 21.3341 5.53167 21.3135 5.69095 21.2683C5.79866 21.244 5.89757 21.1905 5.9768 21.1135C6.05602 21.0366 6.11247 20.9393 6.13995 20.8323C6.16686 20.7088 6.16686 20.5809 6.13995 20.4573C6.12484 20.3669 6.08413 20.2826 6.02263 20.2146C5.96114 20.1465 5.88143 20.0975 5.79295 20.0733C5.72868 20.0474 5.66153 20.0293 5.59295 20.0193L5.60095 20.0133ZM8.76795 19.8323H8.78395C8.79395 19.8553 8.80494 19.8763 8.81495 19.8993C9.02194 20.3523 9.22995 20.8123 9.43495 21.2703C9.43959 21.2872 9.45008 21.3019 9.46454 21.3118C9.47901 21.3217 9.49652 21.3262 9.51394 21.3243H10.0909C10.1329 21.3243 10.1449 21.3133 10.1449 21.2703V19.3133C10.1449 19.2633 10.1259 19.2573 10.0859 19.2583C9.98594 19.2583 9.87794 19.2583 9.77394 19.2583C9.71694 19.2583 9.70294 19.2743 9.70294 19.3293V20.6063C9.70294 20.6273 9.71095 20.6533 9.68995 20.6773C9.67695 20.6483 9.66595 20.6263 9.65594 20.6063C9.45595 20.1773 9.25595 19.7493 9.05595 19.3163C9.04913 19.2983 9.03671 19.2829 9.02051 19.2725C9.00431 19.2621 8.98518 19.2571 8.96595 19.2583H8.38295C8.34295 19.2583 8.32895 19.2673 8.32895 19.3113V21.2683C8.32895 21.3153 8.34494 21.3253 8.38694 21.3233H8.70094C8.75694 21.3233 8.77194 21.3103 8.77194 21.2523V19.9063L8.76795 19.8323ZM13.5439 16.0463C13.5356 16.0385 13.5266 16.0315 13.5169 16.0253C13.1709 15.7913 12.8239 15.5593 12.4779 15.3253C12.4665 15.3153 12.4517 15.3097 12.4364 15.3097C12.4212 15.3097 12.4064 15.3153 12.3949 15.3253L11.3729 16.0143C11.359 16.0232 11.3477 16.0357 11.3403 16.0505C11.3329 16.0653 11.3296 16.0819 11.3309 16.0983V17.4713C11.3309 17.4873 11.3219 17.5073 11.3439 17.5243L13.5439 16.0463ZM19.0909 8.96035L20.1599 9.68435C20.1939 9.70835 20.2159 9.69735 20.2429 9.67835C20.5763 9.44768 20.9136 9.21968 21.2549 8.99435C21.2714 8.98532 21.2846 8.97144 21.2928 8.95462C21.301 8.9378 21.3039 8.91884 21.3009 8.90035V7.53035C21.3009 7.51435 21.3099 7.49435 21.2849 7.47935L19.0909 8.96035ZM14.5909 20.2763V21.2583C14.5909 21.2923 14.5909 21.3193 14.6379 21.3193C14.9619 21.3133 15.2859 21.3293 15.6099 21.3093C15.7789 21.3121 15.9427 21.2508 16.0684 21.1379C16.1942 21.0249 16.2726 20.8687 16.2879 20.7003C16.3348 20.39 16.3263 20.0738 16.2629 19.7663C16.2418 19.6429 16.1819 19.5293 16.0921 19.4419C16.0022 19.3546 15.887 19.298 15.7629 19.2803C15.6699 19.2611 15.575 19.2517 15.4799 19.2523H14.6509C14.6039 19.2523 14.5909 19.2633 14.5909 19.3133V20.2783V20.2763ZM13.9249 20.2923C13.9273 20.1642 13.923 20.036 13.9119 19.9083C13.9101 19.8747 13.9058 19.8413 13.8989 19.8083C13.8889 19.6732 13.8344 19.5452 13.7439 19.4442C13.6535 19.3433 13.5322 19.2751 13.3989 19.2503C13.1637 19.1927 12.9183 19.1903 12.6819 19.2433C12.5507 19.2619 12.4293 19.3233 12.3367 19.4181C12.2441 19.5129 12.1854 19.6357 12.1699 19.7673C12.1117 20.12 12.1117 20.4797 12.1699 20.8323C12.1875 20.9575 12.2442 21.0739 12.3318 21.1649C12.4194 21.2559 12.5336 21.317 12.6579 21.3393C12.8878 21.3942 13.1272 21.3963 13.3579 21.3453C13.4991 21.3241 13.6287 21.2549 13.725 21.1495C13.8213 21.0441 13.8785 20.9089 13.8869 20.7663C13.9078 20.6102 13.9175 20.4528 13.9159 20.2953L13.9249 20.2923ZM18.2739 20.3163C18.2773 20.1517 18.2692 19.9869 18.2499 19.8233C18.2414 19.689 18.1891 19.5612 18.1009 19.4595C18.0128 19.3578 17.8937 19.2879 17.7619 19.2603C17.5391 19.2036 17.3063 19.1978 17.0809 19.2433C16.931 19.2556 16.7908 19.3226 16.6872 19.4316C16.5835 19.5406 16.5236 19.684 16.5189 19.8343C16.4775 20.1349 16.4775 20.4398 16.5189 20.7403C16.5202 20.8868 16.5739 21.0279 16.6705 21.1381C16.767 21.2482 16.8999 21.32 17.0449 21.3403C17.2813 21.3941 17.5269 21.3913 17.7619 21.3323C17.8833 21.307 17.994 21.245 18.079 21.1546C18.1639 21.0643 18.2191 20.9501 18.2369 20.8273C18.2644 20.6575 18.2754 20.4853 18.2699 20.3133L18.2739 20.3163ZM6.14195 21.3193H6.62795C6.66695 21.3193 6.67095 21.2953 6.67795 21.2703C6.71495 21.1523 6.75295 21.0363 6.78795 20.9173C6.79895 20.8773 6.81595 20.8583 6.85895 20.8593H7.47795C7.48618 20.858 7.49461 20.8584 7.50269 20.8605C7.51077 20.8625 7.51835 20.8662 7.52495 20.8713C7.53156 20.8764 7.53709 20.8827 7.54121 20.8899C7.54533 20.8971 7.54796 20.9051 7.54895 20.9133C7.58295 21.0323 7.61995 21.1493 7.65495 21.2703C7.65594 21.2785 7.65859 21.2863 7.66271 21.2933C7.66684 21.3004 7.67236 21.3065 7.67895 21.3113C7.68552 21.3161 7.69299 21.3194 7.7009 21.3211C7.70882 21.3229 7.717 21.3229 7.72495 21.3213H8.16695C8.22295 21.3213 8.22095 21.3053 8.20695 21.2603C7.99028 20.6123 7.77495 19.963 7.56095 19.3123C7.55753 19.2942 7.54715 19.278 7.53203 19.2674C7.5169 19.2567 7.49821 19.2524 7.47995 19.2553H6.90095C6.88239 19.2528 6.86357 19.2576 6.84859 19.2689C6.83361 19.2801 6.82367 19.2968 6.82095 19.3153C6.67995 19.7393 6.53795 20.1623 6.39195 20.5833L6.14195 21.3193ZM10.3419 20.2873C10.3409 20.4406 10.3479 20.5938 10.3629 20.7463C10.3695 20.8902 10.4254 21.0275 10.5212 21.1351C10.6169 21.2427 10.7468 21.3141 10.8889 21.3373C11.1019 21.3853 11.3229 21.3853 11.5359 21.3373C11.6299 21.324 11.7185 21.2857 11.7925 21.2264C11.8666 21.1671 11.9233 21.0891 11.9569 21.0003C11.9921 20.8958 12.0113 20.7866 12.0139 20.6763C12.0139 20.6453 12.0079 20.6323 11.9739 20.6323H11.5249C11.4849 20.6323 11.4819 20.6503 11.4809 20.6813C11.4811 20.7535 11.4721 20.8255 11.4539 20.8953C11.445 20.9439 11.4183 20.9874 11.3792 21.0175C11.3401 21.0476 11.2912 21.0621 11.2419 21.0583C11.2035 21.0632 11.1644 21.0598 11.1274 21.0484C11.0903 21.037 11.0561 21.0179 11.0269 20.9923C10.9967 20.967 10.9722 20.9355 10.9549 20.9C10.9377 20.8645 10.9282 20.8258 10.9269 20.7863C10.8767 20.4549 10.8767 20.1178 10.9269 19.7863C10.9348 19.7359 10.9521 19.6874 10.9779 19.6433C11.0106 19.592 11.0587 19.5524 11.1153 19.5303C11.172 19.5082 11.2342 19.5047 11.2929 19.5203C11.3999 19.5433 11.4279 19.6293 11.4449 19.7203C11.4534 19.7652 11.4571 19.8108 11.4559 19.8563C11.4559 19.8853 11.4659 19.8963 11.4959 19.8963H11.9519C11.9769 19.8963 11.9879 19.8873 11.9879 19.8613C12.0072 19.7255 11.9758 19.5873 11.8999 19.473C11.8239 19.3587 11.7087 19.2763 11.5759 19.2413C11.3666 19.1872 11.1477 19.1818 10.9359 19.2253C10.7925 19.2395 10.6584 19.3029 10.5564 19.4048C10.4545 19.5068 10.3911 19.6409 10.3769 19.7843C10.352 19.9498 10.341 20.1171 10.3439 20.2843L10.3419 20.2873ZM27.3109 20.2813V21.2553C27.3109 21.2893 27.3049 21.3193 27.3609 21.3193H28.5229C28.5629 21.3193 28.5729 21.3053 28.5709 21.2683V21.0543C28.5709 21.0113 28.5599 21.0003 28.5179 21.0003H27.9179C27.8579 21.0003 27.8389 20.9873 27.8399 20.9233V19.3233C27.8399 19.2723 27.8289 19.2523 27.7729 19.2523C27.6419 19.2523 27.5109 19.2523 27.3799 19.2523C27.3269 19.2523 27.3089 19.2663 27.3089 19.3233C27.3169 19.6453 27.3149 19.9633 27.3149 20.2853L27.3109 20.2813ZM26.4109 20.2883V21.2583C26.4109 21.3033 26.4199 21.3223 26.4699 21.3203H26.8849C26.9269 21.3203 26.9389 21.3093 26.9389 21.2663V19.3123C26.9389 19.2643 26.9219 19.2563 26.8799 19.2573H26.4729C26.4259 19.2573 26.4119 19.2683 26.4119 19.3183V20.2903L26.4109 20.2883Z" fill="#F9DC33"/>
<path d="M18.5209 10.8223L13.5389 14.1723L13.7959 14.3463C14.6159 14.8977 15.4349 15.4497 16.2529 16.0023C16.2688 16.0154 16.2888 16.0226 16.3094 16.0226C16.33 16.0226 16.35 16.0154 16.3659 16.0023L17.6359 15.1453C17.6549 15.1343 17.6719 15.1203 17.6959 15.1023L16.5869 14.3553C16.9459 14.1153 17.2939 13.8793 17.6449 13.6413L19.0309 12.7123C19.0599 12.6933 19.0809 12.6783 19.1209 12.7053L21.2659 14.1543L21.2959 14.1783L20.6429 14.6173L16.3809 17.4923C16.3629 17.5076 16.34 17.5159 16.3164 17.5159C16.2928 17.5159 16.27 17.5076 16.2519 17.4923C14.6432 16.4057 13.0332 15.321 11.4219 14.2383L11.3319 14.1773L12.1439 13.6333L17.3619 10.1183C17.3781 10.1042 17.3989 10.0964 17.4204 10.0964C17.4419 10.0964 17.4627 10.1042 17.4789 10.1183C17.8069 10.3423 18.1369 10.5623 18.4649 10.7843C18.4861 10.7956 18.506 10.8094 18.5239 10.8253L18.5209 10.8223Z" fill="#1F4580"/>
<path d="M14.101 14.1743L19.078 10.8243C19.069 10.7953 19.042 10.7883 19.022 10.7743L16.372 8.98834C16.3557 8.97393 16.3347 8.96597 16.313 8.96597C16.2912 8.96597 16.2702 8.97393 16.254 8.98834L14.984 9.84534L14.928 9.88534L16.037 10.6243L14.924 11.3783L13.608 12.2653C13.5913 12.2818 13.5689 12.291 13.5455 12.291C13.5221 12.291 13.4996 12.2818 13.483 12.2653C12.7856 11.7927 12.0856 11.322 11.383 10.8533C11.327 10.8163 11.338 10.8023 11.383 10.7713L16.256 7.49534C16.2696 7.48283 16.2874 7.47589 16.306 7.47589C16.3245 7.47589 16.3423 7.48283 16.356 7.49534C17.982 8.59067 19.609 9.68334 21.237 10.7733C21.284 10.8043 21.288 10.8183 21.237 10.8523C19.2403 12.1943 17.2453 13.5377 15.252 14.8823C15.2374 14.8955 15.2185 14.9028 15.199 14.9028C15.1794 14.9028 15.1605 14.8955 15.146 14.8823C14.814 14.6563 14.48 14.4293 14.146 14.2083L14.101 14.1743Z" fill="#1F4580"/>
<path d="M21.8699 20.1943H22.0499C22.084 20.1981 22.1185 20.1949 22.1514 20.1849C22.1842 20.1749 22.2147 20.1584 22.2409 20.1363C22.2674 20.1142 22.2892 20.0869 22.305 20.0561C22.3208 20.0254 22.3303 19.9918 22.3329 19.9573C22.3525 19.8885 22.3479 19.815 22.3199 19.7491C22.2919 19.6833 22.2421 19.629 22.1789 19.5953C22.0436 19.5665 21.9046 19.5587 21.7669 19.5723C21.7329 19.5723 21.7439 19.6063 21.7439 19.6263V21.2333C21.7439 21.3043 21.7229 21.3243 21.6539 21.3243C21.5269 21.3183 21.3999 21.3243 21.2739 21.3243C21.2299 21.3243 21.2109 21.3183 21.2109 21.2663V19.3163C21.2109 19.2713 21.2239 19.2593 21.2679 19.2593H22.2729C22.3867 19.2563 22.4995 19.2807 22.6019 19.3303C22.6617 19.3592 22.7142 19.4012 22.7556 19.4531C22.797 19.5051 22.8261 19.5656 22.8409 19.6303C22.874 19.7621 22.8705 19.9004 22.8309 20.0303C22.8086 20.1062 22.7649 20.1739 22.7049 20.2254C22.6449 20.2768 22.5713 20.3098 22.4929 20.3203C22.4639 20.3273 22.4459 20.3303 22.4639 20.3663C22.5839 20.6003 22.7009 20.8333 22.8229 21.0713C22.8469 21.0543 22.8469 21.0303 22.8539 21.0103C23.0426 20.4503 23.2329 19.889 23.4249 19.3263C23.4268 19.3152 23.431 19.3046 23.4371 19.2952C23.4432 19.2857 23.4512 19.2776 23.4606 19.2714C23.4699 19.2651 23.4804 19.2608 23.4915 19.2587C23.5026 19.2567 23.5139 19.2569 23.5249 19.2593C23.7076 19.2633 23.8909 19.2633 24.0749 19.2593C24.0975 19.2563 24.1203 19.262 24.1389 19.2752C24.1575 19.2883 24.1703 19.3081 24.1749 19.3303C24.3499 19.8653 24.5289 20.4023 24.7049 20.9303C24.7229 20.9853 24.7449 21.0093 24.8049 21.0073C25.0099 21.0073 25.2169 21.0073 25.4229 21.0073C25.455 21.0105 25.4873 21.0063 25.5175 20.995C25.5476 20.9838 25.5748 20.9657 25.5969 20.9423C25.6192 20.9188 25.6358 20.8906 25.6457 20.8598C25.6556 20.829 25.6584 20.7964 25.6539 20.7643C25.6508 20.7273 25.6388 20.6915 25.6189 20.66C25.5991 20.6285 25.572 20.6022 25.5399 20.5833C25.4429 20.5204 25.3397 20.4675 25.2319 20.4253C25.1142 20.3782 25.001 20.3203 24.8939 20.2523C24.7907 20.1924 24.7115 20.0986 24.6695 19.9869C24.6276 19.8752 24.6256 19.7524 24.6639 19.6393C24.6831 19.5626 24.7222 19.4923 24.7771 19.4355C24.832 19.3786 24.9009 19.3372 24.9769 19.3153C25.1179 19.271 25.2653 19.2511 25.4129 19.2563H26.0949C26.1419 19.2563 26.1579 19.2693 26.1549 19.3173C26.1513 19.384 26.1513 19.4507 26.1549 19.5173C26.1549 19.5633 26.1409 19.5753 26.0969 19.5743H25.4129C25.3715 19.5746 25.3311 19.5877 25.2974 19.6119C25.2637 19.6361 25.2384 19.6701 25.2249 19.7093C25.2097 19.7502 25.2072 19.7947 25.2177 19.837C25.2283 19.8793 25.2513 19.9174 25.2839 19.9463C25.3427 19.9984 25.4105 20.0394 25.4839 20.0673C25.6209 20.1283 25.7619 20.1763 25.8939 20.2483C25.9684 20.2805 26.035 20.3286 26.0889 20.3892C26.1428 20.4499 26.1828 20.5216 26.2059 20.5993C26.2352 20.68 26.2444 20.7666 26.2327 20.8516C26.221 20.9366 26.1888 21.0175 26.1389 21.0873C26.0894 21.1568 26.0236 21.2129 25.9471 21.2508C25.8707 21.2886 25.7862 21.307 25.7009 21.3043C25.4009 21.3303 25.1009 21.3133 24.8009 21.3173H24.3449C24.3364 21.3188 24.3276 21.3184 24.3192 21.3164C24.3108 21.3143 24.3029 21.3106 24.2959 21.3053C24.2889 21.2999 24.2831 21.2932 24.2788 21.2854C24.2745 21.2777 24.2718 21.2692 24.2709 21.2603C24.2369 21.1413 24.1999 21.0243 24.1629 20.9073C24.161 20.892 24.1531 20.8779 24.1409 20.8683C24.1286 20.8591 24.1132 20.8552 24.0979 20.8573H23.4699C23.4629 20.8563 23.4558 20.8566 23.4489 20.8583C23.4421 20.86 23.4356 20.8631 23.4299 20.8673C23.4242 20.8717 23.4194 20.8771 23.4158 20.8832C23.4122 20.8894 23.4099 20.8963 23.4089 20.9033C23.3729 21.0243 23.3329 21.1423 23.2979 21.2653C23.2952 21.2826 23.2858 21.298 23.2718 21.3083C23.2577 21.3186 23.2402 21.3229 23.2229 21.3203H22.4879C22.4737 21.3228 22.459 21.3205 22.4462 21.3138C22.4334 21.3072 22.4231 21.2964 22.4169 21.2833L21.8789 20.2113C21.8781 20.2044 21.8781 20.1973 21.8789 20.1903L21.8699 20.1943ZM23.7699 19.6883H23.7549C23.6769 19.9743 23.5999 20.2543 23.5229 20.5373C23.5224 20.5467 23.5224 20.556 23.5229 20.5653H24.0229C24.0236 20.5557 24.0236 20.546 24.0229 20.5363L23.7799 19.6863L23.7699 19.6883Z" fill="#1F4580"/>
<path d="M20.442 20.0133C20.5249 20.0255 20.6064 20.0462 20.685 20.0753C20.7619 20.1048 20.8299 20.1536 20.8825 20.217C20.935 20.2804 20.9703 20.3563 20.985 20.4373C21.0116 20.5563 21.014 20.6794 20.992 20.7993C20.9693 20.9094 20.9155 21.0106 20.837 21.0909C20.7585 21.1712 20.6585 21.2272 20.549 21.2523C20.3898 21.2982 20.2245 21.3191 20.059 21.3143H18.968C18.916 21.3143 18.904 21.3003 18.904 21.2493V18.8613C18.904 18.8283 18.894 18.7903 18.951 18.7943C19.39 18.8013 19.83 18.7833 20.269 18.8053C20.3685 18.8111 20.4668 18.8306 20.561 18.8633C20.6898 18.9062 20.7992 18.9936 20.8696 19.1097C20.9399 19.2259 20.9667 19.3633 20.945 19.4973C20.9373 19.6165 20.8894 19.7296 20.8091 19.8181C20.7288 19.9065 20.6209 19.9651 20.503 19.9843C20.485 19.9933 20.46 19.9903 20.442 20.0133ZM19.551 20.5773V20.8923C19.551 20.9113 19.544 20.9363 19.578 20.9363C19.7559 20.947 19.9345 20.94 20.111 20.9153C20.286 20.8723 20.359 20.7533 20.356 20.5493C20.3619 20.4733 20.3379 20.398 20.2892 20.3394C20.2405 20.2808 20.1708 20.2434 20.095 20.2353C19.9244 20.2149 19.7523 20.2112 19.581 20.2243C19.544 20.2243 19.551 20.2493 19.551 20.2713V20.5773ZM19.551 19.5053V19.7863C19.551 19.8093 19.551 19.8323 19.584 19.8303C19.745 19.8223 19.906 19.8373 20.066 19.8163C20.1289 19.8093 20.1877 19.7815 20.2329 19.7373C20.2782 19.6931 20.3075 19.6351 20.316 19.5723C20.3252 19.5268 20.3245 19.4798 20.3138 19.4345C20.3031 19.3893 20.2827 19.3469 20.254 19.3103C20.2255 19.2738 20.1894 19.244 20.148 19.2231C20.1067 19.2022 20.0613 19.1906 20.015 19.1893C19.874 19.1783 19.732 19.1893 19.591 19.1823C19.554 19.1823 19.552 19.2023 19.554 19.2303L19.551 19.5053Z" fill="#1F4580"/>
<path d="M5.59991 20.0133C5.66391 20.0293 5.73091 20.0413 5.79491 20.0623C5.8834 20.0865 5.9631 20.1355 6.0246 20.2036C6.0861 20.2716 6.12681 20.3559 6.14191 20.4463C6.16882 20.5699 6.16882 20.6978 6.14191 20.8213C6.1155 20.9288 6.05938 21.0267 5.97999 21.1038C5.90059 21.1809 5.80111 21.2341 5.69291 21.2573C5.53363 21.3025 5.3684 21.3231 5.20291 21.3183H4.12691C4.07691 21.3183 4.06091 21.3083 4.06091 21.2543V18.8543C4.06091 18.8173 4.06091 18.7923 4.11291 18.7933C4.54791 18.8003 4.98291 18.7823 5.41291 18.8043C5.5306 18.8102 5.64651 18.8356 5.75591 18.8793C5.85288 18.9156 5.93702 18.9796 5.99784 19.0633C6.05866 19.1471 6.09347 19.2469 6.09791 19.3503C6.11193 19.4226 6.111 19.497 6.09518 19.5689C6.07936 19.6408 6.04898 19.7086 6.00591 19.7683C5.96316 19.8277 5.90855 19.8775 5.84556 19.9147C5.78256 19.9519 5.71254 19.9756 5.63991 19.9843C5.63191 19.9953 5.61091 19.9943 5.59991 20.0133ZM4.69991 20.5793V20.8883C4.69991 20.9173 4.69991 20.9363 4.73991 20.9353C4.89598 20.9411 5.05224 20.9377 5.20791 20.9253C5.25153 20.9233 5.29424 20.9122 5.33333 20.8928C5.37241 20.8733 5.40701 20.8459 5.43491 20.8123C5.46304 20.7786 5.48394 20.7394 5.49632 20.6973C5.50871 20.6552 5.51231 20.6109 5.50691 20.5673C5.51147 20.5244 5.50707 20.481 5.49398 20.4399C5.4809 20.3987 5.45943 20.3607 5.43091 20.3283C5.40227 20.2969 5.36737 20.2717 5.32846 20.2545C5.28954 20.2373 5.24747 20.2284 5.20491 20.2283C5.05118 20.2169 4.89692 20.2146 4.74291 20.2213C4.70291 20.2213 4.70091 20.2423 4.70091 20.2723C4.70691 20.3723 4.70091 20.4723 4.70091 20.5773L4.69991 20.5793ZM4.69991 19.5073V19.7883C4.69991 19.8193 4.70591 19.8323 4.74091 19.8323C4.88791 19.8323 5.03491 19.8323 5.18191 19.8243C5.24919 19.8242 5.31438 19.801 5.36662 19.7586C5.41885 19.7162 5.45495 19.6572 5.46891 19.5913C5.48037 19.5462 5.48183 19.4991 5.47319 19.4533C5.46456 19.4075 5.44603 19.3642 5.41891 19.3263C5.39211 19.2887 5.35732 19.2574 5.31705 19.2348C5.27677 19.2122 5.232 19.1987 5.18591 19.1953C5.03658 19.183 4.88667 19.1793 4.73691 19.1843C4.69991 19.1843 4.69791 19.2043 4.69791 19.2323V19.5023L4.69991 19.5073Z" fill="#1F4580"/>
<path d="M8.76297 19.8294V21.2484C8.76297 21.3064 8.74697 21.3194 8.69197 21.3194H8.38197C8.33897 21.3194 8.32397 21.3114 8.32397 21.2644V19.3104C8.32397 19.2664 8.33797 19.2564 8.37797 19.2574H8.96297C8.98221 19.2561 9.00134 19.2611 9.01754 19.2715C9.03374 19.282 9.04616 19.2973 9.05297 19.3154C9.25297 19.7444 9.45297 20.1724 9.65297 20.6054C9.66297 20.6284 9.67397 20.6494 9.68697 20.6764C9.69387 20.666 9.69858 20.6544 9.70082 20.6422C9.70305 20.63 9.70276 20.6175 9.69997 20.6054V19.3294C9.69997 19.2734 9.71297 19.2544 9.77097 19.2584C9.87097 19.2644 9.97897 19.2584 10.083 19.2584C10.123 19.2584 10.142 19.2644 10.142 19.3134V21.2694C10.142 21.3124 10.131 21.3234 10.088 21.3234H9.50797C9.49054 21.3252 9.47304 21.3207 9.45857 21.3108C9.4441 21.301 9.43362 21.2863 9.42897 21.2694C9.22397 20.8114 9.01597 20.3554 8.80897 19.8984C8.79797 19.8754 8.78797 19.8544 8.77797 19.8314L8.76297 19.8294Z" fill="#1F4580"/>
<path d="M13.543 16.0433L11.343 17.5223C11.322 17.5063 11.33 17.4863 11.33 17.4693V16.0963C11.3287 16.0798 11.3319 16.0633 11.3393 16.0485C11.3467 16.0337 11.358 16.0212 11.372 16.0123C11.714 15.7843 12.0547 15.5547 12.394 15.3233C12.4055 15.3133 12.4202 15.3077 12.4355 15.3077C12.4508 15.3077 12.4655 15.3133 12.477 15.3233C12.822 15.5593 13.17 15.7913 13.516 16.0233C13.525 16.0299 13.5333 16.0373 13.541 16.0453L13.543 16.0433Z" fill="#1F4580"/>
<path d="M19.0869 8.95635L21.2799 7.48035C21.3049 7.49435 21.2959 7.51435 21.2959 7.53135V8.90235C21.298 8.92059 21.2946 8.93904 21.286 8.95528C21.2774 8.97152 21.2642 8.98479 21.2479 8.99335C20.9099 9.21935 20.5726 9.44635 20.2359 9.67435C20.2079 9.69335 20.1859 9.70535 20.1529 9.68035L19.0869 8.95635Z" fill="#1F4580"/>
<path d="M14.589 20.2743V19.3073C14.589 19.2583 14.602 19.2463 14.649 19.2463H15.484C15.579 19.2457 15.6739 19.2551 15.767 19.2743C15.891 19.292 16.0063 19.3486 16.0961 19.4359C16.186 19.5232 16.2458 19.6368 16.267 19.7603C16.3303 20.0678 16.3388 20.384 16.292 20.6943C16.2762 20.8625 16.1976 21.0185 16.072 21.1313C15.9464 21.2442 15.7828 21.3056 15.614 21.3033C15.29 21.3233 14.966 21.3033 14.642 21.3133C14.592 21.3133 14.595 21.2873 14.595 21.2523C14.5917 20.9277 14.5897 20.6017 14.589 20.2743ZM15.121 20.2803V20.9463C15.121 20.9903 15.132 21.0063 15.178 21.0033H15.402C15.4416 21.0076 15.4816 21.004 15.5198 20.9926C15.5579 20.9813 15.5935 20.9624 15.6243 20.9372C15.6551 20.912 15.6806 20.8809 15.6992 20.8457C15.7179 20.8105 15.7294 20.772 15.733 20.7323C15.7697 20.5272 15.7815 20.3183 15.768 20.1103C15.7691 20.0092 15.757 19.9083 15.732 19.8103C15.718 19.7441 15.6821 19.6845 15.63 19.6413C15.5778 19.5981 15.5127 19.5738 15.445 19.5723C15.355 19.5653 15.273 19.5723 15.187 19.5663C15.13 19.5663 15.12 19.5843 15.121 19.6373V20.2843V20.2803Z" fill="#1F4580"/>
<path d="M13.924 20.2913C13.9272 20.4487 13.9192 20.6061 13.9 20.7623C13.8915 20.9049 13.8343 21.0401 13.738 21.1455C13.6417 21.2509 13.5122 21.3201 13.371 21.3413C13.1402 21.3923 12.9009 21.3902 12.671 21.3353C12.5466 21.313 12.4325 21.2519 12.3449 21.1609C12.2572 21.0699 12.2006 20.9535 12.183 20.8283C12.1247 20.4757 12.1247 20.116 12.183 19.7633C12.1985 19.6317 12.2571 19.5089 12.3497 19.4141C12.4424 19.3193 12.5638 19.2579 12.695 19.2393C12.9313 19.1863 13.1767 19.1887 13.412 19.2463C13.5452 19.2711 13.6665 19.3393 13.757 19.4402C13.8474 19.5412 13.9019 19.6692 13.912 19.8043C13.918 19.8383 13.923 19.8753 13.925 19.9043C13.9318 20.0326 13.9318 20.1611 13.925 20.2893L13.924 20.2913ZM12.691 20.2913V20.4623C12.6891 20.5974 12.7059 20.732 12.741 20.8623C12.7515 20.9107 12.7761 20.9548 12.8117 20.9892C12.8473 21.0236 12.8923 21.0466 12.941 21.0553C13.157 21.0893 13.295 21.0273 13.341 20.8043C13.3811 20.5582 13.3922 20.3081 13.374 20.0593C13.375 19.945 13.3592 19.8311 13.327 19.7213C13.318 19.6822 13.2998 19.6458 13.2739 19.6152C13.248 19.5846 13.2151 19.5606 13.178 19.5453C13.1344 19.5225 13.086 19.5104 13.0368 19.51C12.9876 19.5096 12.939 19.521 12.895 19.5432C12.8511 19.5654 12.8131 19.5978 12.7843 19.6377C12.7554 19.6775 12.7364 19.7237 12.729 19.7723C12.6997 19.9434 12.6873 20.1169 12.692 20.2903L12.691 20.2913Z" fill="#1F4580"/>
<path d="M18.273 20.3134C18.2774 20.4848 18.2653 20.6562 18.237 20.8254C18.2191 20.9481 18.164 21.0623 18.079 21.1526C17.994 21.243 17.8834 21.305 17.762 21.3304C17.5269 21.3893 17.2813 21.3921 17.045 21.3384C16.9002 21.3174 16.7677 21.2455 16.6712 21.1355C16.5748 21.0255 16.5208 20.8846 16.519 20.7384C16.4776 20.4378 16.4776 20.1329 16.519 19.8324C16.5248 19.6832 16.5849 19.5413 16.6881 19.4334C16.7912 19.3254 16.9302 19.2589 17.079 19.2464C17.3044 19.2008 17.5371 19.2066 17.76 19.2634C17.8917 19.2909 18.0108 19.3609 18.0989 19.4626C18.1871 19.5642 18.2394 19.6921 18.248 19.8264C18.2673 19.9903 18.2753 20.1553 18.272 20.3204L18.273 20.3134ZM17.729 20.2944C17.7348 20.1083 17.7177 19.9222 17.678 19.7404C17.6647 19.6749 17.6275 19.6168 17.5737 19.5773C17.52 19.5377 17.4534 19.5196 17.387 19.5264C17.3195 19.5193 17.2517 19.5371 17.1964 19.5765C17.1412 19.6159 17.1022 19.6742 17.087 19.7404C17.0785 19.7665 17.0718 19.7933 17.067 19.8204C17.0335 20.0907 17.0275 20.3638 17.049 20.6354C17.0516 20.72 17.0675 20.8037 17.096 20.8834C17.1087 20.9235 17.1311 20.96 17.161 20.9896C17.191 21.0192 17.2277 21.0411 17.268 21.0534C17.3117 21.072 17.3591 21.0801 17.4065 21.0772C17.4539 21.0742 17.4999 21.0603 17.541 21.0364C17.5822 21.0124 17.6173 20.9793 17.6437 20.9396C17.67 20.8999 17.6869 20.8546 17.693 20.8074C17.7209 20.6382 17.7333 20.4668 17.73 20.2954L17.729 20.2944Z" fill="#1F4580"/>
<path d="M6.13989 21.3204L6.39089 20.5854C6.53189 20.1624 6.67889 19.7394 6.81989 19.3174C6.83389 19.2734 6.85089 19.2564 6.89989 19.2574H7.47689C7.49516 19.2544 7.51384 19.2588 7.52897 19.2694C7.5441 19.2801 7.55448 19.2962 7.55789 19.3144C7.77256 19.9644 7.98789 20.6137 8.20389 21.2624C8.21989 21.3074 8.21989 21.3244 8.16389 21.3234H7.72089C7.71295 21.3249 7.70477 21.3249 7.69685 21.3231C7.68894 21.3214 7.68146 21.3181 7.67489 21.3134C7.66831 21.3085 7.66279 21.3024 7.65866 21.2953C7.65453 21.2883 7.65189 21.2805 7.65089 21.2724C7.61789 21.1534 7.57989 21.0364 7.54489 20.9154C7.54392 20.9071 7.54128 20.8991 7.53715 20.8919C7.53302 20.8847 7.52748 20.8783 7.52085 20.8733C7.51423 20.8683 7.50666 20.8646 7.49859 20.8625C7.49052 20.8605 7.48212 20.8601 7.47389 20.8614H6.85989C6.84285 20.8599 6.82592 20.8652 6.81268 20.876C6.79943 20.8868 6.79091 20.9024 6.78889 20.9194C6.75389 21.0384 6.71789 21.1554 6.67889 21.2724C6.67189 21.2974 6.66789 21.3224 6.62889 21.3214C6.46789 21.3184 6.30889 21.3204 6.13989 21.3204ZM7.16389 19.6574H7.14989C7.07289 19.9434 6.99789 20.2234 6.91889 20.5064C6.91189 20.5344 6.91889 20.5434 6.94589 20.5434H7.38089C7.40889 20.5434 7.41689 20.5334 7.40989 20.5064C7.32689 20.2254 7.24689 19.9414 7.16489 19.6574H7.16389Z" fill="#1F4580"/>
<path d="M10.341 20.2904C10.3364 20.1232 10.3457 19.9559 10.369 19.7904C10.3831 19.6469 10.4465 19.5128 10.5485 19.4108C10.6504 19.3089 10.7845 19.2455 10.928 19.2314C11.1398 19.1878 11.3587 19.1932 11.568 19.2474C11.7009 19.2819 11.8165 19.3642 11.8925 19.4786C11.9685 19.593 11.9997 19.7314 11.98 19.8674C11.98 19.8934 11.969 19.9024 11.944 19.9024H11.488C11.458 19.9024 11.448 19.8914 11.448 19.8624C11.4492 19.8168 11.4455 19.7712 11.437 19.7264C11.42 19.6354 11.391 19.5454 11.285 19.5264C11.2262 19.5107 11.164 19.5142 11.1074 19.5363C11.0507 19.5584 11.0026 19.598 10.97 19.6494C10.9441 19.6934 10.9268 19.7419 10.919 19.7924C10.8688 20.1238 10.8688 20.4609 10.919 20.7924C10.9202 20.8318 10.9297 20.8705 10.947 20.906C10.9642 20.9415 10.9888 20.973 11.019 20.9984C11.0481 21.0239 11.0824 21.0431 11.1194 21.0544C11.1565 21.0658 11.1955 21.0692 11.234 21.0644C11.2832 21.0681 11.3321 21.0536 11.3713 21.0235C11.4104 20.9934 11.437 20.9499 11.446 20.9014C11.4641 20.8315 11.4732 20.7596 11.473 20.6874C11.473 20.6564 11.473 20.6384 11.517 20.6384H11.966C12.001 20.6384 12.008 20.6494 12.006 20.6824C12.0033 20.7926 11.9841 20.9018 11.949 21.0064C11.9171 21.0958 11.8617 21.1749 11.7887 21.2356C11.7157 21.2963 11.6277 21.3363 11.534 21.3514C11.321 21.3993 11.1 21.3993 10.887 21.3514C10.7448 21.3281 10.615 21.2567 10.5192 21.1491C10.4235 21.0415 10.3676 20.9043 10.361 20.7604C10.3474 20.6058 10.3421 20.4505 10.345 20.2954L10.341 20.2904Z" fill="#1F4580"/>
<path d="M27.313 20.2843V19.3233C27.313 19.2693 27.327 19.2523 27.384 19.2523C27.515 19.2523 27.646 19.2523 27.777 19.2523C27.833 19.2523 27.843 19.2693 27.843 19.3233V20.9284C27.843 20.9924 27.861 21.0064 27.921 21.0054H28.521C28.563 21.0054 28.577 21.0163 28.574 21.0593V21.2733C28.574 21.3103 28.566 21.3244 28.526 21.3244H27.366C27.31 21.3244 27.316 21.2943 27.316 21.2603L27.313 20.2843Z" fill="#1F4580"/>
<path d="M26.4149 20.2913V19.3173C26.4149 19.2683 26.4279 19.2553 26.4759 19.2563H26.8829C26.9249 19.2563 26.9419 19.2633 26.9419 19.3113V21.2673C26.9419 21.3103 26.9309 21.3213 26.8879 21.3213H26.4729C26.4229 21.3213 26.4139 21.3043 26.4139 21.2593L26.4149 20.2913Z" fill="#1F4580"/>
<path d="M23.775 19.6863C23.8576 19.9677 23.9393 20.25 24.02 20.5333C24.0207 20.543 24.0207 20.5527 24.02 20.5623H23.52C23.5194 20.553 23.5194 20.5437 23.52 20.5343C23.597 20.2483 23.674 19.9683 23.752 19.6853L23.775 19.6863Z" fill="#F9DC33"/>
<path d="M19.5509 20.5773V20.2693C19.5509 20.2483 19.5449 20.2223 19.5809 20.2223C19.7522 20.2092 19.9243 20.2129 20.0949 20.2333C20.1707 20.2414 20.2404 20.2788 20.2891 20.3374C20.3378 20.396 20.3618 20.4713 20.3559 20.5473C20.3559 20.7473 20.2849 20.8713 20.1109 20.9133C19.9344 20.938 19.7558 20.945 19.5779 20.9343C19.5439 20.9343 19.5509 20.9103 19.5509 20.8903V20.5773Z" fill="#F9DC33"/>
<path d="M19.551 19.5093V19.2373C19.551 19.2093 19.551 19.1883 19.588 19.1893C19.729 19.1893 19.871 19.1893 20.012 19.1963C20.0583 19.1976 20.1037 19.2092 20.145 19.2301C20.1864 19.251 20.2225 19.2808 20.251 19.3173C20.2797 19.3539 20.3001 19.3963 20.3108 19.4415C20.3215 19.4868 20.3222 19.5338 20.313 19.5793C20.3045 19.642 20.2752 19.7001 20.2299 19.7443C20.1847 19.7885 20.1259 19.8163 20.063 19.8233C19.903 19.8443 19.742 19.8293 19.581 19.8373C19.546 19.8373 19.548 19.8163 19.548 19.7933L19.551 19.5093Z" fill="#F9DC33"/>
<path d="M4.70598 20.5753V20.2643C4.70598 20.2333 4.70598 20.2133 4.74798 20.2133C4.90198 20.2066 5.05625 20.2089 5.20998 20.2203C5.25253 20.2204 5.29461 20.2293 5.33352 20.2465C5.37244 20.2637 5.40733 20.2889 5.43598 20.3203C5.46449 20.3528 5.48597 20.3907 5.49905 20.4319C5.51213 20.473 5.51654 20.5164 5.51198 20.5593C5.5171 20.6028 5.51327 20.6469 5.50071 20.6889C5.48816 20.7309 5.46715 20.7698 5.43898 20.8033C5.41104 20.8369 5.37643 20.8642 5.33735 20.8837C5.29827 20.9031 5.25558 20.9143 5.21198 20.9163C5.05698 20.9343 4.89998 20.9223 4.74398 20.9263C4.70798 20.9263 4.70398 20.9083 4.70398 20.8793C4.70698 20.7863 4.70598 20.6793 4.70598 20.5753Z" fill="#F9DC33"/>
<path d="M4.70593 19.5053V19.2343C4.70593 19.2063 4.70593 19.1853 4.74493 19.1863C4.89469 19.1813 5.0446 19.185 5.19393 19.1973C5.23967 19.201 5.28405 19.2146 5.32396 19.2372C5.36387 19.2598 5.39834 19.291 5.42493 19.3283C5.45176 19.366 5.47013 19.409 5.47876 19.4544C5.48739 19.4998 5.48608 19.5465 5.47493 19.5913C5.46034 19.6557 5.42448 19.7134 5.37314 19.7549C5.3218 19.7965 5.25797 19.8195 5.19193 19.8203C5.04493 19.8263 4.89793 19.8203 4.75093 19.8283C4.71593 19.8283 4.70993 19.8143 4.70993 19.7843C4.70693 19.6923 4.70593 19.5983 4.70593 19.5053Z" fill="#F9DC33"/>
<path d="M15.1219 20.2814V19.6384C15.1219 19.5874 15.1309 19.5674 15.1879 19.5674C15.2779 19.5734 15.3609 19.5674 15.4459 19.5734C15.5136 19.5748 15.5788 19.5991 15.6309 19.6424C15.683 19.6856 15.719 19.7451 15.7329 19.8114C15.758 19.9094 15.7701 20.0102 15.7689 20.1114C15.7824 20.3193 15.7707 20.5282 15.7339 20.7334C15.7303 20.773 15.7189 20.8115 15.7002 20.8467C15.6815 20.8819 15.656 20.913 15.6252 20.9382C15.5944 20.9634 15.5589 20.9823 15.5207 20.9936C15.4826 21.005 15.4425 21.0086 15.4029 21.0044H15.1789C15.1339 21.0044 15.1219 20.9914 15.1219 20.9474C15.1229 20.7264 15.1219 20.5044 15.1219 20.2814Z" fill="#F9DC33"/>
<path d="M12.6899 20.2904C12.6848 20.1166 12.6969 19.9428 12.7259 19.7714C12.7337 19.7227 12.753 19.6767 12.782 19.6369C12.811 19.5971 12.849 19.5647 12.8929 19.5424C12.9365 19.5198 12.9848 19.5081 13.0339 19.5081C13.083 19.5081 13.1313 19.5198 13.1749 19.5424C13.212 19.5576 13.2449 19.5816 13.2708 19.6122C13.2967 19.6429 13.3149 19.6792 13.3239 19.7184C13.3561 19.8281 13.3719 19.942 13.3709 20.0564C13.3891 20.3051 13.378 20.5552 13.3379 20.8014C13.2919 21.0244 13.1579 21.0874 12.9379 21.0524C12.8892 21.0436 12.8442 21.0206 12.8086 20.9862C12.773 20.9518 12.7484 20.9077 12.7379 20.8594C12.7028 20.729 12.686 20.5944 12.6879 20.4594C12.6889 20.4034 12.6899 20.3464 12.6899 20.2904Z" fill="#F9DC33"/>
<path d="M17.7319 20.2953C17.735 20.4658 17.7226 20.6362 17.6949 20.8043C17.6888 20.8516 17.672 20.8968 17.6456 20.9366C17.6192 20.9763 17.5841 21.0094 17.5429 21.0333C17.5019 21.0572 17.4558 21.0712 17.4084 21.0742C17.361 21.0771 17.3136 21.069 17.2699 21.0503C17.2296 21.0381 17.1929 21.0162 17.163 20.9866C17.133 20.957 17.1107 20.9205 17.0979 20.8803C17.0694 20.8006 17.0535 20.717 17.0509 20.6323C17.0294 20.3608 17.0355 20.0877 17.0689 19.8173C17.0738 19.7903 17.0805 19.7635 17.0889 19.7373C17.1042 19.6712 17.1431 19.6129 17.1984 19.5735C17.2536 19.5341 17.3214 19.5162 17.3889 19.5233C17.4553 19.5166 17.5219 19.5347 17.5757 19.5742C17.6295 19.6138 17.6666 19.6719 17.6799 19.7373C17.7197 19.9195 17.7369 20.106 17.7309 20.2923L17.7319 20.2953Z" fill="#F9DC33"/>
<path d="M7.16493 19.6563C7.24593 19.9423 7.32693 20.2273 7.40993 20.5093C7.41693 20.5363 7.40993 20.5463 7.38093 20.5463H6.94693C6.91793 20.5463 6.91293 20.5373 6.91993 20.5093L7.15093 19.6603L7.16493 19.6563Z" fill="#F9DC33"/>
</svg>
