<svg width="29" height="23" viewBox="0 0 29 23" fill="none" xmlns="http://www.w3.org/2000/svg">
<path d="M23.6589 21.116C23.6429 21.076 23.6379 21.05 23.6319 21.052C23.6259 21.054 23.5989 21.069 23.5819 21.074C23.4233 21.1577 23.2462 21.2003 23.0669 21.198C22.9468 21.1973 22.8281 21.1721 22.7181 21.1241C22.608 21.076 22.5088 21.0061 22.4266 20.9186C22.3444 20.831 22.2809 20.7277 22.2398 20.6148C22.1988 20.502 22.1811 20.3819 22.1879 20.262C22.1879 19.635 22.5329 19.294 22.9999 19.294C23.2181 19.2875 23.4327 19.3513 23.6119 19.476C23.6917 19.1929 23.8229 18.9268 23.9989 18.691C23.8938 18.6172 23.7828 18.5523 23.6669 18.497C23.4229 18.3893 23.1586 18.3351 22.8919 18.338C22.6435 18.3286 22.3959 18.3719 22.1655 18.4652C21.9351 18.5584 21.7271 18.6995 21.5552 18.879C21.3833 19.0586 21.2514 19.2725 21.1683 19.5068C21.0851 19.7411 21.0526 19.9903 21.0729 20.238C21.0521 20.4859 21.0843 20.7353 21.1673 20.9698C21.2502 21.2043 21.3821 21.4184 21.5541 21.5981C21.7261 21.7777 21.9343 21.9188 22.1649 22.0119C22.3956 22.105 22.6434 22.148 22.8919 22.138C23.1928 22.1382 23.4912 22.084 23.7729 21.978C23.8559 21.945 23.9909 21.878 24.0479 21.855C23.8839 21.6279 23.7526 21.3788 23.6579 21.115" fill="#4D4E4C"/>
<path d="M1.86693 22.055H0.00292969V17.188H2.02893C2.20246 17.1643 2.37908 17.1788 2.5464 17.2305C2.71373 17.2823 2.86769 17.3701 2.99749 17.4877C3.12728 17.6053 3.22976 17.7498 3.29773 17.9113C3.3657 18.0727 3.39751 18.247 3.39093 18.422C3.41527 18.6672 3.35546 18.9133 3.22133 19.12C3.08721 19.3266 2.88675 19.4815 2.65293 19.559V19.573C2.90467 19.6103 3.13274 19.7421 3.29066 19.9417C3.44859 20.1412 3.5245 20.3935 3.50293 20.647C3.50293 21.811 2.61193 22.055 1.86693 22.055ZM1.11993 19.988V21.135H1.54793C1.93593 21.135 2.38193 21.071 2.38193 20.57C2.38193 20.069 1.98193 19.992 1.55893 19.992L1.11993 19.988ZM1.11993 18.105V19.105H1.52993C1.86993 19.105 2.27493 19.015 2.27493 18.589C2.27493 18.138 1.91293 18.101 1.54293 18.101L1.11993 18.105Z" fill="#4D4E4C"/>
<path d="M11.732 21.86C10.788 21.86 10.365 20.918 10.365 19.985C10.365 19.137 10.814 18.235 11.647 18.235C11.8498 18.2224 12.0522 18.2645 12.2331 18.3571C12.414 18.4496 12.5666 18.5892 12.675 18.761H12.687V17.126H13.727V21.78H12.772V21.259H12.765C12.6659 21.4455 12.5167 21.6006 12.3342 21.7068C12.1516 21.813 11.9431 21.8661 11.732 21.86ZM12.059 19.154C11.629 19.154 11.433 19.598 11.433 20.011C11.433 20.577 11.679 20.943 12.059 20.943C12.414 20.943 12.692 20.554 12.692 20.058C12.692 19.526 12.432 19.154 12.059 19.154Z" fill="#4D4E4C"/>
<path d="M26.1879 22.14C25.9364 22.146 25.6865 22.0987 25.4545 22.0013C25.2225 21.9039 25.0138 21.7585 24.8419 21.5748C24.6701 21.391 24.539 21.173 24.4573 20.9351C24.3756 20.6971 24.3452 20.4446 24.3679 20.194C24.3448 19.943 24.3749 19.6899 24.4563 19.4513C24.5378 19.2128 24.6687 18.9941 24.8405 18.8096C25.0123 18.6251 25.2212 18.479 25.4534 18.3809C25.6856 18.2827 25.9359 18.2347 26.1879 18.24C26.44 18.2347 26.6903 18.2827 26.9225 18.3809C27.1547 18.479 27.3635 18.6251 27.5353 18.8096C27.7071 18.9941 27.8381 19.2128 27.9195 19.4513C28.0009 19.6899 28.0311 19.943 28.0079 20.194C28.0307 20.4446 28.0002 20.6971 27.9185 20.9351C27.8368 21.173 27.7058 21.391 27.5339 21.5748C27.3621 21.7585 27.1533 21.9039 26.9213 22.0013C26.6894 22.0987 26.4394 22.146 26.1879 22.14ZM26.1879 19.14C25.7479 19.14 25.4879 19.533 25.4879 20.191C25.4879 20.849 25.7479 21.24 26.1879 21.24C26.5279 21.24 26.8879 20.966 26.8879 20.197C26.8919 19.54 26.6289 19.14 26.1879 19.14Z" fill="#4D4E4C"/>
<path d="M7.57594 22.14C7.28643 22.1482 7.00443 22.0471 6.78594 21.857C6.66952 21.7409 6.57889 21.6015 6.51996 21.448C6.46103 21.2945 6.43513 21.1302 6.44394 20.966C6.44394 20.385 6.71494 19.692 8.00494 19.692C8.1689 19.6927 8.33239 19.7098 8.49294 19.743C8.48694 19.31 8.26194 19.099 7.80294 19.099C7.46222 19.0914 7.12742 19.1888 6.84394 19.378V18.497C7.21295 18.3196 7.61857 18.2315 8.02794 18.24C8.39602 18.223 8.75679 18.3467 9.03694 18.586C9.1888 18.7447 9.30557 18.9335 9.37965 19.1403C9.45374 19.347 9.48348 19.567 9.46694 19.786V21.174C9.46302 21.4681 9.48241 21.762 9.52494 22.053H8.50294V21.561C8.41976 21.7359 8.28829 21.8834 8.12403 21.9859C7.95977 22.0885 7.76959 22.142 7.57594 22.14ZM8.05094 20.357C7.64294 20.357 7.41794 20.532 7.41794 20.85C7.41667 20.9058 7.42709 20.9613 7.44855 21.0129C7.47 21.0644 7.50201 21.1109 7.54251 21.1493C7.58302 21.1878 7.63112 21.2173 7.68372 21.236C7.73633 21.2547 7.79227 21.2622 7.84794 21.258C7.98187 21.2626 8.11431 21.2287 8.22953 21.1603C8.34475 21.0919 8.43791 20.9918 8.49794 20.872V20.376L8.39194 20.37H8.36494C8.26294 20.362 8.15794 20.356 8.05094 20.356V20.357Z" fill="#4D4E4C"/>
<path d="M6.13098 18.24C5.91793 18.2453 5.71236 18.3197 5.54519 18.4519C5.37801 18.584 5.25828 18.7669 5.20398 18.973H5.19198V18.322H4.20398V21.86H5.28798V20.366C5.28798 19.674 5.56698 19.257 6.07298 19.222C6.19935 19.2193 6.32522 19.2386 6.44498 19.279V18.294C6.34372 18.26 6.2378 18.2418 6.13098 18.24" fill="#4D4E4C"/>
<path d="M16.1649 22.14C15.909 22.1498 15.654 22.1054 15.4166 22.0096C15.1791 21.9139 14.9646 21.769 14.7872 21.5844C14.6097 21.3999 14.4733 21.1799 14.3869 20.9389C14.3005 20.6979 14.2661 20.4413 14.2859 20.186C14.2552 19.9413 14.2772 19.6929 14.3504 19.4574C14.4236 19.2219 14.5462 19.0048 14.7101 18.8205C14.874 18.6363 15.0754 18.4892 15.3007 18.389C15.5261 18.2889 15.7703 18.2381 16.0169 18.24C17.0529 18.24 17.6469 19.001 17.6469 20.329V20.566H15.4149C15.4719 21.047 15.7829 21.281 16.3639 21.281C16.7126 21.2795 17.0541 21.1809 17.3499 20.996V21.904C16.9763 22.0667 16.5722 22.1472 16.1649 22.14ZM16.0219 19.056C15.6629 19.056 15.4309 19.347 15.4019 19.835H16.6419C16.6594 19.6095 16.5876 19.3861 16.4419 19.213C16.3862 19.1596 16.3203 19.1182 16.2481 19.0912C16.1759 19.0642 16.0989 19.0522 16.0219 19.056Z" fill="#4D4E4C"/>
<path d="M19.3519 18.24C19.1777 18.2194 19.0011 18.2348 18.8331 18.2855C18.6651 18.3362 18.5094 18.4209 18.3757 18.5345C18.242 18.648 18.1331 18.7879 18.0559 18.9455C17.9786 19.103 17.9347 19.2748 17.9269 19.45C17.9269 20.794 19.5719 20.35 19.5719 20.981C19.5719 21.237 19.3399 21.281 19.1029 21.281C18.7265 21.2741 18.3561 21.1861 18.0169 21.023V21.91C18.3814 22.0614 18.7722 22.1395 19.1669 22.14C19.9269 22.14 20.7269 21.889 20.7269 20.895C20.7269 19.478 19.0049 19.936 19.0049 19.357C19.0049 19.149 19.2889 19.094 19.5389 19.099C19.8647 19.1147 20.1816 19.2102 20.4619 19.377V18.462C20.1096 18.3173 19.7327 18.2419 19.3519 18.24Z" fill="#4D4E4C"/>
<path d="M21.007 14.62H9.63196C9.21216 14.6298 8.79472 14.5546 8.4047 14.399C8.01469 14.2434 7.66015 14.0105 7.36238 13.7144C7.06462 13.4184 6.82977 13.0651 6.67195 12.676C6.51412 12.2869 6.43657 11.8699 6.44396 11.45V0.139027H17.82C18.2398 0.129259 18.6572 0.204443 19.0472 0.360062C19.4372 0.515682 19.7918 0.748526 20.0895 1.04461C20.3873 1.34069 20.6222 1.69391 20.78 2.08303C20.9378 2.47216 21.0154 2.88918 21.008 3.30903V14.62" fill="#D11F3E"/>
<path d="M12.3259 12.67H13.1659V9.05002H12.3259V12.67Z" fill="#FFFFFE"/>
<path d="M14.006 12.671H15.126V7.65802H14.006V12.671Z" fill="#FFFFFE"/>
<path d="M11.7289 4.14501C12.1714 3.79431 12.6859 3.5459 13.2357 3.41761C13.7856 3.28933 14.3569 3.28434 14.9089 3.40301C15.4757 3.50488 16.0085 3.74535 16.4599 4.10301C16.4599 4.10301 16.5599 4.19201 16.6369 4.11901C16.6369 4.11901 16.7369 4.04601 16.6259 3.93701C16.1728 3.40875 15.5743 3.0255 14.9049 2.83501C13.8545 2.52978 12.731 2.59618 11.7239 3.02301C11.0638 3.32455 10.5225 3.83666 10.1849 4.47901C9.71307 4.62682 9.25392 4.81242 8.81191 5.03401C8.81191 5.03401 8.63791 5.09901 8.70391 5.22801C8.70391 5.22801 8.75991 5.32001 8.91191 5.25201C8.91191 5.25201 9.45791 5.07301 9.98491 4.96101C9.73117 5.72113 9.73786 6.54412 10.0039 7.30001C10.2188 7.93334 10.5985 8.49803 11.1039 8.93601C11.1278 8.96036 11.159 8.97627 11.1927 8.98132C11.2265 8.98637 11.2609 8.9803 11.2909 8.96401C11.3027 8.95557 11.3127 8.94488 11.3203 8.93256C11.328 8.92023 11.3331 8.90652 11.3354 8.89221C11.3378 8.8779 11.3372 8.86327 11.3339 8.84916C11.3305 8.83506 11.3244 8.82175 11.3159 8.81001C11.0187 8.34793 10.8124 7.8334 10.7079 7.29401C10.5341 6.42562 10.6971 5.52362 11.1639 4.77101C12.4216 4.62786 13.6952 4.74634 14.9049 5.11901C14.9049 5.11901 17.8289 6.02601 17.0929 7.70801C16.8711 8.17222 16.5155 8.55948 16.0719 8.82001C16.0719 8.82001 15.9369 8.89501 16.0099 9.00201C16.035 9.0288 16.0684 9.04633 16.1047 9.05178C16.141 9.05722 16.1781 9.05026 16.2099 9.03201C16.9301 8.79798 17.5522 8.33162 17.9789 7.70601C17.9789 7.70601 19.0609 6.13201 16.5099 4.84501C15.9998 4.60084 15.4628 4.41725 14.9099 4.29801C13.8649 4.0745 12.7905 4.02282 11.7289 4.14501Z" fill="#FFFFFE"/>
</svg>
