<svg width="56" height="22" viewBox="0 0 56 22" fill="none" xmlns="http://www.w3.org/2000/svg">
<path d="M6.25096 17C5.71816 17.0039 5.18699 16.9407 4.66996 16.812C4.20602 16.705 3.76143 16.5269 3.35196 16.284C2.48366 15.7749 1.79786 15.0051 1.39196 14.084C1.00321 13.1196 0.896733 12.0646 1.08496 11.042C1.33652 9.37324 2.18719 7.85319 3.47796 6.766C4.11699 6.21381 4.85179 5.78337 5.64596 5.496C6.44868 5.20854 7.29532 5.06303 8.14796 5.066C8.60054 5.06359 9.05199 5.11155 9.49396 5.209C9.92985 5.29647 10.3522 5.4414 10.75 5.64L10.1 9.842C9.81255 9.51063 9.46296 9.23884 9.07096 9.042C8.69963 8.86271 8.29122 8.77363 7.87896 8.782C7.24841 8.7665 6.63416 8.98324 6.15296 9.391C5.67563 9.81897 5.36794 10.4042 5.28596 11.04C5.22243 11.3155 5.22023 11.6017 5.2795 11.8782C5.33877 12.1546 5.45807 12.4147 5.62896 12.64C5.81296 12.8473 6.04234 13.0093 6.29923 13.1134C6.55612 13.2174 6.83357 13.2608 7.10996 13.24C7.53683 13.2306 7.95853 13.1446 8.35496 12.986C8.87066 12.771 9.36153 12.5008 9.81896 12.18L9.02396 16.454C8.56661 16.6304 8.0953 16.7682 7.61496 16.866C7.16575 16.955 6.70891 16.9999 6.25096 17ZM14.091 16.7H9.67496L15.519 5.335H20.107L22.348 16.694H17.922L17.777 15.266H14.67L14.092 16.69L14.091 16.7ZM17.191 8.788C17.114 9.112 17.023 9.444 16.92 9.773C16.772 10.194 16.569 10.718 16.334 11.288L15.78 12.566H17.488L17.343 11.284C17.264 10.565 17.225 10.098 17.216 9.769C17.209 9.44025 17.221 9.11137 17.252 8.784L17.191 8.788ZM27.6 16.695H23.4L25.166 5.335H29.349L27.6 16.694V16.695Z" fill="#0270B7"/>
<path d="M47.659 16.934H43.197L49.097 5H53.737L55.997 16.933H51.529L51.383 15.433H48.244L47.659 16.933V16.934ZM50.789 8.623C50.725 8.947 50.623 9.298 50.516 9.659C50.41 9.997 50.238 10.459 49.923 11.25L49.365 12.6H51.09L50.935 11.25C50.874 10.585 50.826 10.045 50.817 9.659C50.8101 9.31327 50.8221 8.96741 50.853 8.623H50.789Z" fill="#0270B7"/>
<path d="M42.2181 16.9997H36.9871L33.9871 11.4917H39.2131L42.2181 16.9997Z" fill="#0270B7"/>
<path d="M44.9611 5.06592H39.5611L33.9871 10.5739H39.3871L44.9611 5.06592Z" fill="#F4822A"/>
<path d="M31.2429 5.06592H36.4689L39.4689 10.5739H34.2429L31.2429 5.06592Z" fill="#0270B7"/>
<path d="M28.5 16.9997H33.906L39.474 11.4917H34.074L28.5 16.9997Z" fill="#F4822A"/>
</svg>
