<svg width="24" height="22" viewBox="0 0 24 22" fill="none" xmlns="http://www.w3.org/2000/svg">
<path d="M23.003 11.0788C23.0083 9.88221 22.776 8.69648 22.3194 7.59038C21.8629 6.48429 21.1913 5.47986 20.3436 4.63537C19.4958 3.79087 18.4888 3.12313 17.381 2.67087C16.2731 2.21862 15.0865 1.99086 13.8899 2.0008H9.78994C8.60911 1.99329 7.43901 2.22517 6.35029 2.68244C5.26157 3.13971 4.27681 3.81288 3.45548 4.66131C2.63416 5.50975 1.99328 6.51584 1.57159 7.61883C1.14989 8.72182 0.956115 9.89883 1.00195 11.0788C0.989141 13.4258 1.90665 15.6823 3.55366 17.3544C5.20066 19.0265 7.44301 19.9781 9.78994 20.0008H13.8899C16.2687 19.9836 18.5481 19.044 20.2479 17.3798C21.9477 15.7156 22.9354 13.4567 23.003 11.0788Z" fill="#0079BE"/>
<path d="M9.81801 2.7618C8.17646 2.70802 6.55625 3.14568 5.16504 4.01867C3.77383 4.89167 2.67501 6.16023 2.00943 7.66176C1.34385 9.16328 1.14183 10.8294 1.42926 12.4464C1.71669 14.0635 2.48047 15.5579 3.62271 16.7381C4.76495 17.9183 6.23361 18.7305 7.84044 19.0706C9.44727 19.4107 11.1191 19.2633 12.6415 18.6471C14.164 18.0309 15.4678 16.9742 16.3858 15.6122C17.3038 14.2503 17.7941 12.6452 17.794 11.0028C17.829 8.85232 17.0084 6.776 15.5126 5.23054C14.0169 3.68507 11.9685 2.79705 9.81801 2.7618Z" fill="white"/>
<path d="M4.77593 10.9818C4.76805 9.93869 5.07288 8.91714 5.65109 8.04892C6.22931 7.1807 7.05439 6.50564 8.01991 6.11079V15.8588C7.05383 15.463 6.22848 14.7869 5.65027 13.9176C5.07206 13.0483 4.76753 12.0258 4.77593 10.9818ZM11.6409 15.8588V6.1048C12.6032 6.50634 13.4252 7.18362 14.0034 8.05138C14.5816 8.91913 14.8901 9.93856 14.8901 10.9813C14.8901 12.024 14.5816 13.0435 14.0034 13.9112C13.4252 14.779 12.6032 15.4562 11.6409 15.8578V15.8588Z" fill="#0079BE"/>
</svg>
