<svg width="42" height="22" viewBox="0 0 42 22" fill="none" xmlns="http://www.w3.org/2000/svg">
<path d="M6.39402 6.53525C7.01431 6.32511 7.67261 6.25118 8.32406 6.31848C8.97551 6.38578 9.60479 6.59274 10.169 6.92525C10.7385 7.26216 11.2307 7.71529 11.6133 8.25511C11.996 8.79493 12.2607 9.40932 12.39 10.0583L15.56 9.40225C15.3415 8.29853 14.8925 7.25332 14.2426 6.33489C13.5926 5.41646 12.7562 4.64547 11.788 4.07225C10.8287 3.50664 9.75853 3.15478 8.65071 3.0407C7.54289 2.92663 6.4235 3.05302 5.36902 3.41125L6.39402 6.53525Z" fill="#FFCB05"/>
<path d="M2.65806 16.9933L4.79706 14.5223C4.3063 14.0759 3.9142 13.532 3.64589 12.9253C3.37758 12.3187 3.23899 11.6626 3.23899 10.9993C3.23899 10.3359 3.37758 9.67985 3.64589 9.07317C3.9142 8.4665 4.3063 7.92257 4.79706 7.47625L2.65206 5.01025C1.81762 5.76941 1.15095 6.69449 0.694758 7.72624C0.238571 8.75799 0.00292969 9.87365 0.00292969 11.0018C0.00292969 12.1299 0.238571 13.2455 0.694758 14.2773C1.15095 15.309 1.81762 16.2341 2.65206 16.9933" fill="#00A4E0"/>
<path d="M12.389 11.9453C12.2596 12.5936 11.995 13.2075 11.6125 13.7468C11.23 14.286 10.7382 14.7387 10.169 15.0753C9.60469 15.4079 8.97518 15.6149 8.32352 15.682C7.67185 15.7492 7.01337 15.6749 6.39304 15.4643L5.36804 18.5903C6.42178 18.9476 7.54017 19.0736 8.64702 18.9597C9.75387 18.8459 10.8232 18.4947 11.782 17.9303C12.75 17.3584 13.5865 16.589 14.2372 15.6722C14.8878 14.7554 15.3379 13.7117 15.558 12.6093L12.389 11.9453Z" fill="#EF4123"/>
<path d="M18.3301 14.6302C18.2066 14.4217 18.0964 14.2056 18.0001 13.9832C17.506 12.843 17.4701 11.5562 17.9001 10.3902C18.1225 9.71568 18.4963 9.10097 18.993 8.5932C19.4897 8.08543 20.096 7.69808 20.7655 7.46082C21.435 7.22357 22.1499 7.1427 22.8555 7.22441C23.561 7.30613 24.2385 7.54826 24.8361 7.93225C25.7492 8.49828 26.4461 9.35428 26.8151 10.3632C26.8761 10.5062 26.9281 10.6632 26.9811 10.7912L18.3301 14.6302ZM21.2181 9.50925C20.7273 9.72119 20.3198 10.0885 20.0582 10.5546C19.7966 11.0208 19.6954 11.56 19.7701 12.0892L24.1181 10.1812C23.7953 9.74052 23.3252 9.43015 22.7931 9.30648C22.261 9.18281 21.7021 9.25405 21.2181 9.50725V9.50925ZM24.6631 13.6582L24.5731 13.5962C24.2931 14.0424 23.8825 14.3916 23.3971 14.5962C22.9997 14.8111 22.5468 14.9014 22.0973 14.8554C21.6479 14.8094 21.2227 14.6292 20.8771 14.3382L20.8171 14.4302L19.7091 16.1142C20.2247 16.4818 20.8099 16.7401 21.4289 16.8734C22.0479 17.0066 22.6876 17.0121 23.3088 16.8893C23.9299 16.7666 24.5195 16.5182 25.0413 16.1595C25.563 15.8008 26.006 15.3393 26.3431 14.8032L24.6631 13.6582Z" fill="#231F20"/>
<path d="M30.0021 5.12925V14.4752L31.4291 15.0642L30.6181 16.9902L29.0431 16.3212C28.7254 16.18 28.4557 15.9493 28.2671 15.6572C28.0578 15.3078 27.9537 14.9054 27.9671 14.4982V5.12925H30.0021Z" fill="#231F20"/>
<path d="M33.6991 12.0943C33.6984 11.7177 33.7776 11.3453 33.9313 11.0016C34.0851 10.6579 34.31 10.3507 34.5911 10.1003L33.1271 8.44025C32.6177 8.90345 32.2107 9.46797 31.9321 10.0976C31.6536 10.7273 31.5098 11.4082 31.5098 12.0968C31.5098 12.7853 31.6536 13.4662 31.9321 14.0959C32.2107 14.7255 32.6177 15.2901 33.1271 15.7533L34.5891 14.0893C34.3086 13.8374 34.0846 13.5289 33.9321 13.1842C33.7795 12.8394 33.7018 12.4662 33.7041 12.0893L33.6991 12.0943Z" fill="#231F20"/>
<path d="M36.3 14.7473C36.0194 14.7466 35.7408 14.7003 35.475 14.6103L34.775 16.7263C35.4183 16.9453 36.1012 17.023 36.7772 16.954C37.4532 16.885 38.1064 16.6708 38.692 16.3263C39.2833 15.9775 39.7945 15.508 40.192 14.9483C40.5895 14.3887 40.8645 13.7514 40.999 13.0783L38.85 12.6313C38.7339 13.2237 38.4165 13.7578 37.9516 14.1429C37.4866 14.5281 36.9028 14.7405 36.299 14.7443L36.3 14.7473Z" fill="#231F20"/>
<path d="M36.3061 7.21425C35.7903 7.21261 35.2778 7.29571 34.7891 7.46025L35.4821 9.57925C35.7479 9.4898 36.0266 9.44421 36.3071 9.44425C36.9121 9.44857 37.4969 9.66266 37.9618 10.05C38.4266 10.4373 38.7427 10.9739 38.8561 11.5682L41.0051 11.1242C40.7948 10.0296 40.2117 9.04175 39.3549 8.32881C38.4981 7.61588 37.4207 7.222 36.3061 7.21425Z" fill="#231F20"/>
</svg>
