<svg width="59" height="22" viewBox="0 0 59 22" fill="none" xmlns="http://www.w3.org/2000/svg">
<path d="M11.916 5.93126H12.131L12.305 5.87926L12.479 5.81726L12.622 5.66226L12.776 5.50726L12.858 5.30125L12.94 5.09526V4.48625L12.868 4.36226L12.807 4.24826L12.674 4.16525L12.551 4.09326H12.019L11.835 4.17625L11.661 4.25926L11.548 4.37326L11.448 4.48726L11.366 4.68726L11.284 4.88725L11.264 5.19725L11.254 5.50726L11.326 5.65225L11.408 5.80725L11.551 5.87926L11.705 5.94125L11.916 5.93126Z" fill="#B3131B"/>
<path d="M46.264 14.6762H47.032V14.1912L47.124 13.6032C47.175 13.2732 47.257 12.7562 47.308 12.4572C47.359 12.1582 47.421 11.7652 47.441 11.5902C47.461 11.4152 47.533 11.0632 47.595 10.7852C47.657 10.5072 47.728 10.2172 47.759 10.1242C47.79 10.0312 47.81 9.94823 47.82 9.91823C47.8566 9.79702 47.9045 9.67949 47.963 9.56721L48.106 9.24722L48.3 8.98923L48.494 8.73122L48.694 8.57622C48.8259 8.47767 48.9665 8.39132 49.114 8.31822L49.314 8.21822H50.204L50.378 8.28023L50.552 8.33221L50.583 8.32222L50.614 8.30122V8.18723C50.6281 8.00975 50.6555 7.83358 50.696 7.66022L50.778 7.26022L50.686 7.22922C50.635 7.20822 50.512 7.16722 50.41 7.13622L50.236 7.07422H49.601L49.335 7.16722L49.079 7.26022L48.884 7.38422L48.69 7.49821L48.434 7.76622L48.178 8.03423L48.045 8.24022C48.0018 8.31459 47.9501 8.38373 47.891 8.44623C47.891 8.43623 47.932 8.19823 47.983 7.90923C48.0266 7.71108 48.06 7.51081 48.083 7.30922V7.22623H46.786V7.24722C46.786 7.26822 46.755 7.49521 46.714 7.76321C46.673 8.03121 46.591 8.54823 46.53 8.90923C46.469 9.27023 46.376 9.85921 46.33 10.2202C46.284 10.5812 46.176 11.0772 46.136 11.3452C46.096 11.6132 45.993 12.0782 45.941 12.3882C45.889 12.6982 45.787 13.1832 45.726 13.4722C45.665 13.7612 45.593 14.1642 45.552 14.3502L45.491 14.6802L46.264 14.6762Z" fill="#B3131B"/>
<path d="M28.271 14.6765H29.028L29.048 14.3465C29.058 14.1705 29.109 13.8095 29.148 13.5515C29.187 13.2935 29.2611 12.7775 29.3221 12.3955C29.3831 12.0135 29.496 11.4045 29.568 11.0125C29.64 10.6205 29.732 10.2485 29.762 10.1655C29.7866 10.099 29.8037 10.0299 29.813 9.95952C29.8489 9.84629 29.8934 9.73597 29.946 9.62952C30.0316 9.4521 30.1275 9.27982 30.233 9.11353L30.397 8.87653L30.612 8.67052L30.827 8.47052L31.093 8.33652L31.359 8.21252H32.178L32.3781 8.27452C32.4781 8.30552 32.578 8.33652 32.593 8.33652C32.608 8.33652 32.613 8.29552 32.613 8.25352C32.6339 8.07629 32.6646 7.90034 32.705 7.72652C32.756 7.47852 32.797 7.27252 32.797 7.26152C32.7165 7.21709 32.6304 7.18348 32.541 7.16153C32.398 7.12053 32.203 7.07852 32.101 7.06152L31.927 7.04053L31.692 7.08153C31.549 7.10725 31.4085 7.14539 31.272 7.19553C31.1395 7.24976 31.0126 7.31674 30.893 7.39552C30.763 7.48213 30.64 7.57876 30.525 7.68452C30.3991 7.81702 30.2828 7.95838 30.177 8.10753C30.077 8.25253 29.977 8.39652 29.942 8.42752L29.8911 8.49953L29.922 8.36552C29.942 8.28252 29.983 8.02452 30.022 7.78752C30.061 7.55052 30.104 7.33352 30.114 7.28752L30.134 7.22552H28.7831V7.31853C28.7831 7.35953 28.742 7.64852 28.691 7.94852C28.64 8.24852 28.558 8.75352 28.517 9.07352C28.476 9.39352 28.374 9.93052 28.323 10.2915C28.272 10.6525 28.169 11.1485 28.123 11.4165C28.077 11.6845 27.99 12.1495 27.929 12.4595C27.868 12.7695 27.7751 13.2645 27.7141 13.5595C27.6531 13.8545 27.591 14.2305 27.56 14.3645C27.5377 14.4565 27.5207 14.5496 27.509 14.6435V14.6745L28.271 14.6765Z" fill="#B3131B"/>
<path d="M10.4111 14.6752H11.1791L11.1991 14.6132C11.2127 14.5555 11.2194 14.4964 11.2191 14.4372C11.2191 14.3652 11.2701 14.0032 11.3321 13.6422C11.3941 13.2812 11.4861 12.6712 11.5471 12.3102C11.6081 11.9492 11.6901 11.4102 11.7411 11.1232C11.7921 10.8362 11.8741 10.3692 11.9251 10.0702C11.9761 9.77119 12.0681 9.3162 12.1191 9.0482C12.1701 8.7802 12.2731 8.2742 12.3341 7.9232C12.3951 7.5722 12.4771 7.2732 12.4881 7.2522L12.5081 7.22119L11.7301 7.2312L10.9621 7.2412L10.8901 7.70619C10.8591 7.96419 10.7771 8.47019 10.7261 8.83119C10.6751 9.19219 10.5721 9.75019 10.5261 10.0702C10.4801 10.3902 10.3931 10.8962 10.3321 11.1952C10.2711 11.4942 10.1891 11.9692 10.1381 12.2382C10.0871 12.5072 10.0051 12.9712 9.94408 13.2702C9.88308 13.5692 9.80108 13.9822 9.77008 14.1702C9.73908 14.3582 9.68809 14.5422 9.67809 14.5932L9.65808 14.6762L10.4111 14.6752Z" fill="#B3131B"/>
<path d="M0.873024 14.6765H1.73302L1.79402 14.2845C1.82502 14.0785 1.89403 13.6655 1.93703 13.3845C1.98003 13.1035 2.08003 12.5685 2.13103 12.1975C2.18203 11.8265 2.28502 11.2975 2.33102 10.9975C2.37702 10.6975 2.46403 10.2435 2.50503 9.98549C2.53349 9.8149 2.57121 9.64599 2.61803 9.47949L2.63802 9.4585H7.27402L7.29402 9.4895L7.32503 9.5105L7.28403 9.71649C7.26403 9.83049 7.19202 10.1815 7.14102 10.5015C7.09002 10.8215 6.97702 11.3485 6.91602 11.6785C6.85502 12.0085 6.77302 12.4835 6.72202 12.7315C6.67102 12.9795 6.57903 13.4955 6.52203 13.8775C6.46503 14.2595 6.39902 14.6005 6.39902 14.6205V14.6725H8.12902L8.17002 14.4455C8.19002 14.3215 8.22103 14.1045 8.24203 13.9455C8.26303 13.7865 8.31403 13.4805 8.35503 13.2535C8.39603 13.0265 8.46802 12.5415 8.52902 12.2105C8.59002 11.8795 8.68303 11.3015 8.74403 10.9405C8.80503 10.5795 8.88703 10.0405 8.93803 9.75349C8.98903 9.46649 9.07103 8.98949 9.13203 8.67949C9.19303 8.36949 9.27502 7.86349 9.33202 7.53349C9.38902 7.20349 9.48602 6.71749 9.53202 6.44949C9.57802 6.18149 9.66502 5.6755 9.72602 5.3345C9.78702 4.9935 9.85902 4.6115 9.90002 4.4675L9.96102 4.2095H8.20103L8.18102 4.3745C8.17102 4.4675 8.12003 4.73549 8.08903 4.96249C8.05803 5.18949 7.97603 5.59249 7.92503 5.85049C7.87403 6.10849 7.79203 6.6245 7.74103 6.9865C7.69003 7.3485 7.60803 7.8025 7.57703 8.0295L7.51602 8.42149L6.22602 8.4525L4.93603 8.4735L3.86102 8.4525C3.26702 8.4425 2.77602 8.42149 2.77602 8.42149C2.77787 8.31694 2.79162 8.21294 2.81702 8.1115C2.84802 7.9465 2.89903 7.6575 2.94003 7.4715C2.98103 7.2855 3.05303 6.91349 3.10403 6.64549C3.15503 6.37749 3.20403 6.04549 3.22703 5.91249C3.25003 5.77949 3.28802 5.5405 3.30902 5.3965C3.33002 5.2525 3.40102 4.95249 3.44202 4.73549C3.48302 4.51849 3.52403 4.2915 3.53403 4.2605L3.55402 4.2085H1.81403L1.75302 4.51849C1.72202 4.69449 1.69202 4.94149 1.67102 5.06549C1.65002 5.18949 1.57902 5.6025 1.52802 5.9845C1.47702 6.3665 1.37403 6.9135 1.32803 7.2135C1.28203 7.5135 1.19503 8.0805 1.13403 8.4525C1.07303 8.8245 0.980022 9.4025 0.919022 9.7435C0.858022 10.0845 0.776021 10.5485 0.725021 10.7965C0.674021 11.0445 0.592021 11.5085 0.531021 11.8395C0.470021 12.1705 0.377021 12.6245 0.337021 12.8515C0.297021 13.0785 0.237027 13.3675 0.214027 13.4605C0.191027 13.5535 0.142026 13.8425 0.0910263 14.1005C0.0400263 14.3585 -0.000976562 14.5755 -0.000976562 14.6065V14.6685L0.873024 14.6765Z" fill="#B3131B"/>
<path d="M52.497 14.8415L52.835 14.8515L53.152 14.7995C53.3204 14.7754 53.4873 14.742 53.652 14.6995C53.7863 14.6559 53.9164 14.6007 54.041 14.5345L54.256 14.4345L54.44 14.2695L54.624 14.1045L54.818 13.8465C54.918 13.7015 55.013 13.5575 55.033 13.5365L55.054 13.4745L55.033 13.6605C55.023 13.7535 55.002 13.9185 54.982 14.0115C54.962 14.1045 54.941 14.3005 54.931 14.4345L54.9 14.6825H56.292V14.1975L56.405 13.2785C56.456 12.7785 56.548 12.1115 56.589 11.7915C56.63 11.4715 56.712 11.0275 56.753 10.7915C56.794 10.5555 56.876 10.1305 56.917 9.84149C56.958 9.55249 57.06 9.05649 57.111 8.74149C57.162 8.42649 57.265 7.90549 57.326 7.59549C57.387 7.28549 57.469 6.8105 57.52 6.5425C57.571 6.2745 57.663 5.77849 57.714 5.46849C57.765 5.15849 57.868 4.70449 57.908 4.47749C57.948 4.25049 58 4.05449 58 4.04349V4.00049H56.478L56.458 4.22749C56.448 4.35149 56.386 4.75449 56.335 5.12749C56.284 5.50049 56.181 6.09749 56.12 6.45949C56.059 6.82149 56.007 7.1515 55.997 7.2235L55.976 7.33749L55.915 7.3165C55.884 7.2955 55.7 7.25448 55.515 7.20248L55.177 7.11949L54.716 7.07849L54.256 7.04749L53.867 7.07849L53.478 7.11949L53.12 7.21249L52.762 7.29549L52.424 7.46049L52.086 7.62549L51.84 7.81149L51.594 7.9975L51.379 8.2345C51.2436 8.38183 51.117 8.5371 51 8.69949L50.836 8.93649L50.642 9.34949C50.542 9.56649 50.407 9.8655 50.355 9.9995C50.303 10.1335 50.212 10.4435 50.155 10.6805L50.055 11.1035L49.993 11.6615L49.942 12.2195L49.983 12.6635L50.024 13.1175L50.075 13.2725C50.1085 13.392 50.1496 13.5092 50.198 13.6235L50.27 13.8235L50.403 14.0095L50.546 14.1955L50.7 14.3195L50.854 14.4535L51.069 14.5535C51.2096 14.6236 51.357 14.6789 51.509 14.7185C51.6522 14.7642 51.7996 14.7954 51.949 14.8115C52.1309 14.8334 52.3139 14.8434 52.497 14.8415ZM53.097 13.8295L52.831 13.8395L52.657 13.8085C52.5338 13.7909 52.4135 13.7573 52.299 13.7085L52.125 13.6365L51.982 13.5125L51.839 13.3885L51.624 12.9755L51.573 12.7385L51.522 12.5115V12.0465L51.532 11.5815L51.583 11.1685L51.644 10.7555L51.736 10.4665C51.777 10.3115 51.818 10.1565 51.818 10.1365C51.8474 10.0371 51.8852 9.94043 51.931 9.84749C51.992 9.71349 52.085 9.51749 52.146 9.39349C52.2239 9.25135 52.3094 9.11347 52.402 8.98048C52.578 8.74043 52.7925 8.53126 53.037 8.3615L53.201 8.26849L53.477 8.16849L53.753 8.07549H54.93L55.268 8.16849C55.452 8.22049 55.647 8.28249 55.708 8.30249L55.8 8.34349L55.78 8.43649C55.77 8.49849 55.729 8.73649 55.688 8.96349C55.647 9.19049 55.565 9.65549 55.514 9.97549C55.463 10.2955 55.371 10.7605 55.32 11.0285C55.269 11.2965 55.197 11.6285 55.156 11.7825C55.115 11.9365 55.064 12.1335 55.033 12.2365C54.9933 12.3714 54.9418 12.5026 54.879 12.6285C54.8207 12.7568 54.7539 12.8811 54.679 13.0005C54.6092 13.094 54.5341 13.1835 54.454 13.2685C54.354 13.3548 54.2481 13.434 54.137 13.5055L53.943 13.6395L53.38 13.8255L53.097 13.8295Z" fill="#B3131B"/>
<path d="M40.502 14.8313L40.983 14.8213L41.283 14.7383L41.59 14.6663L41.784 14.5733C41.9192 14.5077 42.0493 14.4318 42.173 14.3463C42.3071 14.2574 42.4306 14.1534 42.541 14.0363C42.6548 13.9234 42.7607 13.8028 42.858 13.6753C42.94 13.5753 43.001 13.4893 43.011 13.4993C43.0092 13.6243 42.9955 13.7489 42.97 13.8713C42.9408 14.0627 42.9238 14.2557 42.9189 14.4493V14.6763H44.219L44.239 14.1603L44.259 13.6543L44.351 12.9933C44.402 12.6213 44.484 12.0843 44.535 11.7853C44.586 11.4863 44.678 10.9903 44.729 10.6853C44.78 10.3803 44.872 9.88029 44.923 9.59129L45.0229 9.0753V8.17529L44.923 7.9693L44.831 7.76331L44.688 7.6293L44.555 7.4953L44.33 7.3813L44.1049 7.2673L43.44 7.1223L42.979 7.0813L42.5179 7.05029L41.924 7.0813C41.607 7.1023 41.1459 7.1433 40.9109 7.1743L40.481 7.2263H39.908L39.867 7.4323C39.836 7.5463 39.775 7.8143 39.724 8.0323C39.6809 8.16248 39.6501 8.29639 39.632 8.4323C39.7494 8.41596 39.8657 8.39192 39.9799 8.36031C40.1539 8.30831 40.553 8.2263 40.84 8.1743L41.3719 8.0813L41.853 8.0603L42.334 8.03929L42.948 8.15331L43.1479 8.2533L43.348 8.3533L43.4709 8.5183L43.584 8.69431V9.2413L43.5229 9.54131L43.4619 9.84129L42.183 9.8513H40.904L40.4839 9.9653C40.2589 10.0373 40.003 10.1203 39.921 10.1653C39.8609 10.1925 39.7995 10.2165 39.737 10.2373C39.6325 10.2838 39.5322 10.339 39.437 10.4023L39.1609 10.5673L38.946 10.7843C38.8296 10.9086 38.7204 11.0395 38.619 11.1763C38.5263 11.3254 38.4441 11.4808 38.373 11.6413L38.2599 11.9203L38.209 12.2303L38.1479 12.5403V13.2013L38.1989 13.4693L38.25 13.7483L38.3499 13.9243C38.4156 14.0349 38.4874 14.1417 38.565 14.2443L38.688 14.3783L38.888 14.5123L39.103 14.6463L39.349 14.7083C39.4959 14.754 39.6464 14.7875 39.799 14.8083L39.999 14.8493L40.502 14.8313ZM40.952 13.8313L40.6649 13.8523L40.4709 13.8003C40.3511 13.7664 40.2346 13.7216 40.123 13.6663L39.969 13.5833L39.877 13.4833C39.8164 13.4047 39.7616 13.3218 39.713 13.2353L39.641 13.0803L39.621 12.7393L39.611 12.3983L39.672 12.1813C39.7164 12.0297 39.7712 11.8814 39.836 11.7373L39.9489 11.5103L40.164 11.2933L40.379 11.0763L40.614 10.9623L40.839 10.8623L41.1259 10.7903L41.413 10.7183H43.184L43.245 10.7493L43.296 10.7703L43.245 11.0493C43.2121 11.2579 43.1678 11.4646 43.112 11.6683C43.061 11.8543 42.969 12.1333 42.918 12.2773C42.8784 12.3751 42.845 12.4753 42.818 12.5773C42.7796 12.6595 42.7352 12.7387 42.685 12.8143L42.552 13.0313L42.3369 13.2483C42.2642 13.3265 42.1857 13.399 42.102 13.4653C42.0441 13.4862 41.989 13.5141 41.938 13.5483L41.815 13.6413L41.515 13.7343L41.228 13.8273L40.952 13.8313Z" fill="#B3131B"/>
<path d="M34.667 14.8412L35.056 14.8512L35.496 14.7992C35.742 14.7682 36.069 14.7162 36.223 14.6852C36.377 14.6542 36.623 14.6022 36.765 14.5612C36.907 14.5202 37.052 14.4682 37.072 14.4612C37.114 14.344 37.1448 14.2231 37.164 14.1002C37.205 13.9142 37.246 13.6662 37.264 13.5422C37.283 13.4681 37.2901 13.3915 37.285 13.3152C37.275 13.3052 37.254 13.3152 37.224 13.3362C37.1018 13.4003 36.9751 13.4554 36.845 13.5012L36.497 13.6352L36.016 13.7282L35.525 13.8212L35.116 13.8112L34.696 13.7902L34.461 13.7072L34.226 13.6242L34.052 13.4692L33.868 13.3042L33.745 13.0872L33.622 12.8602L33.571 12.5712L33.51 12.2712V11.5072L33.582 11.0422L33.654 10.5772L33.726 10.3192C33.767 10.1852 33.808 10.0192 33.826 9.96815C33.8645 9.83757 33.9123 9.70991 33.969 9.58615C34.044 9.41246 34.1295 9.24349 34.225 9.08015L34.358 8.84315L34.532 8.66716L34.696 8.49216L34.88 8.37816L35.054 8.26416L35.289 8.19215C35.4496 8.14215 35.6137 8.10405 35.78 8.07816L36.046 8.03716L36.435 8.05815L36.824 8.07916L37.285 8.17215L37.746 8.26515L37.94 8.33716C38.04 8.37816 38.134 8.40916 38.134 8.40916C38.1614 8.31123 38.1785 8.21067 38.185 8.10916C38.216 7.94416 38.257 7.67516 38.285 7.52016C38.3106 7.41537 38.3244 7.30803 38.326 7.20016C38.2251 7.17526 38.1225 7.15788 38.019 7.14816C37.855 7.13816 37.419 7.09616 37.047 7.07616L36.361 7.03516L35.88 7.07616L35.409 7.11716L35.051 7.18916L34.693 7.26115L34.468 7.35416C34.3276 7.41454 34.1911 7.48332 34.059 7.56015C33.959 7.62215 33.834 7.70515 33.772 7.74615C33.6417 7.85136 33.5188 7.9653 33.404 8.08716L33.138 8.35516L32.984 8.57216C32.8631 8.75801 32.7535 8.95104 32.656 9.15016L32.492 9.49115L32.359 9.87315C32.2731 10.1202 32.2014 10.372 32.144 10.6272L32.052 10.9992L32.011 11.3402L31.98 11.6812V12.5812L32.011 12.8392L32.052 13.0972L32.152 13.3652L32.252 13.6332L32.385 13.8332L32.498 14.0332L32.698 14.2192L32.892 14.4192L33.092 14.5332L33.292 14.6332L33.568 14.7162C33.711 14.7572 33.926 14.7992 34.039 14.8162C34.2475 14.8384 34.4573 14.8467 34.667 14.8412Z" fill="#B3131B"/>
<path d="M23.379 14.8413L23.768 14.8513L24.157 14.8103C24.372 14.8003 24.73 14.7583 24.945 14.7273C25.16 14.6963 25.528 14.6273 25.764 14.5723L26.194 14.4793L26.225 14.3143C26.235 14.2213 26.286 13.9633 26.325 13.7263L26.417 13.3033L26.397 13.2823L26.377 13.2613L26.244 13.3233C26.0812 13.3994 25.9143 13.4662 25.744 13.5233L25.365 13.6473L24.976 13.7193L24.587 13.7913L23.963 13.8013H23.339L23.139 13.7293C23.0056 13.6875 22.8756 13.6356 22.75 13.5743L22.586 13.4913L22.299 13.2333L22.199 13.0333L22.086 12.8473L22.014 12.5993L21.942 12.3623V11.4623L22.003 11.0703L22.064 10.6703L23.139 10.6183L25.114 10.6283L27.079 10.6383L27.14 10.3903C27.1887 10.1757 27.2264 9.95877 27.253 9.74031L27.304 9.35831V8.69731L27.253 8.44931L27.192 8.21231L27.1 8.04732C27.0437 7.94559 26.9788 7.8489 26.906 7.75832C26.8327 7.68073 26.7541 7.60823 26.671 7.54132C26.599 7.50032 26.471 7.41731 26.364 7.36531L26.19 7.26532L25.883 7.19331L25.566 7.12131L25.187 7.08031L24.808 7.04932L24.45 7.07031L24.092 7.09131L23.672 7.17432L23.242 7.25731L22.976 7.35732C22.8083 7.4317 22.6444 7.51447 22.485 7.60532C22.3458 7.68183 22.2121 7.76804 22.085 7.86331C22.003 7.93531 21.85 8.08031 21.747 8.17331C21.644 8.26631 21.512 8.45231 21.43 8.56531C21.348 8.67831 21.23 8.89532 21.154 9.03032C21.078 9.16532 21 9.36031 20.96 9.46431C20.92 9.56831 20.847 9.76431 20.796 9.90831C20.745 10.0523 20.663 10.3423 20.622 10.5383C20.581 10.7343 20.509 11.0653 20.479 11.2613L20.418 11.6223V12.6853L20.479 12.9223C20.5125 13.0654 20.5535 13.2066 20.602 13.3453C20.6485 13.4692 20.7033 13.5898 20.766 13.7063C20.8342 13.8201 20.9128 13.9272 21.001 14.0263C21.1028 14.1305 21.2121 14.2271 21.328 14.3153C21.4488 14.4051 21.5793 14.4813 21.717 14.5423L21.917 14.6353L22.204 14.7073C22.368 14.7483 22.613 14.7903 22.746 14.8073C22.9561 14.831 23.1675 14.8423 23.379 14.8413ZM24.044 9.80331C23.061 9.80331 22.263 9.79332 22.263 9.78232C22.263 9.77132 22.304 9.64831 22.355 9.51431C22.406 9.38031 22.498 9.15331 22.549 9.02931L22.662 8.82332L22.897 8.58632L23.132 8.34932L23.357 8.23532C23.4794 8.17742 23.6061 8.12894 23.736 8.09032C23.8977 8.05656 24.0619 8.03583 24.227 8.02832L24.585 8.00731L24.851 8.03831L25.127 8.07932L25.321 8.17232L25.521 8.25531L25.621 8.37932C25.6852 8.4439 25.7404 8.5169 25.785 8.59631L25.836 8.68932L25.867 8.89531L25.898 9.10132L25.857 9.45232L25.826 9.80331H24.044Z" fill="#B3131B"/>
<path d="M13.4821 18.0001L13.5021 17.9481C13.5239 17.8959 13.5345 17.8397 13.5331 17.7831C13.5331 17.7211 13.5531 17.5151 13.5841 17.3081C13.6151 17.1011 13.6841 16.6471 13.7481 16.2861C13.8121 15.9251 13.8911 15.3671 13.9321 15.0681C13.9731 14.7691 14.0451 14.3681 14.0651 14.2011C14.0719 14.0923 14.0924 13.9848 14.1261 13.8811C14.1712 13.9347 14.2092 13.9938 14.2391 14.0571L14.3311 14.2221L14.5251 14.4221L14.7191 14.6281L14.9651 14.7211L15.2001 14.8211L15.5001 14.8521L15.7871 14.8931L16.1551 14.8721L16.5131 14.8511L16.9131 14.7511L17.3131 14.6511L17.5281 14.5511C17.6411 14.4991 17.8451 14.3751 17.9891 14.2931L18.2351 14.1281L18.4701 13.8911C18.612 13.7476 18.7455 13.596 18.8701 13.4371C18.9315 13.3592 18.9864 13.2762 19.0341 13.1891C19.0341 13.1791 19.0851 13.1061 19.1341 13.0241C19.1831 12.9421 19.2981 12.7141 19.3901 12.5181C19.4821 12.3221 19.5901 11.9601 19.6771 11.7231L19.8101 11.3001L19.8821 10.9281C19.9231 10.7221 19.9741 10.3811 19.9951 10.1741L20.0361 9.79213L20.0161 9.47214L19.9851 9.15213L19.9131 8.83212L19.8411 8.50214L19.7181 8.26514L19.6051 8.02814L19.3701 7.78014L19.1351 7.53214L18.5931 7.24313L18.2861 7.17113L17.9861 7.09914L17.6791 7.07812L17.3791 7.05713L17.0411 7.08813L16.7031 7.12914L16.4271 7.20113L16.1611 7.27313L15.9151 7.38713C15.7707 7.45445 15.6305 7.53025 15.4951 7.61414C15.3951 7.67614 15.2951 7.75913 15.2601 7.77913C15.2165 7.82202 15.1686 7.86023 15.1171 7.89313L15.0251 7.95512L15.0861 7.63513C15.1161 7.51946 15.1402 7.4023 15.1581 7.28413V7.23213H13.8581L13.7451 7.95512C13.6841 8.35512 13.5811 8.97712 13.5201 9.32812C13.4591 9.67913 13.3771 10.2161 13.3261 10.5151C13.2751 10.8141 13.1931 11.3311 13.1321 11.6711C13.0711 12.0111 12.9781 12.5711 12.9171 12.8891C12.8561 13.2071 12.7741 13.6941 12.7231 13.9421C12.6721 14.1901 12.5901 14.6851 12.5291 15.0261C12.4681 15.3671 12.3751 15.8831 12.3141 16.2031C12.2531 16.5231 12.1601 17.0191 12.0991 17.3031C12.0381 17.5871 11.9861 17.8811 11.9761 17.9221L11.9561 18.0051L13.4821 18.0001ZM15.7131 13.8811L15.5191 13.8501L15.3251 13.8091L15.1311 13.7161L14.9371 13.6331L14.7941 13.4991L14.6611 13.3651L14.5791 13.1891C14.5289 13.0684 14.4877 12.944 14.4561 12.8171L14.4051 12.6171L14.4251 12.3071L14.4451 11.9971L14.5371 11.5121C14.5881 11.2541 14.6801 10.7481 14.7311 10.4121C14.7821 10.0761 14.8851 9.56512 14.9311 9.28712L15.0231 8.78712L15.2231 8.62213C15.3463 8.51544 15.4804 8.42192 15.6231 8.34312L15.8071 8.22913L16.0631 8.15714L16.3091 8.07413L16.9441 8.03313L17.2101 8.09512L17.4661 8.14713L17.6501 8.23013L17.8341 8.32314L17.9881 8.47813L18.1421 8.63313L18.2241 8.79813C18.2856 8.92331 18.3335 9.05472 18.3671 9.19012L18.4281 9.42712L18.4081 10.0981L18.3881 10.7791L18.2961 11.1791C18.2429 11.4338 18.1761 11.6856 18.0961 11.9331L17.9731 12.2841L17.8191 12.5631C17.7371 12.7181 17.6191 12.9351 17.5431 13.0381C17.4682 13.1433 17.3824 13.2402 17.2871 13.3271C17.2064 13.4014 17.1208 13.4702 17.0311 13.5331L16.9081 13.6261L16.3081 13.8321L15.7131 13.8811Z" fill="#B3131B"/>
</svg>
