<svg width="22" height="23" viewBox="0 0 22 23" fill="none" xmlns="http://www.w3.org/2000/svg">
<path d="M4.027 0.13916L18.006 0.14716C19.0668 0.151919 20.0825 0.576574 20.8309 1.32824C21.5794 2.0799 21.9997 3.0974 22 4.15816V18.1392C21.995 19.2002 21.5706 20.2162 20.8194 20.9656C20.0681 21.7149 19.0511 22.1368 17.99 22.1392L4 22.1312C2.93943 22.1246 1.92433 21.6997 1.17532 20.9488C0.426306 20.1979 0.00393208 19.1817 0 18.1212L0.016 4.13916C0.0183838 3.07729 0.441949 2.05975 1.19374 1.30983C1.94553 0.559916 2.96413 0.138893 4.026 0.13916" fill="#292D78"/>
<path d="M16.917 18.2742H16.888C16.6061 18.295 16.3232 18.2526 16.0598 18.1502C15.7964 18.0478 15.5591 17.888 15.3653 17.6823C15.1715 17.4766 15.026 17.2303 14.9395 16.9612C14.8529 16.6922 14.8274 16.4073 14.865 16.1272L14.873 12.2872H16.434V15.9042C16.4209 16.0523 16.4376 16.2016 16.4829 16.3432C16.5282 16.4849 16.6013 16.6161 16.698 16.7292C16.7998 16.82 16.9188 16.8895 17.048 16.9335C17.1772 16.9774 17.3138 16.995 17.45 16.9852C17.6205 16.9903 17.7902 16.9584 17.9473 16.8916C18.1044 16.8248 18.2451 16.7248 18.3597 16.5983C18.4744 16.4719 18.5602 16.3221 18.6114 16.1593C18.6625 15.9964 18.6777 15.8244 18.656 15.6552V12.2872H20.216V18.1172H18.716V17.2992H18.697C18.5187 17.6097 18.2582 17.8651 17.9441 18.0371C17.6301 18.2091 17.2746 18.2911 16.917 18.2742ZM18.011 11.5022H16.888L17.549 10.2472H19.149L18.012 11.5022H18.011Z" fill="#FFF101"/>
<path d="M7.28496 10.2472H5.61996V12.3022H4.75696V13.4132H5.61096V16.9962C5.61096 17.7562 5.86596 18.2742 7.31096 18.2742H7.53096C7.79496 18.2742 8.05996 18.2572 8.31496 18.2492V17.0712C8.20096 17.0792 8.07696 17.0962 7.97196 17.0962C7.29396 17.0962 7.27196 16.9622 7.27196 16.6122L7.28096 13.4122H8.32496V12.3022H7.28496V10.2472Z" fill="#FFF101"/>
<path d="M3.86505 10.2472H2.09005L2.08105 18.2742H3.85605L3.86505 10.2472Z" fill="#FFF101"/>
<path d="M13.965 13.7602C13.965 12.2912 12.496 12.0312 11.682 12.0312C10.508 12.0312 9.28601 12.2912 9.10301 14.1042H10.564C10.5649 13.9867 10.5905 13.8707 10.6393 13.7639C10.688 13.657 10.7588 13.5617 10.847 13.4841C10.9352 13.4065 11.0387 13.3484 11.1509 13.3136C11.2631 13.2788 11.3814 13.2681 11.498 13.2822C11.889 13.2822 12.498 13.3152 12.498 13.9702C12.498 14.3062 12.198 14.4062 11.963 14.4402L10.606 14.6502C10.1314 14.6793 9.68759 14.895 9.37151 15.2503C9.05543 15.6055 8.89275 16.0714 8.91901 16.5462C8.90599 16.7783 8.94249 17.0106 9.02607 17.2275C9.10965 17.4445 9.23841 17.6412 9.40381 17.8046C9.5692 17.968 9.76745 18.0944 9.98541 18.1753C10.2034 18.2563 10.436 18.29 10.668 18.2742C11.0231 18.2848 11.3758 18.2131 11.6985 18.0645C12.0212 17.916 12.3051 17.6948 12.528 17.4182C12.5445 17.6569 12.593 17.8923 12.672 18.1182L13.972 18.1102C13.972 17.4552 13.964 16.9772 13.964 16.9692V13.7602" fill="#FFF101"/>
<path d="M12.487 15.8891V15.3011C12.2135 15.4531 11.9077 15.5374 11.595 15.5471C11.103 15.6241 10.703 15.7401 10.703 16.2381C10.7041 16.315 10.721 16.3909 10.7527 16.4609C10.7844 16.5309 10.8303 16.5937 10.8873 16.6452C10.9444 16.6967 11.0115 16.7359 11.0844 16.7603C11.1573 16.7848 11.2344 16.7939 11.311 16.7871C11.892 16.7871 12.486 16.4441 12.486 15.8871" fill="#292D78"/>
</svg>
