<svg width="25" height="23" viewBox="0 0 25 23" fill="none" xmlns="http://www.w3.org/2000/svg">
<path d="M12.6139 7.66304L16.6479 7.67004C17.0858 7.59063 17.5367 7.62316 17.9587 7.76459C18.3808 7.90602 18.7602 8.15177 19.0619 8.47904C20.6409 10.132 19.5069 12.605 16.7099 11.989C17.3139 14.746 14.3239 15.763 13.0649 13.863C12.6809 13.1573 12.5234 12.3504 12.6139 11.552V7.66304Z" fill="#0270B7"/>
<path d="M12.0799 7.66303L8.04589 7.67003C7.60779 7.59064 7.15674 7.62316 6.73456 7.76459C6.31239 7.90601 5.93276 8.15176 5.63089 8.47903C4.05289 10.132 5.18689 12.606 7.98289 11.99C7.38189 14.746 10.3699 15.763 11.6289 13.863C12.0122 13.1574 12.169 12.3509 12.0779 11.553L12.0799 7.66303Z" fill="#E5782B"/>
<path d="M12.0799 7.17303L8.04489 7.16503C7.60695 7.24416 7.15612 7.2115 6.73415 7.07009C6.31218 6.92867 5.93272 6.68308 5.63089 6.35603C4.05189 4.70003 5.18789 2.23003 7.98289 2.84603C7.38189 0.0890329 10.3699 -0.925967 11.6289 0.974033C12.0122 1.67966 12.169 2.48619 12.0779 3.28403V7.17303" fill="#0270B7"/>
<path d="M12.614 7.17303L16.648 7.16603C17.0861 7.24543 17.5371 7.21291 17.9593 7.07148C18.3815 6.93006 18.7611 6.68431 19.063 6.35703C20.641 4.70003 19.507 2.23003 16.714 2.84603C17.314 0.0890329 14.324 -0.925967 13.066 0.974033C12.6813 1.67924 12.5235 2.48587 12.614 3.28403V7.17303Z" fill="#E5782B"/>
<path d="M23.275 22.0002C23.0241 21.9984 22.7754 21.953 22.54 21.8662C22.2601 21.7655 21.9935 21.6311 21.746 21.4662L22.324 20.5242C22.4634 20.6624 22.6208 20.7811 22.792 20.8772C22.9163 20.9537 23.0582 20.997 23.204 21.0032C23.2486 21.0048 23.2925 20.9918 23.329 20.9662C23.3449 20.955 23.3577 20.9399 23.3663 20.9224C23.3748 20.905 23.3789 20.8856 23.378 20.8662C23.378 20.8062 23.304 20.7382 23.157 20.6662H23.149H23.143H23.135L22.888 20.5392C22.7186 20.4583 22.5711 20.338 22.458 20.1882C22.3624 20.0523 22.3133 19.8892 22.318 19.7232C22.3154 19.567 22.3494 19.4124 22.4173 19.2717C22.4852 19.1311 22.5851 19.0083 22.709 18.9132C22.9972 18.6937 23.3531 18.582 23.715 18.5972C23.9309 18.5991 24.1455 18.6304 24.353 18.6902C24.5792 18.757 24.7964 18.8511 25 18.9702L24.479 19.8302C24.3838 19.7391 24.2773 19.6608 24.162 19.5972C24.0765 19.5471 23.98 19.5189 23.881 19.5152C23.8343 19.5129 23.7883 19.5271 23.751 19.5552C23.7353 19.5667 23.7225 19.5818 23.7136 19.5991C23.7048 19.6165 23.7001 19.6357 23.7 19.6552C23.7 19.7042 23.763 19.7552 23.886 19.8122L23.915 19.8262L23.955 19.8442L23.968 19.8502L24.168 19.9382C24.3443 20.0078 24.4977 20.1252 24.611 20.2772C24.7096 20.4289 24.7591 20.6073 24.753 20.7882C24.7584 20.9557 24.7251 21.1223 24.6558 21.2749C24.5864 21.4275 24.4828 21.5621 24.353 21.6682C24.0444 21.9031 23.6623 22.0208 23.275 22.0002ZM11.143 22.0002C10.7142 22.0164 10.2957 21.8663 9.975 21.5812C9.82654 21.4455 9.70905 21.2794 9.63054 21.0943C9.55202 20.9091 9.51432 20.7092 9.52 20.5082C9.51811 20.259 9.56429 20.0118 9.656 19.7802C9.74312 19.5558 9.87516 19.3517 10.044 19.1802C10.2321 18.9906 10.4562 18.8403 10.703 18.7382C10.9543 18.6366 11.2229 18.5847 11.494 18.5852C11.9209 18.5672 12.3391 18.7099 12.666 18.9852C12.8134 19.1115 12.9309 19.269 13.0101 19.4463C13.0893 19.6235 13.1282 19.8161 13.124 20.0102C13.124 20.0812 13.124 20.1512 13.118 20.2392C13.112 20.3272 13.104 20.4242 13.1 20.4652H10.932C10.9226 20.5975 10.9578 20.7292 11.032 20.8392C11.0662 20.8829 11.1104 20.9177 11.1609 20.9409C11.2113 20.964 11.2666 20.9747 11.322 20.9722C11.405 20.9736 11.4867 20.9517 11.558 20.9092C11.6439 20.849 11.719 20.7746 11.78 20.6892L12.939 20.9292C12.7707 21.2586 12.515 21.5353 12.2 21.7292C11.8791 21.9137 11.5141 22.0074 11.144 22.0002H11.143ZM11.488 19.5002C11.3835 19.4958 11.2807 19.5276 11.197 19.5902C11.1104 19.6654 11.0466 19.7635 11.013 19.8732H11.8V19.8282C11.8045 19.7406 11.7743 19.6547 11.716 19.5892C11.6864 19.5595 11.6509 19.5363 11.6118 19.5211C11.5727 19.506 11.5309 19.4992 11.489 19.5012L11.488 19.5002ZM4.952 22.0002C4.52103 22.0156 4.10054 21.8653 3.777 21.5802C3.53984 21.3695 3.38354 21.0827 3.335 20.7692L3.39 20.4912H3.316C3.31749 20.2491 3.36395 20.0093 3.453 19.7842C3.54435 19.5592 3.68043 19.355 3.853 19.1842C4.04151 18.9953 4.26591 18.846 4.513 18.7452C4.76301 18.6438 5.03021 18.5915 5.3 18.5912C5.74178 18.5694 6.17501 18.7183 6.51 19.0072C6.66042 19.1491 6.77862 19.3216 6.8566 19.5131C6.93458 19.7046 6.97052 19.9106 6.962 20.1172C6.9621 20.3315 6.92418 20.5441 6.85 20.7452C6.77443 20.9479 6.66374 21.1358 6.523 21.3002C6.33467 21.5238 6.09761 21.7014 5.83 21.8192C5.55364 21.9405 5.25481 22.0022 4.953 22.0002H4.952ZM5.2 19.8632C5.13941 19.8626 5.07948 19.8758 5.02473 19.9018C4.96999 19.9278 4.92187 19.9659 4.884 20.0132C4.79691 20.1161 4.75064 20.2474 4.754 20.3822C4.75189 20.4289 4.75901 20.4755 4.77497 20.5195C4.79093 20.5634 4.81541 20.6037 4.847 20.6382C4.87937 20.6711 4.9182 20.697 4.96105 20.7142C5.0039 20.7314 5.04985 20.7396 5.096 20.7382C5.15743 20.7396 5.21839 20.7271 5.27432 20.7016C5.33025 20.6762 5.37971 20.6384 5.419 20.5912C5.50528 20.4858 5.54977 20.3523 5.544 20.2162C5.54674 20.1692 5.54001 20.1222 5.52421 20.0778C5.5084 20.0335 5.48385 19.9928 5.452 19.9582C5.41868 19.926 5.37914 19.901 5.33581 19.8847C5.29247 19.8683 5.24626 19.861 5.2 19.8632ZM19.172 21.9912C19.0073 21.9938 18.8441 21.9592 18.6947 21.89C18.5453 21.8207 18.4134 21.7186 18.309 21.5912C18.0749 21.3034 17.9543 20.9398 17.97 20.5692C17.9711 20.3271 18.0109 20.0867 18.088 19.8572C18.1645 19.6284 18.2784 19.4138 18.425 19.2222C18.5704 19.025 18.7558 18.8608 18.969 18.7402C19.1678 18.6339 19.3896 18.578 19.615 18.5772C19.8038 18.5727 19.99 18.6208 20.153 18.7162C20.3158 18.8223 20.4493 18.9678 20.541 19.1392L20.6 18.6912H22.1L21.494 21.8842H20.044L20.161 21.4552C20.0422 21.6213 19.8899 21.7606 19.714 21.8642C19.5478 21.9538 19.3607 21.9976 19.172 21.9912ZM19.937 19.8782C19.8782 19.8771 19.82 19.8895 19.7667 19.9145C19.7135 19.9394 19.6667 19.9763 19.63 20.0222C19.5469 20.1267 19.5043 20.2577 19.51 20.3912C19.5035 20.4875 19.5347 20.5825 19.597 20.6562C19.6291 20.6887 19.668 20.7139 19.7108 20.7299C19.7536 20.746 19.7994 20.7525 19.845 20.7492C19.9063 20.7513 19.9674 20.7402 20.024 20.7165C20.0806 20.6929 20.1314 20.6573 20.173 20.6122C20.2588 20.5147 20.3039 20.388 20.299 20.2582C20.3016 20.2077 20.2941 20.1572 20.2769 20.1096C20.2598 20.062 20.2333 20.0184 20.199 19.9812C20.1646 19.9473 20.1235 19.921 20.0785 19.9038C20.0334 19.8866 19.9852 19.8789 19.937 19.8812V19.8782ZM17.374 21.8782H15.837L16.437 18.6852H17.979L17.379 21.8782H17.374ZM14.548 21.8782H13.007L13.617 18.6852H15.025L14.915 19.1202C15.0104 18.9577 15.1435 18.8205 15.303 18.7202C15.4545 18.6312 15.6273 18.5852 15.803 18.5872C15.8566 18.5881 15.91 18.5925 15.963 18.6002C16.03 18.6102 16.101 18.6222 16.179 18.6372L15.934 19.9372C15.8383 19.9045 15.7408 19.8775 15.642 19.8562C15.5653 19.8384 15.4868 19.8294 15.408 19.8292C15.3358 19.8236 15.2631 19.8327 15.1944 19.8557C15.1257 19.8787 15.0623 19.9152 15.008 19.9632C14.8965 20.1056 14.8273 20.2764 14.808 20.4562L14.543 21.8792L14.548 21.8782ZM8.688 21.8782H7.154L7.537 19.8342H7.129L7.35 18.6912H7.757L7.925 17.7912H9.463L9.3 18.6912H9.773L9.548 19.8352H9.075L8.689 21.8792L8.688 21.8782ZM3.124 21.8782H0L0.853 17.3582H2.561L1.968 20.4912H3.316C3.316 20.5005 3.316 20.5095 3.316 20.5182C3.31596 20.6036 3.32265 20.6888 3.336 20.7732L3.125 21.8832L3.124 21.8782ZM17.3 18.5222C17.0883 18.5283 16.8821 18.4539 16.723 18.3142C16.6486 18.2511 16.5889 18.1725 16.5481 18.0838C16.5074 17.9952 16.4865 17.8987 16.487 17.8012C16.4873 17.6917 16.5122 17.5836 16.5598 17.485C16.6074 17.3863 16.6765 17.2996 16.762 17.2312C16.9433 17.0725 17.1771 16.9869 17.418 16.9912C17.6308 16.9842 17.8385 17.0574 18 17.1962C18.074 17.2598 18.133 17.3389 18.1729 17.4279C18.2129 17.5169 18.2327 17.6136 18.231 17.7112C18.2302 17.8208 18.2052 17.9288 18.1576 18.0276C18.1101 18.1263 18.0412 18.2133 17.956 18.2822C17.7748 18.441 17.5409 18.5265 17.3 18.5222Z" fill="#0270B7"/>
</svg>
