<svg width="71" height="23" viewBox="0 0 71 23" fill="none" xmlns="http://www.w3.org/2000/svg">
<path d="M6.485 17.1392C4.89596 17.1757 3.3211 16.8329 1.891 16.1392C1.38329 15.9467 0.938307 15.6183 0.604772 15.1899C0.271238 14.7615 0.0620117 14.2496 0 13.7102C0 12.4032 1.448 11.1882 3.6 10.6852C3.58851 11.2187 3.73159 11.7441 4.012 12.1982L6.07 15.6262C6.17746 15.8578 6.27031 16.0959 6.348 16.3392V16.3482V16.3572V16.3662L6.353 16.3812V16.3892L6.358 16.4042V16.4202V16.4342L6.458 16.2342C6.66037 15.8088 6.76538 15.3437 6.76538 14.8727C6.76538 14.4016 6.66037 13.9365 6.458 13.5112L4.838 10.7852C4.58648 10.3758 4.45333 9.90466 4.45333 9.42416C4.45333 8.94366 4.58648 8.47257 4.838 8.06316L4.938 7.86316C4.94662 8.18984 5.05439 8.50616 5.247 8.77016L6.174 10.2832L7.618 12.8032C7.81354 13.0656 7.92163 13.3829 7.927 13.7102L8.027 13.5102C8.27739 13.1 8.40987 12.6287 8.40987 12.1482C8.40987 11.6676 8.27739 11.1963 8.027 10.7862L6.485 8.06416C6.23289 7.65441 6.09941 7.18275 6.09941 6.70166C6.09941 6.22057 6.23289 5.74891 6.485 5.33916V5.13916V5.14716C6.57041 5.41988 6.6726 5.68706 6.791 5.94716L8.852 9.37416C9.04982 9.7898 9.18849 10.2311 9.264 10.6852C11.419 11.1852 12.864 12.4042 12.864 13.7102C12.8027 14.2475 12.5956 14.7579 12.2652 15.1861C11.9347 15.6142 11.4934 15.9438 10.989 16.1392C9.58994 16.8299 8.04491 17.1729 6.485 17.1392ZM63.1 16.9392C60.909 16.9392 59.7 15.7932 59.7 13.7122C59.7 11.6912 60.816 10.4852 62.684 10.4852C63.074 10.4587 63.4652 10.5159 63.8313 10.6528C64.1974 10.7897 64.5301 11.0033 64.807 11.2792C65.2602 11.817 65.4943 12.5056 65.463 13.2082C65.46 13.3974 65.4413 13.586 65.407 13.7722V13.7842C65.3798 13.9263 65.3641 14.0705 65.36 14.2152H61.148C61.248 15.3152 61.869 15.8292 63.104 15.8292C63.8504 15.8076 64.585 15.6376 65.265 15.3292L65.26 15.3492C65.1446 15.7361 65.0774 16.1358 65.06 16.5392C64.4444 16.816 63.7749 16.9526 63.1 16.9392ZM62.582 11.5952C61.662 11.5952 61.143 12.1042 61.039 13.1072H64.128C64.1346 12.9055 64.1003 12.7046 64.027 12.5165C63.9538 12.3285 63.8433 12.1573 63.702 12.0132C63.5527 11.8732 63.3773 11.7641 63.1858 11.692C62.9943 11.6199 62.7905 11.5864 62.586 11.5932L62.582 11.5952ZM55.582 16.9392C54.018 16.9392 53.007 15.7122 53.007 13.8132C52.9529 13.3661 53.0005 12.9125 53.1464 12.4865C53.2923 12.0604 53.5326 11.6728 53.8494 11.3528C54.1662 11.0327 54.5513 10.7884 54.9758 10.6382C55.4004 10.4879 55.8534 10.4356 56.301 10.4852C56.5018 10.4866 56.7022 10.5047 56.9 10.5392H56.91H56.919H56.925C57.0615 10.5628 57.1995 10.5765 57.338 10.5802V8.66816C57.7635 8.50395 58.22 8.43566 58.675 8.46816V16.7392H57.441L57.341 16.0332C57.1613 16.3314 56.9024 16.574 56.5931 16.7339C56.2838 16.8938 55.9362 16.9649 55.589 16.9392H55.582ZM56.301 11.5952C55.001 11.5952 54.344 12.3412 54.344 13.8132C54.344 15.1132 54.929 15.8292 55.991 15.8292C56.4624 15.8053 56.921 15.6681 57.328 15.4292V11.6942C57.1558 11.6887 56.9841 11.672 56.814 11.6442C56.6466 11.6163 56.4776 11.5993 56.308 11.5932L56.301 11.5952ZM42.1 16.9392C40.45 16.9392 39.425 15.7392 39.425 13.8132C39.425 11.6362 40.6 10.4852 42.825 10.4852C43.5986 10.4597 44.369 10.5959 45.087 10.8852V16.7392H43.853L43.753 16.0332C43.5864 16.3207 43.3443 16.5571 43.0529 16.7168C42.7615 16.8765 42.432 16.9534 42.1 16.9392ZM42.823 11.5952C41.495 11.5952 40.763 12.3832 40.763 13.8132C40.763 15.1132 41.348 15.8292 42.41 15.8292C42.8896 15.864 43.3653 15.7217 43.747 15.4292V11.6942C43.5909 11.6899 43.4354 11.6732 43.282 11.6442C43.1313 11.6151 42.9784 11.598 42.825 11.5932L42.823 11.5952ZM37.676 16.9392C37.4005 16.9768 37.12 16.9509 36.856 16.8636C36.592 16.7763 36.3514 16.6298 36.1527 16.4353C35.9539 16.2408 35.8023 16.0034 35.7092 15.7414C35.6162 15.4793 35.5843 15.1994 35.616 14.9232V8.66816L35.639 8.66316C36.0336 8.54711 36.441 8.47994 36.852 8.46316V10.6852H39.014C39.0092 10.8955 38.9902 11.1054 38.957 11.3132C38.932 11.4724 38.917 11.633 38.912 11.7942H36.852V14.7192C36.852 15.4552 37.198 15.8282 37.881 15.8282C38.2668 15.8212 38.6491 15.7537 39.014 15.6282C38.9646 15.8011 38.9311 15.9781 38.914 16.1572V16.1722V16.1912V16.2152C38.8927 16.3915 38.8613 16.5664 38.82 16.7392C38.4518 16.8667 38.0656 16.9342 37.676 16.9392ZM24.4 16.9392C22.8 16.9392 21.723 15.6832 21.723 13.8132C21.723 11.6362 22.898 10.4852 25.123 10.4852C25.8989 10.4398 26.6746 10.5768 27.388 10.8852V16.7392H26.147V16.0332C25.9484 16.3117 25.6864 16.5392 25.3827 16.6967C25.0789 16.8542 24.7421 16.9373 24.4 16.9392ZM25.12 11.5952C24.8325 11.5829 24.5458 11.6332 24.2796 11.7426C24.0135 11.852 23.7742 12.0179 23.5785 12.2288C23.3827 12.4397 23.235 12.6906 23.1457 12.9641C23.0563 13.2377 23.0274 13.5274 23.061 13.8132C23.061 15.1322 23.666 15.8292 24.811 15.8292C25.0334 15.8501 25.2577 15.8254 25.4702 15.7566C25.6828 15.6878 25.879 15.5764 26.047 15.4292V11.6942C25.9759 11.6919 25.9051 11.6849 25.835 11.6732H25.824H25.814H25.797H25.776H25.758H25.738C25.5337 11.6286 25.3259 11.6019 25.117 11.5932L25.12 11.5952ZM17.808 16.9392C16.9651 16.9927 16.1209 16.856 15.338 16.5392C15.3369 16.1851 15.3916 15.8332 15.5 15.4962L15.514 15.4422L15.544 15.3282C16.2664 15.6041 17.0348 15.7399 17.808 15.7282C18.986 15.7282 19.558 15.3982 19.558 14.7192C19.558 14.0142 19.058 13.7192 17.911 13.2072L17.294 13.0072C16.181 12.5072 15.44 11.9072 15.44 10.5872C15.44 9.17716 16.491 8.36916 18.323 8.36916C19.055 8.35382 19.7848 8.45509 20.485 8.66916C20.4832 9.08098 20.4139 9.48973 20.28 9.87916C19.6445 9.68997 18.986 9.58902 18.323 9.57916C17.342 9.57916 16.779 9.94716 16.779 10.5882C16.779 11.1882 17.191 11.5972 18.116 11.8982L18.734 12.1982C20.269 12.7982 20.896 13.4982 20.896 14.6182C20.9 16.0922 19.771 16.9392 17.808 16.9392ZM47.865 16.7392H46.528V10.8872C47.3348 10.6626 48.1637 10.5272 49 10.4832C50.967 10.4832 51.884 11.2202 51.884 12.8032V16.7392H50.544V13.0052C50.544 12.1342 50.269 11.5932 48.898 11.5932C48.7571 11.5962 48.6167 11.6102 48.478 11.6352H48.464H48.457C48.2618 11.6692 48.0642 11.6879 47.866 11.6912V16.7392H47.865ZM30.165 16.7392H28.823V10.8872H28.84C29.6437 10.6789 30.4648 10.545 31.293 10.4872C32.1238 10.4113 32.9544 10.6348 33.635 11.1172C33.8612 11.3331 34.0362 11.5967 34.1475 11.889C34.2587 12.1812 34.3033 12.4945 34.278 12.8062V16.7392H32.941V13.0052C32.941 12.1342 32.665 11.5932 31.294 11.5932C31.1453 11.597 30.9971 11.61 30.85 11.6322H30.843H30.832H30.818H30.807C30.5931 11.6648 30.3773 11.6835 30.161 11.6882V16.7392H30.165ZM67.943 16.7392H66.6V10.8872C67.33 10.6386 68.094 10.5037 68.865 10.4872C69.2452 10.4657 69.6265 10.4993 69.997 10.5872V10.5962C70.0178 10.966 69.9824 11.3369 69.892 11.6962C69.5568 11.6085 69.2098 11.5748 68.864 11.5962C68.7079 11.6004 68.5524 11.6171 68.399 11.6462C68.2462 11.6751 68.0914 11.6918 67.936 11.6962V16.7392H67.943Z" fill="#D82C2D"/>
</svg>
