<svg width="47" height="22" viewBox="0 0 47 22" fill="none" xmlns="http://www.w3.org/2000/svg">
<path d="M16.252 17.8403L18.5809 4.27031H22.3049L19.976 17.8403H16.252Z" fill="#0E4595"/>
<path d="M33.4151 4.56831C32.3461 4.18334 31.2172 3.99103 30.0811 4.00032C26.4061 4.00032 23.8111 5.84433 23.7911 8.47733C23.7701 10.4253 25.6391 11.5133 27.0551 12.1643C28.5061 12.8293 28.9941 13.2523 28.9871 13.8483C28.9801 14.7563 27.8291 15.1723 26.7621 15.1723C25.556 15.2072 24.3581 14.9628 23.2621 14.4583L22.7811 14.2433L22.2581 17.2793C23.584 17.7671 24.9872 18.0114 26.4001 18.0003C30.3121 18.0003 32.8511 16.1843 32.8791 13.3633C32.8931 11.8173 31.9031 10.6463 29.7551 9.67632C28.4551 9.04532 27.6551 8.62933 27.6631 7.99233C27.6631 7.43133 28.3391 6.82832 29.7971 6.82832C30.7509 6.80493 31.699 6.98209 32.58 7.34833L32.9151 7.50732L33.4151 4.56831Z" fill="#0E4595"/>
<path d="M42.99 4.27732H40.1169C39.7143 4.22501 39.3057 4.30663 38.954 4.50957C38.6023 4.71252 38.3271 5.02552 38.171 5.40032L32.6479 17.8333H36.553C36.553 17.8333 37.195 16.1633 37.334 15.7953L42.097 15.8023C42.209 16.2803 42.55 17.8333 42.55 17.8333H46.002L42.99 4.27732ZM38.429 13.0373L39.9139 9.24631C39.8929 9.28131 40.2209 8.46333 40.4139 7.94633L40.665 9.11732C40.665 9.11732 41.376 12.3543 41.53 13.0333H38.4299L38.429 13.0373Z" fill="#0E4595"/>
<path d="M13.093 4.27731L9.45296 13.5293L9.06196 11.6513C8.11748 9.17592 6.27814 7.14531 3.90796 5.96132L7.24196 17.8263L11.182 17.8193L17.04 4.27631H13.093" fill="#0E4595"/>
<path d="M6.049 4.27732H0.0489998L0 4.56131C4.666 5.68431 7.755 8.40132 9.038 11.6613L7.738 5.42331C7.64203 5.06105 7.41829 4.74571 7.10806 4.53546C6.79783 4.32521 6.42204 4.23424 6.05 4.27931" fill="#F2AE14"/>
</svg>
